<?xml version="1.0" encoding="utf-8"?>
<!-- Generator: Adobe Illustrator 15.1.0, SVG Export Plug-In . SVG Version: 6.00 Build 0)  -->
<!DOCTYPE svg PUBLIC "-//W3C//DTD SVG 1.1//EN" "http://www.w3.org/Graphics/SVG/1.1/DTD/svg11.dtd">
<svg version="1.1" id="Calque_1" xmlns="http://www.w3.org/2000/svg" xmlns:xlink="http://www.w3.org/1999/xlink" x="0px" y="0px"
	 width="450.15px" height="128.538px" viewBox="0 0 450.15 128.538" enable-background="new 0 0 450.15 128.538"
	 xml:space="preserve">
<g>
	<path fill="#342E25" d="M423.334,75.162h7.143V60.875l11.162,14.287h6.288V49.117h-7.143v13.768l-10.718-13.768h-6.732V75.162
		L423.334,75.162z M403.614,64.855l2.938-7.367l2.902,7.367H403.614z M392.08,75.162h7.553l1.861-4.688h10.083l1.858,4.688h7.738
		L410.088,48.93h-6.957L392.08,75.162z M374.154,61.619v-6.287h4.763c2.381,0,3.907,1.041,3.907,3.125v0.074
		c0,1.896-1.452,3.088-3.87,3.088H374.154z M366.936,75.162h7.221v-7.889h3.197l5.246,7.889h8.297l-6.213-9.078
		c3.237-1.377,5.358-4.02,5.358-8.037v-0.072c0-2.566-0.782-4.54-2.31-6.062c-1.748-1.75-4.502-2.791-8.48-2.791h-12.316V75.162
		L366.936,75.162z M352.779,75.682c5.729,0,9.041-2.493,11.494-5.88l-5.432-3.868c-1.562,1.897-3.162,3.162-5.878,3.162
		c-3.647,0-6.214-3.052-6.214-6.957v-0.075c0-3.795,2.564-6.92,6.214-6.92c2.493,0,4.204,1.229,5.692,3.051l5.432-4.205
		c-2.306-3.16-5.729-5.394-11.05-5.394c-7.89,0-13.692,5.952-13.692,13.543v0.073C339.348,69.99,345.338,75.682,352.779,75.682
		 M315.8,75.162h21.134v-6.14h-13.99v-4.13h12.504v-5.691h-12.504v-3.982h13.806v-6.102h-20.947L315.8,75.162L315.8,75.162z
		 M323.576,47.332h5.246l5.507-3.98l-6.733-2.046L323.576,47.332z M304.079,62.585c4.649-0.149,7.629-2.047,7.629-7.553v-5.916
		h-7.33v7.256h2.865c0.071,2.008-1.229,3.196-3.723,3.496L304.079,62.585z M285.09,75.162h19.831v-6.324h-12.612V49.117h-7.219
		V75.162z M261.241,46.958l-4.058-6.027l-6.733,2.046l5.508,3.981H261.241z M255.438,64.855l2.938-7.367l2.901,7.367H255.438z
		 M243.903,75.162h7.555l1.859-4.688h10.082l1.86,4.688h7.739L261.911,48.93h-6.959L243.903,75.162z M211.534,75.162h21.133v-6.14
		h-13.99v-4.13h12.503v-5.691h-12.503v-3.982h13.805v-6.102h-20.947L211.534,75.162L211.534,75.162z M189.381,75.162h19.831v-6.324
		h-12.613V49.117h-7.218V75.162z M178.751,66.901v0.075c0,1.525-1.227,2.381-3.46,2.381h-5.581v-4.8h5.507
		C177.635,64.557,178.751,65.487,178.751,66.901 M177.71,57.227c0,1.526-1.265,2.271-3.461,2.271h-4.539v-4.576h4.726
		c2.12,0,3.274,0.781,3.274,2.231V57.227z M162.678,75.162h13.432c6.213,0,9.86-2.717,9.86-7.182v-0.074
		c0-3.533-2.01-5.32-5.172-6.361c2.307-1.004,4.018-2.791,4.018-5.805v-0.074c0-1.785-0.632-3.162-1.674-4.242
		c-1.526-1.486-3.832-2.307-7.107-2.307h-13.357V75.162L162.678,75.162z M150.795,75.162h7.218V49.117h-7.218V75.162z
		 M121.439,75.162h7.144V60.875l11.162,14.287h6.288V49.117h-7.144v13.768l-10.716-13.768h-6.734V75.162z M104.049,69.171
		c-3.981,0-6.697-3.274-6.697-7.032v-0.075c0-3.758,2.641-6.957,6.623-6.957c3.981,0,6.66,3.236,6.66,7.032v0.073
		C110.635,65.971,107.993,69.171,104.049,69.171 M103.975,75.682c8.036,0,14.064-6.063,14.064-13.543v-0.075
		c0-7.479-5.953-13.468-13.99-13.468S89.985,54.66,89.985,62.139v0.073C89.985,69.692,95.938,75.682,103.975,75.682 M73.436,62.064
		v-6.883h3.423c2.567,0,4.167,1.152,4.167,3.386v0.074c0,2.047-1.6,3.423-4.13,3.423H73.436z M66.218,75.162h7.218V67.72h3.609
		c6.437,0,11.162-3.237,11.162-9.414v-0.074c0-5.729-4.242-9.115-10.79-9.115H66.218V75.162z M52.333,75.607
		c6.325,0,10.529-3.162,10.529-8.482V67.05c0-4.875-3.721-6.809-9.674-8.111c-3.646-0.818-4.539-1.34-4.539-2.529v-0.074
		c0-0.967,0.856-1.674,2.605-1.674c2.306,0,4.911,0.854,7.292,2.565l3.609-5.097c-2.828-2.271-6.288-3.461-10.715-3.461
		c-6.251,0-10.083,3.498-10.083,8.334v0.076c0,5.317,4.278,6.883,9.822,8.146c3.572,0.854,4.428,1.414,4.428,2.528v0.074
		c0,1.115-1.042,1.787-3.014,1.787c-3.014,0-5.841-1.08-8.446-3.125l-4.018,4.799C43.366,74.156,47.719,75.607,52.333,75.607
		 M30.314,75.162h7.218V49.117h-7.218V75.162z M12.157,55.479c4.354,0,7.218,2.455,7.218,6.622v0.074
		c0,4.205-2.864,6.586-7.218,6.586H9.218V55.479H12.157z M2,75.162h9.934c9.339,0,14.808-5.58,14.808-13.098V61.99
		c0-7.516-5.395-12.873-14.659-12.873H2V75.162z"/>
	<path fill="#342E25" d="M409.608,35.997h21.135v-6.139h-13.99v-4.131h12.502v-5.692h-12.502v-3.981h13.805V9.952h-20.946
		L409.608,35.997L409.608,35.997z M387.455,35.997h19.831v-6.325h-12.612V9.952h-7.219V35.997z M367.836,25.69l2.938-7.366
		l2.901,7.366H367.836z M356.303,35.997h7.553l1.861-4.688h10.082l1.86,4.688h7.737L374.311,9.765h-6.957L356.303,35.997z
		 M329.633,35.997h7.145V21.709l11.162,14.287h6.288V9.952h-7.144v13.767L336.367,9.952h-6.734V35.997z M317.75,35.997h7.217V9.952
		h-7.217V35.997z M302.164,36.517c4.762,0,8.557-1.749,11.312-4.056V20.78h-11.943v5.282h5.099v3.162
		c-1.041,0.707-2.381,1.079-4.168,1.079c-4.129,0-7.067-3.013-7.067-7.255v-0.074c0-3.98,2.901-7.106,6.659-7.106
		c2.604,0,4.428,0.893,6.287,2.456l4.242-5.136c-2.754-2.381-5.99-3.758-10.566-3.758c-8.036,0-13.989,5.954-13.989,13.544v0.074
		C288.026,30.936,294.053,36.517,302.164,36.517 M277.332,35.997h7.219V9.952h-7.219V35.997z M257.752,22.454v-6.288h4.762
		c2.382,0,3.906,1.042,3.906,3.125v0.075c0,1.896-1.451,3.088-3.869,3.088H257.752z M250.532,35.997h7.22v-7.888h3.198l5.246,7.888
		h8.297l-6.213-9.078c3.235-1.377,5.356-4.019,5.356-8.037v-0.074c0-2.567-0.78-4.54-2.308-6.064
		c-1.75-1.749-4.502-2.791-8.482-2.791h-12.314V35.997L250.532,35.997z M233.143,30.006c-3.979,0-6.696-3.273-6.696-7.032V22.9
		c0-3.759,2.644-6.957,6.623-6.957s6.66,3.236,6.66,7.031v0.074C239.729,26.806,237.086,30.006,233.143,30.006 M233.069,36.517
		c8.037,0,14.063-6.064,14.063-13.543V22.9c0-7.479-5.953-13.47-13.99-13.47c-8.036,0-14.064,6.065-14.064,13.544v0.074
		C219.079,30.528,225.031,36.517,233.069,36.517 M181.167,35.997h7.143V21.709l11.162,14.287h6.288V9.952h-7.144v13.767
		L187.901,9.952h-6.734V35.997z M163.777,30.006c-3.982,0-6.698-3.273-6.698-7.032V22.9c0-3.759,2.642-6.957,6.623-6.957
		s6.66,3.236,6.66,7.031v0.074C170.362,26.806,167.719,30.006,163.777,30.006 M163.701,36.517c8.037,0,14.064-6.064,14.064-13.543
		V22.9c0-7.479-5.953-13.47-13.989-13.47c-8.037,0-14.065,6.065-14.065,13.544v0.074C149.712,30.528,155.665,36.517,163.701,36.517
		 M139.019,35.997h7.218V9.952h-7.218V35.997z M121.559,35.997h7.218V16.278h7.813V9.952h-22.807v6.326h7.776V35.997z
		 M104.195,35.997h7.218V9.952h-7.218V35.997z M86.038,16.314c4.353,0,7.218,2.455,7.218,6.622v0.075
		c0,4.204-2.865,6.585-7.218,6.585h-2.939V16.314H86.038z M75.881,35.997h9.934c9.339,0,14.808-5.581,14.808-13.097v-0.074
		c0-7.517-5.395-12.874-14.659-12.874H75.881V35.997z M50.789,35.997h21.133v-6.139h-13.99v-4.131h12.502v-5.692H57.932v-3.981
		h13.804V9.952H50.789V35.997z M58.565,8.166h5.246l5.507-3.981l-6.735-2.047L58.565,8.166z M39.069,23.42
		c4.651-0.149,7.627-2.046,7.627-7.553V9.952h-7.33v7.256h2.865c0.075,2.009-1.227,3.199-3.72,3.497L39.069,23.42z M20.079,35.997
		H39.91v-6.325H27.297V9.952h-7.218V35.997z"/>
</g>
<g>
	<g>
		<path fill="#B82531" d="M55.988,85.224h3.472v9.486h6.067v3.043h-9.54V85.224z"/>
		<path fill="#B82531" d="M71.757,85.135h3.347l5.334,12.618h-3.723l-0.895-2.255h-4.85l-0.895,2.255h-3.633L71.757,85.135z
			 M74.8,92.795l-1.396-3.544l-1.414,3.544H74.8z"/>
		<path fill="#B82531" d="M89.675,88.267h-3.741v-3.043h10.972v3.043h-3.759v9.486h-3.472V88.267z"/>
		<path fill="#B82531" d="M98.338,85.224h5.924c1.915,0,3.24,0.501,4.081,1.343c0.733,0.733,1.109,1.683,1.109,2.917v0.036
			c0,1.934-1.02,3.204-2.577,3.866l2.989,4.367h-3.991l-2.524-3.795h-1.539v3.795h-3.472V85.224z M104.12,91.239
			c1.163,0,1.861-0.573,1.861-1.486v-0.035c0-1.003-0.734-1.504-1.879-1.504h-2.291v3.025H104.12z"/>
		<path fill="#B82531" d="M111.477,85.224h3.472v12.529h-3.472V85.224z"/>
		<path fill="#B82531" d="M117.456,85.224h6.425c1.575,0,2.685,0.395,3.419,1.11c0.501,0.519,0.805,1.181,0.805,2.04v0.036
			c0,1.449-0.823,2.309-1.933,2.792c1.521,0.501,2.488,1.36,2.488,3.061v0.036c0,2.147-1.754,3.454-4.743,3.454h-6.461V85.224z
			 M124.687,89.09c0-0.698-0.555-1.074-1.575-1.074h-2.273v2.202h2.184c1.056,0,1.665-0.358,1.665-1.092V89.09z M123.487,92.652
			h-2.649v2.31h2.685c1.074,0,1.665-0.412,1.665-1.146V93.78C125.188,93.1,124.65,92.652,123.487,92.652z"/>
		<path fill="#B82531" d="M130.29,92.258v-7.034h3.508v6.963c0,1.808,0.913,2.667,2.309,2.667c1.414,0,2.327-0.823,2.327-2.577
			v-7.053h3.508v6.945c0,4.026-2.309,5.816-5.871,5.816C132.527,97.986,130.29,96.178,130.29,92.258z"/>
		<path fill="#B82531" d="M144.323,85.224h3.239l5.155,6.623v-6.623h3.437v12.529h-3.024l-5.37-6.873v6.873h-3.437V85.224z"/>
		<path fill="#B82531" d="M158.679,85.224h10.077v2.936h-6.64v1.915h6.014v2.738h-6.014V94.8h6.729v2.953h-10.166V85.224z"/>
		<path fill="#B82531" d="M175.684,85.224h3.472v12.529h-3.472V85.224z"/>
		<path fill="#B82531" d="M181.645,85.224h3.239l5.155,6.623v-6.623h3.437v12.529h-3.024l-5.37-6.873v6.873h-3.437V85.224z"/>
	</g>
	<g>
		<path fill="#B82531" d="M198.686,88.267h-3.741v-3.043h10.972v3.043h-3.759v9.486h-3.472V88.267z"/>
	</g>
	<g>
		<path fill="#B82531" d="M207.333,85.224h10.077v2.936h-6.64v1.915h6.014v2.738h-6.014V94.8h6.729v2.953h-10.166V85.224z
			 M213.006,81.465l3.24,0.984l-2.649,1.916h-2.523L213.006,81.465z"/>
		<path fill="#B82531" d="M218.932,91.525v-0.036c0-3.651,2.864-6.515,6.729-6.515c2.201,0,3.759,0.662,5.083,1.808l-2.04,2.47
			c-0.895-0.752-1.771-1.182-3.025-1.182c-1.807,0-3.203,1.504-3.203,3.419v0.036c0,2.04,1.414,3.49,3.4,3.49
			c0.859,0,1.504-0.179,2.005-0.52v-1.521h-2.452v-2.541h5.745v5.62c-1.324,1.109-3.149,1.951-5.44,1.951
			C221.831,98.004,218.932,95.319,218.932,91.525z"/>
		<path fill="#B82531" d="M233.431,85.224h5.924c1.916,0,3.24,0.501,4.082,1.343c0.732,0.733,1.109,1.683,1.109,2.917v0.036
			c0,1.934-1.021,3.204-2.578,3.866l2.989,4.367h-3.991l-2.523-3.795h-1.539v3.795h-3.473V85.224z M239.212,91.239
			c1.163,0,1.861-0.573,1.861-1.486v-0.035c0-1.003-0.734-1.504-1.879-1.504h-2.291v3.025H239.212z"/>
		<path fill="#B82531" d="M251.079,85.135h3.348l5.334,12.618h-3.724l-0.896-2.255h-4.85l-0.895,2.255h-3.634L251.079,85.135z
			 M254.122,92.795l-1.396-3.544l-1.414,3.544H254.122z"/>
	</g>
	<g>
		<path fill="#B82531" d="M261.05,85.224h3.473v9.486h6.066v3.043h-9.539V85.224z"/>
	</g>
	<g>
		<path fill="#B82531" d="M271.987,85.224h10.076v2.936h-6.64v1.915h6.014v2.738h-6.014V94.8h6.729v2.953h-10.166V85.224z"/>
		<path fill="#B82531" d="M293.234,85.135h3.347l5.334,12.618h-3.723l-0.896-2.255h-4.851l-0.895,2.255h-3.633L293.234,85.135z
			 M293.718,84.186l-2.649-1.915l3.239-0.984l1.951,2.899H293.718z M296.276,92.795l-1.396-3.544l-1.414,3.544H296.276z"/>
		<path fill="#B82531" d="M308.091,85.224h3.473v9.486h6.067v3.043h-9.54V85.224z"/>
		<path fill="#B82531" d="M317.292,90.397c1.199-0.143,1.825-0.716,1.789-1.683h-1.378v-3.49h3.526v2.846
			c0,2.649-1.432,3.562-3.67,3.634L317.292,90.397z"/>
	</g>
	<g>
		<path fill="#B82531" d="M323.45,85.224h10.076v2.936h-6.641v1.915h6.014v2.738h-6.014V94.8h6.73v2.953H323.45V85.224z
			 M329.124,81.465l3.239,0.984l-2.649,1.916h-2.523L329.124,81.465z"/>
	</g>
	<g>
		<path fill="#B82531" d="M335.049,91.525v-0.036c0-3.651,2.792-6.515,6.587-6.515c2.559,0,4.205,1.073,5.315,2.595l-2.613,2.022
			c-0.716-0.877-1.539-1.468-2.738-1.468c-1.755,0-2.989,1.504-2.989,3.33v0.035c0,1.88,1.234,3.348,2.989,3.348
			c1.307,0,2.076-0.609,2.827-1.521l2.613,1.861c-1.181,1.629-2.773,2.828-5.53,2.828C337.931,98.004,335.049,95.265,335.049,91.525
			z"/>
	</g>
	<g>
		<path fill="#B82531" d="M348.599,85.224h5.925c1.915,0,3.239,0.501,4.081,1.343c0.733,0.733,1.109,1.683,1.109,2.917v0.036
			c0,1.934-1.02,3.204-2.577,3.866l2.989,4.367h-3.992l-2.523-3.795h-1.539v3.795h-3.473V85.224z M354.38,91.239
			c1.164,0,1.861-0.573,1.861-1.486v-0.035c0-1.003-0.733-1.504-1.879-1.504h-2.291v3.025H354.38z"/>
		<path fill="#B82531" d="M366.248,85.135h3.347l5.334,12.618h-3.723l-0.896-2.255h-4.851l-0.895,2.255h-3.633L366.248,85.135z
			 M369.29,92.795l-1.396-3.544l-1.414,3.544H369.29z"/>
		<path fill="#B82531" d="M376.2,85.224h3.24l5.154,6.623v-6.623h3.437v12.529h-3.024l-5.369-6.873v6.873H376.2V85.224z"/>
	</g>
	<g>
		<path fill="#B82531" d="M390.413,94.263h3.526v3.49h-3.526V94.263z"/>
	</g>
	<path fill="#B82531" d="M120.947,115.009v-0.035c0-3.598,2.899-6.516,6.766-6.516s6.73,2.882,6.73,6.479v0.036
		c0,3.598-2.899,6.515-6.766,6.515S120.947,118.607,120.947,115.009z M130.88,115.009v-0.035c0-1.826-1.289-3.383-3.204-3.383
		s-3.186,1.539-3.186,3.347v0.036c0,1.808,1.307,3.383,3.222,3.383C129.61,118.357,130.88,116.817,130.88,115.009z M136.197,115.744
		v-7.034h3.508v6.962c0,1.809,0.913,2.667,2.309,2.667c1.414,0,2.327-0.823,2.327-2.577v-7.052h3.508v6.944
		c0,4.027-2.309,5.817-5.871,5.817C138.435,121.471,136.197,119.664,136.197,115.744z M140.815,107.85l-2.649-1.915l3.239-0.984
		l1.951,2.899H140.815z M166.375,121.614l-1.378-1.234c-1.074,0.716-2.38,1.109-3.812,1.109c-3.866,0-6.73-2.882-6.73-6.479v-0.035
		c0-3.598,2.9-6.516,6.766-6.516c3.866,0,6.73,2.882,6.73,6.479v0.036c0,1.324-0.412,2.56-1.109,3.598l1.289,1.092L166.375,121.614z
		 M162.474,118.177l-1.736-1.485l1.754-1.969l1.7,1.558c0.144-0.395,0.215-0.806,0.215-1.253v-0.036c0-1.808-1.307-3.4-3.222-3.4
		s-3.186,1.575-3.186,3.383v0.035c0,1.808,1.289,3.401,3.222,3.401C161.668,118.411,162.098,118.321,162.474,118.177z
		 M169.76,115.744v-7.034h3.508v6.962c0,1.809,0.913,2.667,2.309,2.667c1.414,0,2.327-0.823,2.327-2.577v-7.052h3.508v6.944
		c0,4.027-2.309,5.817-5.871,5.817C171.997,121.471,169.76,119.664,169.76,115.744z M183.793,108.709h10.077v2.936h-6.641v1.915
		h6.014v2.738h-6.014v1.986h6.73v2.954h-10.167V108.709z M199.724,108.709h3.866l2.846,7.929l2.864-7.929h3.794l-5.083,12.618
		h-3.222L199.724,108.709z M213.203,115.009v-0.035c0-3.598,2.899-6.516,6.766-6.516s6.73,2.882,6.73,6.479v0.036
		c0,3.598-2.899,6.515-6.766,6.515S213.203,118.607,213.203,115.009z M223.136,115.009v-0.035c0-1.826-1.289-3.383-3.204-3.383
		s-3.186,1.539-3.186,3.347v0.036c0,1.808,1.307,3.383,3.222,3.383C221.866,118.357,223.136,116.817,223.136,115.009z
		 M228.453,115.744v-7.034h3.509v6.962c0,1.809,0.912,2.667,2.309,2.667c1.414,0,2.326-0.823,2.326-2.577v-7.052h3.509v6.944
		c0,4.027-2.31,5.817-5.871,5.817C230.69,121.471,228.453,119.664,228.453,115.744z M241.359,119.376l1.933-2.309
		c1.253,0.984,2.613,1.504,4.062,1.504c0.949,0,1.451-0.322,1.451-0.859v-0.036c0-0.537-0.412-0.806-2.131-1.217
		c-2.666-0.608-4.725-1.36-4.725-3.92v-0.036c0-2.326,1.844-4.009,4.85-4.009c2.131,0,3.795,0.572,5.155,1.664l-1.736,2.452
		c-1.146-0.823-2.398-1.234-3.508-1.234c-0.841,0-1.253,0.34-1.253,0.805v0.036c0,0.573,0.43,0.823,2.184,1.217
		c2.863,0.627,4.654,1.558,4.654,3.902v0.036c0,2.56-2.023,4.08-5.066,4.08C245.011,121.453,242.917,120.755,241.359,119.376z
		 M257.988,119.376l1.933-2.309c1.253,0.984,2.613,1.504,4.062,1.504c0.949,0,1.45-0.322,1.45-0.859v-0.036
		c0-0.537-0.411-0.806-2.13-1.217c-2.666-0.608-4.725-1.36-4.725-3.92v-0.036c0-2.326,1.844-4.009,4.85-4.009
		c2.131,0,3.795,0.572,5.155,1.664l-1.736,2.452c-1.146-0.823-2.398-1.234-3.508-1.234c-0.841,0-1.253,0.34-1.253,0.805v0.036
		c0,0.573,0.43,0.823,2.184,1.217c2.863,0.627,4.653,1.558,4.653,3.902v0.036c0,2.56-2.022,4.08-5.065,4.08
		C261.64,121.453,259.546,120.755,257.988,119.376z M270.124,115.009v-0.035c0-3.598,2.899-6.516,6.766-6.516s6.73,2.882,6.73,6.479
		v0.036c0,3.598-2.9,6.515-6.766,6.515C272.987,121.489,270.124,118.607,270.124,115.009z M280.058,115.009v-0.035
		c0-1.826-1.289-3.383-3.203-3.383c-1.916,0-3.187,1.539-3.187,3.347v0.036c0,1.808,1.307,3.383,3.222,3.383
		C278.787,118.357,280.058,116.817,280.058,115.009z M288.131,116.549l-4.778-7.84h3.955l2.578,4.564l2.595-4.564h3.884
		l-4.761,7.786v4.743h-3.473V116.549z M297.565,108.709h10.076v2.936h-6.641v1.915h6.014v2.738h-6.014v1.986h6.73v2.954h-10.166
		V108.709z M309.415,118.714l6.281-7.088h-6.066v-2.917h10.846v2.506l-6.282,7.088h6.282v2.936h-11.061V118.714z M324.522,110.231
		v-1.521h3.865v1.521l-1.037,6.927h-1.772L324.522,110.231z M324.701,118.196h3.526v3.043h-3.526V118.196z"/>
</g>
</svg>
