<?xml version="1.0" encoding="utf-8"?>
<!-- Generator: Adobe Illustrator 15.1.0, SVG Export Plug-In . SVG Version: 6.00 Build 0)  -->
<!DOCTYPE svg PUBLIC "-//W3C//DTD SVG 1.1//EN" "http://www.w3.org/Graphics/SVG/1.1/DTD/svg11.dtd">
<svg version="1.1" id="Calque_1" xmlns="http://www.w3.org/2000/svg" xmlns:xlink="http://www.w3.org/1999/xlink" x="0px" y="0px"
	 width="211.475px" height="155px" viewBox="0 -7.388 211.475 155" enable-background="new 0 -7.388 211.475 155"
	 xml:space="preserve">
<rect x="-1.387" y="22.599" fill="#DFDFDE" width="213.537" height="34.75"/>
<g>
	<rect x="-0.596" y="-7.375" fill="#B92430" width="212.071" height="29.975"/>
	<g>
		<path d="M178.412,49.394h0.809V42.24h-0.809V49.394z M171.6,46.778l1.639-3.65l1.625,3.65H171.6z M169.606,49.394h0.83l0.85-1.892
			h3.895l0.838,1.892h0.869l-3.26-7.207h-0.756L169.606,49.394z M166.16,49.496c1.42,0,2.441-0.797,2.441-2.023v-0.021
			c0-1.094-0.734-1.677-2.33-2.025c-1.574-0.337-1.941-0.715-1.941-1.39v-0.021c0-0.645,0.592-1.154,1.521-1.154
			c0.736,0,1.4,0.234,2.064,0.775l0.471-0.623c-0.727-0.583-1.473-0.879-2.516-0.879c-1.359,0-2.352,0.827-2.352,1.951v0.021
			c0,1.175,0.758,1.707,2.4,2.062c1.504,0.317,1.861,0.695,1.861,1.359v0.021c0,0.704-0.635,1.216-1.596,1.216
			c-0.99,0-1.707-0.337-2.453-1.013l-0.502,0.594C164.096,49.118,165.024,49.496,166.16,49.496 M159.496,49.496
			c1.42,0,2.441-0.797,2.441-2.023v-0.021c0-1.094-0.734-1.677-2.332-2.025c-1.572-0.337-1.939-0.715-1.939-1.39v-0.021
			c0-0.645,0.594-1.154,1.521-1.154c0.734,0,1.4,0.234,2.064,0.775l0.471-0.623c-0.727-0.583-1.473-0.879-2.516-0.879
			c-1.359,0-2.354,0.827-2.354,1.951v0.021c0,1.175,0.76,1.707,2.404,2.062c1.502,0.317,1.859,0.695,1.859,1.359v0.021
			c0,0.704-0.637,1.216-1.598,1.216c-0.988,0-1.707-0.337-2.451-1.013l-0.502,0.594C157.432,49.118,158.362,49.496,159.496,49.496
			 M150.057,49.394h5.227V48.66h-4.418v-2.505h3.904v-0.736h-3.904v-2.442h4.365v-0.734h-5.174V49.394L150.057,49.394z
			 M146.899,44.558c0.777-0.174,1.139-0.57,1.139-1.398v-0.92h-0.941v1.071h0.367c0.041,0.439-0.174,0.706-0.686,0.892
			L146.899,44.558z M140.002,48.649v-5.664h1.678c1.811,0,2.965,1.247,2.965,2.832v0.02c0,1.585-1.154,2.812-2.965,2.812H140.002z
			 M139.196,49.394h2.482c2.248,0,3.803-1.562,3.803-3.576v-0.021c0-2.014-1.555-3.557-3.803-3.557h-2.482V49.394z M129.278,49.394
			h5.225V48.66h-4.416v-2.505h3.904v-0.736h-3.904v-2.442h4.365v-0.734h-5.174V49.394L129.278,49.394z M121.961,48.649v-5.664h1.676
			c1.812,0,2.965,1.247,2.965,2.832v0.02c0,1.585-1.152,2.812-2.965,2.812H121.961z M121.153,49.394h2.482
			c2.25,0,3.803-1.562,3.803-3.576v-0.021c0-2.014-1.553-3.557-3.803-3.557h-2.482V49.394z M115.67,48.77
			c-1.635,0-2.82-1.327-2.82-2.952v-0.021c0-1.625,1.164-2.934,2.803-2.934c1.635,0,2.82,1.329,2.82,2.955v0.02
			C118.473,47.462,117.307,48.77,115.67,48.77 M115.649,49.517c2.18,0,3.66-1.729,3.66-3.699c0.012-0.012,0.012-0.012,0-0.021
			c0-1.973-1.463-3.68-3.639-3.68c-2.178,0-3.66,1.728-3.66,3.701v0.02C112.012,47.809,113.473,49.517,115.649,49.517
			 M109.332,49.394h0.809V42.24h-0.809V49.394z M102.568,45.887v-2.901h2.206c1.156,0,1.83,0.53,1.83,1.409v0.021
			c0,0.92-0.766,1.473-1.838,1.473L102.568,45.887L102.568,45.887z M101.76,49.394h0.81v-2.779h2.022h0.021l2.075,2.779h0.992
			l-2.199-2.924c1.125-0.204,1.943-0.897,1.943-2.086v-0.021c0-0.562-0.205-1.063-0.553-1.411c-0.449-0.449-1.154-0.715-2.035-0.715
			h-3.077V49.394z M96.912,41.604h0.634l1.155-1.104l-0.817-0.378L96.912,41.604z M94.887,49.394h5.226V48.66h-4.416v-2.505H99.6
			v-0.736h-3.903v-2.442h4.363v-0.734h-5.173V49.394z M88.796,46.133v-3.146h1.81c1.155,0,1.924,0.53,1.924,1.554v0.021
			c0,0.94-0.777,1.574-1.965,1.574L88.796,46.133L88.796,46.133z M87.989,49.394h0.807v-2.523h1.738
			c1.521,0,2.812-0.798,2.812-2.341v-0.021c0-1.409-1.062-2.269-2.679-2.269h-2.678V49.394z M78.225,46.778l1.637-3.65l1.626,3.65
			H78.225z M76.231,49.394h0.828l0.851-1.892h3.895l0.838,1.892h0.869l-3.261-7.207h-0.757L76.231,49.394z M70.187,49.394h4.836
			V48.65h-4.026v-6.41h-0.81V49.394z M63.032,49.496c1.421,0,2.442-0.797,2.442-2.023v-0.021c0-1.094-0.734-1.677-2.331-2.025
			c-1.573-0.337-1.941-0.715-1.941-1.39v-0.021c0-0.645,0.593-1.154,1.522-1.154c0.736,0,1.4,0.234,2.065,0.775l0.47-0.623
			c-0.726-0.583-1.472-0.879-2.515-0.879c-1.36,0-2.353,0.827-2.353,1.951v0.021c0,1.175,0.756,1.707,2.402,2.062
			c1.503,0.317,1.861,0.695,1.861,1.359v0.021c0,0.704-0.636,1.216-1.597,1.216c-0.99,0-1.707-0.337-2.454-1.013l-0.5,0.594
			C60.967,49.118,61.897,49.496,63.032,49.496 M56.056,41.604h0.634l-0.971-1.48l-0.816,0.378L56.056,41.604z M53.593,49.394h5.224
			V48.66H54.4v-2.505h3.905v-0.736H54.4v-2.442h4.365v-0.734h-5.173V49.394z M46.86,45.887v-2.901h2.209
			c1.153,0,1.828,0.53,1.828,1.409v0.021c0,0.92-0.767,1.473-1.841,1.473L46.86,45.887L46.86,45.887z M46.052,49.394h0.809v-2.779
			h2.023h0.021l2.073,2.779h0.992l-2.198-2.924c1.125-0.204,1.942-0.897,1.942-2.086v-0.021c0-0.562-0.204-1.063-0.552-1.411
			c-0.449-0.449-1.155-0.715-2.034-0.715h-3.077V49.394L46.052,49.394z M39.961,46.133v-3.146h1.809c1.156,0,1.922,0.53,1.922,1.554
			v0.021c0,0.94-0.775,1.574-1.963,1.574L39.961,46.133L39.961,46.133z M39.153,49.394h0.808v-2.523h1.738
			c1.521,0,2.811-0.798,2.811-2.341v-0.021c0-1.409-1.062-2.269-2.678-2.269h-2.679V49.394z M32.381,46.778l1.635-3.65l1.626,3.65
			H32.381z M30.386,49.394h0.828l0.849-1.892h3.896l0.838,1.892h0.869l-3.261-7.207h-0.759L30.386,49.394z"/>
		<path d="M169.895,37.228c1.422,0,2.443-0.797,2.443-2.022v-0.021c0-1.094-0.736-1.677-2.33-2.023
			c-1.576-0.337-1.943-0.715-1.943-1.392v-0.02c0-0.646,0.596-1.156,1.523-1.156c0.736,0,1.4,0.235,2.064,0.776l0.471-0.623
			c-0.729-0.583-1.471-0.879-2.516-0.879c-1.359,0-2.352,0.828-2.352,1.952v0.021c0,1.175,0.756,1.707,2.402,2.064
			c1.502,0.315,1.857,0.693,1.857,1.357v0.021c0,0.705-0.633,1.217-1.594,1.217c-0.992,0-1.709-0.337-2.455-1.013l-0.5,0.594
			C167.83,36.85,168.762,37.228,169.895,37.228 M162.742,37.127h0.816v-6.41h2.4V29.97h-5.621v0.746h2.402L162.742,37.127
			L162.742,37.127z M152.752,37.127h0.787v-5.868l4.621,5.868h0.645V29.97h-0.787v5.734l-4.51-5.734h-0.756V37.127L152.752,37.127z
			 M145.881,37.127h5.223V36.39h-4.418v-2.505h3.906v-0.734h-3.906v-2.443h4.365v-0.736h-5.172L145.881,37.127L145.881,37.127z
			 M136.809,37.127h0.787v-5.786l2.607,3.822h0.041l2.604-3.834v5.798h0.811V29.97h-0.818l-2.604,3.905l-2.607-3.905h-0.818
			L136.809,37.127L136.809,37.127z M129.936,37.127h5.227V36.39h-4.416v-2.505h3.904v-0.734h-3.904v-2.443h4.365v-0.736h-5.176
			V37.127L129.936,37.127z M121.67,37.127h0.787v-5.868l4.621,5.868h0.645V29.97h-0.787v5.734l-4.508-5.734h-0.758V37.127z
			 M113.403,37.127h0.787v-5.868l4.619,5.868h0.646V29.97h-0.787v5.734l-4.508-5.734h-0.758V37.127z M107.922,36.503
			c-1.637,0-2.824-1.329-2.824-2.954v-0.021c0-1.625,1.168-2.936,2.801-2.936c1.639,0,2.822,1.329,2.822,2.955v0.021
			C110.723,35.195,109.557,36.503,107.922,36.503 M107.899,37.25c2.18,0,3.66-1.729,3.66-3.701c0.012-0.011,0.012-0.011,0-0.021
			c0-1.975-1.463-3.682-3.639-3.682c-2.178,0-3.661,1.729-3.661,3.701v0.021C104.26,35.542,105.723,37.25,107.899,37.25
			 M97.924,36.401v-2.524h2.259c1.247,0,1.902,0.449,1.902,1.227v0.021c0,0.799-0.675,1.278-1.759,1.278L97.924,36.401
			L97.924,36.401z M97.924,33.159v-2.463h2.177c1.023,0,1.585,0.46,1.585,1.165v0.021c0,0.838-0.675,1.276-1.646,1.276
			L97.924,33.159L97.924,33.159z M97.126,37.127h3.18c1.564,0,2.598-0.727,2.598-1.953v-0.021c0-0.98-0.687-1.474-1.533-1.729
			c0.562-0.245,1.135-0.727,1.135-1.656v-0.02c0-0.461-0.164-0.84-0.46-1.146c-0.409-0.397-1.053-0.634-1.871-0.634h-3.047
			L97.126,37.127L97.126,37.127z M90.353,34.51l1.637-3.648l1.626,3.648H90.353z M88.36,37.127h0.826l0.851-1.892h3.895l0.838,1.892
			h0.869l-3.261-7.207h-0.757L88.36,37.127z M86.83,32.291c0.775-0.174,1.134-0.572,1.134-1.4v-0.92h-0.94v1.073h0.368
			c0.041,0.439-0.174,0.706-0.685,0.89L86.83,32.291z M79.93,36.381v-5.664h1.677c1.811,0,2.966,1.247,2.966,2.832v0.021
			c0,1.585-1.155,2.812-2.966,2.812L79.93,36.381L79.93,36.381z M79.124,37.127h2.482c2.249,0,3.805-1.564,3.805-3.578v-0.021
			c0-2.016-1.556-3.559-3.805-3.559h-2.482V37.127z M71.967,37.228c1.421,0,2.444-0.797,2.444-2.022v-0.021
			c0-1.094-0.736-1.677-2.331-2.023c-1.574-0.337-1.942-0.715-1.942-1.392v-0.02c0-0.646,0.592-1.156,1.523-1.156
			c0.734,0,1.398,0.235,2.063,0.776l0.472-0.623c-0.728-0.583-1.474-0.879-2.517-0.879c-1.357,0-2.351,0.828-2.351,1.952v0.021
			c0,1.175,0.756,1.707,2.4,2.064c1.504,0.315,1.861,0.693,1.861,1.357v0.021c0,0.705-0.634,1.217-1.595,1.217
			c-0.991,0-1.707-0.337-2.453-1.013l-0.501,0.594C69.902,36.85,70.833,37.228,71.967,37.228 M62.866,37.127h0.808v-3.118h3.874
			v-0.734h-3.874v-2.558h4.334V29.97h-5.142V37.127L62.866,37.127z M59.824,37.127h0.808V29.97h-0.808V37.127z M53.058,33.619
			v-2.902h2.208c1.156,0,1.83,0.531,1.83,1.411v0.021c0,0.92-0.767,1.472-1.84,1.472L53.058,33.619L53.058,33.619z M52.251,37.127
			h0.808v-2.781h2.024h0.021l2.075,2.781h0.992l-2.198-2.925c1.124-0.204,1.942-0.898,1.942-2.085v-0.021
			c0-0.562-0.204-1.062-0.552-1.411c-0.45-0.447-1.155-0.715-2.034-0.715h-3.078V37.127z M45.478,34.51l1.637-3.648l1.626,3.648
			H45.478z M43.485,37.127h0.826l0.851-1.892h3.895l0.838,1.892h0.869l-3.261-7.207h-0.757L43.485,37.127z M40.22,37.127h0.818
			v-6.41h2.4V29.97h-5.62v0.746h2.4L40.22,37.127L40.22,37.127z"/>
		<path fill="#FFFFFF" d="M183.91,12.912h7.547V10.72h-4.998V9.244h4.465V7.213h-4.465V5.789h4.932V3.61h-7.479L183.91,12.912
			L183.91,12.912z M177.768,13.085c2.646,0,4.359-1.328,4.359-4.318V3.612h-2.604v5.234c0,1.305-0.68,1.914-1.729,1.914
			c-1.037,0-1.715-0.638-1.715-1.979V3.611h-2.605v5.224C173.477,11.744,175.139,13.085,177.768,13.085 M167.119,10.815
			c-1.438,0-2.395-1.185-2.395-2.525V8.261c0-1.343,0.943-2.513,2.365-2.513c1.424,0,2.395,1.183,2.395,2.525v0.024
			c0,0.333-0.055,0.641-0.158,0.933l-1.266-1.156l-1.303,1.463l1.289,1.103C167.77,10.748,167.451,10.815,167.119,10.815
			 M172.248,11.744l-0.955-0.812c0.518-0.771,0.822-1.688,0.822-2.672V8.234c0-2.674-2.125-4.812-4.996-4.812
			s-5.023,2.165-5.023,4.837v0.026c0,2.672,2.125,4.81,4.996,4.81c1.064,0,2.035-0.292,2.832-0.821l1.023,0.916L172.248,11.744z
			 M158.055,12.912h2.578V3.61h-2.578V12.912z M147.352,12.912h2.551V7.807l3.988,5.104h2.244V3.61h-2.551v4.916l-3.83-4.916h-2.402
			V12.912z M140.918,10.774c-1.422,0-2.395-1.172-2.395-2.514V8.235c0-1.345,0.943-2.485,2.365-2.485
			c1.424,0,2.381,1.157,2.381,2.513v0.026C143.27,9.631,142.328,10.774,140.918,10.774 M140.891,13.097
			c2.871,0,5.021-2.164,5.021-4.836V8.236c0-2.674-2.125-4.812-4.996-4.812s-5.021,2.165-5.021,4.837v0.026
			C135.895,10.96,138.02,13.097,140.891,13.097 M129.26,8.076V5.829h1.703c0.85,0,1.395,0.372,1.395,1.117v0.023
			c0,0.681-0.52,1.104-1.383,1.104L129.26,8.076L129.26,8.076z M126.684,12.912h2.576v-2.817h1.145l1.875,2.817h2.963l-2.221-3.242
			c1.156-0.491,1.912-1.435,1.912-2.87V6.774c0-0.92-0.277-1.622-0.82-2.166c-0.625-0.624-1.607-0.996-3.031-0.996h-4.396
			L126.684,12.912L126.684,12.912z M120.25,12.912h2.578V5.869h2.791V3.61h-8.146v2.259h2.777V12.912L120.25,12.912z
			 M112.592,13.097c2.047,0,3.23-0.889,4.107-2.098l-1.941-1.382c-0.557,0.678-1.129,1.13-2.098,1.13
			c-1.307,0-2.223-1.09-2.223-2.486V8.236c0-1.355,0.916-2.475,2.223-2.475c0.889,0,1.5,0.439,2.029,1.09l1.941-1.501
			c-0.824-1.129-2.047-1.926-3.947-1.926c-2.814,0-4.889,2.125-4.889,4.837v0.026C107.797,11.066,109.934,13.097,112.592,13.097
			 M99.162,12.912h7.545V10.72h-4.997V9.244h4.465V7.213h-4.465V5.789h4.93V3.61h-7.479V12.912L99.162,12.912z M91.019,12.912h7.082
			v-2.257h-4.505V3.61h-2.577V12.912z M81.845,12.912h7.547V10.72h-4.997V9.244h4.467V7.213h-4.467V5.789h4.932V3.61h-7.48
			L81.845,12.912L81.845,12.912z M84.621,2.972h1.874l1.967-1.422l-2.406-0.729L84.621,2.972z M67.73,12.912h2.552V7.807
			l3.986,5.104h2.245V3.61h-2.55v4.916L70.135,3.61H67.73V12.912z M61.296,10.774c-1.422,0-2.393-1.172-2.393-2.514V8.235
			c0-1.345,0.942-2.485,2.365-2.485c1.422,0,2.38,1.157,2.38,2.513v0.026C63.649,9.631,62.706,10.774,61.296,10.774 M61.269,13.097
			c2.871,0,5.023-2.164,5.023-4.836V8.236c0-2.674-2.125-4.812-4.997-4.812c-2.871,0-5.022,2.165-5.022,4.837v0.026
			C56.273,10.96,58.398,13.097,61.269,13.097 M52.231,12.912h2.577V3.61h-2.577V12.912z M45.765,12.912h2.577V5.869h2.791V3.61
			h-8.145v2.259h2.775L45.765,12.912L45.765,12.912z M39.332,12.912h2.577V3.61h-2.577V12.912z M32.625,5.882
			c1.555,0,2.579,0.877,2.579,2.366v0.026c0,1.502-1.024,2.354-2.579,2.354h-1.051V5.882H32.625z M28.997,12.912h3.548
			c3.336,0,5.289-1.992,5.289-4.678V8.208c0-2.686-1.926-4.598-5.236-4.598h-3.601V12.912z M19.823,12.912h7.547V10.72h-4.997V9.244
			h4.466V7.213h-4.466V5.789h4.931V3.61h-7.479L19.823,12.912L19.823,12.912z M22.598,2.972h1.874l1.967-1.422l-2.404-0.729
			L22.598,2.972z"/>
		<path d="M87.647,124.655v-2.613h1.987c1.04,0,1.647,0.479,1.647,1.271v0.02c0,0.828-0.69,1.324-1.656,1.324L87.647,124.655
			L87.647,124.655z M86.922,127.811h0.727v-2.504h1.821h0.021l1.866,2.504h0.894l-1.979-2.631c1.014-0.186,1.748-0.811,1.748-1.879
			v-0.018c0-0.506-0.184-0.957-0.497-1.271c-0.403-0.402-1.039-0.645-1.831-0.645h-2.769V127.811L86.922,127.811z M80.687,127.811
			h4.702v-0.66h-3.975v-2.258h3.515v-0.66h-3.515v-2.199h3.929v-0.662h-4.656V127.811z M77.905,127.811h0.727v-6.439h-0.727V127.811
			z M72.322,124.875v-2.834h1.629c1.039,0,1.729,0.479,1.729,1.398v0.018c0,0.848-0.699,1.418-1.766,1.418H72.322z M71.594,127.811
			h0.729v-2.271h1.562c1.371,0,2.531-0.717,2.531-2.107v-0.018c0-1.271-0.957-2.043-2.411-2.043h-2.411V127.811L71.594,127.811z
			 M65.453,125.455l1.472-3.285l1.463,3.285H65.453z M63.659,127.811h0.745l0.764-1.701h3.505l0.755,1.701h0.782l-2.937-6.486
			h-0.681L63.659,127.811z M59.215,124.875v-2.834h1.628c1.04,0,1.73,0.479,1.73,1.398v0.018c0,0.848-0.699,1.418-1.769,1.418
			H59.215z M58.488,127.811h0.727v-2.271h1.564c1.369,0,2.528-0.717,2.528-2.107v-0.018c0-1.271-0.957-2.043-2.411-2.043h-2.408
			V127.811z M51.385,120.799h0.57l1.04-0.994l-0.736-0.34L51.385,120.799z M49.561,127.811h4.702v-0.66h-3.975v-2.258h3.515v-0.66
			h-3.515v-2.199h3.929v-0.662h-4.656V127.811z M42.077,127.811h0.709v-5.279l4.159,5.279h0.577v-6.439h-0.708v5.162l-4.058-5.162
			h-0.68V127.811z M34.592,127.811H35.3v-5.279l4.159,5.279h0.58v-6.439H39.33v5.162l-4.059-5.162h-0.681L34.592,127.811
			L34.592,127.811z M29.611,127.248c-1.475,0-2.54-1.195-2.54-2.658v-0.02c0-1.463,1.049-2.641,2.521-2.641s2.54,1.195,2.54,2.658
			v0.02C32.132,126.073,31.082,127.248,29.611,127.248 M29.592,127.92c1.96,0,3.294-1.555,3.294-3.33c0.009-0.01,0.009-0.01,0-0.02
			c0-1.775-1.314-3.312-3.273-3.312c-1.962,0-3.296,1.559-3.296,3.332v0.02C26.315,126.383,27.632,127.92,29.592,127.92
			 M20.564,127.158v-2.273h2.034c1.122,0,1.711,0.404,1.711,1.104v0.02c0,0.717-0.605,1.15-1.583,1.15H20.564z M20.564,124.24
			v-2.217h1.96c0.922,0,1.428,0.412,1.428,1.049v0.018c0,0.754-0.607,1.15-1.481,1.15H20.564z M19.848,127.811h2.861
			c1.408,0,2.337-0.652,2.337-1.758v-0.02c0-0.883-0.616-1.324-1.38-1.557c0.506-0.221,1.021-0.65,1.021-1.488v-0.02
			c0-0.414-0.146-0.756-0.414-1.029c-0.366-0.359-0.946-0.57-1.684-0.57h-2.741V127.811z M13.705,125.455l1.472-3.285l1.463,3.285
			H13.705z M11.912,127.811h0.745l0.764-1.701h3.505l0.755,1.701h0.782l-2.935-6.486h-0.682L11.912,127.811z"/>
		<path d="M85.964,111.75c1.067,0,1.886-0.498,1.886-1.594v-0.02c0-0.9-0.801-1.23-1.491-1.463
			c-0.532-0.184-1.003-0.311-1.003-0.588v-0.02c0-0.193,0.177-0.342,0.517-0.342c0.357,0,0.847,0.176,1.335,0.459l0.533-0.965
			c-0.533-0.357-1.216-0.568-1.842-0.568c-0.992,0-1.803,0.561-1.803,1.562v0.02c0,0.957,0.782,1.277,1.474,1.48
			c0.543,0.164,1.021,0.268,1.021,0.57v0.018c0,0.223-0.184,0.369-0.589,0.369c-0.46,0-1.021-0.203-1.555-0.59l-0.6,0.92
			C84.501,111.52,85.272,111.75,85.964,111.75 M81.397,111.658h1.399v-4.934h-1.399V111.658z M81.361,106.184h1.472v-1.24h-1.472
			V106.184z M77.56,110.563c-0.771,0-1.298-0.635-1.298-1.361v-0.02c0-0.727,0.479-1.342,1.279-1.342
			c0.771,0,1.297,0.635,1.297,1.359v0.02C78.84,109.948,78.362,110.563,77.56,110.563 M77.543,111.768
			c1.537,0,2.678-1.148,2.678-2.566v-0.02c0-1.416-1.132-2.549-2.659-2.549c-1.537,0-2.678,1.15-2.678,2.566v0.02
			C74.884,110.637,76.015,111.768,77.543,111.768 M66.224,111.658h1.399v-2.752c0-0.662,0.322-1.002,0.846-1.002
			c0.525,0,0.819,0.34,0.819,1.002v2.752h1.397v-2.752c0-0.662,0.322-1.002,0.848-1.002c0.524,0,0.817,0.34,0.817,1.002v2.752h1.399
			v-3.211c0-1.189-0.626-1.812-1.666-1.812c-0.671,0-1.188,0.275-1.619,0.781c-0.258-0.496-0.745-0.781-1.389-0.781
			c-0.709,0-1.132,0.377-1.454,0.791v-0.699h-1.399L66.224,111.658L66.224,111.658z M60.711,112.836h1.187l4.076-8.521h-1.187
			L60.711,112.836z M57.015,101.77v-2.336c0.902,0.334,1.187,0.668,1.187,1.236v0.031C58.202,101.303,57.802,101.655,57.015,101.77
			 M55.449,96.531c-0.918-0.334-1.152-0.668-1.152-1.188v-0.033c0-0.531,0.351-0.934,1.152-1.033V96.531z M55.365,105.51h1.734
			v-1.652c2.119-0.232,3.538-1.436,3.538-3.287v-0.033c0-1.869-1.085-2.902-3.622-3.588v-2.521c0.701,0.186,1.402,0.535,2.07,0.984
			l1.118-1.951c-0.901-0.635-1.919-1.068-3.104-1.236v-1.002h-1.734v0.969c-2.104,0.217-3.504,1.42-3.504,3.271v0.033
			c0,1.969,1.185,2.887,3.588,3.537v2.652c-0.985-0.199-1.819-0.668-2.723-1.352l-1.301,1.902c1.103,0.834,2.503,1.398,3.938,1.584
			L55.365,105.51L55.365,105.51z M34.565,111.658h14.828v-3.809h-8.729l3.263-2.52c3.55-2.748,5.269-4.408,5.269-7.758v-0.059
			c0-3.75-2.748-6.184-6.898-6.184c-3.578,0-5.496,1.461-7.471,4.15l3.091,2.488c1.489-1.832,2.548-2.688,4.093-2.688
			c1.575,0,2.691,0.916,2.691,2.604c0,1.66-0.975,2.748-3.463,4.811l-6.672,5.469L34.565,111.658L34.565,111.658z"/>
		<path d="M183.641,77.846c0.379,0,0.674-0.082,0.949-0.225v-0.676c-0.275,0.135-0.5,0.186-0.766,0.186
			c-0.531,0-0.891-0.236-0.891-0.879v-3.088h1.678v-0.695h-1.678v-1.594h-0.787v1.594h-0.734v0.695h0.734v3.188
			C182.147,77.428,182.791,77.846,183.641,77.846 M175.61,77.754h0.785v-3.025c0-0.99,0.678-1.654,1.584-1.654
			c0.934,0,1.465,0.611,1.465,1.594v3.088h0.785v-3.281c0-1.258-0.744-2.115-2.021-2.115c-0.91,0-1.463,0.461-1.812,1.031v-0.92
			h-0.785V77.754z M169.922,74.799c0.113-1.02,0.809-1.779,1.719-1.779c1.043,0,1.596,0.818,1.688,1.779H169.922z M169.922,75.434
			h4.191c0.01-0.123,0.01-0.205,0.01-0.275c0-1.555-0.898-2.801-2.463-2.801c-1.463,0-2.535,1.229-2.535,2.76
			c0,1.646,1.186,2.762,2.639,2.762c1,0,1.646-0.398,2.176-0.992l-0.488-0.438c-0.432,0.449-0.939,0.746-1.666,0.746
			C170.852,77.192,170.035,76.547,169.922,75.434 M159.627,77.754h0.787v-3.016c0-0.973,0.635-1.666,1.473-1.666
			s1.359,0.582,1.359,1.572v3.107h0.775v-3.047c0-1.041,0.664-1.635,1.465-1.635c0.855,0,1.367,0.57,1.367,1.594v3.088h0.787v-3.27
			c0-1.311-0.746-2.127-1.963-2.127c-0.92,0-1.48,0.471-1.859,1.053c-0.285-0.592-0.84-1.053-1.697-1.053
			c-0.891,0-1.357,0.479-1.707,1.002v-0.891h-0.787V77.754L159.627,77.754z M153.94,74.799c0.111-1.02,0.809-1.779,1.719-1.779
			c1.043,0,1.596,0.818,1.688,1.779H153.94z M153.94,75.434h4.191c0.01-0.123,0.01-0.205,0.01-0.275
			c0-1.555-0.896-2.801-2.463-2.801c-1.463,0-2.537,1.229-2.537,2.76c0,1.646,1.189,2.762,2.641,2.762
			c1.002,0,1.646-0.398,2.178-0.992l-0.49-0.438c-0.43,0.449-0.939,0.746-1.668,0.746C154.871,77.192,154.053,76.547,153.94,75.434
			 M150.807,77.754h0.787v-7.462h-0.787V77.754z M146.356,77.867c0.91,0,1.451-0.461,1.812-1.031v0.92h0.775v-5.287h-0.775v3.025
			c0,0.992-0.688,1.658-1.586,1.658c-0.93,0-1.461-0.613-1.461-1.598v-3.088h-0.787v3.283
			C144.332,77.008,145.078,77.867,146.356,77.867 M138.725,74.799c0.111-1.02,0.809-1.779,1.717-1.779
			c1.045,0,1.596,0.818,1.688,1.779H138.725z M138.725,75.434h4.189c0.01-0.123,0.01-0.205,0.01-0.275
			c0-1.555-0.898-2.801-2.463-2.801c-1.461,0-2.535,1.229-2.535,2.76c0,1.646,1.188,2.762,2.639,2.762
			c1.002,0,1.646-0.398,2.178-0.992l-0.49-0.438c-0.43,0.449-0.939,0.746-1.666,0.746C139.655,77.192,138.836,76.547,138.725,75.434
			 M134.198,77.858c1.422,0,2.441-0.799,2.441-2.023v-0.023c0-1.094-0.734-1.676-2.33-2.021c-1.572-0.338-1.941-0.715-1.941-1.391
			v-0.021c0-0.645,0.594-1.154,1.521-1.154c0.736,0,1.4,0.234,2.064,0.777l0.473-0.623c-0.727-0.584-1.473-0.88-2.516-0.88
			c-1.359,0-2.354,0.828-2.354,1.953v0.02c0,1.176,0.756,1.709,2.402,2.064c1.502,0.316,1.859,0.695,1.859,1.359v0.021
			c0,0.703-0.635,1.215-1.596,1.215c-0.992,0-1.707-0.336-2.453-1.012l-0.502,0.594C132.133,77.479,133.061,77.858,134.198,77.858"
			/>
		<path d="M190.494,109.656c1.064,0,1.887-0.496,1.887-1.592v-0.02c0-0.902-0.801-1.23-1.49-1.463
			c-0.535-0.184-1.004-0.312-1.004-0.59v-0.02c0-0.191,0.176-0.34,0.518-0.34c0.357,0,0.846,0.174,1.334,0.459l0.531-0.965
			c-0.531-0.359-1.215-0.57-1.84-0.57c-0.994,0-1.805,0.562-1.805,1.562v0.02c0,0.957,0.783,1.279,1.475,1.48
			c0.541,0.166,1.021,0.268,1.021,0.57v0.02c0,0.221-0.188,0.367-0.59,0.367c-0.459,0-1.021-0.201-1.557-0.588l-0.598,0.92
			C189.031,109.426,189.805,109.656,190.494,109.656 M185.93,109.565h1.398v-4.934h-1.398V109.565z M185.891,104.09h1.475v-1.242
			h-1.475V104.09z M182.092,108.469c-0.771,0-1.297-0.635-1.297-1.359v-0.02c0-0.729,0.479-1.344,1.279-1.344
			c0.771,0,1.297,0.635,1.297,1.361v0.02C183.371,107.854,182.891,108.469,182.092,108.469 M182.074,109.674
			c1.535,0,2.676-1.148,2.676-2.564v-0.02c0-1.418-1.131-2.549-2.658-2.549c-1.535,0-2.678,1.148-2.678,2.566v0.02
			C179.414,108.543,180.547,109.674,182.074,109.674 M170.756,109.565h1.398v-2.75c0-0.664,0.32-1.006,0.846-1.006
			c0.523,0,0.82,0.342,0.82,1.006v2.75h1.396v-2.75c0-0.664,0.32-1.006,0.846-1.006s0.82,0.342,0.82,1.006v2.75h1.396v-3.213
			c0-1.186-0.625-1.811-1.664-1.811c-0.672,0-1.189,0.275-1.619,0.781c-0.258-0.496-0.746-0.781-1.393-0.781
			c-0.707,0-1.131,0.377-1.451,0.791v-0.699h-1.398L170.756,109.565L170.756,109.565z M165.242,110.742h1.188l4.076-8.521h-1.188
			L165.242,110.742z M161.549,99.678v-2.336c0.9,0.334,1.184,0.668,1.184,1.234v0.033C162.733,99.211,162.332,99.561,161.549,99.678
			 M159.977,94.438c-0.918-0.334-1.148-0.668-1.148-1.186v-0.033c0-0.533,0.35-0.934,1.148-1.035V94.438z M159.895,103.416h1.734
			v-1.652c2.121-0.232,3.539-1.436,3.539-3.287v-0.033c0-1.869-1.084-2.902-3.621-3.586v-2.521c0.701,0.182,1.402,0.533,2.068,0.982
			l1.117-1.951c-0.9-0.635-1.92-1.068-3.104-1.234v-1.002h-1.734v0.967c-2.104,0.219-3.506,1.42-3.506,3.271v0.035
			c0,1.969,1.188,2.887,3.588,3.537v2.652c-0.982-0.201-1.816-0.668-2.719-1.354l-1.303,1.902c1.102,0.834,2.504,1.4,3.938,1.586
			L159.895,103.416L159.895,103.416z M145.885,105.93c-2.662,0-4.41-2.721-4.41-6.385v-0.057c0-3.664,1.721-6.326,4.354-6.326
			s4.408,2.748,4.408,6.383v0.059C150.235,103.239,148.545,105.93,145.885,105.93 M145.826,109.908
			c5.354,0,8.932-4.551,8.932-10.361v-0.059c0-5.812-3.578-10.307-8.873-10.307c-5.326,0-8.932,4.553-8.932,10.363v0.057
			C136.953,105.412,140.475,109.908,145.826,109.908 M129.373,109.565h4.352v-20.18h-3.006l-5.754,1.717l0.916,3.607l3.492-0.859
			V109.565L129.373,109.565z"/>
		<path d="M188.928,120.6h0.57l1.039-0.992l-0.736-0.342L188.928,120.6z M187.104,127.614h4.703v-0.662h-3.977v-2.256h3.516v-0.662
			h-3.516v-2.199h3.93v-0.662h-4.656V127.614z M179.805,127.614h0.707v-5.281l4.16,5.281h0.578v-6.441h-0.707v5.162l-4.061-5.162
			h-0.68L179.805,127.614L179.805,127.614z M172.502,127.614h0.709v-5.281l4.158,5.281h0.58v-6.441h-0.709v5.162l-4.059-5.162H172.5
			L172.502,127.614L172.502,127.614z M167.705,127.051c-1.471,0-2.539-1.195-2.539-2.66v-0.018c0-1.463,1.049-2.641,2.52-2.641
			c1.475,0,2.541,1.193,2.541,2.656v0.021C170.225,125.873,169.178,127.051,167.705,127.051 M167.686,127.721
			c1.959,0,3.293-1.555,3.293-3.33c0.012-0.008,0.012-0.008,0-0.018c0-1.775-1.314-3.312-3.273-3.312s-3.293,1.557-3.293,3.33v0.021
			C164.412,126.186,165.725,127.721,167.686,127.721 M158.844,126.959v-2.273h2.035c1.121,0,1.711,0.404,1.711,1.104v0.02
			c0,0.719-0.607,1.15-1.582,1.15H158.844z M158.844,124.041v-2.217h1.961c0.92,0,1.426,0.414,1.426,1.049v0.018
			c0,0.754-0.605,1.15-1.479,1.15H158.844z M158.127,127.614h2.861c1.406,0,2.338-0.654,2.338-1.758v-0.021
			c0-0.883-0.617-1.324-1.381-1.555c0.506-0.223,1.02-0.652,1.02-1.49v-0.021c0-0.412-0.145-0.754-0.414-1.027
			c-0.367-0.359-0.947-0.57-1.684-0.57h-2.74V127.614L158.127,127.614z M152.168,125.256l1.473-3.285l1.463,3.285H152.168z
			 M150.375,127.614h0.744l0.764-1.703h3.506l0.754,1.703h0.783l-2.936-6.488h-0.684L150.375,127.614z M147.166,125.219h2.557
			v-0.744h-2.557V125.219z M140.143,127.614h0.709v-5.281l4.158,5.281h0.58v-6.441h-0.709v5.162l-4.059-5.162h-0.682
			L140.143,127.614L140.143,127.614z M135.346,127.051c-1.471,0-2.539-1.195-2.539-2.66v-0.018c0-1.463,1.049-2.641,2.521-2.641
			c1.471,0,2.539,1.193,2.539,2.656v0.021C137.867,125.873,136.819,127.051,135.346,127.051 M135.328,127.721
			c1.959,0,3.293-1.555,3.293-3.33c0.01-0.008,0.01-0.008,0-0.018c0-1.775-1.314-3.312-3.275-3.312c-1.959,0-3.293,1.557-3.293,3.33
			v0.021C132.053,126.186,133.369,127.721,135.328,127.721 M125.076,127.614h0.707v-5.281l4.16,5.281h0.578v-6.441h-0.709v5.162
			l-4.059-5.162h-0.68L125.076,127.614L125.076,127.614z"/>
		<path d="M78.156,77.846c0.378,0,0.674-0.082,0.948-0.225v-0.676c-0.274,0.135-0.5,0.186-0.766,0.186
			c-0.532,0-0.89-0.236-0.89-0.879v-3.088h1.677v-0.695h-1.677v-1.594h-0.787v1.594h-0.735v0.695h0.736v3.188
			C76.662,77.428,77.306,77.846,78.156,77.846 M70.123,77.754h0.788v-3.025c0-0.99,0.674-1.654,1.584-1.654
			c0.931,0,1.462,0.611,1.462,1.594v3.088h0.787v-3.281c0-1.258-0.746-2.115-2.024-2.115c-0.91,0-1.462,0.461-1.809,1.031v-0.92
			h-0.788V77.754z M64.435,74.799c0.113-1.02,0.81-1.779,1.72-1.779c1.043,0,1.595,0.818,1.687,1.779H64.435z M64.435,75.434h4.192
			c0.01-0.123,0.01-0.205,0.01-0.275c0-1.555-0.898-2.801-2.464-2.801c-1.462,0-2.535,1.229-2.535,2.76
			c0,1.646,1.188,2.762,2.64,2.762c1.001,0,1.645-0.398,2.177-0.992l-0.491-0.438c-0.429,0.449-0.94,0.746-1.666,0.746
			C65.368,77.192,64.55,76.547,64.435,75.434 M54.141,77.754h0.787v-3.016c0-0.973,0.634-1.666,1.472-1.666
			c0.84,0,1.36,0.582,1.36,1.572v3.107h0.777v-3.047c0-1.041,0.664-1.635,1.462-1.635c0.856,0,1.37,0.57,1.37,1.594v3.088h0.787
			v-3.27c0-1.311-0.747-2.127-1.963-2.127c-0.922,0-1.483,0.471-1.861,1.053c-0.286-0.592-0.838-1.053-1.697-1.053
			c-0.889,0-1.357,0.479-1.707,1.002v-0.891h-0.787V77.754z M48.455,74.799c0.11-1.02,0.807-1.779,1.717-1.779
			c1.043,0,1.595,0.818,1.687,1.779H48.455z M48.455,75.434h4.189c0.012-0.123,0.012-0.205,0.012-0.275
			c0-1.555-0.899-2.801-2.463-2.801c-1.464,0-2.536,1.229-2.536,2.76c0,1.646,1.186,2.762,2.638,2.762
			c1.002,0,1.646-0.398,2.177-0.992l-0.49-0.438c-0.43,0.449-0.939,0.746-1.667,0.746C49.385,77.192,48.568,76.547,48.455,75.434
			 M45.321,77.754h0.785v-7.462h-0.785V77.754z M40.871,77.867c0.91,0,1.452-0.461,1.81-1.031v0.92h0.777v-5.287H42.68v3.025
			c0,0.992-0.685,1.658-1.585,1.658c-0.93,0-1.462-0.613-1.462-1.598v-3.088h-0.787v3.283
			C38.847,77.008,39.594,77.867,40.871,77.867 M33.239,74.799c0.11-1.02,0.807-1.779,1.717-1.779c1.043,0,1.595,0.818,1.687,1.779
			H33.239z M33.239,75.434h4.189c0.01-0.123,0.01-0.205,0.01-0.275c0-1.555-0.897-2.801-2.463-2.801
			c-1.462,0-2.536,1.229-2.536,2.76c0,1.646,1.188,2.762,2.64,2.762c1.002,0,1.646-0.398,2.177-0.992l-0.49-0.438
			c-0.43,0.449-0.939,0.746-1.667,0.746C34.168,77.192,33.349,76.547,33.239,75.434 M28.713,77.858c1.421,0,2.443-0.799,2.443-2.023
			v-0.023c0-1.094-0.736-1.676-2.331-2.021c-1.574-0.338-1.942-0.715-1.942-1.391v-0.021c0-0.645,0.593-1.154,1.523-1.154
			c0.734,0,1.399,0.234,2.063,0.777l0.471-0.623c-0.726-0.584-1.472-0.88-2.515-0.88c-1.36,0-2.352,0.828-2.352,1.953v0.02
			c0,1.176,0.757,1.709,2.401,2.064c1.503,0.316,1.86,0.695,1.86,1.359v0.021c0,0.703-0.633,1.215-1.594,1.215
			c-0.992,0-1.708-0.336-2.454-1.012l-0.501,0.594C26.646,77.479,27.578,77.858,28.713,77.858"/>
		
			<line fill="none" stroke="#000000" stroke-width="1.022" stroke-linecap="round" stroke-linejoin="round" stroke-dasharray="0,2.017" x1="105.813" y1="70.552" x2="105.813" y2="128.03"/>
		<path fill="none" stroke="#000000" stroke-width="1.022" stroke-linecap="round" stroke-linejoin="round" d="M105.813,129.037
			L105.813,129.037 M105.813,68.536L105.813,68.536"/>
	</g>
</g>
</svg>
