<?xml version="1.0" encoding="utf-8"?>
<!-- Generator: Adobe Illustrator 15.1.0, SVG Export Plug-In . SVG Version: 6.00 Build 0)  -->
<!DOCTYPE svg PUBLIC "-//W3C//DTD SVG 1.1//EN" "http://www.w3.org/Graphics/SVG/1.1/DTD/svg11.dtd">
<svg version="1.1" id="Calque_1" xmlns="http://www.w3.org/2000/svg" xmlns:xlink="http://www.w3.org/1999/xlink" x="0px" y="0px"
	 width="185.3px" height="52.907px" viewBox="0 0 185.3 52.907" enable-background="new 0 0 185.3 52.907" xml:space="preserve">
<rect fill="#B92430" width="187.3" height="52.907"/>
<g>
	<g>
		<defs>
			<rect id="SVGID_1_" width="187.3" height="52.907"/>
		</defs>
		<clipPath id="SVGID_2_">
			<use xlink:href="#SVGID_1_"  overflow="visible"/>
		</clipPath>
		<path clip-path="url(#SVGID_2_)" fill="#FFFFFF" d="M165.373,39.926c1.871,0,3.111-0.934,3.111-2.508v-0.021
			c0-1.44-1.098-2.015-2.857-2.399c-1.078-0.242-1.344-0.396-1.344-0.748V34.23c0-0.286,0.254-0.495,0.771-0.495
			c0.682,0,1.451,0.253,2.154,0.76l1.067-1.507c-0.836-0.671-1.858-1.022-3.168-1.022c-1.849,0-2.979,1.033-2.979,2.463v0.021
			c0,1.574,1.264,2.036,2.902,2.41c1.057,0.253,1.311,0.418,1.311,0.748v0.021c0,0.33-0.309,0.527-0.893,0.527
			c-0.892,0-1.728-0.318-2.496-0.924l-1.188,1.419C162.723,39.497,164.009,39.926,165.373,39.926 M154.439,39.793h6.246V37.98
			h-4.137v-1.224h3.695v-1.682h-3.695v-1.178h4.08v-1.805h-6.189V39.793z M145.23,39.793h2.109v-4.223l3.301,4.223h1.857v-7.699
			h-2.109v4.07l-3.17-4.07h-1.988V39.793L145.23,39.793z M141.16,39.793h2.133v-7.699h-2.133V39.793z M134.768,36.749l0.869-2.179
			l0.858,2.179H134.768z M131.359,39.793h2.23l0.551-1.385h2.98l0.551,1.385h2.287l-3.277-7.754h-2.057L131.359,39.793z
			 M121.998,39.793h2.088v-4.41l1.959,3.002h0.045l1.97-3.012v4.42h2.121v-7.699h-2.253l-1.838,2.982l-1.838-2.982h-2.254V39.793z
			 M114.027,39.793h6.248V37.98h-4.137v-1.224h3.695v-1.682h-3.695v-1.178h4.082v-1.805h-6.193V39.793z M109.365,39.926
			c1.869,0,3.111-0.934,3.111-2.508v-0.021c0-1.44-1.1-2.015-2.857-2.399c-1.08-0.242-1.344-0.396-1.344-0.748V34.23
			c0-0.286,0.252-0.495,0.771-0.495c0.683,0,1.451,0.253,2.156,0.76l1.064-1.507c-0.834-0.671-1.857-1.022-3.166-1.022
			c-1.85,0-2.98,1.033-2.98,2.463v0.021c0,1.574,1.264,2.036,2.902,2.41c1.057,0.253,1.311,0.418,1.311,0.748v0.021
			c0,0.33-0.309,0.527-0.893,0.527c-0.893,0-1.729-0.318-2.496-0.924l-1.188,1.419C106.714,39.497,108,39.926,109.365,39.926
			 M95.451,39.793h6.092v-1.736h-3.176l1.318-0.924c1.145-0.824,1.779-1.463,1.779-2.695v-0.021c0-1.451-1.152-2.453-2.836-2.453
			c-1.484,0-2.31,0.584-3.135,1.649l1.44,1.199c0.604-0.692,1.013-1.001,1.528-1.001c0.529,0,0.869,0.297,0.869,0.792
			c0,0.462-0.285,0.825-1,1.388l-2.883,2.199v1.604H95.451z M84.715,39.793h6.246V37.98h-4.136v-1.224h3.696v-1.682h-3.696v-1.178
			h4.081v-1.805h-6.191V39.793z M78.83,33.976c1.288,0,2.135,0.726,2.135,1.959v0.021c0,1.244-0.847,1.947-2.135,1.947h-0.869
			v-3.928L78.83,33.976L78.83,33.976z M75.828,39.793h2.936c2.762,0,4.378-1.647,4.378-3.871v-0.021
			c0-2.224-1.594-3.808-4.334-3.808h-2.98V39.793z M64.773,39.793h6.247V37.98h-4.136v-1.224h3.696v-1.682h-3.696v-1.178h4.081
			v-1.805h-6.192V39.793z M58.888,33.976c1.288,0,2.135,0.726,2.135,1.959v0.021c0,1.244-0.847,1.947-2.135,1.947h-0.869v-3.928
			L58.888,33.976L58.888,33.976z M55.886,39.793h2.936c2.762,0,4.378-1.647,4.378-3.871v-0.021c0-2.224-1.594-3.808-4.334-3.808
			h-2.98V39.793z M50.183,38.024c-1.177,0-1.981-0.969-1.981-2.079v-0.022c0-1.11,0.782-2.057,1.959-2.057
			c1.178,0,1.97,0.957,1.97,2.079v0.021C52.131,37.079,51.35,38.024,50.183,38.024 M50.161,39.948c2.377,0,4.157-1.791,4.157-4.003
			v-0.022c0-2.211-1.758-3.98-4.135-3.98c-2.376,0-4.157,1.792-4.157,4.004v0.021C46.026,38.178,47.785,39.948,50.161,39.948
			 M42.302,39.793h2.133v-7.699h-2.133V39.793z M35.955,35.792v-1.86h1.409c0.704,0,1.156,0.31,1.156,0.926v0.021
			c0,0.562-0.43,0.914-1.145,0.914H35.955z M33.823,39.793h2.132v-2.332h0.947l1.552,2.332h2.451l-1.836-2.684
			c0.957-0.406,1.583-1.188,1.583-2.375v-0.021c0-0.76-0.231-1.344-0.681-1.793c-0.517-0.518-1.331-0.826-2.508-0.826h-3.64V39.793z
			 M25.853,39.793H32.1V37.98h-4.136v-1.224h3.696v-1.682h-3.696v-1.178h4.081v-1.805h-6.192V39.793z M28.151,31.567h1.551
			l1.628-1.178l-1.991-0.604L28.151,31.567z M20.152,35.922v-2.035h1.012c0.76,0,1.233,0.342,1.233,1.002v0.021
			c0,0.605-0.473,1.012-1.222,1.012H20.152z M18.019,39.793h2.133v-2.199h1.067c1.904,0,3.3-0.956,3.3-2.781V34.79
			c0-1.693-1.254-2.695-3.19-2.695h-3.31V39.793z"/>
	</g>
	<g>
		<defs>
			<rect id="SVGID_3_" width="187.3" height="52.907"/>
		</defs>
		<clipPath id="SVGID_4_">
			<use xlink:href="#SVGID_3_"  overflow="visible"/>
		</clipPath>
		<path clip-path="url(#SVGID_4_)" fill="#FFFFFF" d="M161.22,24.795h3.688v-10.07h3.989v-3.229H157.25v3.229h3.972L161.22,24.795
			L161.22,24.795z M152.058,24.795h3.688v-13.3h-3.688V24.795z M143.234,25.042c3.781,0,6.232-1.9,6.232-6.175v-7.372h-3.725v7.485
			c0,1.862-0.97,2.736-2.47,2.736c-1.481,0-2.451-0.912-2.451-2.831v-7.391h-3.725v7.467
			C137.098,23.123,139.473,25.042,143.234,25.042 M128.009,24.795h3.687v-10.07h3.99v-3.229h-11.646v3.229h3.971v10.07H128.009z
			 M116.109,19.532l1.5-3.763l1.482,3.763H116.109z M110.218,24.795h3.857l0.949-2.395h5.148l0.951,2.395h3.951l-5.662-13.396
			h-3.554L110.218,24.795z M100.791,17.879v-3.211h2.433c1.217,0,1.995,0.532,1.995,1.596v0.038c0,0.969-0.741,1.577-1.977,1.577
			H100.791z M97.105,24.795h3.686v-4.028h1.635l2.679,4.028h4.237l-3.174-4.636c1.652-0.703,2.736-2.053,2.736-4.104v-0.038
			c0-1.311-0.398-2.317-1.179-3.097c-0.894-0.894-2.3-1.425-4.332-1.425h-6.288V24.795z M88.945,25.061
			c2.432,0,4.37-0.893,5.776-2.07v-5.967h-6.099v2.698h2.603v1.615c-0.532,0.361-1.216,0.551-2.128,0.551
			c-2.109,0-3.61-1.539-3.61-3.705v-0.038c0-2.032,1.482-3.629,3.401-3.629c1.33,0,2.261,0.456,3.211,1.254l2.166-2.622
			c-1.406-1.216-3.059-1.919-5.396-1.919c-4.104,0-7.144,3.04-7.144,6.916v0.038C81.725,22.211,84.803,25.061,88.945,25.061
			 M70.781,24.795h3.686v-13.3h-3.686V24.795z M60.428,19.532l1.501-3.763l1.482,3.763H60.428z M54.538,24.795h3.857l0.95-2.395
			h5.149l0.95,2.395h3.952l-5.662-13.396h-3.553L54.538,24.795z M48.711,25.022c3.23,0,5.377-1.614,5.377-4.332v-0.038
			c0-2.488-1.9-3.477-4.94-4.142c-1.862-0.418-2.318-0.684-2.318-1.292V15.18c0-0.494,0.437-0.854,1.33-0.854
			c1.178,0,2.508,0.437,3.724,1.311l1.843-2.603c-1.444-1.159-3.211-1.768-5.472-1.768c-3.192,0-5.149,1.786-5.149,4.256v0.038
			c0,2.717,2.185,3.516,5.016,4.161c1.824,0.438,2.261,0.722,2.261,1.292v0.038c0,0.57-0.532,0.912-1.539,0.912
			c-1.539,0-2.983-0.551-4.313-1.596l-2.052,2.45C44.132,24.282,46.355,25.022,48.711,25.022 M36.23,25.022
			c3.23,0,5.377-1.614,5.377-4.332v-0.038c0-2.488-1.9-3.477-4.94-4.142c-1.862-0.418-2.318-0.684-2.318-1.292V15.18
			c0-0.494,0.437-0.854,1.33-0.854c1.178,0,2.508,0.437,3.724,1.311l1.843-2.603c-1.444-1.159-3.211-1.768-5.472-1.768
			c-3.192,0-5.149,1.786-5.149,4.256v0.038c0,2.717,2.185,3.516,5.016,4.161c1.824,0.438,2.261,0.722,2.261,1.292v0.038
			c0,0.57-0.532,0.912-1.539,0.912c-1.539,0-2.983-0.551-4.313-1.596l-2.052,2.45C31.651,24.282,33.874,25.022,36.23,25.022
			 M18.02,24.795h10.792V21.66h-7.144v-2.109h6.384v-2.907h-6.384V14.61h7.049v-3.115H18.02V24.795z"/>
	</g>
</g>
</svg>
