<?xml version="1.0" encoding="utf-8"?>
<!-- Generator: Adobe Illustrator 15.1.0, SVG Export Plug-In . SVG Version: 6.00 Build 0)  -->
<!DOCTYPE svg PUBLIC "-//W3C//DTD SVG 1.1//EN" "http://www.w3.org/Graphics/SVG/1.1/DTD/svg11.dtd">
<svg version="1.1" id="Calque_1" xmlns="http://www.w3.org/2000/svg" xmlns:xlink="http://www.w3.org/1999/xlink" x="0px" y="0px"
	 width="201.438px" height="8.542px" viewBox="0 0 201.438 8.542" enable-background="new 0 0 201.438 8.542" xml:space="preserve">
<g>
	<path d="M1.539,1.202H3.97c1.466,0,2.431,0.779,2.431,2.06V3.28c0,1.401-1.169,2.124-2.551,2.124H2.272v2.292H1.539V1.202z
		 M3.877,4.736c1.076,0,1.781-0.574,1.781-1.428v-0.02c0-0.928-0.696-1.41-1.744-1.41H2.272v2.857L3.877,4.736L3.877,4.736z"/>
	<path d="M9.487,1.156h0.688l2.959,6.54h-0.789L11.583,5.98H8.049L7.279,7.696H6.527L9.487,1.156z M11.296,5.321L9.821,2.009
		L8.336,5.321H11.296z"/>
	<path d="M14.41,1.202h2.431c1.466,0,2.431,0.779,2.431,2.06V3.28c0,1.401-1.169,2.124-2.551,2.124h-1.577v2.292H14.41V1.202z
		 M16.748,4.736c1.076,0,1.78-0.574,1.78-1.428v-0.02c0-0.928-0.695-1.41-1.743-1.41h-1.643v2.857L16.748,4.736L16.748,4.736z"/>
	<path d="M20.668,1.202h0.732v6.494h-0.732V1.202z"/>
	<path d="M23.302,1.202h4.694V1.87h-3.961v2.218h3.544v0.668h-3.544v2.272h4.008v0.668h-4.741V1.202z"/>
	<path d="M29.515,1.202h2.792c0.798,0,1.438,0.241,1.846,0.649c0.315,0.315,0.501,0.77,0.501,1.28V3.15
		c0,1.076-0.741,1.707-1.763,1.893l1.995,2.653h-0.9l-1.883-2.522h-0.019h-1.837v2.522h-0.733L29.515,1.202L29.515,1.202z
		 M32.242,4.513c0.974,0,1.67-0.5,1.67-1.336V3.16c0-0.799-0.612-1.281-1.661-1.281h-2.004v2.635L32.242,4.513L32.242,4.513z"/>
</g>
<g>
	<path d="M46.558,1.202h0.733v6.494h-0.733V1.202z"/>
	<path d="M49.191,1.202h0.688l4.091,5.204V1.202h0.714v6.494h-0.584l-4.192-5.325v5.325h-0.715L49.191,1.202L49.191,1.202z"/>
	<path d="M58.233,1.878h-2.18V1.202h5.104v0.677h-2.181v5.817h-0.742L58.233,1.878L58.233,1.878z"/>
	<path d="M62.525,1.202h4.694V1.87h-3.961v2.218h3.544v0.668h-3.544v2.272h4.008v0.668h-4.741V1.202L62.525,1.202z"/>
	<path d="M68.738,1.202h2.792c0.799,0,1.438,0.241,1.847,0.649c0.314,0.315,0.501,0.77,0.501,1.28V3.15
		c0,1.076-0.742,1.707-1.764,1.893l1.995,2.653h-0.899l-1.883-2.522h-0.02H69.47v2.522h-0.733L68.738,1.202L68.738,1.202z
		 M71.466,4.513c0.974,0,1.67-0.5,1.67-1.336V3.16c0-0.799-0.612-1.281-1.661-1.281h-2.004v2.635L71.466,4.513L71.466,4.513z"/>
	<path d="M75.442,1.202h0.688l4.091,5.204V1.202h0.714v6.494H80.35l-4.192-5.325v5.325h-0.715L75.442,1.202L75.442,1.202z"/>
	<path d="M82.768,1.202h4.694V1.87H83.5v2.218h3.544v0.668H83.5v2.272h4.008v0.668h-4.741L82.768,1.202L82.768,1.202z"/>
	<path d="M90.696,1.878h-2.18V1.202h5.104v0.677h-2.181v5.817h-0.742L90.696,1.878L90.696,1.878z"/>
</g>
<g>
	<path d="M106.979,1.878h-2.18V1.202h5.104v0.677h-2.182v5.817h-0.742V1.878z"/>
	<path d="M112.84,1.156h0.688l2.959,6.54h-0.788l-0.761-1.716h-3.535l-0.77,1.716h-0.752L112.84,1.156z M114.649,5.321l-1.475-3.312
		l-1.484,3.312H114.649z"/>
	<path d="M117.762,1.202h2.766c0.742,0,1.326,0.214,1.697,0.575c0.271,0.278,0.418,0.621,0.418,1.039v0.019
		c0,0.845-0.52,1.28-1.029,1.503c0.771,0.232,1.392,0.678,1.392,1.568v0.018c0,1.113-0.938,1.772-2.355,1.772h-2.887L117.762,1.202
		L117.762,1.202z M120.407,4.096c0.881,0,1.493-0.399,1.493-1.159v-0.02c0-0.64-0.51-1.057-1.438-1.057h-1.978v2.235h1.922V4.096z
		 M120.667,7.037c0.983,0,1.596-0.436,1.596-1.158v-0.02c0-0.705-0.594-1.113-1.725-1.113h-2.052v2.291H120.667z"/>
	<path d="M124.458,1.202h0.731v5.817h3.656v0.677h-4.389L124.458,1.202L124.458,1.202z"/>
	<path d="M130.198,1.202h4.692V1.87h-3.961v2.218h3.545v0.668h-3.545v2.272h4.008v0.668h-4.74L130.198,1.202L130.198,1.202z"/>
	<path d="M138.125,1.878h-2.181V1.202h5.104v0.677h-2.182v5.817h-0.742V1.878z"/>
	<path d="M144.135,1.878h-2.18V1.202h5.102v0.677h-2.18v5.817h-0.742V1.878L144.135,1.878z"/>
	<path d="M148.428,1.202h4.693V1.87h-3.961v2.218h3.543v0.668h-3.543v2.272h4.008v0.668h-4.74V1.202L148.428,1.202z"/>
</g>
<g>
	<path d="M164.915,1.202h0.742l2.364,3.544l2.367-3.544h0.742v6.494h-0.734V2.435l-2.364,3.479h-0.037l-2.365-3.47v5.251h-0.715
		V1.202L164.915,1.202z"/>
	<path d="M172.676,4.467V4.449c0-1.791,1.346-3.358,3.32-3.358c1.977,0,3.303,1.55,3.303,3.34c0.01,0.009,0.01,0.009,0,0.019
		c0,1.792-1.344,3.358-3.32,3.358C174.003,7.808,172.676,6.257,172.676,4.467z M178.54,4.467V4.449c0-1.475-1.076-2.682-2.562-2.682
		c-1.484,0-2.543,1.188-2.543,2.663v0.019c0,1.474,1.076,2.681,2.562,2.681C177.482,7.13,178.54,5.943,178.54,4.467z"/>
	<path d="M180.844,1.202h2.766c0.742,0,1.326,0.214,1.697,0.575c0.271,0.278,0.418,0.621,0.418,1.039v0.019
		c0,0.845-0.52,1.28-1.029,1.503c0.771,0.232,1.392,0.678,1.392,1.568v0.018c0,1.113-0.938,1.772-2.355,1.772h-2.887L180.844,1.202
		L180.844,1.202z M183.49,4.096c0.881,0,1.493-0.399,1.493-1.159v-0.02c0-0.64-0.51-1.057-1.438-1.057h-1.978v2.235h1.922V4.096z
		 M183.749,7.037c0.983,0,1.596-0.436,1.596-1.158v-0.02c0-0.705-0.594-1.113-1.725-1.113h-2.052v2.291H183.749z"/>
	<path d="M187.604,1.202h0.734v6.494h-0.734V1.202z"/>
	<path d="M190.24,1.202h0.731v5.817h3.654v0.677h-4.388V1.202H190.24z"/>
	<path d="M195.977,1.202h4.695V1.87h-3.961v2.218h3.543v0.668h-3.543v2.272h4.008v0.668h-4.742V1.202z"/>
</g>
</svg>
