<?xml version="1.0" encoding="utf-8"?>
<!-- Generator: Adobe Illustrator 15.1.0, SVG Export Plug-In . SVG Version: 6.00 Build 0)  -->
<!DOCTYPE svg PUBLIC "-//W3C//DTD SVG 1.1//EN" "http://www.w3.org/Graphics/SVG/1.1/DTD/svg11.dtd">
<svg version="1.1" id="Calque_1" xmlns="http://www.w3.org/2000/svg" xmlns:xlink="http://www.w3.org/1999/xlink" x="0px" y="0px"
	 width="160.647px" height="135.383px" viewBox="0 0 160.647 135.383" enable-background="new 0 0 160.647 135.383"
	 xml:space="preserve">
<g>
	<rect x="14.037" y="11.937" fill="#696969" width="29.371" height="30.204"/>
	<g>
		<path fill="#FFFFFF" d="M30.605,16.848h-3.824c-3.504,0.005-6.344,2.844-6.349,6.349v12.418c0.001,0.869,0.706,1.573,1.574,1.572
			c0.868,0,1.571-0.704,1.571-1.572V23.197c0.004-1.768,1.436-3.199,3.203-3.203h3.822c1.77,0.001,3.202,1.434,3.206,3.203v3.822
			c-0.004,1.77-1.438,3.201-3.206,3.203h-1.517v3.146h1.517c3.506-0.005,6.346-2.845,6.35-6.35v-3.822
			C36.949,19.692,34.109,16.853,30.605,16.848z"/>
		
			<linearGradient id="SVGID_1_" gradientUnits="userSpaceOnUse" x1="-67.0103" y1="339.4727" x2="-59.77" y2="339.4727" gradientTransform="matrix(1 0 0 -1 90 373)">
			<stop  offset="0" style="stop-color:#ABABAB"/>
			<stop  offset="0.3769" style="stop-color:#D0D0D0"/>
			<stop  offset="0.7807" style="stop-color:#F2F2F2"/>
			<stop  offset="1" style="stop-color:#FFFFFF"/>
		</linearGradient>
		<path fill="url(#SVGID_1_)" d="M26.781,30.223c-0.356,0-0.703,0.121-0.982,0.344l-2.221,1.765v3.272
			c0.003,0.479-0.215,0.932-0.588,1.229l0,0l4.332-3.464h2.908v-3.146H26.781z"/>
	</g>
</g>
<g>
	<path d="M5.304,86.732H2.537v-0.859h6.476v0.859H6.247v7.382H5.304V86.732z"/>
	<path d="M12.697,85.814h0.871l3.756,8.3h-1.002l-0.965-2.181h-4.484l-0.979,2.181H8.943L12.697,85.814z M14.992,91.102l-1.87-4.205
		l-1.886,4.205H14.992z"/>
	<path d="M18.924,85.873h3.509c0.942,0,1.684,0.271,2.154,0.729c0.342,0.354,0.529,0.789,0.529,1.317v0.024
		c0,1.07-0.66,1.623-1.308,1.908c0.979,0.293,1.767,0.857,1.767,1.989v0.022c0,1.412-1.188,2.248-2.99,2.248h-3.661V85.873
		L18.924,85.873z M22.279,89.546c1.119,0,1.896-0.506,1.896-1.471v-0.024c0-0.812-0.646-1.343-1.824-1.343h-2.508v2.838H22.279z
		 M22.609,93.277c1.25,0,2.025-0.553,2.025-1.471v-0.024c0-0.894-0.753-1.413-2.189-1.413h-2.602v2.908H22.609z"/>
	<path d="M27.531,85.873h0.93v7.382h4.638v0.859h-5.567V85.873L27.531,85.873z"/>
	<path d="M34.747,85.873h5.956v0.85h-5.026v2.812h4.497v0.846h-4.497v2.887h5.087v0.848h-6.017V85.873z"/>
</g>
<g>
	<path d="M44.894,86.732h-2.766v-0.859h6.475v0.859h-2.768v7.382h-0.941V86.732z"/>
	<path d="M52.699,86.732h-2.767v-0.859h6.476v0.859h-2.767v7.382h-0.942V86.732L52.699,86.732z"/>
</g>
<g>
	<path d="M58.078,85.873h5.959v0.85h-5.027v2.812h4.496v0.846h-4.496v2.887h5.085v0.848h-6.017V85.873z"/>
</g>
<g>
	<path d="M71.793,93.467c0.837,0,1.425-0.342,1.918-0.859l0.565,0.507c-0.612,0.682-1.354,1.143-2.508,1.143
		c-1.673,0-3.037-1.284-3.037-3.181c0-1.766,1.236-3.178,2.92-3.178c1.801,0,2.838,1.438,2.838,3.226c0,0.083,0,0.178-0.012,0.319
		H69.65C69.781,92.725,70.723,93.467,71.793,93.467z M73.57,90.711c-0.104-1.105-0.74-2.049-1.94-2.049
		c-1.048,0-1.849,0.873-1.979,2.049H73.57z"/>
	<path d="M76.242,92.502v-3.673h-0.848v-0.802h0.848v-1.838h0.908v1.838h1.931v0.802H77.15v3.554c0,0.742,0.412,1.012,1.023,1.012
		c0.307,0,0.564-0.059,0.883-0.211v0.777c-0.318,0.164-0.658,0.26-1.095,0.26C76.984,94.22,76.242,93.736,76.242,92.502z"/>
</g>
<g>
	<path d="M86.297,86.732h-2.767v-0.859h6.476v0.859h-2.769v7.382h-0.94V86.732z"/>
</g>
<g>
	<path d="M91.654,85.873h5.957v0.85h-5.026v2.812h4.496v0.846h-4.496v2.887h5.086v0.848h-6.017V85.873z M95.103,83.436l0.941,0.438
		l-1.331,1.271h-0.729L95.103,83.436z"/>
	<path d="M99.445,85.873h0.932v7.382h4.638v0.859h-5.567v-8.241H99.445z"/>
	<path d="M106.663,85.873h5.956v0.85h-5.026v2.812h4.498v0.846h-4.498v2.887h5.086v0.848h-6.016V85.873z M110.111,83.436
		l0.941,0.438l-1.329,1.271h-0.73L110.111,83.436z"/>
	<path d="M114.457,85.873h3.083c1.859,0,3.085,0.988,3.085,2.613v0.022c0,1.778-1.483,2.696-3.238,2.696h-2.001v2.908h-0.929V85.873
		z M117.422,90.357c1.365,0,2.261-0.73,2.261-1.812v-0.023c0-1.177-0.884-1.789-2.213-1.789h-2.085v3.627h2.037V90.357z"/>
	<path d="M122.296,85.873h0.929v3.662h4.757v-3.662h0.931v8.241h-0.931v-3.709h-4.757v3.709h-0.929V85.873z"/>
	<path d="M130.925,90.018v-0.022c0-2.274,1.707-4.263,4.213-4.263c2.508,0,4.192,1.966,4.192,4.236c0.012,0.012,0.012,0.012,0,0.025
		c0,2.271-1.707,4.262-4.215,4.262C132.607,94.256,130.925,92.288,130.925,90.018z M138.365,90.018v-0.022
		c0-1.874-1.365-3.403-3.249-3.403s-3.226,1.508-3.226,3.378v0.025c0,1.871,1.365,3.399,3.247,3.399
		C137.023,93.395,138.365,91.889,138.365,90.018z"/>
	<path d="M141.332,85.873h0.871l5.19,6.604v-6.604h0.906v8.241h-0.741l-5.32-6.759v6.759h-0.906V85.873z"/>
	<path d="M150.726,85.873h5.956v0.85h-5.025v2.812h4.497v0.846h-4.497v2.887h5.085v0.848h-6.016V85.873L150.726,85.873z"/>
</g>
<g>
	<path d="M8.622,107.832H5.996v-0.814h6.146v0.814H9.514v7.008H8.621L8.622,107.832L8.622,107.832z"/>
	<path d="M15.494,114.225c0.793,0,1.353-0.322,1.822-0.814l0.535,0.48c-0.58,0.647-1.285,1.084-2.38,1.084
		c-1.588,0-2.884-1.218-2.884-3.018c0-1.676,1.174-3.02,2.771-3.02c1.709,0,2.692,1.364,2.692,3.063c0,0.077,0,0.167-0.012,0.301
		h-4.582C13.583,113.521,14.478,114.225,15.494,114.225z M17.181,111.611c-0.101-1.053-0.703-1.945-1.844-1.945
		c-0.994,0-1.754,0.826-1.878,1.945H17.181z M15.885,106.57l0.896,0.412l-1.265,1.207h-0.692L15.885,106.57z"/>
	<path d="M19.943,106.682h0.859v8.158h-0.859V106.682z"/>
	<path d="M25.629,114.225c0.795,0,1.353-0.322,1.821-0.814l0.537,0.48c-0.582,0.647-1.285,1.084-2.381,1.084
		c-1.588,0-2.884-1.218-2.884-3.018c0-1.676,1.175-3.02,2.771-3.02c1.711,0,2.695,1.364,2.695,3.063c0,0.077,0,0.167-0.013,0.301
		h-4.582C23.719,113.521,24.613,114.225,25.629,114.225z M27.318,111.611c-0.101-1.053-0.703-1.945-1.844-1.945
		c-0.994,0-1.755,0.826-1.878,1.945H27.318z M26.021,106.57l0.896,0.412l-1.265,1.207H24.96L26.021,106.57z"/>
	<path d="M29.654,111.979v-0.021c0-1.631,1.273-3.019,2.961-3.019c1.096,0,1.777,0.459,2.313,1.027l-0.569,0.604
		c-0.459-0.479-0.973-0.872-1.756-0.872c-1.172,0-2.066,0.995-2.066,2.235v0.022c0,1.251,0.916,2.246,2.123,2.246
		c0.738,0,1.309-0.369,1.767-0.86l0.548,0.516c-0.58,0.646-1.275,1.115-2.357,1.115C30.927,114.975,29.654,113.6,29.654,111.979z"/>
	<path d="M36.638,106.682h0.86v3.387c0.38-0.625,0.983-1.129,1.979-1.129c1.396,0,2.213,0.938,2.213,2.313v3.587h-0.86v-3.376
		c0-1.071-0.582-1.741-1.601-1.741c-0.994,0-1.73,0.726-1.73,1.811v3.308h-0.86L36.638,106.682L36.638,106.682z"/>
	<path d="M43.4,113.163v-0.021c0-1.242,1.006-1.891,2.469-1.891c0.738,0,1.253,0.1,1.767,0.245v-0.181
		c0-1.025-0.626-1.562-1.71-1.562c-0.682,0-1.218,0.167-1.754,0.412l-0.258-0.702c0.638-0.293,1.252-0.492,2.101-0.492
		c0.816,0,1.454,0.223,1.867,0.637c0.401,0.401,0.604,0.961,0.604,1.697v3.532h-0.851v-0.86c-0.401,0.515-1.062,0.983-2.078,0.983
		C44.472,114.963,43.4,114.35,43.4,113.163z M47.646,112.717v-0.537c-0.424-0.121-0.982-0.246-1.688-0.246
		c-1.071,0-1.688,0.471-1.688,1.164v0.021c0,0.727,0.672,1.15,1.452,1.15C46.785,114.27,47.646,113.633,47.646,112.717z"/>
	<path d="M50.629,109.062h0.86v1.51c0.425-0.961,1.263-1.654,2.357-1.609v0.928h-0.066c-1.264,0-2.291,0.904-2.291,2.648v2.302
		h-0.86V109.062z"/>
	<path d="M55.256,115.845l0.392-0.67c0.658,0.48,1.396,0.738,2.225,0.738c1.273,0,2.101-0.704,2.101-2.056v-0.685
		c-0.504,0.671-1.207,1.22-2.271,1.22c-1.385,0-2.715-1.039-2.715-2.705v-0.021c0-1.688,1.342-2.729,2.715-2.729
		c1.086,0,1.789,0.539,2.26,1.164v-1.041h0.859v4.772c0,0.896-0.269,1.575-0.737,2.045c-0.515,0.515-1.285,0.771-2.201,0.771
		C56.921,116.65,56.027,116.383,55.256,115.845z M59.994,111.678v-0.022c0-1.185-1.027-1.956-2.122-1.956
		c-1.097,0-2.001,0.76-2.001,1.945v0.022c0,1.161,0.927,1.966,2.001,1.966C58.966,113.633,59.994,112.839,59.994,111.678z"/>
	<path d="M65.605,114.225c0.793,0,1.353-0.322,1.821-0.814l0.535,0.48c-0.58,0.647-1.285,1.084-2.379,1.084
		c-1.589,0-2.884-1.218-2.884-3.018c0-1.676,1.174-3.02,2.771-3.02c1.71,0,2.692,1.364,2.692,3.063c0,0.077,0,0.167-0.012,0.301
		h-4.582C63.695,113.521,64.587,114.225,65.605,114.225z M67.292,111.611c-0.101-1.053-0.704-1.945-1.845-1.945
		c-0.994,0-1.754,0.826-1.877,1.945H67.292z"/>
	<path d="M69.471,114.293l3.833-4.505h-3.697v-0.728h4.871v0.549l-3.846,4.504h3.846v0.727h-5.007V114.293L69.471,114.293z"/>
	<path d="M79.74,115.845l0.392-0.67c0.66,0.48,1.397,0.738,2.226,0.738c1.273,0,2.102-0.704,2.102-2.056v-0.685
		c-0.504,0.671-1.207,1.22-2.27,1.22c-1.387,0-2.716-1.039-2.716-2.705v-0.021c0-1.688,1.341-2.729,2.716-2.729
		c1.084,0,1.789,0.539,2.258,1.164v-1.041h0.86v4.772c0,0.896-0.269,1.575-0.737,2.045c-0.515,0.515-1.287,0.771-2.203,0.771
		C81.406,116.65,80.512,116.383,79.74,115.845z M84.48,111.678v-0.022c0-1.185-1.027-1.956-2.123-1.956s-2,0.76-2,1.945v0.022
		c0,1.161,0.926,1.966,2,1.966C83.451,113.633,84.48,112.839,84.48,111.678z"/>
	<path d="M87.529,109.062h0.86v1.51c0.425-0.961,1.265-1.654,2.359-1.609v0.928H90.68c-1.262,0-2.291,0.904-2.291,2.648v2.302h-0.86
		V109.062L87.529,109.062z"/>
	<path d="M91.822,113.163v-0.021c0-1.242,1.004-1.891,2.47-1.891c0.735,0,1.251,0.1,1.766,0.245v-0.181
		c0-1.025-0.625-1.562-1.71-1.562c-0.682,0-1.218,0.167-1.755,0.412l-0.257-0.702c0.637-0.293,1.252-0.492,2.102-0.492
		c0.815,0,1.451,0.223,1.866,0.637c0.402,0.401,0.604,0.961,0.604,1.697v3.532h-0.851v-0.86c-0.401,0.515-1.062,0.983-2.079,0.983
		C92.894,114.963,91.822,114.35,91.822,113.163z M96.068,112.717v-0.537c-0.424-0.121-0.982-0.246-1.687-0.246
		c-1.074,0-1.688,0.471-1.688,1.164v0.021c0,0.727,0.67,1.15,1.453,1.15C95.208,114.27,96.068,113.633,96.068,112.717z"/>
	<path d="M99.219,113.309v-3.485h-0.805v-0.761h0.805v-1.742h0.86v1.742h1.834v0.761h-1.834v3.375c0,0.704,0.392,0.961,0.974,0.961
		c0.29,0,0.536-0.056,0.837-0.2v0.736c-0.301,0.156-0.625,0.244-1.037,0.244C99.924,114.939,99.219,114.482,99.219,113.309z"/>
	<path d="M103.533,112.648v-3.588h0.86v3.377c0,1.071,0.581,1.742,1.599,1.742c0.983,0,1.731-0.727,1.731-1.812v-3.308h0.85v5.777
		h-0.85v-1.006c-0.392,0.625-0.981,1.129-1.978,1.129C104.35,114.963,103.533,114.023,103.533,112.648z"/>
	<path d="M110.776,106.85h0.982v0.95h-0.982V106.85z M110.831,109.062h0.859v5.777h-0.859V109.062z"/>
	<path d="M114.15,113.309v-3.485h-0.805v-0.761h0.805v-1.742h0.86v1.742h1.833v0.761h-1.833v3.375c0,0.704,0.391,0.961,0.973,0.961
		c0.29,0,0.537-0.056,0.839-0.2v0.736c-0.302,0.156-0.627,0.244-1.04,0.244C114.855,114.939,114.15,114.482,114.15,113.309z"/>
	<path d="M120.933,114.225c0.794,0,1.354-0.322,1.821-0.814l0.537,0.48c-0.582,0.647-1.285,1.084-2.381,1.084
		c-1.587,0-2.885-1.218-2.885-3.018c0-1.676,1.176-3.02,2.771-3.02c1.71,0,2.694,1.364,2.694,3.063c0,0.077,0,0.167-0.013,0.301
		h-4.581C119.022,113.521,119.917,114.225,120.933,114.225z M122.621,111.611c-0.101-1.053-0.703-1.945-1.845-1.945
		c-0.993,0-1.755,0.826-1.877,1.945H122.621z"/>
	<path d="M125.325,109.062h0.859v0.972c0.38-0.567,0.896-1.095,1.866-1.095c0.939,0,1.544,0.504,1.855,1.151
		c0.413-0.638,1.028-1.151,2.034-1.151c1.33,0,2.146,0.895,2.146,2.324v3.576h-0.86v-3.376c0-1.116-0.56-1.741-1.498-1.741
		c-0.872,0-1.598,0.646-1.598,1.786v3.331h-0.851v-3.396c0-1.084-0.569-1.721-1.485-1.721s-1.61,0.76-1.61,1.82v3.297h-0.859
		V109.062L125.325,109.062z"/>
	<path d="M138.835,114.225c0.795,0,1.353-0.322,1.821-0.814l0.536,0.48c-0.582,0.647-1.284,1.084-2.381,1.084
		c-1.587,0-2.883-1.218-2.883-3.018c0-1.676,1.174-3.02,2.771-3.02c1.711,0,2.694,1.364,2.694,3.063c0,0.077,0,0.167-0.012,0.301
		h-4.582C136.925,113.521,137.82,114.225,138.835,114.225z M140.523,111.611c-0.1-1.053-0.703-1.945-1.843-1.945
		c-0.995,0-1.755,0.826-1.878,1.945H140.523z"/>
	<path d="M143.228,109.062h0.86v1.006c0.38-0.625,0.983-1.129,1.979-1.129c1.396,0,2.213,0.938,2.213,2.313v3.587h-0.86v-3.376
		c0-1.071-0.58-1.741-1.598-1.741c-0.994,0-1.732,0.726-1.732,1.811v3.308h-0.86L143.228,109.062L143.228,109.062z"/>
	<path d="M150.592,113.309v-3.485h-0.805v-0.761h0.805v-1.742h0.86v1.742h1.833v0.761h-1.833v3.375c0,0.704,0.392,0.961,0.973,0.961
		c0.291,0,0.536-0.056,0.838-0.2v0.736c-0.302,0.156-0.625,0.244-1.038,0.244C151.296,114.939,150.592,114.482,150.592,113.309z"/>
</g>
<g>
	<path d="M6.721,120.092h0.86v8.158h-0.86V120.092z"/>
	<path d="M9.683,122.572c0.559-0.2,0.793-0.49,0.749-0.971h-0.403v-1.176h1.029v1.006c0,0.905-0.393,1.342-1.24,1.531L9.683,122.572
		z"/>
	<path d="M12.197,126.574v-0.021c0-1.24,1.006-1.89,2.471-1.89c0.736,0,1.252,0.101,1.766,0.245v-0.18
		c0-1.026-0.626-1.562-1.709-1.562c-0.683,0-1.22,0.167-1.756,0.412l-0.257-0.702c0.638-0.293,1.252-0.493,2.101-0.493
		c0.817,0,1.453,0.225,1.867,0.639c0.401,0.401,0.604,0.961,0.604,1.697v3.531h-0.85v-0.859c-0.402,0.515-1.062,0.983-2.078,0.983
		C13.271,128.374,12.197,127.759,12.197,126.574z M16.445,126.128v-0.538c-0.426-0.122-0.984-0.246-1.688-0.246
		c-1.073,0-1.688,0.471-1.688,1.164v0.021c0,0.726,0.672,1.149,1.453,1.149C15.584,127.68,16.445,127.044,16.445,126.128z"/>
	<path d="M19.427,122.473h0.859v1.161c0.471-0.69,1.152-1.284,2.214-1.284c1.387,0,2.761,1.094,2.761,2.994v0.023
		c0,1.888-1.363,3.007-2.761,3.007c-1.072,0-1.767-0.581-2.214-1.229v2.896h-0.859V122.473z M24.378,125.378v-0.021
		c0-1.364-0.939-2.235-2.034-2.235c-1.071,0-2.09,0.905-2.09,2.223v0.023c0,1.341,1.019,2.235,2.09,2.235
		C23.462,127.604,24.378,126.773,24.378,125.378z"/>
	<path d="M27.15,122.473h0.86v1.161c0.47-0.69,1.151-1.284,2.212-1.284c1.387,0,2.762,1.094,2.762,2.994v0.023
		c0,1.888-1.362,3.007-2.762,3.007c-1.07,0-1.766-0.581-2.212-1.229v2.896h-0.86V122.473z M32.101,125.378v-0.021
		c0-1.364-0.939-2.235-2.035-2.235c-1.072,0-2.09,0.905-2.09,2.223v0.023c0,1.341,1.018,2.235,2.09,2.235
		C31.184,127.604,32.101,126.773,32.101,125.378z"/>
	<path d="M34.928,120.092h0.86v8.158h-0.86V120.092z"/>
	<path d="M38.025,120.261h0.982v0.95h-0.982V120.261z M38.08,122.473h0.859v5.777H38.08V122.473z"/>
	<path d="M40.818,125.389v-0.021c0-1.632,1.273-3.019,2.961-3.019c1.096,0,1.776,0.459,2.313,1.028l-0.569,0.604
		c-0.459-0.479-0.974-0.873-1.756-0.873c-1.173,0-2.066,0.994-2.066,2.234v0.023c0,1.252,0.916,2.246,2.123,2.246
		c0.738,0,1.308-0.369,1.766-0.86l0.549,0.515c-0.582,0.647-1.273,1.117-2.359,1.117C42.091,128.385,40.818,127.01,40.818,125.389z"
		/>
	<path d="M47.5,126.574v-0.021c0-1.24,1.006-1.89,2.47-1.89c0.738,0,1.251,0.101,1.767,0.245v-0.18c0-1.026-0.625-1.562-1.711-1.562
		c-0.681,0-1.217,0.167-1.754,0.412l-0.257-0.702c0.638-0.293,1.251-0.493,2.101-0.493c0.815,0,1.453,0.225,1.867,0.639
		c0.402,0.401,0.604,0.961,0.604,1.697v3.531h-0.852v-0.859c-0.4,0.515-1.061,0.983-2.078,0.983
		C48.574,128.374,47.5,127.759,47.5,126.574z M51.746,126.128v-0.538c-0.424-0.122-0.981-0.246-1.688-0.246
		c-1.072,0-1.688,0.471-1.688,1.164v0.021c0,0.726,0.67,1.149,1.453,1.149C50.885,127.68,51.746,127.044,51.746,126.128z"/>
	<path d="M54.886,126.719v-3.486h-0.805v-0.76h0.805v-1.742h0.861v1.742h1.832v0.76h-1.832v3.377c0,0.703,0.391,0.959,0.972,0.959
		c0.291,0,0.537-0.055,0.839-0.199v0.736c-0.302,0.155-0.626,0.246-1.04,0.246C55.591,128.352,54.886,127.895,54.886,126.719z"/>
	<path d="M59.234,120.261h0.984v0.95h-0.984V120.261z M59.29,122.473h0.86v5.777h-0.86V122.473z"/>
	<path d="M62.029,125.389v-0.021c0-1.632,1.272-3.019,3.017-3.019c1.731,0,3.006,1.363,3.006,2.994v0.023
		c0,1.632-1.285,3.018-3.028,3.018C63.291,128.385,62.029,127.021,62.029,125.389z M67.168,125.389v-0.021
		c0-1.24-0.929-2.259-2.146-2.259c-1.252,0-2.113,1.019-2.113,2.234v0.023c0,1.24,0.918,2.246,2.136,2.246
		C66.296,127.613,67.168,126.607,67.168,125.389z"/>
	<path d="M69.906,122.473h0.86v1.006c0.38-0.625,0.982-1.129,1.978-1.129c1.397,0,2.214,0.938,2.214,2.313v3.587h-0.86v-3.376
		c0-1.071-0.582-1.742-1.599-1.742c-0.995,0-1.731,0.728-1.731,1.812v3.308h-0.859v-5.778H69.906z"/>
</g>
<g>
	<path d="M80.581,120.427h3.196c1.864,0,2.994,1.106,2.994,2.705v0.021c0,1.812-1.408,2.75-3.162,2.75H82.3v2.348H80.58
		L80.581,120.427L80.581,120.427z M83.665,124.373c0.86,0,1.362-0.516,1.362-1.186v-0.021c0-0.771-0.535-1.186-1.396-1.186h-1.33
		v2.393H83.665z"/>
	<path d="M88.168,122.261h1.698v1.206c0.347-0.826,0.904-1.363,1.912-1.318v1.778h-0.09c-1.131,0-1.822,0.681-1.822,2.111v2.212
		h-1.698V122.261z"/>
	<path d="M92.816,125.288v-0.021c0-1.711,1.221-3.121,2.963-3.121c2,0,2.916,1.556,2.916,3.252c0,0.136-0.011,0.293-0.021,0.449
		h-4.167c0.166,0.771,0.703,1.172,1.463,1.172c0.57,0,0.983-0.178,1.453-0.612l0.972,0.86c-0.559,0.691-1.361,1.116-2.445,1.116
		C94.146,128.385,92.816,127.123,92.816,125.288z M97.042,124.787c-0.101-0.762-0.548-1.275-1.263-1.275
		c-0.705,0-1.164,0.502-1.297,1.275H97.042z"/>
	<path d="M99.779,127.458l0.727-1.119c0.648,0.47,1.33,0.716,1.889,0.716c0.492,0,0.717-0.18,0.717-0.445v-0.023
		c0-0.368-0.582-0.491-1.242-0.691c-0.838-0.246-1.786-0.64-1.786-1.801v-0.021c0-1.22,0.981-1.9,2.188-1.9
		c0.762,0,1.588,0.257,2.236,0.692l-0.648,1.174c-0.593-0.346-1.185-0.561-1.619-0.561c-0.416,0-0.627,0.181-0.627,0.416v0.021
		c0,0.336,0.57,0.493,1.218,0.716c0.839,0.279,1.811,0.684,1.811,1.778v0.021c0,1.33-0.993,1.936-2.291,1.936
		C101.512,128.363,100.572,128.083,99.779,127.458z"/>
	<path d="M105.725,127.458l0.726-1.119c0.649,0.47,1.331,0.716,1.891,0.716c0.491,0,0.716-0.18,0.716-0.445v-0.023
		c0-0.368-0.582-0.491-1.241-0.691c-0.839-0.246-1.789-0.64-1.789-1.801v-0.021c0-1.22,0.984-1.9,2.19-1.9
		c0.761,0,1.588,0.257,2.235,0.692l-0.647,1.174c-0.593-0.346-1.186-0.561-1.621-0.561c-0.413,0-0.626,0.181-0.626,0.416v0.021
		c0,0.336,0.569,0.493,1.219,0.716c0.839,0.279,1.812,0.684,1.812,1.778v0.021c0,1.33-0.995,1.936-2.291,1.936
		C107.457,128.363,106.518,128.083,105.725,127.458z"/>
	<path d="M112.363,120.427h3.575c0.995,0,1.767,0.28,2.28,0.794c0.437,0.438,0.671,1.051,0.671,1.787v0.023
		c0,1.263-0.683,2.057-1.677,2.426l1.911,2.793h-2.013l-1.677-2.502h-0.021h-1.33v2.502h-1.722v-7.823H112.363z M115.827,124.229
		c0.839,0,1.317-0.448,1.317-1.106V123.1c0-0.736-0.513-1.117-1.351-1.117h-1.711v2.246H115.827L115.827,124.229z"/>
	<path d="M120.242,125.288v-0.021c0-1.711,1.219-3.121,2.961-3.121c2.001,0,2.918,1.556,2.918,3.252
		c0,0.136-0.013,0.293-0.022,0.449h-4.169c0.168,0.771,0.703,1.172,1.464,1.172c0.569,0,0.983-0.178,1.454-0.612l0.971,0.86
		c-0.56,0.691-1.362,1.116-2.445,1.116C121.572,128.385,120.242,127.123,120.242,125.288z M124.466,124.787
		c-0.102-0.762-0.549-1.275-1.264-1.275c-0.703,0-1.161,0.502-1.296,1.275H124.466z"/>
	<path d="M127.315,126.529v-0.021c0-1.309,0.995-1.91,2.415-1.91c0.604,0,1.038,0.101,1.463,0.244v-0.1
		c0-0.705-0.436-1.096-1.284-1.096c-0.647,0-1.106,0.121-1.653,0.321l-0.425-1.296c0.659-0.29,1.308-0.48,2.325-0.48
		c0.927,0,1.597,0.246,2.021,0.672c0.447,0.447,0.649,1.104,0.649,1.91v3.477h-1.646v-0.646c-0.413,0.457-0.98,0.761-1.811,0.761
		C128.244,128.363,127.315,127.714,127.315,126.529z M131.215,126.139v-0.302c-0.29-0.134-0.67-0.224-1.084-0.224
		c-0.727,0-1.173,0.289-1.173,0.826v0.022c0,0.457,0.379,0.726,0.927,0.726C130.679,127.188,131.215,126.753,131.215,126.139z"/>
	<path d="M134.389,125.268v-0.022c0-2.001,1.309-3.097,2.729-3.097c0.904,0,1.464,0.414,1.865,0.895v-2.95h1.698v8.158h-1.698v-0.86
		c-0.414,0.561-0.983,0.975-1.865,0.975C135.719,128.363,134.389,127.268,134.389,125.268z M139.004,125.268v-0.022
		c0-0.995-0.659-1.653-1.452-1.653c-0.794,0-1.465,0.647-1.465,1.653v0.022c0,0.994,0.671,1.652,1.465,1.652
		C138.345,126.92,139.004,126.262,139.004,125.268z"/>
	<path d="M142.28,125.288v-0.021c0-1.711,1.218-3.121,2.961-3.121c2.001,0,2.917,1.556,2.917,3.252c0,0.136-0.012,0.293-0.021,0.449
		h-4.17c0.169,0.771,0.704,1.172,1.465,1.172c0.57,0,0.983-0.178,1.453-0.612l0.972,0.86c-0.559,0.691-1.363,1.116-2.446,1.116
		C143.61,128.385,142.28,127.123,142.28,125.288z M146.503,124.787c-0.102-0.762-0.547-1.275-1.263-1.275
		c-0.704,0-1.162,0.502-1.296,1.275H146.503z"/>
	<path d="M149.755,122.261h1.698v1.206c0.347-0.826,0.904-1.363,1.911-1.318v1.778h-0.091c-1.128,0-1.82,0.681-1.82,2.111v2.212
		h-1.698V122.261z"/>
</g>
<g>
	<path d="M123.15,56.759c0,1.65-1.35,3-3,3H55.888c-1.65,0-3-1.35-3-3V13.546c0-1.65,1.35-3,3-3h64.262c1.65,0,3,1.35,3,3V56.759z"
		/>
</g>
<rect x="59.133" y="13.569" fill="#FFFFFF" width="57.833" height="43.167"/>
<rect x="60.789" y="15.509" fill="#BDBCBB" width="54.178" height="39.287"/>
<circle fill="#FFFFFF" cx="55.65" cy="35.152" r="0.947"/>
<g>
	<g>
		<g>
			<path d="M130.545,69.496c0,1.65-1.351,3-3,3h-14.367c-1.649,0-3-1.35-3-3V36.244c0-1.65,1.351-3,3-3h14.367c1.649,0,3,1.35,3,3
				V69.496z"/>
			<path fill="#FFFFFF" d="M127.545,72.996h-14.367c-1.93,0-3.5-1.57-3.5-3.5V36.244c0-1.93,1.57-3.5,3.5-3.5h14.367
				c1.93,0,3.5,1.57,3.5,3.5v33.252C131.045,71.426,129.475,72.996,127.545,72.996z M113.178,33.744c-1.379,0-2.5,1.122-2.5,2.5
				v33.252c0,1.378,1.121,2.5,2.5,2.5h14.367c1.379,0,2.5-1.122,2.5-2.5V36.244c0-1.378-1.121-2.5-2.5-2.5H113.178z"/>
		</g>
		<rect x="112.677" y="38.983" fill="#FFFFFF" width="15.368" height="28.514"/>
		<rect x="113.077" y="39.389" fill="#BDBCBB" width="14.569" height="21.377"/>
		<line fill="none" stroke="#000000" stroke-width="0.132" x1="113.334" y1="62.744" x2="127.388" y2="62.744"/>
		<line fill="none" stroke="#000000" stroke-width="0.132" x1="113.334" y1="63.93" x2="127.388" y2="63.93"/>
		<line fill="none" stroke="#000000" stroke-width="0.132" x1="113.334" y1="65.116" x2="127.388" y2="65.116"/>
		<line fill="none" stroke="#000000" stroke-width="0.132" x1="113.334" y1="66.302" x2="127.388" y2="66.302"/>
		<line fill="none" stroke="#000000" stroke-width="0.132" x1="113.334" y1="61.558" x2="127.388" y2="61.558"/>
		<circle fill="#FFFFFF" cx="118.004" cy="36.083" r="0.445"/>
		<line fill="none" stroke="#FFFFFF" stroke-width="0.5" stroke-linecap="round" x1="119.145" y1="36.07" x2="121.578" y2="36.07"/>
	</g>
	<circle fill="#FFFFFF" cx="120.361" cy="69.986" r="0.947"/>
</g>
</svg>
