<?xml version="1.0" encoding="utf-8"?>
<!-- Generator: Adobe Illustrator 15.0.2, SVG Export Plug-In . SVG Version: 6.00 Build 0)  -->
<!DOCTYPE svg PUBLIC "-//W3C//DTD SVG 1.1//EN" "http://www.w3.org/Graphics/SVG/1.1/DTD/svg11.dtd">
<svg version="1.1" id="Calque_1" xmlns="http://www.w3.org/2000/svg" xmlns:xlink="http://www.w3.org/1999/xlink" x="0px" y="0px"
	 width="40px" height="40px" viewBox="0 0 40 40" enable-background="new 0 0 40 40" xml:space="preserve">
<path d="M20,40c11.047,0,20-8.953,20-20S31.047,0,20,0S0,8.953,0,20S8.953,40,20,40"/>
<polygon fill="#FFFFFF" points="19.156,10.633 19.156,13.804 15.987,13.804 15.987,16.553 19.156,16.553 19.156,19.724 
	21.908,19.724 21.908,16.553 25.075,16.553 25.075,13.804 21.908,13.804 21.908,10.633 "/>
<g>
	<polygon fill="#FFFFFF" points="16.859,29.582 15.455,29.582 14.367,25.213 14.347,25.213 13.279,29.582 11.846,29.582 
		10.145,23.162 11.56,23.162 12.577,27.531 12.594,27.531 13.709,23.162 15.032,23.162 16.131,27.583 16.148,27.583 17.2,23.162 
		18.587,23.162 	"/>
	<polygon fill="#FFFFFF" points="24.11,29.582 19.233,29.582 19.233,23.162 24.041,23.162 24.041,24.343 20.646,24.343 
		20.646,25.722 23.762,25.722 23.762,26.824 20.646,26.824 20.646,28.401 24.11,28.401 	"/>
	<path fill="#FFFFFF" d="M29.271,26.092c0.557-0.267,0.871-0.706,0.871-1.335c0-1.198-0.827-1.595-2.051-1.595h-3.025v6.42h3.115
		c1.159,0,2.267-0.552,2.267-1.861C30.448,26.919,30.056,26.316,29.271,26.092z M26.479,24.257h1.323
		c0.504,0,0.974,0.129,0.974,0.741c0,0.534-0.37,0.758-0.866,0.758h-1.431V24.257z M27.992,28.487h-1.513v-1.766h1.543
		c0.604,0,1.017,0.267,1.017,0.922C29.039,28.307,28.548,28.487,27.992,28.487z"/>
</g>
</svg>
