<?xml version="1.0" encoding="utf-8"?>
<!-- Generator: Adobe Illustrator 18.0.0, SVG Export Plug-In . SVG Version: 6.00 Build 0)  -->
<!DOCTYPE svg PUBLIC "-//W3C//DTD SVG 1.1//EN" "http://www.w3.org/Graphics/SVG/1.1/DTD/svg11.dtd">
<svg version="1.1" id="Calque_1" xmlns="http://www.w3.org/2000/svg" xmlns:xlink="http://www.w3.org/1999/xlink" x="0px" y="0px"
	 viewBox="382.4 255.3 28.2 22.7" enable-background="new 382.4 255.3 28.2 22.7" xml:space="preserve">
<g>
	<path fill="#1D1D1B" d="M410.2,267.3c0.1,0.1,0.2,0.2,0.2,0.4v7.1c0,0.1-0.1,0.2-0.2,0.4c-0.1,0.1-0.2,0.1-0.3,0.1h-0.1l-4.7-1v1.4
		c0,1.1-0.9,2-2,2h-14.2c-1.1,0-2-0.9-2-2v-8.3c-2.5-0.9-4.3-3.1-4.3-5.9c0-3.3,2.7-6,6-6c3.3,0,6,2.7,6,6c0,1.2-0.4,2.4-1,3.3h4
		c-0.7-0.9-1-2.1-1-3.3c0-3.3,2.7-6,6-6s6,2.7,6,6c0,2.5-1.5,4.6-3.6,5.5v1.2l4.7-1C409.9,267.2,410.1,267.3,410.2,267.3
		L410.2,267.3z M402.7,256.3c-2.8,0-5.2,2.3-5.2,5.2c0,2.8,2.3,5.2,5.2,5.2c2.8,0,5.2-2.3,5.2-5.2
		C407.9,258.7,405.5,256.3,402.7,256.3L402.7,256.3z M383.4,261.5c0,2.8,2.3,5.2,5.2,5.2c2.8,0,5.2-2.3,5.2-5.2
		c0-2.8-2.3-5.2-5.2-5.2C385.8,256.3,383.4,258.7,383.4,261.5L383.4,261.5z M403.1,276.7c0.7,0,1.2-0.5,1.2-1.2v-8.2
		c-0.5,0.1-1,0.2-1.5,0.2c-1.7,0-3.3-0.7-4.4-1.9h-5.3c-1.1,1.1-2.7,1.9-4.4,1.9c-0.3,0-0.7,0-0.9-0.1v8.1c0,0.7,0.5,1.2,1.2,1.2
		H403.1L403.1,276.7z M409.5,274.3v-6l-4.4,0.9v4.2L409.5,274.3L409.5,274.3z M397.3,274.1c0.2,0,0.3,0.1,0.3,0.3v0.4
		c0,0.2-0.1,0.3-0.3,0.3h-2.5c-0.2,0-0.3-0.1-0.3-0.3v-0.4c0-0.2,0.1-0.3,0.3-0.3H397.3L397.3,274.1z M392.5,273.9
		c0.4,0,0.8,0.4,0.8,0.8c0,0.4-0.4,0.8-0.8,0.8c-0.4,0-0.8-0.4-0.8-0.8C391.7,274.3,392.1,273.9,392.5,273.9L392.5,273.9z"/>
	<path fill="#32BEF0" d="M402.7,259.3c-1.2,0-2.2,1-2.2,2.2s1,2.2,2.2,2.2s2.2-1,2.2-2.2S403.9,259.3,402.7,259.3z M402.7,262.9
		c-0.8,0-1.4-0.6-1.4-1.4s0.6-1.4,1.4-1.4s1.4,0.6,1.4,1.4S403.4,262.9,402.7,262.9z"/>
	<path fill="#32BEF0" d="M388.6,259.3c-1.2,0-2.2,1-2.2,2.2s1,2.2,2.2,2.2c1.2,0,2.2-1,2.2-2.2C390.8,260.3,389.8,259.3,388.6,259.3
		z M388.6,262.9c-0.8,0-1.4-0.6-1.4-1.4s0.6-1.4,1.4-1.4c0.8,0,1.4,0.6,1.4,1.4S389.4,262.9,388.6,262.9z"/>
	<path fill="#32BEF0" d="M389.8,273.9c0.4,0,0.8,0.4,0.8,0.8c0,0.4-0.4,0.8-0.8,0.8c-0.4,0-0.8-0.4-0.8-0.8S389.3,273.9,389.8,273.9
		L389.8,273.9z"/>
	<path fill="#32BEF0" d="M389.8,273.9c0.4,0,0.8,0.4,0.8,0.8c0,0.4-0.4,0.8-0.8,0.8c-0.4,0-0.8-0.4-0.8-0.8S389.3,273.9,389.8,273.9
		L389.8,273.9z"/>
</g>
</svg>
