<?xml version="1.0" encoding="utf-8"?>
<!-- Generator: Adobe Illustrator 18.0.0, SVG Export Plug-In . SVG Version: 6.00 Build 0)  -->
<!DOCTYPE svg PUBLIC "-//W3C//DTD SVG 1.1//EN" "http://www.w3.org/Graphics/SVG/1.1/DTD/svg11.dtd">
<svg version="1.1" id="Calque_1" xmlns="http://www.w3.org/2000/svg" xmlns:xlink="http://www.w3.org/1999/xlink" x="0px" y="0px"
	 viewBox="0 0 792 612" enable-background="new 0 0 792 612" xml:space="preserve">
<g>
	<path fill="#4F95C0" d="M277.2,536.3h237.3l10.8,18H266.5L277.2,536.3z M395.9,338.6l115,191.6h-230L395.9,338.6z M368.3,354.9
		L184.9,475.7l-5.2-6.3l197.8-129.9L368.3,354.9z M249.4,552.9l-60.5-72.5L361,367L249.4,552.9z M420.9,350.6l-6.7-11.1l197.8,129.9
		l-3.8,4.6L420.9,350.6z M542.4,552.9L428.2,362.7l176.1,116L542.4,552.9z M127.2,554.3V440.6l261-303.5v184.6l-3.4,5.7L173.5,466.2
		c-0.7,0.5-1.2,1.2-1.3,2.1c-0.1,0.9,0.1,1.7,0.7,2.4l69.8,83.6H127.2z M664.5,554.3H549.2l60.2-72.2l0.3,0.2
		c0.5,0.3,1.1,0.5,1.7,0.5c1,0,2-0.5,2.6-1.4c0.9-1.3,0.5-3-0.6-4l5.6-6.8c0.6-0.7,0.8-1.5,0.7-2.4c-0.1-0.9-0.6-1.6-1.3-2.1
		L407,327.4l-3.4-5.7V137.1l261,303.5V554.3z M401.8,111.6l-0.1-0.1l0,0c-0.1-0.1-0.1-0.1-0.2-0.2c-0.1-0.1-0.3-0.3-0.4-0.4
		c-0.1-0.1-0.1-0.1-0.2-0.2c-0.1,0-0.1-0.1-0.2-0.1c-0.1-0.1-0.2-0.2-0.4-0.3c-0.2-0.1-0.3-0.2-0.5-0.3c-0.2-0.1-0.3-0.2-0.4-0.3
		c-0.1-0.1-0.3-0.1-0.4-0.2c-0.2-0.1-0.3-0.1-0.5-0.2c-0.2-0.1-0.3-0.1-0.5-0.2c-0.1,0-0.3-0.1-0.4-0.1c-0.2,0-0.4-0.1-0.5-0.1
		c-0.2,0-0.3-0.1-0.5-0.1c-0.2,0-0.3,0-0.5,0c-0.1,0-0.2,0-0.3,0c-0.1,0-0.2,0-0.3,0c-0.1,0-0.3,0-0.4,0c-0.2,0-0.4,0-0.5,0.1
		c-0.2,0-0.4,0.1-0.5,0.1c-0.1,0-0.3,0.1-0.4,0.1c-0.2,0-0.3,0.1-0.5,0.2c-0.2,0.1-0.3,0.1-0.5,0.2c-0.1,0.1-0.2,0.1-0.4,0.2
		c-0.2,0.1-0.3,0.2-0.5,0.3c-0.2,0.1-0.3,0.2-0.5,0.3c-0.1,0.1-0.2,0.2-0.4,0.3c-0.1,0.1-0.1,0.1-0.2,0.1c-0.1,0.1-0.1,0.1-0.2,0.2
		c-0.1,0.1-0.3,0.3-0.4,0.4c-0.1,0.1-0.1,0.1-0.2,0.2l0,0h0l-0.1,0.1L5,556.9c-2.8,3.2-2.4,8,0.8,10.8c1.4,1.2,3.2,1.9,5,1.9
		c2.1,0,4.3-0.9,5.8-2.6L112,456.6v105.4c0,4.2,3.4,7.6,7.6,7.6h133.3h285.9h133.3c4.2,0,7.6-3.4,7.6-7.6V456.6l95.4,110.3
		c1.5,1.8,3.6,2.6,5.8,2.6c1.8,0,3.6-0.6,5-1.9c3.2-2.8,3.5-7.6,0.8-10.8L401.8,111.6z"/>
	<path fill="#4F95C0" d="M675.4,189.5c-1,0.5-2,0.9-3.1,1.3c-35.4,14.2-75.8-3.1-89.9-38.6c-14.2-35.4,3.1-75.8,38.6-89.9
		c1-0.4,2.1-0.8,3.1-1.1c-14.8,22.7-18.1,51.7-7.8,77.5C626.6,164.6,649,183.3,675.4,189.5 M630.5,133.1
		c-10.8-27-3.4-58.1,18.4-77.5c2.4-2.1,3.2-5.6,2-8.6c-1.2-3-4.1-4.9-7.4-4.8c-9.9,0.4-19.4,2.3-28.3,5.9
		C572,65.4,550.9,114.7,568.2,158c17.3,43.3,66.6,64.4,109.8,47.1c8.9-3.6,17.2-8.7,24.6-15.2c2.4-2.1,3.2-5.6,2-8.6
		c-1.2-3-4.2-4.9-7.4-4.8C668.1,177.5,641.3,160.1,630.5,133.1"/>
</g>
</svg>
