<?xml version="1.0" encoding="utf-8"?>
<!-- Generator: Adobe Illustrator 15.0.0, SVG Export Plug-In . SVG Version: 6.00 Build 0)  -->
<!DOCTYPE svg PUBLIC "-//W3C//DTD SVG 1.1//EN" "http://www.w3.org/Graphics/SVG/1.1/DTD/svg11.dtd" [
	<!ENTITY ns_extend "http://ns.adobe.com/Extensibility/1.0/">
	<!ENTITY ns_ai "http://ns.adobe.com/AdobeIllustrator/10.0/">
	<!ENTITY ns_graphs "http://ns.adobe.com/Graphs/1.0/">
	<!ENTITY ns_vars "http://ns.adobe.com/Variables/1.0/">
	<!ENTITY ns_imrep "http://ns.adobe.com/ImageReplacement/1.0/">
	<!ENTITY ns_sfw "http://ns.adobe.com/SaveForWeb/1.0/">
	<!ENTITY ns_custom "http://ns.adobe.com/GenericCustomNamespace/1.0/">
	<!ENTITY ns_adobe_xpath "http://ns.adobe.com/XPath/1.0/">
]>
<svg version="1.1" id="Calque_1" xmlns:x="&ns_extend;" xmlns:i="&ns_ai;" xmlns:graph="&ns_graphs;"
	 xmlns="http://www.w3.org/2000/svg" xmlns:xlink="http://www.w3.org/1999/xlink" x="0px" y="0px" width="23.875px"
	 height="36.917px" viewBox="-0.917 -17.917 23.875 36.917" enable-background="new -0.917 -17.917 23.875 36.917"
	 xml:space="preserve">
<metadata>
	<sfw  xmlns="&ns_sfw;">
		<slices></slices>
		<sliceSourceBounds  width="23.467" height="36.402" y="711.161" x="708.19" bottomLeftOrigin="true"></sliceSourceBounds>
	</sfw>
</metadata>
<path fill="#00C7FC" d="M12.525,17.742l8.158-14.131c0.83-1.44-0.058-2.9-1.673-2.9H2.693c-1.185,0-2.006,0.718-2.006,1.748
	c0,0.379,0.107,0.765,0.331,1.148l8.16,14.139c0.404,0.693,1.017,1.093,1.677,1.093C11.515,18.839,12.125,18.439,12.525,17.742
	L12.525,17.742z M10.629,16.904L2.469,2.773C2.366,2.594,2.358,2.486,2.358,2.459l-0.01-0.005c0.021-0.019,0.121-0.072,0.345-0.072
	h16.318c0.222,0,0.321,0.053,0.333,0.081c0,0.023-0.008,0.131-0.111,0.314l-8.16,14.127c-0.105,0.195-0.207,0.252-0.211,0.263
	C10.834,17.156,10.737,17.1,10.629,16.904L10.629,16.904z"/>
<polygon fill="#00C7FC" points="8.226,12.742 10.844,12.167 13.682,12.742 10.844,18.013 "/>
<polyline fill="none" stroke="#00C7FC" stroke-width="1.5" stroke-miterlimit="10" points="1.875,1.281 1.875,-9.369 20.031,-9.369 
	20.031,1.812 "/>
<line fill="none" stroke="#00C7FC" stroke-width="1.5" stroke-miterlimit="10" x1="6.406" y1="-8.911" x2="6.406" y2="2.007"/>
<line fill="none" stroke="#00C7FC" stroke-width="1.5" stroke-miterlimit="10" x1="15.531" y1="-9.369" x2="15.531" y2="1.417"/>
<path fill="none" stroke="#00C7FC" stroke-width="1.5" stroke-miterlimit="10" d="M0.958-9.369H21C23.041-11.613,21-13,21-13H0.958
	C0.958-13-1.333-11.613,0.958-9.369z"/>
<path fill="#00C7FC" d="M20.858-13.438c-0.775-2.338-4.908-4.125-9.905-4.125c-4.997,0-9.13,1.787-9.905,4.125H20.858z"/>
</svg>
