<?xml version="1.0" encoding="utf-8"?>
<!-- Generator: Adobe Illustrator 18.0.0, SVG Export Plug-In . SVG Version: 6.00 Build 0)  -->
<!DOCTYPE svg PUBLIC "-//W3C//DTD SVG 1.1//EN" "http://www.w3.org/Graphics/SVG/1.1/DTD/svg11.dtd">
<svg version="1.1" id="Calque_1" xmlns="http://www.w3.org/2000/svg" xmlns:xlink="http://www.w3.org/1999/xlink" x="0px" y="0px"
	 viewBox="0 0 792 612" enable-background="new 0 0 792 612" xml:space="preserve">
<g>
	<path fill="none" stroke="#4F95C0" stroke-width="15" stroke-linecap="round" stroke-miterlimit="10" d="M707,542.6
		c-2.7-2.7-77.1,0-77.1,0 M668.5,504.1c-2.7-2.7-77.1,0-77.1,0 M704,595.3l17.1-17.1c6.3-6.3,6.3-16.6,0-22.9L624,458.1l-40,40
		l97.1,97.1C687.4,601.6,697.7,601.6,704,595.3z M542.2,416.4L137,11.2 M504.2,545.4c-15.2-39.6-2.1-92,36.5-130.5
		c38.6-38.6,91-51.7,130.5-36.5L504.2,545.4z M85.1,542.6c2.7-2.7,77.1,0,77.1,0 M123.6,504.1c2.7-2.7,77.1,0,77.1,0 M88.1,595.3
		L71,578.2c-6.3-6.3-6.3-16.6,0-22.9l97.1-97.1l40,40L111,595.3C104.7,601.6,94.5,601.6,88.1,595.3z M249.9,416.4L655.1,11.2
		 M287.9,545.4c15.2-39.6,2.1-92-36.5-130.5c-38.6-38.6-91-51.7-130.5-36.5L287.9,545.4z"/>
</g>
</svg>
