<?xml version="1.0" encoding="utf-8"?>
<!-- Generator: Adobe Illustrator 18.0.0, SVG Export Plug-In . SVG Version: 6.00 Build 0)  -->
<!DOCTYPE svg PUBLIC "-//W3C//DTD SVG 1.1//EN" "http://www.w3.org/Graphics/SVG/1.1/DTD/svg11.dtd">
<svg version="1.1" id="Calque_1" xmlns="http://www.w3.org/2000/svg" xmlns:xlink="http://www.w3.org/1999/xlink" x="0px" y="0px"
	 viewBox="0 0 62.5 57.7" enable-background="new 0 0 62.5 57.7" xml:space="preserve">
<g>
	<path fill="#5296C9" d="M59.5,45.7l-4,3.6c-1.4-0.7-8.5-4.2-12.6-9.5l-1.7,1.4c3.9,5,10.1,8.5,12.6,9.7l-3.7,3.3l0,0l-0.2,0.2
		c-0.7,0.6-1.8,0.7-2.5,0.1c-0.1-0.1-0.1-0.1-0.2-0.2c0,0,0,0-0.1,0c-0.1,0-0.1-0.1-0.2-0.2c0,0,0,0-0.1-0.1
		c-0.1-0.1-0.1-0.1-0.2-0.2c0,0-0.1,0-0.1-0.1c-0.1-0.1-0.1-0.1-0.2-0.2c0,0-0.1-0.1-0.1-0.1c-0.1-0.1-0.2-0.2-0.3-0.3
		c0,0-0.1-0.1-0.1-0.1c-0.1-0.1-0.2-0.2-0.2-0.2c-0.1,0-0.1-0.1-0.2-0.2c-0.1-0.1-0.1-0.1-0.2-0.2c-0.1-0.1-0.1-0.1-0.2-0.2
		c0,0-0.1-0.1-0.1-0.1c-0.1-0.1-0.1-0.1-0.2-0.2c0,0-0.1-0.1-0.1-0.1c-0.4-0.4-0.8-0.9-1.2-1.4c0,0,0,0,0-0.1
		c-0.1-0.1-0.2-0.3-0.3-0.4c0,0,0,0,0-0.1c-2-2.5-4.1-6-5.4-10.4c-0.5-1.7-0.9-3.5-1.1-5.5c1.3-1,2.3-2.2,3.2-3.7
		c0.4,0.8,0.9,1.8,1.7,2.9l0,0c1.5,2.1,3.8,4.4,7.3,6.6c0,0,0,0,0,0c0.2,0.1,0.4,0.3,0.6,0.4c0.1,0,0.1,0.1,0.2,0.1
		c0.2,0.1,0.3,0.2,0.5,0.3c0.1,0,0.1,0.1,0.2,0.1c0.2,0.1,0.3,0.2,0.5,0.3c0.1,0,0.2,0.1,0.2,0.1c0.2,0.1,0.3,0.2,0.5,0.3
		c0.1,0,0.1,0.1,0.2,0.1c0.2,0.1,0.4,0.2,0.6,0.3c0,0,0.1,0,0.1,0.1c2,0.9,4.2,1.8,6.8,2.5c0.3,0.1,0.5,0.4,0.5,0.7
		C59.8,45.4,59.7,45.6,59.5,45.7 M31,33.8c-3,0-5.2-1.9-6.8-4.4h13.5C36.2,31.9,34,33.8,31,33.8 M27,38.2c0.2-0.9,0.4-1.9,0.5-2.9
		c1.1,0.4,2.2,0.7,3.5,0.7c1.3,0,2.5-0.3,3.5-0.7c0.1,1,0.3,2,0.5,2.9H27z M34.5,43.8h-7l-0.7-3.3h8.4L34.5,43.8z M33.9,46.9
		c-0.3,1.4-1.5,2.4-2.9,2.4c-1.4,0-2.6-1-2.9-2.4l-0.2-1h6.2L33.9,46.9z M14.6,54.4C13.9,55,12.7,55,12,54.3l-3.8-3.5
		c2.5-1.3,8.6-4.7,12.6-9.7l-1.7-1.4c-4.2,5.3-11.3,8.9-12.6,9.5l-4-3.6c-0.2-0.1-0.2-0.3-0.2-0.5c0-0.3,0.2-0.6,0.5-0.7
		c13-3.8,17.8-10.3,19.5-14c0.9,1.4,1.9,2.7,3.2,3.7C24.2,45.8,16.8,52.6,14.6,54.4 M23.6,10.6c1.8-2,4.5-3.3,7.4-3.3
		c2.9,0,5.6,1.3,7.4,3.3H23.6z M39.9,12.8c0.5,1,0.9,2.1,1,3.3H21.1c0.1-1.2,0.5-2.3,1-3.3H39.9z M40,23.8c-0.3,1.1-0.7,2.2-1.1,3.3
		H23.1c-0.5-1.1-0.8-2.2-1.1-3.3H40z M21.5,21.6c-0.2-1.2-0.3-2.3-0.4-3.3h19.9c-0.1,1-0.2,2.1-0.4,3.3H21.5z M16.6,17.2
		c0-7.9,6.5-14.4,14.4-14.4c7.9,0,14.4,6.5,14.4,14.4c0,4.6-1.2,9.4-3.2,13.2c-0.6-1.2-1-2.1-1.1-2.7c1.5-3.6,2.1-7.7,2.1-10.5
		C43.2,10.5,37.7,5,31,5c-6.7,0-12.2,5.5-12.2,12.2c0,2.8,0.6,6.8,2.1,10.5c-0.2,0.6-0.5,1.6-1.1,2.7C17.8,26.6,16.6,21.8,16.6,17.2
		 M59.8,42.3c-1.5-0.4-2.8-0.9-4-1.4l0,0c-6.5-2.6-10.2-5.8-12.3-8.5c2.5-4.2,4-10,4-15.3c0-9.2-7.4-16.6-16.6-16.6
		c-9.2,0-16.6,7.4-16.6,16.6c0,5.3,1.5,11.1,4.1,15.3c-2.5,3.2-7.2,7.1-16.3,9.8C0.9,42.7,0,43.8,0,45.2c0,0.8,0.4,1.6,1,2.2
		l9.6,8.6c0.8,0.7,1.8,1.1,2.8,1.1c1,0,1.9-0.3,2.6-0.9c1.7-1.4,6.3-5.6,9.2-12.5l0.7,3.7c0.5,2.4,2.6,4.1,5.1,4.1
		c2.4,0,4.6-1.7,5.1-4.1l0.7-3.7c2,4.8,4.9,8.3,7,10.4c0,0,0,0,0,0c0.2,0.2,0.3,0.3,0.5,0.5c0.1,0.1,0.1,0.1,0.2,0.2
		c0.1,0.1,0.2,0.2,0.3,0.3c0.5,0.4,0.9,0.8,1.2,1.1c0.7,0.6,1.7,0.9,2.6,0.9c1,0,2-0.4,2.8-1.1l9.6-8.6c0.6-0.6,1-1.4,1-2.2
		C62,43.8,61.1,42.7,59.8,42.3"/>
	<path fill="none" d="M59.5,45.7l-4,3.6c-1.4-0.7-8.5-4.2-12.6-9.5l-1.7,1.4c3.9,5,10.1,8.5,12.6,9.7l-3.7,3.3l0,0l-0.2,0.2
		c-0.7,0.6-1.8,0.7-2.5,0.1c-0.1-0.1-0.1-0.1-0.2-0.2c0,0,0,0-0.1,0c-0.1,0-0.1-0.1-0.2-0.2c0,0,0,0-0.1-0.1
		c-0.1-0.1-0.1-0.1-0.2-0.2c0,0-0.1,0-0.1-0.1c-0.1-0.1-0.1-0.1-0.2-0.2c0,0-0.1-0.1-0.1-0.1c-0.1-0.1-0.2-0.2-0.3-0.3
		c0,0-0.1-0.1-0.1-0.1c-0.1-0.1-0.2-0.2-0.2-0.2c-0.1,0-0.1-0.1-0.2-0.2c-0.1-0.1-0.1-0.1-0.2-0.2c-0.1-0.1-0.1-0.1-0.2-0.2
		c0,0-0.1-0.1-0.1-0.1c-0.1-0.1-0.1-0.1-0.2-0.2c0,0-0.1-0.1-0.1-0.1c-0.4-0.4-0.8-0.9-1.2-1.4c0,0,0,0,0-0.1
		c-0.1-0.1-0.2-0.3-0.3-0.4c0,0,0,0,0-0.1c-2-2.5-4.1-6-5.4-10.4c-0.5-1.7-0.9-3.5-1.1-5.5c1.3-1,2.3-2.2,3.2-3.7
		c0.4,0.8,0.9,1.8,1.7,2.9l0,0c1.5,2.1,3.8,4.4,7.3,6.6c0,0,0,0,0,0c0.2,0.1,0.4,0.3,0.6,0.4c0.1,0,0.1,0.1,0.2,0.1
		c0.2,0.1,0.3,0.2,0.5,0.3c0.1,0,0.1,0.1,0.2,0.1c0.2,0.1,0.3,0.2,0.5,0.3c0.1,0,0.2,0.1,0.2,0.1c0.2,0.1,0.3,0.2,0.5,0.3
		c0.1,0,0.1,0.1,0.2,0.1c0.2,0.1,0.4,0.2,0.6,0.3c0,0,0.1,0,0.1,0.1c2,0.9,4.2,1.8,6.8,2.5c0.3,0.1,0.5,0.4,0.5,0.7
		C59.8,45.4,59.7,45.6,59.5,45.7z M31,33.8c-3,0-5.2-1.9-6.8-4.4h13.5C36.2,31.9,34,33.8,31,33.8z M27,38.2c0.2-0.9,0.4-1.9,0.5-2.9
		c1.1,0.4,2.2,0.7,3.5,0.7c1.3,0,2.5-0.3,3.5-0.7c0.1,1,0.3,2,0.5,2.9H27z M34.5,43.8h-7l-0.7-3.3h8.4L34.5,43.8z M33.9,46.9
		c-0.3,1.4-1.5,2.4-2.9,2.4c-1.4,0-2.6-1-2.9-2.4l-0.2-1h6.2L33.9,46.9z M14.6,54.4C13.9,55,12.7,55,12,54.3l-3.8-3.5
		c2.5-1.3,8.6-4.7,12.6-9.7l-1.7-1.4c-4.2,5.3-11.3,8.9-12.6,9.5l-4-3.6c-0.2-0.1-0.2-0.3-0.2-0.5c0-0.3,0.2-0.6,0.5-0.7
		c13-3.8,17.8-10.3,19.5-14c0.9,1.4,1.9,2.7,3.2,3.7C24.2,45.8,16.8,52.6,14.6,54.4z M23.6,10.6c1.8-2,4.5-3.3,7.4-3.3
		c2.9,0,5.6,1.3,7.4,3.3H23.6z M39.9,12.8c0.5,1,0.9,2.1,1,3.3H21.1c0.1-1.2,0.5-2.3,1-3.3H39.9z M40,23.8c-0.3,1.1-0.7,2.2-1.1,3.3
		H23.1c-0.5-1.1-0.8-2.2-1.1-3.3H40z M21.5,21.6c-0.2-1.2-0.3-2.3-0.4-3.3h19.9c-0.1,1-0.2,2.1-0.4,3.3H21.5z M16.6,17.2
		c0-7.9,6.5-14.4,14.4-14.4c7.9,0,14.4,6.5,14.4,14.4c0,4.6-1.2,9.4-3.2,13.2c-0.6-1.2-1-2.1-1.1-2.7c1.5-3.6,2.1-7.7,2.1-10.5
		C43.2,10.5,37.7,5,31,5c-6.7,0-12.2,5.5-12.2,12.2c0,2.8,0.6,6.8,2.1,10.5c-0.2,0.6-0.5,1.6-1.1,2.7C17.8,26.6,16.6,21.8,16.6,17.2
		z M59.8,42.3c-1.5-0.4-2.8-0.9-4-1.4l0,0c-6.5-2.6-10.2-5.8-12.3-8.5c2.5-4.2,4-10,4-15.3c0-9.2-7.4-16.6-16.6-16.6
		c-9.2,0-16.6,7.4-16.6,16.6c0,5.3,1.5,11.1,4.1,15.3c-2.5,3.2-7.2,7.1-16.3,9.8C0.9,42.7,0,43.8,0,45.2c0,0.8,0.4,1.6,1,2.2
		l9.6,8.6c0.8,0.7,1.8,1.1,2.8,1.1c1,0,1.9-0.3,2.6-0.9c1.7-1.4,6.3-5.6,9.2-12.5l0.7,3.7c0.5,2.4,2.6,4.1,5.1,4.1
		c2.4,0,4.6-1.7,5.1-4.1l0.7-3.7c2,4.8,4.9,8.3,7,10.4c0,0,0,0,0,0c0.2,0.2,0.3,0.3,0.5,0.5c0.1,0.1,0.1,0.1,0.2,0.2
		c0.1,0.1,0.2,0.2,0.3,0.3c0.5,0.4,0.9,0.8,1.2,1.1c0.7,0.6,1.7,0.9,2.6,0.9c1,0,2-0.4,2.8-1.1l9.6-8.6c0.6-0.6,1-1.4,1-2.2
		C62,43.8,61.1,42.7,59.8,42.3z"/>
</g>
</svg>
