<?xml version="1.0" encoding="utf-8"?>
<!-- Generator: Adobe Illustrator 15.1.0, SVG Export Plug-In . SVG Version: 6.00 Build 0)  -->
<!DOCTYPE svg PUBLIC "-//W3C//DTD SVG 1.1//EN" "http://www.w3.org/Graphics/SVG/1.1/DTD/svg11.dtd">
<svg version="1.1" id="Calque_1" xmlns="http://www.w3.org/2000/svg" xmlns:xlink="http://www.w3.org/1999/xlink" x="0px" y="0px"
	 width="239.759px" height="36.197px" viewBox="0 0 239.759 36.197" enable-background="new 0 0 239.759 36.197"
	 xml:space="preserve">
<path fill="#FFFFFF" d="M14.187,9.577l11.397,25.477h-5.435L18.46,31.26H9.911l-1.688,3.794h-5.42L14.187,9.577 M16.479,6.292
	l-1.796,1.379L9.571,2.917l2.912-2.292L16.479,6.292z M16.479,26.83l-2.276-5.281l-2.308,5.281H16.479z"/>
<path fill="#FFFFFF" d="M44.013,30.139c1.387,0,2.916-1.151,2.916-2.537c0-2.279-3.06-2.597-4.786-3.195
	c-3.044-1.038-5.732-3.537-5.732-6.937c0-4.209,3.415-7.602,7.626-7.602c3.838,0,7.02,2.847,7.534,6.55l-4.983,1.052
	c0-1.37-1.15-2.521-2.521-2.521c-1.393,0-2.543,1.151-2.543,2.537c0,2.249,2.847,2.847,4.58,3.362
	c3.149,0.909,5.93,3.309,5.93,6.785c0,4.21-3.78,7.61-7.981,7.61c-3.862,0-7.353-2.832-7.921-6.55l4.982-1.06
	c0,1.393,1.515,2.529,2.924,2.529L44.013,30.139"/>
<polyline fill="#FFFFFF" points="59.207,10.086 59.207,20.077 67.556,20.077 67.556,10.086 72.559,10.086 72.559,35.053 
	67.556,35.053 67.556,25.048 59.207,25.048 59.207,35.053 54.205,35.053 54.205,10.086 59.207,10.086 "/>
<path fill="#FFFFFF" d="M86.116,9.577l11.399,25.477h-5.438l-1.688-3.794h-8.549l-1.688,3.794h-5.421L86.116,9.577 M88.408,26.83
	l-2.276-5.281l-2.308,5.281H88.408z"/>
<polyline fill="#FFFFFF" points="97.286,10.086 101.902,21.904 106.533,10.086 111.148,21.904 115.748,10.086 121.168,10.086 
	111.148,35.611 106.472,23.19 101.902,35.611 91.882,10.086 97.286,10.086 "/>
<rect x="123.346" y="10.088" fill="#FFFFFF" width="5.018" height="24.966"/>
<rect x="149.946" y="10.088" fill="#FFFFFF" width="5.018" height="24.966"/>
<polyline fill="#FFFFFF" points="163.08,10.086 163.08,30.067 173.117,30.067 173.117,35.053 158.063,35.053 158.063,10.086 
	163.08,10.086 "/>
<polyline fill="#FFFFFF" points="189.325,10.086 193.878,18.745 198.432,10.086 204.116,10.086 196.371,24.351 196.371,35.053 
	191.385,35.053 191.385,24.351 183.656,10.086 189.325,10.086 "/>
<path fill="#FFFFFF" d="M226.039,9.577l11.4,25.477h-5.438l-1.688-3.794h-8.549l-1.688,3.794h-5.421L226.039,9.577 M228.331,26.83
	l-2.275-5.281l-2.309,5.281H228.331z"/>
</svg>
