<?xml version="1.0" encoding="utf-8"?>
<!-- Generator: Adobe Illustrator 15.1.0, SVG Export Plug-In . SVG Version: 6.00 Build 0)  -->
<!DOCTYPE svg PUBLIC "-//W3C//DTD SVG 1.1//EN" "http://www.w3.org/Graphics/SVG/1.1/DTD/svg11.dtd">
<svg version="1.1" id="Calque_1" xmlns="http://www.w3.org/2000/svg" xmlns:xlink="http://www.w3.org/1999/xlink" x="0px" y="0px"
	 width="166.811px" height="263.361px" viewBox="0 0 166.811 263.361" enable-background="new 0 0 166.811 263.361"
	 xml:space="preserve">
<path fill="#FFFFFF" d="M89.208,14.738c-1.469,0-2.792,0.162-4.107-0.52c-1.618-0.838-3.223-1.634-4.847-2.403
	c-1.32-0.625-3.091-1.424-4.476-1.733c-3.167-0.707-6.786-0.535-10.031-0.535c-2.071,0-4.331-0.349-6.239,0.615
	c-2.712,1.371-4.674,3.75-6.36,6.208c-1.988,2.898-3.963,6.623-4.088,10.204c-0.057,1.64,0.141,3.177,0.598,4.746
	c0.317,1.087,0.713,2.203,0.509,3.36c-0.37,2.09-1.874,4.098-2.575,6.1c-0.383,1.092-0.479,2.29-0.863,3.369
	c-0.593,1.666-1.109,2.869-0.986,4.75c0.29,4.424,3.557,6.274,7.218,8.027c2.711,1.298,5.729,2.417,8.559,3.451
	c2.543,0.929,4.852,1.729,7.561,1.73c6.641,0.001,13.365-1.074,19.452-3.68c3.52-1.507,7.372-1.864,10.62-3.92
	c1.442-0.913,3.674-1.774,4.769-3.07c0.821-0.972,1.503-2.212,2.266-3.31c1.436-2.066,3.941-5.469,3.123-8.185
	c-0.26-0.861-1.067-2.3-1.615-3.009c-0.962-1.244-1.677-2.532-2.243-4.143c-0.356-1.015-0.601-1.986-0.965-2.981
	c-0.374-1.02-0.688-1.708-1.498-2.422c-0.55-0.483-1.408-0.826-1.887-1.282c-0.856-0.817-1.771-2.356-2.512-3.385
	c-1.148-1.594-1.836-2.991-3.193-4.456c-1.035-1.116-2.296-1.841-3.385-2.784c-1.134-0.983-2.002-1.353-3.449-0.957"/>
<path fill="#FFFFFF" d="M87.851,16.762c0.68-1.342,2.521-1.465,3.766-1.005c1.896,0.969,3.441,2.522,4.855,4.118
	c3.207,4.093,6.756,8.021,8.92,12.838c1.812,3.823,3.399,8.302,1.879,12.505c-0.883,2.678-3.207,4.355-5.141,6.203
	c-3.535-0.753-7.4-1.499-10.102-4.131c0.825-4.783-0.517-9.557-0.989-14.3c-0.667-2.933-1.433-5.848-1.87-8.834
	C88.741,21.693,87.316,19.321,87.851,16.762 M95.302,43.571c-0.623,0.781-0.404,1.838-0.487,2.767
	c0.698,0.817,1.989,1.402,2.95,0.69c1.76-1.012,1.973-4.004-0.016-4.903C96.785,42.269,95.916,42.803,95.302,43.571z"/>
<path fill="#FFFFFF" d="M63.719,45.335c-0.744-2.231,0.853-4.528,2.638-5.678c0.589,0.55,1.459,1.05,1.322,2.018
	c0.01,1.77-0.998,3.786-2.759,4.322C64.519,45.772,64.119,45.556,63.719,45.335"/>
<path fill="#FFFFFF" d="M96.938,43.379c0.695,0.322,0.751,0.997,0.631,1.695c-0.315,0.178-0.637,0.358-0.952,0.54
	c-0.195-0.333-0.39-0.663-0.583-0.996C96.325,44.199,96.63,43.789,96.938,43.379"/>
<g>
	<path fill="none" d="M87.347,170.222c-2.318-2.271-5.095-3.957-7.956-5.418c-0.611,3.04-0.869,6.137-0.852,9.229
		c1.125,0.022,2.297,0.146,3.368-0.29c0.802-0.267,1.545-0.734,2.396-0.824c0.618,0.562,0.837,1.657,0.029,2.173
		c-1.145,0.735-2.407,1.271-3.691,1.682c-4.474,0.261-8.948-0.664-13.132-2.234c-2.828-1.411-5.658-2.962-7.889-5.275
		c-0.421-0.493-1.251-0.917-0.973-1.693c0.996-0.342,1.56,0.938,2.309,1.368c0.189-2.247-0.163-4.494-0.386-6.719
		c-2.405-0.359-4.965-0.325-7.234,0.657c-1.413,0.793-2.777,2.463-2.202,4.21c0.46,1.845,1.052,3.729,0.603,5.652
		c3.174,0.213,6.084,1.556,9.096,2.448c4.025,1.299,8.071,2.556,12.172,3.59c5.355,0.926,10.825,1.534,16.257,1.051
		c0.477-1.762,2.918-2.651,2.388-4.68C90.786,173.072,88.888,171.749,87.347,170.222z"/>
	<path fill="none" d="M75.257,124.01c-1.245-2.647-3.704-4.33-6.214-5.566c-3.228-1.935-7.047-2.54-10.743-2.438
		c1.703,3.997,3.484,8.034,6.128,11.484c0.911,1.44,1.933,2.814,3.255,3.888c3.036,3.088,6.92,5.821,11.359,5.85
		c3.547-0.165,6.419-2.545,9.188-4.557c-0.61-2.545-1.326-5.095-2.529-7.419c-0.831-1.615-1.309-3.602-2.919-4.618
		c-2.221-1.611-5.065-1.869-7.658-1.24c1.967,3.01,3.483,6.443,3.873,10.076c-0.396,0.155-0.791,0.31-1.188,0.468
		C76.843,128.011,76.384,125.852,75.257,124.01z"/>
	<path fill="none" d="M162.013,165.866c-1.828,0.868-3.74,1.567-5.496,2.583c0.935,0.568,1.934,1.016,2.926,1.468
		c-1.192,1.422-3.102,0.505-4.354-0.326c-3.615-2.606-5.588-6.938-6.722-11.189c-0.977-3.195-1.057-6.644-0.507-9.931
		c0.233-1.549,1.639-2.456,3.104-2.456c-0.078,1.07-0.336,2.108-0.649,3.126c2.125-0.77,4.218-1.633,6.291-2.526
		c-0.452-0.704-0.966-1.371-1.646-1.853c-1.281-0.954-2.424-2.128-3.855-2.852c-1.592,0.521-2.836,1.798-4.008,2.968
		c-2.582,2.854-4.549,6.236-6.401,9.615c-0.353-0.104-0.709-0.2-1.06-0.3c0.239-1.807,1.123-3.404,1.972-4.979
		c-3.179,1.784-6.351,3.586-9.638,5.153c-4.996,2.27-9.916,4.735-15.061,6.642c-8.316,3.849-17.097,6.544-25.98,8.619
		c1.637,1.73,3.439,3.63,3.72,6.139c0.192,1.873-1.534,2.924-2.736,3.979c3.396-0.1,6.764-0.623,10.146-0.896
		c5.226-0.455,10.4-1.3,15.586-2.051c3.385-0.58,6.809-1.05,10.091-2.11c1.159-0.238,1.311-1.633,1.933-2.468
		c1.291-2.396,3.642-4.232,6.329-4.553c1.885-0.226,3.647,0.718,5.188,1.709c1.937,1.494,2.818,3.907,3.826,6.072
		c2.401-0.09,4.803-0.271,7.158-0.799c2.78-0.65,5.633-0.897,8.428-1.476C161.313,170.789,162.38,168.431,162.013,165.866z"/>
	<path fill="none" d="M89.169,24.156c0.438,2.985,1.204,5.9,1.871,8.833c0.475,4.743,1.814,9.517,0.989,14.3
		c2.7,2.632,6.566,3.378,10.101,4.131c1.935-1.849,4.26-3.525,5.142-6.203c1.521-4.203-0.065-8.682-1.88-12.505
		c-2.164-4.817-5.711-8.745-8.918-12.838c-1.416-1.595-2.961-3.149-4.856-4.118c-1.243-0.46-3.085-0.337-3.765,1.006
		C87.317,19.321,88.742,21.692,89.169,24.156z"/>
	<path fill="none" d="M63.104,169.651c4.077,2.263,8.549,3.728,13.17,4.193c0.311-2.588,0.105-5.232,0.784-7.765
		c0.389-2.898,0.645-5.823,1.336-8.671c-2.506-0.135-5.024-0.798-7.128-2.238c-2.134-1.113-4.371-2.462-5.491-4.731
		c-0.19-1.473,0.22-2.932,0.296-4.396c0.227-0.071,0.452-0.135,0.683-0.196c1.318,2.495,3.614,4.234,5.919,5.699
		c1.892,0.898,3.927,1.529,5.999,1.814c1.176,0.253,2.289-0.29,3.411-0.573c2.211-0.574,4.12-1.918,6.024-3.148
		c2.127-1.391,3.858-3.285,5.644-5.085c2.675-3.594,3.962-8.601,2.304-12.925c-1.701-2.921-4.198-5.803-7.662-6.35
		c-0.414,2.154,0.816,4.152,0.677,6.312c0.5-0.497,1.047-0.95,1.61-1.371c0.461,0.529,0.888,1.088,1.295,1.66
		c-1.944,2.809-4.642,5.245-7.885,6.323c-1.626,0.588-3.305,1.138-5.046,1.159c-1.626,0.06-3.213-0.383-4.799-0.662
		c-1.847-0.712-3.609-1.716-5.16-2.963c-1.697-1.52-3.518-2.972-4.685-4.986c-1.646-1.947-2.955-4.154-3.997-6.49
		c-1.486-2.486-2.792-5.139-3.393-8.008c-0.61-2.377-1.791-4.582-2.081-7.046c-0.975-3.892-1.498-7.895-1.879-11.895
		c-0.645-2.94-0.796-5.967-0.838-8.972c0.258-2.087-0.991-3.898-1.437-5.861c-0.857-2.541-1.148-5.218-1.431-7.876
		c-0.506,0.903-1.028,1.797-1.689,2.593c-0.22-0.133-0.656-0.409-0.877-0.542c0.05-4.199,3.761-7.464,7.605-8.184
		c0.145,0.752,0.284,1.506,0.433,2.258c-1.357,0.435-2.67,1.022-3.85,1.833c-0.205,1.493-0.156,3.015,0.194,4.483
		c1.425,8.402,5.576,16.25,11.546,22.183c3.548,3.139,7.761,5.735,12.444,6.534c4.767,1.512,9.845,1.623,14.767,1.01
		c2.504-0.693,5.141-1.092,7.459-2.335c0.655-1.093,1.008-2.341,1.5-3.51c-6.092,0.464-12.162-1.101-17.71-3.597
		c-4.708-2.347-9.192-5.525-12.225-9.97c-2.113-3.199-2.581-7.277-1.914-11.018c0.457-1.403,1.118-2.729,1.655-4.101
		c1.159-2.125,2.542-4.124,3.947-6.084c1.51-1.751,2.804-3.908,4.988-4.847c-0.037,0.23-0.104,0.702-0.137,0.937
		c-2.864,3.136-5.421,6.649-7.054,10.628c-0.591,1.836-1.495,3.65-1.377,5.638c0.083,1.926,0.067,3.938,0.824,5.739
		c0.705,1.792,1.967,3.295,3.299,4.637c2.771,2.146,5.66,4.17,8.791,5.722c2.443,0.874,4.911,1.675,7.381,2.47
		c4.877,1.118,10.069,1.621,14.926,0.137c2.557-0.791,5.185-1.497,7.496-2.908c3.236-1.857,6.234-4.169,8.834-6.879
		c2.01-2.336,3.906-4.799,5.392-7.526c1.719-2.494,2.582-5.438,3.613-8.266c0.737-2.209,0.765-4.575,0.774-6.876
		c-0.125-2.827-1.031-5.781-3.104-7.744c-2.321-1.852-5.337-2.227-8.172-2.54c-2.296,0.121-4.572-0.327-6.864-0.247
		c-3.922-0.065-7.844-0.333-11.649-1.361c-2.944-0.805-6.238-1.333-8.531-3.562c-1.463-1.455-1.301-3.619-1.305-5.525
		c-0.625-7.67-2.172-15.225-4.024-22.673c-0.435-1.537-1.196-3.102-0.835-4.744c0.263-1.017,1.091-1.688,1.953-2.174
		c-3.561-3.836-8.231-6.36-12.895-8.523c-3.715-1.564-7.828-2.224-11.829-1.745c-4.757,0.704-9.264,2.541-13.578,4.651
		c-1.784,1.098-3.848,1.676-5.474,3.053c-1.882,1.176-3.422,2.793-5.242,4.054c-3.156,2.897-6.374,5.753-9.16,9.045
		c-1.77,2.26-3.503,4.653-4.301,7.476c-1.481,3.253-2.319,7.063-1.249,10.578c4.387-1.236,9.021-0.384,13.251,1.063
		c2.043,0.691,3.729,2.096,5.553,3.215c0.803,0.52,1.6,1.109,2.133,1.931c0.576,1.046,0.181,2.26,0.09,3.372
		c-0.227,0.017-0.68,0.05-0.905,0.063c-2.191-1.992-4.778-3.426-7.228-5.03c-3.758-1.794-8.063-2.495-12.153-1.663
		c-3.583,0.528-6.778,2.523-9.55,4.816c-1.665,1.685-3.343,3.381-4.807,5.252c-1.266,2.521-3.12,4.691-4.22,7.303
		c-1.021,2.811-2.494,5.498-2.813,8.527c-0.222,1.688,0.343,3.405,1.346,4.742c1.493,2.38,3.49,4.354,5.33,6.445
		c1.811,1.941,4.095,3.317,6.129,4.992c2.72,1.585,5.4,3.32,8.396,4.328c3.185,1.057,6.432,2.167,9.818,2.127
		c2.403-0.474,4.488-1.942,6.301-3.564c0.782-0.938,1.527-1.912,2.486-2.671c0.958,0.612,1.901,1.313,2.363,2.413
		c-0.061,1.793-1.558,2.832-2.669,3.985c1.01,2.06,2.121,4.082,2.796,6.296c3.117,7.636,5.722,15.471,8.382,23.287
		c1.71,5.604,3.052,11.323,4.434,17.02c1.382,4.374,2.391,8.868,3.1,13.408C62.163,159.508,63.311,164.527,63.104,169.651z"/>
	<path fill="none" d="M164.218,164.804c0.4,2.832-0.082,5.708-0.774,8.45"/>
	<path fill="#080000" d="M162.354,174.82c-0.631,0.754-1.28,1.418-1.634,2.207 M164.218,164.804
		C164.295,164.777,164.142,164.833,164.218,164.804c-0.012-1.444-0.29-2.482-1.629-2.7c-2.963,1.066-5.935,2.121-8.895,3.195
		c-2.392-3.682-3.601-8.054-3.814-12.452c2.701-1.048,5.382-2.158,8.033-3.337c0.469-1.167,0.526-2.62,0.532-3.832
		c-0.2,0.092-0.399,0.188-0.602,0.278c-0.187-1.402-1.278-2.373-2.254-3.252c-1.514-1.3-3.142-2.658-5.151-2.992
		c-0.905,0.061-1.832,0.332-2.468,1.024c-1.182,1.31-2.508,2.489-3.51,3.95c-0.82,1.354-2.438,1.672-3.718,2.387
		c-6.229,3.516-12.741,6.456-19.188,9.5c-2.553,0.811-4.98,1.979-7.541,2.77c-2.062,0.913-4.281,1.406-6.332,2.353
		c-0.93,0.386-1.918,0.56-2.877,0.837c-1.977,0.43-3.832,1.284-5.811,1.693c-1.771,0.01-3.4,0.729-5.076,1.191
		c-2.07,0.422-4.088,1.07-6.191,1.316c-1.539-0.856-2.978-1.898-4.562-2.687c-1.166-0.397-2.287-0.928-3.453-1.318
		c0.237-2.116,1.006-4.094,1.509-6.141c2.801-1.152,5.492-2.609,7.876-4.513c2.381-1.742,4.711-3.65,6.439-6.096
		c2.583-3.048,3.623-7.2,3.33-11.173c-0.31-1.028-0.38-2.116-0.76-3.123c-0.998-2.899-3.218-5.169-5.628-6.907
		c-1.116-0.849-2.385-1.594-3.827-1.521c0.378-2.867,1.456-5.57,1.915-8.42c0.88-2.398,1.348-4.999,2.796-7.137
		c1.963-0.36,3.899-0.899,5.74-1.688c0.389-0.131,0.649-0.386,0.784-0.779c0.543-1.507,0.799-3.122,1.481-4.574
		c3.468-0.798,6.906-1.903,10.099-3.524c1.828-1.228,3.769-2.27,5.457-3.705c3.012-2.443,6.062-4.995,8.108-8.375
		c3.177-4.34,5.396-9.34,6.792-14.554c0.535-3.18,0.569-6.535-0.521-9.606c-0.676-1.919-1.473-3.959-3.131-5.217
		c-1.236-1.103-2.83-1.624-4.33-2.22c-2.907-0.53-5.875-0.624-8.807-0.997c-3.455,0.088-6.902-0.131-10.324-0.626
		c0.979-1.006,2.104-1.888,2.864-3.092c1.564-2.506,2.388-5.583,1.86-8.55c-0.56-3.361-1.491-6.752-3.388-9.596
		c-1.379-2.289-2.961-4.433-4.322-6.729c-1.063-1.783-2.535-3.244-3.813-4.854c-1.373-1.699-2.926-3.27-4.719-4.5
		c-1.158-0.794-2.568-0.963-3.929-0.949c-0.602-0.954-1.238-1.928-2.148-2.601c-2.276-1.655-4.485-3.413-6.88-4.885
		c-2.666-1.405-5.32-2.993-8.323-3.481c-3.095-0.579-6.316-1.237-9.438-0.504c-1.835,0.327-3.734,0.402-5.48,1.119
		c-3.429,1.104-6.691,2.68-9.949,4.215c-3.413,2.058-6.99,3.836-10.323,6.04c-3.224,2.586-6.662,4.975-9.312,8.219
		c-2.309,2.141-4.072,4.791-5.76,7.446c-2.149,2.766-3.403,6.207-3.623,9.726c-0.162,2.007,0.021,4.288,1.396,5.854
		c-2.389,1.402-4.605,3.116-6.466,5.196c-0.747,0.933-1.639,1.725-2.482,2.556c-3.097,3.639-5.143,8.02-7.04,12.396
		c-1.113,3.083-1.756,6.431-1.177,9.704c0.063,1.727,1.152,3.104,2.017,4.493c2.333,3.493,5.503,6.28,8.848,8.723
		c1.834,1.13,3.705,2.196,5.484,3.415c4.739,2.555,9.868,4.424,15.207,5.074c1.896,0.229,3.75-0.271,5.605-0.583
		c0.834,1.188,1.471,2.496,2.213,3.743c1.812,3.864,3.86,7.633,5.245,11.695c1.44,3.343,2.522,6.842,4.067,10.145
		c0.787,2.475,1.582,4.938,2.34,7.422c2.093,5.703,3.127,11.726,4.438,17.653c0.728,2.362,0.908,4.856,1.54,7.25
		c0.297,1.828,0.522,3.677,0.926,5.495c-0.664-0.01-1.329-0.058-1.987,0.002c-3.104,0.604-6.424,1.461-8.598,3.992
		c-0.621,0.938-0.793,2.124-0.86,3.235c0.218,2.2,1.552,4.282,0.894,6.551c-3.453,1.676-6.105,4.774-7.834,8.213
		c-1.181,3.016-1.599,6.306-1.648,9.541c0.353,1.93,0.271,3.956,0.993,5.807c1.344,3.98,2.729,8.046,5.107,11.523
		c-1.457,2.179-0.234,4.889,1.032,6.831c1.095,5.466,1.353,11.112,0.925,16.688c-0.166,3.739-1.489,7.269-2.337,10.875
		c-1.204,3.695-1.981,7.555-3.658,11.077c-0.408,0.911-0.705,2.165,0.186,2.897c0.741,0.384,1.625,0.312,2.428,0.19
		c1.131-3.651,2.507-7.234,3.34-10.976c0.721-2.771,1.05-5.619,1.519-8.436c1.001-6.75,0.783-13.618-0.154-20.352
		c0.302,0.096,0.9,0.287,1.201,0.388c0.2-0.101,0.599-0.292,0.799-0.388c-0.121-0.381-0.238-0.76-0.354-1.133
		c-2.178-1.12-3.764-3.446-3.622-5.993c0.853,0.767,1.682,1.558,2.513,2.354c0.438-0.336,0.945-0.611,1.25-1.103
		c-0.797-1.062-1.89-1.843-2.686-2.907c-1.251-1.703-2.434-3.493-3.144-5.509c-0.945-2.666-2.11-5.311-2.351-8.168
		c-0.59-3.921-0.642-8.046,0.709-11.819c0.905-2.613,3.252-4.324,5.577-5.525c3.104-1.175,6.427-0.161,9.508,0.581
		c4.063,0.929,7.898,2.763,12.046,3.299c3.698,0.822,7.486,0.936,11.247,1.205c6.506,0.094,13.104,0.769,19.533-0.601
		c8.379-0.901,16.805-1.724,25.052-3.557c-0.695,1.093-1.98,1.82-2.472,3.007c-0.395,0.932,0.846,0.283,1.235,0.283
		c2.519-0.97,3.522-3.766,4.915-5.888c1.146-2.142,3.044-3.845,5.266-4.722c1.74-0.479,3.262,0.899,4.271,2.184
		c1.195,1.321,1.634,3.095,2.263,4.725c-0.619,0.08-1.236,0.162-1.853,0.25c-0.182-0.146-0.541-0.43-0.721-0.583
		c-1.938,1.949-3.149,4.529-4.016,7.126c-0.791,3.391-2.035,6.68-2.414,10.165c-0.271,2.465-0.88,4.914-0.709,7.408
		c0.156,2.491,0.363,5.085,1.61,7.292c0.56-0.161,1.144-0.256,1.678-0.501c0.737-0.276,0.347-1.237,0.495-1.835
		c1.305-0.274,2.604-0.545,3.904-0.819c-0.679,1.833-1.052,3.94-2.459,5.374c-2.111,1.406-4.683,1.869-7.153,2.072
		c-0.803,0.025-1.737,0.167-2.396-0.42c-1.909-1.691-3.383-3.821-4.689-6.019c-0.42,0.213-0.838,0.425-1.256,0.634
		c0.101,0.325,0.303,0.979,0.4,1.303c-3.104,0.354-6.236,0.4-9.326,0.895c-7.963,0.943-16.021,1.245-24.01,0.468
		c-4.038-0.312-8.098-0.126-12.12-0.607c-3.188-0.285-6.363-0.684-9.546-0.986c-0.696-0.012-1.597-0.235-2.068,0.456
		c-0.088,1.198,1.248,1.188,2.072,1.33c3.039,0.314,6.019,1.023,9.024,1.557c-0.87,0.754-1.786,1.516-2.91,1.831
		c-2.974,1.021-6.146,0.457-9.195,0.94c0.313,0.467,0.378,1.281,1.031,1.406c2.308,0.478,4.694,0.259,7.022,0.035
		c3.09-0.238,6.353-1.056,8.569-3.423c2.206,0.366,4.405,0.771,6.627,1.007c2.81,0.441,5.658,0.139,8.486,0.22
		c2.198,0.069,4.389-0.208,6.557-0.534c3.143,4.559,5.094,9.814,6.851,15.057c0.958,3.446,1.913,6.895,2.996,10.306
		c1.903,6.004,2.866,12.262,3.844,18.477c-0.037,0.566,0.428,0.856,0.864,1.072c1.29-0.16,2.523-1.365,2.414-2.753
		c-0.192-4.765-1.372-9.422-2.727-13.96c-0.525-1.941-1.045-3.893-1.758-5.777c-0.676-2.839-1.935-5.487-2.889-8.233
		c-0.698-1.901-1.633-3.697-2.521-5.512c-1.615-2.97-2.945-6.12-4.947-8.854c3.701-0.202,7.367-0.964,11.085-0.939
		c2.69-0.304,5.419-0.447,8.038-1.207c0.436,0.776,0.914,1.539,1.558,2.159c0.813,0.802,1.561,1.897,2.803,1.956
		c3.818,0.19,7.752-0.611,11.153-2.409c2.007-2.182,3.513-4.891,4.459-7.732c-0.688-1.288-2.324-2.225-1.803-3.693
		c-2.163,0.53-4.328,1.039-6.575,1.036c-0.314-3.505,0.201-6.992,0.321-10.482c0.482-3.92,1.604-7.773,3.219-11.363
		c4.287-0.603,8.582-1.179,12.878-1.749c2.397-0.277,4.646-1.255,7.03-1.606c0.441-0.067,0.88-0.156,1.318-0.238
		c0.476-0.873,1.135-1.562,1.809-2.238c0.399-0.479,0.791-0.99,1.094-1.596c-0.303,0.604-0.693,1.117-1.094,1.596 M91.616,15.756
		c1.896,0.969,3.44,2.523,4.856,4.118c3.207,4.093,6.754,8.021,8.918,12.838c1.813,3.823,3.4,8.302,1.88,12.505
		c-0.882,2.678-3.207,4.354-5.142,6.203c-3.533-0.753-7.399-1.499-10.101-4.131c0.825-4.783-0.516-9.557-0.989-14.3
		c-0.667-2.933-1.433-5.848-1.871-8.833c-0.427-2.465-1.853-4.836-1.316-7.395C88.531,15.419,90.373,15.296,91.616,15.756z
		 M58.586,141.028c-1.382-5.695-2.724-11.415-4.434-17.02c-2.66-7.816-5.265-15.651-8.382-23.287
		c-0.675-2.214-1.786-4.236-2.796-6.296c1.111-1.153,2.608-2.192,2.669-3.985c-0.462-1.1-1.405-1.801-2.363-2.413
		c-0.959,0.759-1.704,1.733-2.486,2.67c-1.812,1.623-3.897,3.092-6.301,3.565c-3.387,0.04-6.634-1.07-9.818-2.127
		c-2.996-1.008-5.677-2.743-8.396-4.328c-2.034-1.675-4.318-3.051-6.129-4.992c-1.84-2.091-3.837-4.065-5.33-6.445
		c-1.003-1.337-1.567-3.055-1.346-4.742c0.319-3.029,1.793-5.717,2.813-8.527c1.1-2.612,2.954-4.781,4.22-7.303
		c1.464-1.871,3.142-3.567,4.807-5.252c2.771-2.293,5.967-4.288,9.55-4.816c4.09-0.832,8.396-0.131,12.153,1.663
		c2.449,1.604,5.036,3.038,7.228,5.03c0.226-0.014,0.679-0.047,0.905-0.063c0.091-1.112,0.486-2.326-0.09-3.372
		c-0.533-0.821-1.33-1.411-2.133-1.931c-1.824-1.119-3.51-2.523-5.553-3.215c-4.23-1.447-8.864-2.3-13.251-1.063
		c-1.07-3.515-0.232-7.325,1.249-10.578c0.798-2.822,2.531-5.216,4.301-7.476c2.786-3.292,6.004-6.147,9.16-9.045
		c1.82-1.261,3.36-2.878,5.242-4.054c1.626-1.377,3.689-1.955,5.474-3.054c4.314-2.109,8.821-3.946,13.578-4.65
		c4.001-0.479,8.114,0.181,11.829,1.745c4.662,2.163,9.334,4.688,12.895,8.523c-0.862,0.485-1.69,1.157-1.953,2.173
		c-0.361,1.644,0.4,3.208,0.835,4.745c1.854,7.448,3.399,15.003,4.024,22.672c0.004,1.907-0.158,4.071,1.305,5.526
		c2.293,2.229,5.587,2.758,8.531,3.562c3.807,1.028,7.729,1.296,11.649,1.361c2.292-0.08,4.568,0.368,6.864,0.247
		c2.835,0.313,5.851,0.688,8.172,2.54c2.071,1.963,2.979,4.917,3.104,7.744c-0.011,2.301-0.037,4.667-0.774,6.876
		c-1.031,2.828-1.896,5.771-3.613,8.266c-1.484,2.728-3.382,5.19-5.392,7.526c-2.6,2.71-5.598,5.021-8.834,6.879
		c-2.312,1.411-4.939,2.117-7.496,2.908c-4.855,1.484-10.049,0.98-14.926-0.137c-2.471-0.795-4.938-1.596-7.381-2.47
		c-3.131-1.552-6.021-3.575-8.791-5.722c-1.332-1.342-2.594-2.845-3.299-4.637c-0.757-1.802-0.741-3.813-0.824-5.739
		c-0.118-1.987,0.786-3.802,1.377-5.638c1.633-3.979,4.189-7.492,7.054-10.628c0.032-0.234,0.1-0.706,0.137-0.937
		c-2.185,0.938-3.479,3.095-4.988,4.846c-1.405,1.961-2.788,3.96-3.947,6.085c-0.537,1.371-1.198,2.697-1.655,4.101
		c-0.667,3.74-0.199,7.818,1.914,11.018c3.032,4.444,7.517,7.623,12.225,9.97c5.548,2.496,11.618,4.061,17.71,3.597
		c-0.492,1.169-0.845,2.417-1.5,3.51c-2.318,1.243-4.955,1.642-7.459,2.335c-4.922,0.613-10,0.502-14.767-1.01
		c-4.684-0.799-8.896-3.396-12.444-6.534c-5.97-5.933-10.121-13.78-11.546-22.183c-0.351-1.469-0.399-2.99-0.194-4.483
		c1.18-0.811,2.492-1.398,3.85-1.833c-0.148-0.752-0.288-1.506-0.433-2.258c-3.845,0.72-7.556,3.984-7.605,8.184
		c0.221,0.133,0.657,0.409,0.877,0.542c0.661-0.796,1.184-1.689,1.689-2.593c0.282,2.658,0.573,5.335,1.431,7.876
		c0.445,1.963,1.694,3.774,1.437,5.861c0.042,3.005,0.193,6.031,0.838,8.972c0.381,4,0.904,8.003,1.879,11.895
		c0.29,2.464,1.471,4.669,2.081,7.046c0.601,2.87,1.906,5.521,3.393,8.008c1.042,2.336,2.351,4.543,3.997,6.49
		c1.167,2.016,2.987,3.468,4.685,4.986c1.551,1.247,3.313,2.251,5.16,2.963c1.586,0.279,3.173,0.722,4.799,0.662
		c1.741-0.021,3.42-0.571,5.046-1.159c3.244-1.078,5.94-3.516,7.885-6.323c-0.407-0.572-0.834-1.131-1.295-1.66
		c-0.563,0.421-1.11,0.874-1.61,1.371c0.141-2.158-1.091-4.156-0.677-6.312c3.464,0.547,5.961,3.429,7.662,6.35
		c1.658,4.324,0.371,9.331-2.304,12.925c-1.784,1.8-3.517,3.694-5.644,5.085c-1.904,1.23-3.813,2.574-6.024,3.148
		c-1.122,0.283-2.235,0.826-3.411,0.573c-2.072-0.285-4.107-0.916-5.999-1.814c-2.305-1.465-4.601-3.204-5.919-5.699
		c-0.23,0.062-0.456,0.125-0.683,0.196c-0.076,1.466-0.486,2.925-0.296,4.396c1.12,2.271,3.357,3.618,5.491,4.731
		c2.104,1.44,4.622,2.104,7.128,2.238c-0.691,2.848-0.947,5.771-1.336,8.671c-0.679,2.531-0.474,5.177-0.784,7.765
		c-4.621-0.467-9.093-1.932-13.17-4.193c0.207-5.124-0.94-10.143-1.418-15.215C60.977,149.896,59.968,145.402,58.586,141.028z
		 M75.123,119.393c2.593-0.629,5.438-0.371,7.657,1.24c1.611,1.018,2.089,3.003,2.92,4.618c1.203,2.324,1.919,4.874,2.529,7.419
		c-2.769,2.012-5.641,4.392-9.188,4.557c-4.439-0.027-8.323-2.762-11.359-5.85c-1.322-1.072-2.344-2.446-3.255-3.888
		c-2.644-3.45-4.425-7.487-6.128-11.484c3.696-0.102,7.516,0.504,10.743,2.438c2.51,1.236,4.969,2.919,6.214,5.566
		c1.127,1.842,1.586,4.001,2.551,5.927c0.397-0.158,0.792-0.312,1.188-0.468C78.607,125.836,77.09,122.403,75.123,119.393z
		 M89.263,179.828c-5.433,0.483-10.901-0.125-16.257-1.051c-4.101-1.034-8.146-2.291-12.172-3.59
		c-3.011-0.894-5.922-2.235-9.096-2.449c0.449-1.922-0.143-3.808-0.603-5.651c-0.575-1.747,0.789-3.417,2.202-4.21
		c2.27-0.982,4.829-1.018,7.235-0.657c0.222,2.225,0.574,4.472,0.385,6.719c-0.749-0.431-1.312-1.71-2.309-1.368
		c-0.278,0.776,0.552,1.2,0.973,1.693c2.23,2.313,5.061,3.864,7.889,5.275c4.184,1.57,8.658,2.495,13.132,2.234
		c1.284-0.411,2.547-0.945,3.691-1.682c0.808-0.516,0.589-1.609-0.029-2.173c-0.852,0.09-1.595,0.559-2.396,0.824
		c-1.071,0.438-2.243,0.312-3.368,0.29c-0.018-3.094,0.24-6.189,0.852-9.229c2.86,1.461,5.637,3.146,7.956,5.418
		c1.541,1.526,3.439,2.85,4.304,4.927C92.181,177.176,89.739,178.067,89.263,179.828z M160.595,173.176
		c-2.795,0.577-5.646,0.824-8.428,1.476c-2.355,0.526-4.757,0.709-7.158,0.799c-1.008-2.165-1.891-4.578-3.826-6.072
		c-1.541-0.991-3.305-1.935-5.188-1.709c-2.688,0.318-5.038,2.156-6.329,4.553c-0.622,0.835-0.772,2.229-1.933,2.468
		c-3.282,1.062-6.706,1.53-10.091,2.11c-5.186,0.751-10.36,1.596-15.586,2.051c-3.383,0.273-6.75,0.798-10.146,0.896
		c1.202-1.057,2.93-2.106,2.736-3.979c-0.279-2.509-2.083-4.407-3.72-6.139c8.885-2.075,17.664-4.771,25.98-8.619
		c5.145-1.905,10.063-4.372,15.061-6.642c3.287-1.567,6.459-3.369,9.638-5.153c-0.849,1.574-1.731,3.173-1.972,4.979
		c0.351,0.1,0.707,0.196,1.06,0.3c1.854-3.38,3.819-6.762,6.401-9.615c1.172-1.17,2.416-2.446,4.008-2.968
		c1.433,0.724,2.574,1.896,3.855,2.852c0.682,0.48,1.194,1.147,1.646,1.852c-2.073,0.896-4.166,1.759-6.291,2.527
		c0.313-1.018,0.571-2.056,0.649-3.126c-1.465,0-2.869,0.907-3.104,2.456c-0.55,3.287-0.47,6.734,0.507,9.931
		c1.134,4.251,3.105,8.583,6.722,11.189c1.252,0.831,3.16,1.748,4.354,0.326c-0.992-0.452-1.991-0.898-2.926-1.469
		c1.756-1.015,3.668-1.714,5.496-2.583C162.38,168.431,161.313,170.789,160.595,173.176z"/>
	<path fill="#080000" d="M162.354,174.82c-0.674,0.676-1.333,1.365-1.809,2.238c0.059-0.011,0.117-0.021,0.175-0.031
		C161.073,176.238,161.724,175.573,162.354,174.82z"/>
</g>
<path fill="#080000" d="M72.523,9.659c1.927-0.444,3.874,0.43,5.331,1.692c2.861,1.897,4.777,5.036,5.521,8.41
	c1.091,5.767,1.88,11.69,1.104,17.551c-0.83,5.823-2.304,11.812-5.861,16.556c-2.47,3.527-6.43,5.633-10.463,6.665
	c-2.575,0.26-5.244,0.562-7.763-0.223c-3.725-0.888-6.869-3.471-9.077-6.593c-2.262-3.503-2.9-7.91-2.421-12.017
	c0.454-4.623,2.336-8.917,4.309-13.044c0.784-1.897,2.025-3.543,3.128-5.254c1.87-2.936,3.937-5.775,6.375-8.241
	c1.446-1.15,2.712-2.613,4.436-3.338C68.915,11.048,70.626,10.093,72.523,9.659 M61.161,19.386
	c-3.183,3.834-5.352,8.382-7.607,12.813c-1.068,1.658-1.243,3.683-1.953,5.501c-0.648,3.646-0.904,7.501,0.234,11.078
	c0.656,2.18,1.437,4.42,2.918,6.159c0.989,0.927,2.208,1.553,3.369,2.222c2.519,1.409,5.487,1.438,8.277,1.312
	c2.714-0.506,5.355-1.562,7.52-3.345c3.475-2.185,5.901-5.862,6.843-9.894c0.961-4.017,2.17-8.059,1.989-12.239
	c0.354-3.057,0.085-6.133-0.53-9.136c-0.554-3.88-2.305-7.6-4.99-10.397c-1.155-1.285-2.933-1.403-4.46-1.916
	C67.965,12.219,63.967,15.492,61.161,19.386z"/>
<path fill="#080000" d="M62.413,41.979c1.235-1.861,3.509-4.126,5.854-2.762c0.659,1.168,1.553,2.405,1.274,3.836
	c-0.296,1.357-0.563,2.864-1.618,3.845c-0.857,0.957-2.22,1.117-3.408,1.298c-1.195-0.181-2.608-0.829-2.756-2.215
	C61.213,44.594,62.026,43.277,62.413,41.979 M63.719,45.335c0.4,0.221,0.8,0.437,1.201,0.662c1.761-0.536,2.769-2.553,2.759-4.322
	c0.137-0.968-0.733-1.468-1.322-2.018C64.572,40.807,62.975,43.104,63.719,45.335z"/>
<path fill="#080000" d="M95.302,43.571c0.614-0.768,1.483-1.302,2.447-1.446c1.987,0.899,1.774,3.892,0.016,4.902
	c-0.961,0.713-2.252,0.127-2.95-0.689C94.897,45.408,94.679,44.352,95.302,43.571 M96.938,43.379
	c-0.309,0.41-0.612,0.82-0.904,1.239c0.193,0.333,0.388,0.663,0.583,0.996c0.315-0.182,0.637-0.362,0.952-0.54
	C97.689,44.376,97.634,43.701,96.938,43.379z"/>
<path fill="#080000" d="M14.157,71.674c0.944-1.534,2.604-2.901,4.488-2.373c2.915,0.697,5.739,1.904,8.238,3.601
	c1.83,0.935,3.562,2.062,5.143,3.396c1.153,1.004,2.536,1.717,3.541,2.896c-1.001,0.811-1.52,2.032-2.227,3.081
	c-1.962-0.903-3.103-2.879-4.804-4.147c-1.883-1.332-3.614-2.871-5.608-4.036c-0.674,0.868-1.501,2.012-0.926,3.161
	c1.291,2.624,4.172,3.697,6.228,5.53c0.816,0.736-0.661,1.362-1.278,1.01c-2.816-1.463-5.31-3.481-7.66-5.616
	c-0.728-0.945-1.479-2.069-1.3-3.34c-0.021-0.951,0.367-1.832,0.618-2.73c-0.656,0.085-1.559-0.289-1.985,0.41
	c-0.714,0.651-0.395,1.826-1.05,2.499c-0.715-0.341-1.082-1.059-1.464-1.719C14.137,72.756,14.155,72.213,14.157,71.674"/>
<path fill="#080000" d="M121.453,192.393c0.374-0.382,0.761-0.748,1.148-1.105c-0.096,2.809-1.219,5.514-0.954,8.351
	c-0.019,1.489,0.517,2.955,0.284,4.429c-0.963,0.025-1.416-1.01-1.512-1.836c-0.244-1.696-0.07-3.419,0.02-5.113
	C120.497,195.476,121.284,194.002,121.453,192.393"/>
<path fill="#080000" d="M62.946,222.11c-0.043-0.808,0.797-1.054,1.298-1.459c0.474,1.143,0.841,2.356,0.787,3.615
	c-0.013,3.754-0.721,7.454-1.188,11.167c-0.53,2.961-0.841,5.968-1.548,8.892c-0.551,2.951-0.982,5.971-2.194,8.742
	c-0.202,0.5-0.633,1.125-1.266,0.912c0.19-2.299,1.315-4.378,1.661-6.646c0.607-3.778,1.523-7.492,1.898-11.3
	C63.53,231.466,62.836,226.741,62.946,222.11"/>
<path fill="#E0BE96" d="M49.549,8.572c4.314-2.109,8.82-3.946,13.577-4.65c4.001-0.479,8.114,0.181,11.829,1.745
	c4.662,2.163,9.334,4.688,12.894,8.523c-0.861,0.485-1.689,1.157-1.952,2.173c-0.361,1.644,0.399,3.208,0.835,4.745
	c1.853,7.449,3.4,15.003,4.023,22.672c0.004,1.908-0.158,4.071,1.305,5.527c2.293,2.229,5.588,2.757,8.531,3.562
	c3.808,1.028,7.729,1.296,11.65,1.361c2.292-0.08,4.569,0.368,6.865,0.247c2.835,0.314,5.85,0.688,8.172,2.541
	c2.071,1.962,2.979,4.917,3.104,7.743c-0.011,2.301-0.037,4.667-0.774,6.876c-1.031,2.828-1.896,5.771-3.613,8.266
	c-1.484,2.728-3.383,5.19-5.392,7.526c-2.602,2.71-5.6,5.021-8.836,6.879c-2.312,1.411-4.938,2.117-7.495,2.908
	c-4.855,1.484-10.048,0.98-14.925-0.137c-2.472-0.795-4.938-1.596-7.382-2.47c-3.131-1.552-6.021-3.575-8.791-5.722
	c-1.332-1.342-2.594-2.845-3.299-4.637c-0.757-1.802-0.741-3.813-0.824-5.739c-0.118-1.987,0.786-3.802,1.377-5.638
	c1.633-3.979,4.189-7.492,7.054-10.628c0.032-0.234,0.1-0.706,0.137-0.936c-2.185,0.938-3.479,3.094-4.988,4.846
	c-1.405,1.96-2.788,3.959-3.947,6.084c-0.537,1.371-1.198,2.697-1.655,4.101c-0.667,3.74-0.199,7.818,1.914,11.018
	c3.032,4.444,7.517,7.623,12.225,9.97c5.549,2.496,11.618,4.061,17.71,3.597c-0.493,1.169-0.846,2.417-1.5,3.51
	c-2.317,1.243-4.954,1.642-7.459,2.335c-4.922,0.613-10,0.502-14.767-1.01c-4.684-0.799-8.896-3.396-12.444-6.534
	c-5.969-5.933-10.12-13.78-11.545-22.183c-0.352-1.469-0.399-2.99-0.194-4.483c1.179-0.811,2.492-1.398,3.849-1.833
	c-0.148-0.752-0.287-1.506-0.432-2.258c-3.846,0.72-7.556,3.984-7.605,8.184c0.22,0.133,0.657,0.409,0.877,0.542
	c0.661-0.796,1.184-1.689,1.689-2.593c0.282,2.658,0.572,5.335,1.43,7.876c0.446,1.963,1.695,3.774,1.437,5.861
	c0.042,3.005,0.194,6.031,0.839,8.972c0.381,4,0.904,8.003,1.879,11.895c0.29,2.464,1.47,4.669,2.081,7.046
	c0.601,2.87,1.906,5.521,3.393,8.008c1.041,2.336,2.35,4.543,3.996,6.49c1.167,2.016,2.987,3.468,4.685,4.986
	c1.551,1.247,3.313,2.251,5.16,2.963c1.586,0.279,3.173,0.722,4.799,0.662c1.741-0.021,3.42-0.571,5.046-1.159
	c3.244-1.078,5.94-3.516,7.884-6.323c-0.406-0.572-0.834-1.131-1.293-1.66c-0.565,0.421-1.111,0.874-1.611,1.371
	c0.141-2.158-1.09-4.156-0.676-6.312c3.463,0.547,5.961,3.429,7.662,6.35c1.658,4.324,0.371,9.331-2.305,12.925
	c-1.785,1.8-3.517,3.694-5.644,5.085c-1.904,1.23-3.813,2.574-6.024,3.148c-1.122,0.283-2.235,0.826-3.411,0.573
	c-2.072-0.285-4.107-0.916-5.999-1.814c-2.305-1.465-4.601-3.204-5.919-5.699c-0.23,0.062-0.456,0.125-0.683,0.196
	c-0.076,1.466-0.486,2.925-0.296,4.396c1.12,2.271,3.357,3.618,5.491,4.731c2.104,1.44,4.622,2.104,7.128,2.238
	c-0.691,2.848-0.947,5.771-1.336,8.671c-0.679,2.531-0.474,5.177-0.784,7.765c-4.621-0.467-9.093-1.932-13.17-4.193
	c0.207-5.124-0.94-10.143-1.418-15.215c-0.708-4.54-1.717-9.034-3.099-13.408c-1.383-5.695-2.724-11.415-4.434-17.02
	c-2.66-7.816-5.265-15.651-8.383-23.287c-0.674-2.214-1.785-4.236-2.796-6.296c1.112-1.153,2.608-2.192,2.669-3.985
	c-0.461-1.1-1.404-1.801-2.362-2.413c-0.959,0.759-1.704,1.733-2.486,2.67c-1.812,1.623-3.898,3.092-6.301,3.565
	c-3.387,0.04-6.634-1.07-9.818-2.127c-2.996-1.008-5.677-2.743-8.396-4.328c-2.034-1.675-4.319-3.051-6.129-4.992
	c-1.841-2.091-3.838-4.065-5.33-6.445c-1.003-1.337-1.568-3.055-1.346-4.742c0.319-3.029,1.792-5.717,2.813-8.527
	c1.099-2.612,2.953-4.781,4.22-7.303c1.463-1.871,3.142-3.567,4.807-5.252c2.771-2.293,5.967-4.288,9.55-4.816
	c4.09-0.832,8.396-0.131,12.152,1.663c2.45,1.605,5.037,3.039,7.229,5.03c0.226-0.014,0.678-0.047,0.904-0.063
	c0.092-1.112,0.487-2.326-0.089-3.372c-0.534-0.82-1.331-1.41-2.133-1.931c-1.825-1.119-3.51-2.523-5.554-3.215
	c-4.229-1.446-8.863-2.3-13.25-1.063c-1.07-3.515-0.233-7.325,1.248-10.578c0.799-2.822,2.532-5.216,4.302-7.476
	c2.786-3.291,6.004-6.147,9.16-9.045c1.82-1.261,3.359-2.878,5.242-4.054C45.701,10.248,47.765,9.67,49.549,8.572 M72.523,9.659
	c-1.896,0.435-3.607,1.389-5.382,2.166c-1.724,0.724-2.989,2.188-4.436,3.337c-2.438,2.466-4.505,5.306-6.375,8.241
	c-1.102,1.711-2.343,3.356-3.127,5.254c-1.974,4.127-3.855,8.421-4.309,13.044c-0.48,4.106,0.159,8.514,2.421,12.017
	c2.208,3.122,5.352,5.705,9.076,6.593c2.519,0.785,5.188,0.482,7.763,0.223c4.033-1.032,7.993-3.138,10.463-6.665
	c3.558-4.743,5.031-10.732,5.861-16.556c0.775-5.859-0.014-11.784-1.104-17.551c-0.743-3.374-2.659-6.513-5.521-8.41
	C76.397,10.089,74.449,9.215,72.523,9.659z M14.157,71.674c-0.003,0.539-0.021,1.082-0.046,1.622
	c0.382,0.66,0.749,1.378,1.464,1.719c0.655-0.673,0.336-1.848,1.05-2.499c0.427-0.699,1.329-0.325,1.985-0.41
	c-0.251,0.898-0.639,1.779-0.618,2.73c-0.18,1.271,0.572,2.395,1.3,3.34c2.351,2.135,4.844,4.153,7.66,5.616
	c0.617,0.353,2.095-0.273,1.278-1.01c-2.056-1.833-4.937-2.906-6.228-5.53c-0.575-1.149,0.252-2.293,0.926-3.161
	c1.994,1.165,3.726,2.704,5.608,4.036c1.701,1.269,2.842,3.244,4.804,4.147c0.707-1.049,1.226-2.271,2.227-3.081
	c-1.005-1.179-2.388-1.892-3.541-2.896c-1.58-1.334-3.312-2.462-5.143-3.396c-2.499-1.696-5.323-2.903-8.238-3.601
	C16.762,68.773,15.102,70.14,14.157,71.674z"/>
<path fill="#9B3F36" d="M58.299,116.005c3.696-0.102,7.516,0.504,10.743,2.438c2.51,1.236,4.969,2.919,6.214,5.566
	c1.127,1.842,1.586,4.001,2.551,5.927c0.397-0.158,0.792-0.312,1.188-0.468c-0.39-3.633-1.906-7.066-3.873-10.076
	c2.593-0.629,5.438-0.371,7.657,1.24c1.611,1.018,2.089,3.003,2.92,4.618c1.203,2.324,1.919,4.874,2.529,7.419
	c-2.77,2.012-5.641,4.392-9.188,4.557c-4.439-0.027-8.323-2.762-11.359-5.85c-1.322-1.072-2.344-2.446-3.255-3.889
	C61.783,124.04,60.002,120.002,58.299,116.005"/>
<path fill="#779348" d="M147.093,144.877c1.174-1.17,2.418-2.446,4.008-2.968c1.434,0.724,2.576,1.896,3.856,2.852
	c0.681,0.48,1.194,1.147,1.646,1.852c-2.074,0.896-4.166,1.759-6.291,2.527c0.314-1.018,0.572-2.056,0.648-3.126
	c-1.464,0-2.867,0.907-3.103,2.456c-0.551,3.287-0.469,6.734,0.507,9.931c1.134,4.251,3.106,8.583,6.721,11.189
	c1.254,0.831,3.161,1.748,4.354,0.326c-0.993-0.452-1.992-0.898-2.925-1.469c1.755-1.015,3.668-1.714,5.496-2.582
	c0.367,2.564-0.701,4.923-1.418,7.311c-2.797,0.577-5.648,0.824-8.429,1.476c-2.354,0.526-4.757,0.709-7.157,0.799
	c-1.009-2.165-1.892-4.578-3.828-6.072c-1.541-0.991-3.303-1.935-5.188-1.709c-2.688,0.318-5.038,2.156-6.329,4.553
	c-0.622,0.835-0.773,2.229-1.933,2.468c-3.283,1.062-6.706,1.53-10.092,2.11c-5.185,0.751-10.36,1.596-15.586,2.051
	c-3.383,0.273-6.748,0.798-10.146,0.896c1.203-1.057,2.932-2.106,2.737-3.979c-0.28-2.509-2.084-4.407-3.719-6.139
	c8.883-2.075,17.662-4.771,25.979-8.619c5.146-1.905,10.063-4.372,15.062-6.642c3.287-1.567,6.457-3.369,9.637-5.153
	c-0.848,1.574-1.731,3.173-1.971,4.979c0.35,0.1,0.707,0.196,1.059,0.3C142.546,151.114,144.511,147.732,147.093,144.877"/>
<path fill="#779348" d="M53.337,162.876c2.27-0.982,4.829-1.018,7.234-0.657c0.223,2.225,0.575,4.472,0.386,6.719
	c-0.749-0.431-1.312-1.71-2.309-1.368c-0.278,0.776,0.552,1.2,0.973,1.693c2.23,2.313,5.061,3.864,7.889,5.275
	c4.184,1.57,8.658,2.495,13.132,2.234c1.284-0.411,2.547-0.945,3.691-1.682c0.808-0.516,0.589-1.609-0.029-2.173
	c-0.852,0.09-1.595,0.559-2.396,0.824c-1.071,0.438-2.243,0.312-3.368,0.29c-0.018-3.094,0.24-6.189,0.852-9.229
	c2.86,1.461,5.637,3.146,7.956,5.418c1.541,1.526,3.439,2.85,4.304,4.927c0.53,2.027-1.91,2.918-2.388,4.68
	c-5.433,0.483-10.901-0.125-16.257-1.051c-4.101-1.034-8.146-2.291-12.172-3.59c-3.011-0.894-5.922-2.235-9.096-2.449
	c0.449-1.922-0.143-3.808-0.603-5.651C50.56,165.339,51.924,163.669,53.337,162.876"/>
<path fill="#779348" d="M135.763,170.564c1.74-0.479,3.261,0.899,4.271,2.184c1.193,1.321,1.633,3.095,2.261,4.725
	c-0.617,0.08-1.234,0.162-1.852,0.25c-0.181-0.146-0.541-0.43-0.722-0.583c-1.938,1.949-3.147,4.529-4.015,7.126
	c-0.791,3.392-2.036,6.68-2.415,10.165c-0.271,2.465-0.879,4.914-0.709,7.408c0.158,2.492,0.365,5.085,1.611,7.292
	c0.559-0.161,1.143-0.256,1.678-0.501c0.737-0.276,0.348-1.237,0.496-1.835c1.305-0.274,2.604-0.545,3.903-0.819
	c-0.678,1.833-1.053,3.94-2.459,5.374c-2.11,1.406-4.684,1.869-7.152,2.072c-0.804,0.025-1.739,0.167-2.397-0.42
	c-1.908-1.691-3.381-3.821-4.688-6.019c-0.421,0.213-0.839,0.426-1.257,0.635c0.102,0.324,0.303,0.979,0.399,1.302
	c-3.102,0.354-6.235,0.4-9.326,0.895c-7.963,0.943-16.02,1.245-24.01,0.469c-4.037-0.313-8.096-0.127-12.119-0.608
	c-3.188-0.285-6.363-0.683-9.546-0.986c-0.696-0.012-1.597-0.234-2.068,0.456c-0.088,1.198,1.248,1.188,2.072,1.33
	c3.039,0.315,6.02,1.024,9.024,1.558c-0.87,0.754-1.786,1.515-2.91,1.83c-2.974,1.021-6.146,0.457-9.195,0.94
	c0.313,0.467,0.378,1.281,1.031,1.406c2.308,0.478,4.695,0.259,7.022,0.036c3.091-0.239,6.353-1.057,8.569-3.424
	c2.206,0.366,4.404,0.771,6.626,1.008c2.812,0.44,5.66,0.138,8.486,0.219c2.2,0.07,4.389-0.208,6.559-0.534
	c3.143,4.559,5.093,9.815,6.851,15.057c0.958,3.446,1.912,6.895,2.995,10.306c1.902,6.004,2.866,12.262,3.844,18.477
	c-14.64,3.565-29.825,4.373-44.814,3.504c-9.104-0.547-18.158-1.938-26.976-4.333c1.131-3.65,2.507-7.233,3.34-10.976
	c0.721-2.771,1.051-5.619,1.519-8.436c1.001-6.75,0.783-13.617-0.154-20.352c0.302,0.096,0.9,0.287,1.203,0.388
	c0.198-0.101,0.597-0.292,0.798-0.388c-0.122-0.381-0.238-0.76-0.354-1.133c-2.178-1.12-3.765-3.446-3.623-5.993
	c0.853,0.767,1.683,1.558,2.514,2.354c0.438-0.336,0.944-0.611,1.25-1.103c-0.798-1.062-1.891-1.843-2.686-2.907
	c-1.251-1.703-2.435-3.493-3.144-5.509c-0.945-2.666-2.111-5.31-2.352-8.168c-0.59-3.921-0.642-8.046,0.709-11.819
	c0.905-2.612,3.252-4.323,5.577-5.524c3.104-1.175,6.427-0.162,9.508,0.581c4.063,0.928,7.898,2.762,12.046,3.298
	c3.698,0.823,7.486,0.936,11.247,1.205c6.506,0.094,13.104,0.769,19.532-0.601c8.379-0.9,16.806-1.724,25.053-3.557
	c-0.695,1.093-1.981,1.822-2.473,3.007c-0.394,0.933,0.847,0.283,1.236,0.283c2.52-0.968,3.522-3.765,4.915-5.887
	C131.644,173.144,133.54,171.441,135.763,170.564 M121.453,192.394c-0.169,1.609-0.956,3.083-1.014,4.724
	c-0.09,1.694-0.264,3.417-0.02,5.113c0.096,0.826,0.549,1.861,1.512,1.836c0.231-1.474-0.303-2.938-0.284-4.429
	c-0.265-2.837,0.858-5.542,0.954-8.351C122.214,191.646,121.827,192.012,121.453,192.394z M62.946,222.11
	c-0.109,4.632,0.584,9.356-0.551,13.923c-0.375,3.808-1.291,7.521-1.898,11.3c-0.346,2.27-1.471,4.349-1.661,6.646
	c0.633,0.213,1.063-0.412,1.266-0.912c1.212-2.771,1.644-5.791,2.194-8.742c0.707-2.924,1.018-5.931,1.548-8.892
	c0.467-3.713,1.175-7.413,1.188-11.167c0.053-1.259-0.314-2.474-0.788-3.615C63.742,221.056,62.903,221.302,62.946,222.11z"/>
</svg>
