<?xml version="1.0" encoding="utf-8"?>
<!-- Generator: Adobe Illustrator 15.1.0, SVG Export Plug-In . SVG Version: 6.00 Build 0)  -->
<!DOCTYPE svg PUBLIC "-//W3C//DTD SVG 1.1//EN" "http://www.w3.org/Graphics/SVG/1.1/DTD/svg11.dtd">
<svg version="1.1" id="Calque_1" xmlns="http://www.w3.org/2000/svg" xmlns:xlink="http://www.w3.org/1999/xlink" x="0px" y="0px"
	 width="41.323px" height="36.254px" viewBox="0 0 41.323 36.254" enable-background="new 0 0 41.323 36.254" xml:space="preserve">
<g>
	<path fill="none" d="M12.683,27.992c-3.011,0.66-5.966,1.635-9.076,1.631C6.718,29.627,9.673,28.652,12.683,27.992z"/>
	<path fill="#080000" d="M34.447,21.414c-2.082,0.598-4.162,1.206-6.231,1.85c-4.67,1.736-9.473,3.053-14.238,4.471
		c-0.433,0.076-0.864,0.164-1.294,0.258c-3.01,0.66-5.965,1.635-9.076,1.631c-0.315-3.504,0.201-6.991,0.321-10.481
		c0.482-3.92,1.604-7.774,3.219-11.363c4.287-0.603,8.582-1.179,12.878-1.749c2.397-0.278,4.646-1.255,7.03-1.607
		c1.188-0.182,2.368-0.416,3.542-0.675c-0.678-0.971,1.126-2.344,0.674-3.213c-2.164,0.438-8.842,1.64-11.089,2.166
		c0,0-7.9,1.891-10.059,1.896c-0.619,0.08-1.236,0.162-1.852,0.25C8.09,4.7,7.731,4.416,7.551,4.263
		c-1.938,1.949-3.149,4.529-4.016,7.126c-0.791,3.391-2.035,6.68-2.414,10.165c-0.271,2.465-0.88,4.914-0.709,7.407
		c0.157,2.492,0.364,5.086,1.611,7.293c0.559-0.162,1.143-0.256,1.677-0.502c0.738-0.275,0.347-1.236,0.496-1.834
		c1.304-0.275,2.604-0.545,3.904-0.82l3.909-0.881c3.719-1.068,7.521-1.787,11.266-2.74c3.759-1.566,7.812-2.066,11.66-3.325
		c0.444-0.137,0.891-0.268,1.337-0.399C36.258,24.009,36.085,22.345,34.447,21.414z"/>
	<path fill="#E0BE96" d="M30.176,3.865c-2.385,0.353-7.754,1.886-10.151,2.164C15.729,6.6,11.434,7.176,7.147,7.778
		c-1.614,3.589-2.736,7.443-3.219,11.363c-0.12,3.49-0.637,6.978-0.321,10.481c3.11,0.004,6.065-0.971,9.076-1.631
		c0.43-0.094,0.861-0.182,1.294-0.258c4.766-1.418,9.568-2.734,14.238-4.471c2.881-0.896,3.613-1.12,6.517-1.942"/>
	<path fill="#E0BE96" d="M41.323,12.676c0,4.952-4.015,8.966-8.966,8.966s-8.965-4.014-8.965-8.966c0-4.951,4.015-9.09,8.966-9.09
		S41.323,7.725,41.323,12.676z"/>
</g>
</svg>
