<?xml version="1.0" encoding="utf-8"?>
<!-- Generator: Adobe Illustrator 15.1.0, SVG Export Plug-In . SVG Version: 6.00 Build 0)  -->
<!DOCTYPE svg PUBLIC "-//W3C//DTD SVG 1.1//EN" "http://www.w3.org/Graphics/SVG/1.1/DTD/svg11.dtd">
<svg version="1.1" id="Calque_1" xmlns="http://www.w3.org/2000/svg" xmlns:xlink="http://www.w3.org/1999/xlink" x="0px" y="0px"
	 width="40.455px" height="34.009px" viewBox="0 0 40.455 34.009" enable-background="new 0 0 40.455 34.009" xml:space="preserve">
<g>
	<path fill="#080000" d="M35.695,16.144c-1.011,0.441-2.023,0.878-3.041,1.303c-2.901,1.393-5.856,2.67-8.815,3.925
		c-2.554,1.455-5.431,2.126-8.056,3.423c-3.199,1.154-6.41,2.292-9.608,3.452c-2.392-3.682-3.601-8.054-3.815-12.452
		c4.862-1.887,9.67-3.948,14.327-6.316c4.013-2.14,8.039-4.249,11.999-6.471c-0.588-0.814-1.301-1.628-2.068-2.443
		c-1.164,0.695-2.33,1.39-3.494,2.086c-4.227,2.158-8.465,4.305-12.799,6.254L9.084,9.56c-2.074,0.895-4.166,1.758-6.291,2.527
		c0.313-1.018,0.571-2.056,0.649-3.126c-1.465,0-2.869,0.907-3.103,2.456c-0.55,3.287-0.47,6.734,0.506,9.931
		c1.134,4.251,3.106,8.583,6.722,11.189c1.252,0.831,3.16,1.748,4.354,0.326c-0.993-0.452-1.992-0.898-2.926-1.468
		c1.756-1.015,3.668-1.714,5.496-2.583l2.205-1.062c2.912-1.052,5.641-2.547,8.463-3.811c4.014-1.616,8.014-3.271,11.916-5.15
		C36.794,17.819,36.466,16.823,35.695,16.144z"/>
	<path fill="#E0BE96" d="M28.796,2.945c-3.995,2.245-8.061,4.372-12.11,6.532c-4.657,2.368-9.465,4.43-14.327,6.316
		c0.215,4.398,1.424,8.771,3.815,12.452c3.198-1.16,6.409-2.298,9.608-3.452c2.625-1.297,5.502-1.968,8.056-3.423
		c2.959-1.255,5.914-2.532,8.815-3.925c0.988-0.413,1.971-0.837,2.953-1.265c-0.188-5.601-4.742-8.585-6.8-13.243
		C28.803,2.941,28.8,2.943,28.796,2.945z"/>
	<circle fill="#E0BE96" cx="32.483" cy="9.414" r="7.458"/>
</g>
</svg>
