<?xml version="1.0" encoding="utf-8"?>
<!-- Generator: Adobe Illustrator 15.1.0, SVG Export Plug-In . SVG Version: 6.00 Build 0)  -->
<!DOCTYPE svg PUBLIC "-//W3C//DTD SVG 1.1//EN" "http://www.w3.org/Graphics/SVG/1.1/DTD/svg11.dtd">
<svg version="1.1" id="Calque_1" xmlns="http://www.w3.org/2000/svg" xmlns:xlink="http://www.w3.org/1999/xlink" x="0px" y="0px"
	 width="470px" height="19.893px" viewBox="-19 0 470 19.893" enable-background="new -19 0 470 19.893" xml:space="preserve">
<polyline fill="#FFFFFF" points="-12.605,0.33 -12.605,17.625 -16.065,17.625 -16.065,4.9 -17.806,5.416 -17.806,1.803 
	-12.605,0.33 "/>
<path fill="#FFFFFF" d="M-1.535,7.914c1.189,1.118,1.784,2.491,1.784,4.123c0,1.551-0.548,2.876-1.645,3.975
	c-1.09,1.088-2.415,1.634-3.975,1.634c-1.559,0-2.883-0.546-3.973-1.634c-1.104-1.09-1.656-2.415-1.656-3.975
	c0-1.625,0.597-2.999,1.794-4.123c-0.613-0.834-0.918-1.765-0.918-2.797c0-1.312,0.466-2.429,1.399-3.355
	c0.926-0.926,2.048-1.388,3.365-1.388c1.303,0,2.424,0.464,3.365,1.388c0.926,0.927,1.389,2.043,1.389,3.355
	c0,1.033-0.307,1.964-0.92,2.797H-1.535 M-3.19,12.049c0-1.161-1.01-2.203-2.179-2.203l-0.031,0.033
	c-1.189,0-2.158,1.013-2.158,2.189c0,1.179,0.97,2.157,2.179,2.157C-4.195,14.226-3.19,13.236-3.19,12.049z M-5.336,6.388
	l-0.022,0.011c0.699,0,1.314-0.593,1.314-1.303c0-0.698-0.619-1.293-1.303-1.293c-0.701,0-1.313,0.589-1.313,1.293
	C-6.661,5.802-6.046,6.388-5.336,6.388z"/>
<path fill="#FFFFFF" d="M13.073,14.234c0.956,0,2.009-0.796,2.009-1.752c0-1.571-2.108-1.788-3.3-2.203
	C9.683,9.564,7.829,7.842,7.829,5.495c0-2.902,2.356-5.244,5.26-5.244c2.647,0,4.841,1.965,5.196,4.519l-3.437,0.725
	c0-0.944-0.794-1.739-1.739-1.739c-0.961,0-1.755,0.795-1.755,1.75c0,1.551,1.964,1.963,3.16,2.318
	c2.173,0.627,4.089,2.283,4.089,4.68c0,2.903-2.605,5.25-5.504,5.25c-2.664,0-5.071-1.954-5.462-4.519l3.437-0.731
	c0,0.962,1.044,1.746,2.017,1.746L13.073,14.234"/>
<polyline fill="#FFFFFF" points="30.488,0.361 30.488,3.813 23.566,3.813 23.566,7.284 28.757,7.284 28.757,10.734 23.566,10.734 
	23.566,14.206 30.488,14.206 30.488,17.646 20.105,17.646 20.105,0.361 30.488,0.361 "/>
<path fill="#FFFFFF" d="M31.991,12.453V0.404h6.046c1.674,0,3.098,0.589,4.272,1.761c1.189,1.184,1.784,2.607,1.784,4.275
	c0,1.679-0.595,3.097-1.784,4.251c-1.188,1.176-2.613,1.762-4.272,1.762h-2.584v5.17h-3.461V12.453 M38.037,3.834h-2.584v5.19
	l2.584,0.011c1.417,0,2.596-1.186,2.596-2.594S39.448,3.834,38.037,3.834z"/>
<polyline fill="#FFFFFF" points="56.898,0.404 56.898,3.834 52.669,3.834 52.669,17.625 49.198,17.625 49.198,3.834 44.956,3.834 
	44.956,0.404 56.898,0.404 "/>
<polyline fill="#FFFFFF" points="68.786,0.361 68.786,3.813 61.863,3.813 61.863,7.284 67.056,7.284 67.056,10.734 61.863,10.734 
	61.863,14.206 68.786,14.206 68.786,17.646 58.402,17.646 58.402,0.361 68.786,0.361 "/>
<polyline fill="#FFFFFF" points="78.728,11.566 87.154,0 87.154,17.625 83.695,17.625 83.695,10.488 78.728,17.347 73.75,10.488 
	73.75,17.625 70.289,17.625 70.289,0 78.728,11.566 "/>
<path fill="#FFFFFF" d="M98.181,7.496c0.42,0.211,1.001,0.566,1.325,0.879c1.046,1.059,1.57,2.335,1.57,3.824
	c0,1.494-0.524,2.768-1.57,3.824c-1.046,1.066-2.314,1.602-3.803,1.602h-6.399V0.404h4.808c1.331,0,2.47,0.479,3.417,1.432
	c0.912,0.926,1.368,2.021,1.368,3.281C98.896,5.941,98.5,6.932,98.181,7.496 M94.111,3.77h-1.357v3.152
	c0.307-0.016,0.737-0.043,1.293-0.086c0.819-0.093,1.517-0.706,1.517-1.58C95.564,4.457,94.916,3.77,94.111,3.77z M97.7,12.199
	c0-1.146-0.931-2.044-1.997-2.116c-1.024-0.056-1.912-0.011-2.949-0.011v4.177h2.949C96.825,14.249,97.7,13.322,97.7,12.199z"/>
<path fill="#FFFFFF" d="M102.58,0.404h5.62c1.917,0,3.467,0.725,4.507,1.752c1.05,1.049,1.666,2.005,1.666,3.91v0.45
	c0,1.16-0.364,2.252-1.09,3.278c-0.604,0.847-1.082,1.207-2.061,1.591l4.006,6.24h-4.23l-4.946-7.618v7.618h-3.46L102.58,0.404
	 M110.805,6.171c0-0.625-0.228-1.177-0.685-1.656c-0.448-0.437-1.302-0.683-2.135-0.683h-1.946v4.753h1.337v0.012h1.154
	C109.792,8.598,110.805,7.485,110.805,6.171z"/>
<polyline fill="#FFFFFF" points="127.104,0.361 127.104,3.813 120.183,3.813 120.183,7.284 125.373,7.284 125.373,10.734 
	120.183,10.734 120.183,14.206 127.104,14.206 127.104,17.646 116.72,17.646 116.72,0.361 127.104,0.361 "/>
<path fill="#FFFFFF" d="M138.01,6.44h-3.46c0-1.696,0.598-3.142,1.795-4.339c1.203-1.194,2.656-1.794,4.357-1.794
	c1.695,0,3.142,0.6,4.336,1.794c1.206,1.206,1.807,2.65,1.807,4.339c0,1.024-0.278,2.032-0.834,3.022
	c-0.555,0.989-1.25,1.932-2.083,2.82c-0.645,0.674-1.212,1.3-1.943,1.889h4.784v3.451h-12.283l0.587-1.966
	c1.921-1.351,4.068-3.222,5.629-4.919c0.791-0.857,1.433-1.666,1.928-2.426c0.495-0.756,0.744-1.383,0.744-1.874
	c0-1.476-1.218-2.67-2.681-2.67C139.225,3.77,138.01,4.976,138.01,6.44"/>
<path fill="#FFFFFF" d="M154.629,0.308c2.052,0,3.692,0.868,4.924,2.608c1.189,1.652,1.783,3.681,1.783,6.087
	c0,2.424-0.594,4.458-1.783,6.111c-1.238,1.73-2.88,2.596-4.924,2.596c-4.252,0-6.708-4.078-6.708-8.707
	C147.922,4.389,150.392,0.308,154.629,0.308 M154.618,3.792c-0.862,0-1.567,0.373-2.116,1.119c-0.753,1.077-1.132,2.44-1.132,4.092
	c0,1.673,0.379,3.036,1.132,4.091c0.548,0.749,1.253,1.121,2.116,1.121c0.869,0,1.578-0.374,2.126-1.121
	c0.748-1.045,1.122-2.41,1.122-4.091c0-1.667-0.375-3.029-1.122-4.092C156.197,4.164,155.487,3.792,154.618,3.792z"/>
<polyline fill="#FFFFFF" points="167.617,0.33 167.617,17.625 164.156,17.625 164.156,4.9 162.416,5.416 162.416,1.803 
	167.617,0.33 "/>
<path fill="#FFFFFF" d="M171.852,17.625l2.99-5.213c-1.58-0.114-2.908-0.752-3.983-1.911c-1.089-1.162-1.634-2.535-1.634-4.122
	c0-1.661,0.591-3.089,1.773-4.286c1.166-1.181,2.592-1.771,4.272-1.771c1.672,0,3.101,0.591,4.283,1.771
	c1.189,1.191,1.784,2.616,1.784,4.286c0,0.968-0.224,1.889-0.672,2.766c-0.108,0.19-0.272,0.539-0.364,0.694l-4.486,7.776
	L171.852,17.625 M175.271,8.96c1.425,0,2.605-1.182,2.605-2.594s-1.186-2.607-2.605-2.607c-1.431,0-2.596,1.195-2.596,2.607
	C172.675,7.768,173.85,8.955,175.271,8.96z"/>
<rect x="189.039" y="8.79" fill="#FFFFFF" width="8.44" height="3.024"/>
<path fill="#FFFFFF" d="M213.799,17.741c-2.405-0.009-4.461-0.854-6.163-2.541c-1.709-1.709-2.563-3.769-2.563-6.176
	c0-2.4,0.853-4.46,2.563-6.184c1.717-1.717,3.771-2.574,6.163-2.574l-0.01,0.043c2.661,0,4.772,1.182,6.194,2.553l-2.466,2.469
	c-1.039-1.026-2.275-1.539-3.707-1.539c-1.453,0-2.685,0.512-3.697,1.539c-1.024,1.038-1.536,2.274-1.536,3.705
	c0,1.445,0.513,2.681,1.536,3.709c1.02,1.02,2.252,1.524,3.697,1.524c1.454,0,2.691-0.512,3.716-1.536l2.469,2.469
	C218.582,16.601,216.485,17.741,213.799,17.741"/>
<polyline fill="#FFFFFF" points="231.885,0.361 231.885,3.813 224.964,3.813 224.964,7.284 230.153,7.284 230.153,10.734 
	224.964,10.734 224.964,14.206 231.885,14.206 231.885,17.646 221.503,17.646 221.503,0.361 231.885,0.361 "/>
<polyline fill="#FFFFFF" points="243.761,9.923 243.761,0.361 247.233,0.361 247.233,17.978 236.85,8.085 236.85,17.646 
	233.389,17.646 233.389,0.042 243.761,9.923 "/>
<polyline fill="#FFFFFF" points="260.68,0.404 260.68,3.834 256.45,3.834 256.45,17.625 252.978,17.625 252.978,3.834 
	248.739,3.834 248.739,0.404 260.68,0.404 "/>
<path fill="#FFFFFF" d="M262.184,0.404h5.621c1.915,0,3.466,0.725,4.507,1.752c1.047,1.049,1.666,2.005,1.666,3.91v0.45
	c0,1.16-0.365,2.252-1.09,3.278c-0.606,0.847-1.084,1.207-2.062,1.591l4.006,6.24h-4.23l-4.944-7.618v7.618h-3.462L262.184,0.404
	 M270.409,6.171c0-0.625-0.229-1.177-0.685-1.656c-0.448-0.437-1.302-0.683-2.138-0.683h-1.941v4.753h1.336v0.012h1.151
	C269.396,8.598,270.409,7.485,270.409,6.171z"/>
<polyline fill="#FFFFFF" points="286.707,0.361 286.707,3.813 279.785,3.813 279.785,7.284 284.978,7.284 284.978,10.734 
	279.785,10.734 279.785,14.206 286.707,14.206 286.707,17.646 276.324,17.646 276.324,0.361 286.707,0.361 "/>
<path fill="#FFFFFF" d="M302.72,0.297c2.66,0,4.778,1.171,6.184,2.553l-2.466,2.469c-1.047-1.033-2.277-1.549-3.696-1.549
	c-1.444,0-2.677,0.516-3.696,1.549c-1.024,1.025-1.538,2.26-1.538,3.706c0,1.446,0.514,2.681,1.538,3.708
	c1.011,1.025,2.244,1.537,3.696,1.537c2.24,0,3.97-1.389,4.721-3.012h-4.912V7.957h8.846c0.245,3.216-0.811,5.555-2.513,7.243
	c-1.716,1.702-3.773,2.553-6.174,2.553c-2.421,0-4.475-0.851-6.164-2.553c-1.706-1.697-2.564-3.754-2.564-6.176
	c0-2.4,0.855-4.46,2.564-6.184c1.695-1.717,3.752-2.574,6.164-2.574L302.72,0.297"/>
<polyline fill="#FFFFFF" points="323.316,0.361 323.316,3.813 316.395,3.813 316.395,7.284 321.585,7.284 321.585,10.734 
	316.395,10.734 316.395,14.206 323.316,14.206 323.316,17.646 312.933,17.646 312.933,0.361 323.316,0.361 "/>
<path fill="#FFFFFF" d="M324.82,0.404h5.618c1.918,0,3.469,0.725,4.508,1.752c1.049,1.049,1.665,2.005,1.665,3.91v0.45
	c0,1.16-0.362,2.252-1.09,3.278c-0.604,0.847-1.081,1.207-2.061,1.591l4.006,6.24h-4.229l-4.946-7.618v7.618h-3.46L324.82,0.404
	 M333.045,6.171c0-0.625-0.228-1.177-0.685-1.656c-0.447-0.437-1.301-0.683-2.137-0.683h-1.943v4.753h1.337v0.012h1.152
	C332.032,8.598,333.045,7.485,333.045,6.171z"/>
<polyline fill="#FFFFFF" points="344.772,18.008 337.007,0.404 340.669,0.404 344.76,9.838 348.864,0.404 352.569,0.404 
	344.772,18.008 "/>
<path fill="#FFFFFF" d="M356.974,0.053l7.862,17.572h-3.75l-1.164-2.617h-5.896l-1.164,2.617h-3.737L356.974,0.053 M358.555,11.951
	l-1.57-3.643l-1.591,3.643H358.555z"/>
<rect x="366.342" y="0.404" fill="#FFFFFF" width="3.462" height="17.221"/>
<path fill="#FFFFFF" d="M377.18,14.234c0.956,0,2.01-0.796,2.01-1.752c0-1.571-2.109-1.788-3.302-2.203
	c-2.1-0.715-3.953-2.438-3.953-4.785c0-2.902,2.355-5.244,5.261-5.244c2.645,0,4.84,1.965,5.193,4.519l-3.434,0.725
	c0-0.944-0.796-1.739-1.741-1.739c-0.962,0-1.753,0.795-1.753,1.75c0,1.551,1.962,1.963,3.156,2.318
	c2.174,0.627,4.092,2.283,4.092,4.68c0,2.903-2.606,5.25-5.506,5.25c-2.664,0-5.072-1.954-5.463-4.519l3.437-0.731
	c0,0.962,1.046,1.746,2.016,1.746L377.18,14.234"/>
<path fill="#FFFFFF" d="M397.836,0.053l7.862,17.572h-3.752l-1.162-2.617h-5.896l-1.165,2.617h-3.737L397.836,0.053 M399.417,11.951
	l-1.572-3.643l-1.591,3.643H399.417z"/>
<path fill="#FFFFFF" d="M416.059,10.82V0.404h3.483v10.428c0,1.92-0.681,3.563-2.041,4.922c-1.367,1.354-3.006,2.03-4.913,2.03
	c-1.932,0-3.576-0.676-4.936-2.03c-1.36-1.358-2.039-3.002-2.039-4.922V0.404h3.481V10.82c0,1.878,1.589,3.459,3.483,3.459
	C414.45,14.279,416.059,12.687,416.059,10.82"/>
<polyline fill="#FFFFFF" points="432.988,0.404 432.988,3.834 428.759,3.834 428.759,17.625 425.288,17.625 425.288,3.834 
	421.048,3.834 421.048,0.404 432.988,0.404 "/>
<path fill="#FFFFFF" d="M447.095,2.841c1.717,1.717,2.574,3.777,2.574,6.184c0,2.415-0.857,4.474-2.574,6.176
	c-1.709,1.694-3.768,2.541-6.173,2.541c-2.415-0.009-4.474-0.854-6.176-2.541c-1.706-1.709-2.562-3.769-2.562-6.176
	c0-2.4,0.854-4.46,2.562-6.184c1.717-1.717,3.775-2.574,6.176-2.574C443.321,0.267,445.38,1.123,447.095,2.841 M437.214,5.298
	c-1.025,1.038-1.538,2.274-1.538,3.706c0,1.446,0.513,2.681,1.538,3.707c1.018,1.021,2.255,1.527,3.708,1.527
	c1.431,0,2.664-0.508,3.696-1.527c1.03-1.018,1.548-2.252,1.548-3.707c0-1.438-0.518-2.672-1.548-3.706
	c-1.024-1.025-2.259-1.538-3.696-1.538C439.46,3.759,438.226,4.271,437.214,5.298z"/>
</svg>
