<?xml version="1.0" encoding="utf-8"?>
<!-- Generator: Adobe Illustrator 15.1.0, SVG Export Plug-In . SVG Version: 6.00 Build 0)  -->
<!DOCTYPE svg PUBLIC "-//W3C//DTD SVG 1.1//EN" "http://www.w3.org/Graphics/SVG/1.1/DTD/svg11.dtd">
<svg version="1.1" id="Calque_1" xmlns="http://www.w3.org/2000/svg" xmlns:xlink="http://www.w3.org/1999/xlink" x="0px" y="0px"
	 width="248.805px" height="39.352px" viewBox="0 0 248.805 39.352" enable-background="new 0 0 248.805 39.352"
	 xml:space="preserve">
<path fill="#FFFFFF" d="M8.667,12.134c3.923,0,6.993,1.558,9.123,3.671c2.231,2.241,3.347,5.186,3.347,8.836
	c0,3.65-1.115,6.585-3.347,8.804c-2.457,2.437-5.498,3.656-9.123,3.656H2.024V12.15h6.643V12.134 M8.653,17.106H7.027v14.992h1.672
	c4.501,0,7.435-2.988,7.435-7.496C16.134,20.135,13.15,17.106,8.653,17.106z"/>
<polyline fill="#FFFFFF" points="38.364,12.072 38.364,17.075 28.328,17.075 28.328,22.108 35.855,22.108 35.855,27.111 
	28.328,27.111 28.328,32.144 38.364,32.144 38.364,37.131 23.311,37.131 23.311,12.072 38.364,12.072 "/>
<path fill="#FFFFFF" d="M47.495,32.186c1.386,0,2.915-1.151,2.915-2.537c0-2.279-3.059-2.597-4.786-3.195
	c-3.045-1.038-5.731-3.537-5.731-6.936c0-4.21,3.415-7.603,7.625-7.603c3.84,0,7.019,2.847,7.535,6.55l-4.983,1.053
	c0-1.371-1.152-2.522-2.522-2.522c-1.393,0-2.544,1.151-2.544,2.537c0,2.249,2.849,2.847,4.581,3.362
	c3.15,0.909,5.93,3.309,5.93,6.785c0,4.21-3.778,7.61-7.98,7.61c-3.863,0-7.354-2.832-7.921-6.55l4.982-1.06
	c0,1.393,1.515,2.529,2.923,2.529L47.495,32.186"/>
<path fill="#FFFFFF" d="M73.626,12.134c3.921,0,6.992,1.558,9.122,3.671c2.231,2.241,3.346,5.186,3.346,8.836
	c0,3.65-1.114,6.585-3.346,8.804c-2.458,2.437-5.498,3.656-9.122,3.656h-6.644V12.15h6.644V12.134 M73.611,17.106h-1.626v14.992
	h1.672c4.501,0,7.435-2.988,7.435-7.496C81.092,20.135,78.107,17.106,73.611,17.106z"/>
<path fill="#FFFFFF" d="M103.322,12.011v5.017H93.302v5.018h7.512v5.018h-7.512v5.019h10.021v5.018H88.269v-25.09H103.322
	 M100.364,4.917l-5.111,4.755l-1.797-1.379l3.997-5.668L100.364,4.917z"/>
<polyline fill="#FFFFFF" points="120.549,12.072 120.549,17.075 110.513,17.075 110.513,22.108 118.039,22.108 118.039,27.111 
	110.513,27.111 110.513,37.131 105.495,37.131 105.495,12.072 120.549,12.072 "/>
<rect x="122.723" y="12.135" fill="#FFFFFF" width="5.018" height="24.966"/>
<path fill="#FFFFFF" d="M137.798,32.186c1.386,0,2.915-1.151,2.915-2.537c0-2.279-3.059-2.597-4.785-3.195
	c-3.044-1.038-5.732-3.537-5.732-6.936c0-4.21,3.415-7.603,7.626-7.603c3.839,0,7.02,2.847,7.534,6.55l-4.983,1.053
	c0-1.371-1.15-2.522-2.521-2.522c-1.395,0-2.545,1.151-2.545,2.537c0,2.249,2.848,2.847,4.581,3.362
	c3.149,0.909,5.93,3.309,5.93,6.785c0,4.21-3.779,7.61-7.982,7.61c-3.86,0-7.352-2.832-7.921-6.55l4.984-1.06
	c0,1.393,1.513,2.529,2.923,2.529L137.798,32.186"/>
<path fill="#FFFFFF" d="M157.285,29.605V12.134h8.766c2.427,0,4.491,0.852,6.194,2.556c1.726,1.714,2.587,3.779,2.587,6.195
	c0,2.437-0.861,4.492-2.587,6.164c-1.724,1.704-3.789,2.556-6.194,2.556h-3.748v7.496h-5.018V29.605 M166.051,17.106h-3.748v7.527
	l3.748,0.016c2.055,0,3.764-1.723,3.764-3.764C169.814,18.846,168.097,17.106,166.051,17.106z"/>
<path fill="#FFFFFF" d="M197.698,15.665c2.488,2.489,3.732,5.478,3.732,8.968c0,3.5-1.244,6.484-3.732,8.952
	c-2.478,2.457-5.462,3.686-8.953,3.686c-3.5-0.01-6.482-1.239-8.951-3.686c-2.478-2.478-3.717-5.462-3.717-8.952
	c0-3.48,1.239-6.468,3.717-8.968c2.489-2.488,5.473-3.732,8.951-3.732C192.226,11.933,195.209,13.177,197.698,15.665
	 M183.371,19.228c-1.485,1.507-2.229,3.299-2.229,5.374c0,2.096,0.744,3.887,2.229,5.374c1.478,1.477,3.269,2.215,5.374,2.215
	c2.076,0,3.863-0.738,5.36-2.215c1.497-1.476,2.245-3.267,2.245-5.374c0-2.085-0.748-3.877-2.245-5.374
	c-1.487-1.487-3.274-2.23-5.36-2.23C186.629,16.998,184.837,17.741,183.371,19.228z"/>
<path fill="#FFFFFF" d="M218.722,27.235V12.134h5.05v15.117c0,2.787-0.986,5.167-2.959,7.139c-1.983,1.962-4.357,2.943-7.124,2.943
	c-2.798,0-5.185-0.981-7.155-2.943c-1.972-1.972-2.958-4.352-2.958-7.139V12.134h5.048v15.101c0,2.722,2.307,5.018,5.049,5.018
	C216.391,32.253,218.722,29.941,218.722,27.235"/>
<path fill="#FFFFFF" d="M226.874,12.134h8.147c2.779,0,5.027,1.05,6.536,2.54c1.52,1.52,2.416,2.907,2.416,5.669v0.65
	c0,1.683-0.527,3.268-1.58,4.755c-0.877,1.228-1.571,1.75-2.989,2.308l5.807,9.045h-6.133l-7.17-11.043v11.043h-5.018
	L226.874,12.134 M238.801,20.498c0-0.909-0.331-1.709-0.991-2.401c-0.651-0.633-1.888-0.991-3.099-0.991h-2.818v6.892h1.936v0.016
	h1.673C237.329,24.014,238.801,22.401,238.801,20.498z"/>
</svg>
