<?xml version="1.0" encoding="utf-8"?>
<!-- Generator: Adobe Illustrator 15.1.0, SVG Export Plug-In . SVG Version: 6.00 Build 0)  -->
<!DOCTYPE svg PUBLIC "-//W3C//DTD SVG 1.1//EN" "http://www.w3.org/Graphics/SVG/1.1/DTD/svg11.dtd">
<svg version="1.1" id="Calque_1" xmlns="http://www.w3.org/2000/svg" xmlns:xlink="http://www.w3.org/1999/xlink" x="0px" y="0px"
	 width="199.694px" height="26.983px" viewBox="0 0 199.694 26.983" enable-background="new 0 0 199.694 26.983"
	 xml:space="preserve">
<polyline fill="#FFFFFF" points="5.018,0.59 5.018,20.568 15.054,20.568 15.054,25.555 0,25.555 0,0.59 5.018,0.59 "/>
<polyline fill="#FFFFFF" points="32.281,0.527 32.281,5.529 22.245,5.529 22.245,10.563 29.772,10.563 29.772,15.567 22.245,15.567 
	22.245,20.6 32.281,20.6 32.281,25.586 17.227,25.586 17.227,0.527 32.281,0.527 "/>
<path fill="#FFFFFF" d="M41.411,20.641c1.387,0,2.916-1.15,2.916-2.536c0-2.28-3.061-2.599-4.786-3.196
	c-3.044-1.037-5.733-3.537-5.733-6.936c0-4.211,3.415-7.604,7.626-7.604c3.84,0,7.021,2.848,7.535,6.551l-4.982,1.053
	c0-1.37-1.151-2.523-2.522-2.523c-1.393,0-2.543,1.153-2.543,2.537c0,2.25,2.846,2.848,4.58,3.363
	c3.15,0.908,5.929,3.309,5.929,6.785c0,4.209-3.778,7.609-7.98,7.609c-3.862,0-7.354-2.832-7.921-6.551l4.982-1.059
	c0,1.393,1.516,2.527,2.923,2.527L41.411,20.641"/>
<polyline fill="#FFFFFF" points="75.953,0.527 75.953,5.529 65.917,5.529 65.917,10.563 73.444,10.563 73.444,15.567 65.917,15.567 
	65.917,20.6 75.953,20.6 75.953,25.586 60.899,25.586 60.899,0.527 75.953,0.527 "/>
<polyline fill="#FFFFFF" points="90.361,16.774 102.581,0 102.581,25.555 97.562,25.555 97.562,15.209 90.361,25.152 83.143,15.209 
	83.143,25.555 78.126,25.555 78.126,0 90.361,16.774 "/>
<path fill="#FFFFFF" d="M105.686,18.059V0.59h8.767c2.427,0,4.492,0.853,6.194,2.556c1.726,1.714,2.588,3.778,2.588,6.194
	c0,2.436-0.862,4.49-2.588,6.164c-1.724,1.703-3.788,2.555-6.194,2.555h-3.748v7.496h-5.019V18.059 M114.452,5.562h-3.748v7.526
	l3.748,0.017c2.055,0,3.764-1.724,3.764-3.765C118.216,7.301,116.498,5.562,114.452,5.562z"/>
<polyline fill="#FFFFFF" points="130.425,0.59 130.425,20.568 140.461,20.568 140.461,25.555 125.407,25.555 125.407,0.59 
	130.425,0.59 "/>
<path fill="#FFFFFF" d="M161.777,4.121c2.487,2.488,3.732,5.477,3.732,8.967c0,3.5-1.245,6.484-3.732,8.951
	c-2.478,2.457-5.462,3.686-8.952,3.686c-3.5-0.01-6.483-1.238-8.951-3.686c-2.479-2.478-3.718-5.461-3.718-8.951
	c0-3.479,1.238-6.469,3.718-8.967c2.488-2.488,5.472-3.732,8.951-3.732C156.304,0.389,159.289,1.633,161.777,4.121 M147.451,7.682
	c-1.486,1.509-2.23,3.3-2.23,5.375c0,2.096,0.744,3.887,2.23,5.375c1.477,1.477,3.268,2.216,5.374,2.216
	c2.075,0,3.861-0.739,5.358-2.216s2.245-3.27,2.245-5.375c0-2.086-0.748-3.877-2.245-5.375c-1.486-1.486-3.272-2.229-5.358-2.229
	C150.709,5.453,148.917,6.195,147.451,7.682z"/>
<rect x="167.654" y="0.59" fill="#FFFFFF" width="5.018" height="24.965"/>
<path fill="#FFFFFF" d="M182.729,20.641c1.387,0,2.916-1.15,2.916-2.536c0-2.28-3.059-2.599-4.786-3.196
	c-3.043-1.037-5.731-3.537-5.731-6.936c0-4.211,3.415-7.604,7.626-7.604c3.839,0,7.019,2.848,7.534,6.551l-4.983,1.053
	c0-1.37-1.15-2.523-2.521-2.523c-1.395,0-2.545,1.153-2.545,2.537c0,2.25,2.848,2.848,4.581,3.363c3.15,0.908,5.93,3.309,5.93,6.785
	c0,4.209-3.778,7.609-7.982,7.609c-3.86,0-7.352-2.832-7.921-6.551l4.984-1.059c0,1.393,1.514,2.527,2.923,2.527L182.729,20.641"/>
<path fill="#FFFFFF" d="M192.766,23.154c0-1.75,1.454-3.145,3.206-3.145c1.741,0,3.207,1.468,3.207,3.207
	c0,1.756-1.458,3.129-3.207,3.129C194.211,26.346,192.766,24.916,192.766,23.154 M193.046,0.59h5.792l-0.79,17.732h-4.182
	C193.679,12.111,193.318,6.701,193.046,0.59z"/>
</svg>
