<?xml version="1.0" encoding="utf-8"?>
<!-- Generator: Adobe Illustrator 15.1.0, SVG Export Plug-In . SVG Version: 6.00 Build 0)  -->
<!DOCTYPE svg PUBLIC "-//W3C//DTD SVG 1.1//EN" "http://www.w3.org/Graphics/SVG/1.1/DTD/svg11.dtd">
<svg version="1.1" id="Calque_1" xmlns="http://www.w3.org/2000/svg" xmlns:xlink="http://www.w3.org/1999/xlink" x="0px" y="0px"
	 width="148.859px" height="130.719px" viewBox="0 0 148.859 130.719" enable-background="new 0 0 148.859 130.719"
	 xml:space="preserve">
<g>
	<circle fill="#080000" cx="11.125" cy="119.491" r="10.527"/>
	<path fill="#080000" d="M17.214,128.236c3.026-1.776,6.405-2.771,9.503-4.396c2.754-1.339,5.482-2.736,8.116-4.315
		c5.532-2.85,11.284-5.29,16.454-8.822c1.646-0.957,3.107-2.192,4.654-3.307c-0.956-0.211-1.025-1.308-1.394-2.106
		c-5.082,4.021-11.098,6.544-16.675,9.72c-4.291,2.466-8.856,4.37-13.256,6.609c-3.643,1.702-7.292,3.393-10.982,4.989
		c0.539,0.854,1.13,1.685,1.785,2.489C16.019,128.812,16.621,128.534,17.214,128.236z"/>
	<path fill="#080000" d="M147.662,19.581c-1.217-1.576-2.707-3.015-4.529-3.818c1.084-3.174,0.979-7.489-1.946-9.604
		c-2.237-1.187-4.728-2.126-7.29-1.874c-2.273,0.005-4.207,1.374-5.962,2.693c-2.786-1.286-5.963-0.375-8.575,0.906
		c-2.435,0.893-4.08,3.034-6.172,4.479c-4.256,3.599-9.062,6.403-13.578,9.629c-1.623,0.927-3.229,1.88-4.703,3.041
		c0.146-1.378,0.365-2.752,0.392-4.14c0.155-3.957-0.993-7.844-2.56-11.418c-1.371-1.815-2.896-3.549-4.666-4.967
		c-2.193-1.424-4.652-2.367-7.123-3.135c-2.108-0.441-4.486-0.617-6.383,0.598c-2.593,1.617-5.233,3.828-5.824,7.051
		c-0.7,3.217,1.086,6.15,2.265,8.99c1.729,3.444,3.28,7.207,2.974,11.162c-0.377,2.682-1.85,5.041-3.429,7.155
		c-1.653,2.517-3.69,4.747-5.333,7.272c-0.611,1.279-0.948,2.703-1.087,4.117c-0.177,4.539,1.472,8.855,2.815,13.105
		c0.166,0.666,0.752,1.454,0.201,2.092c-2.061,2.881-4.599,5.352-6.869,8.053c-2.195,2.349-4.586,4.498-6.762,6.867
		c-1.873,1.563-3.723,3.154-5.654,4.633c-3.256,2.33-6.237,5.024-9.543,7.275c-5.463,4.317-11.27,8.152-17.184,11.779
		c-2.59,1.294-5.104,2.748-7.552,4.302c-2.718,1.567-5.414,3.168-8.107,4.774c0.591,0.888,1.127,1.788,1.62,2.697
		c0.121-0.067,0.244-0.131,0.365-0.199c2.688-1.714,5.632-2.966,8.219-4.847c4.42-2.65,8.671-5.582,12.96-8.457
		c4.396-2.618,8.579-5.598,12.507-8.91c3.49-3.081,7.223-5.87,10.574-9.116c2.954-2.377,5.477-5.24,8.301-7.76
		c2.918-2.841,5.484-6.027,7.684-9.476c0.673-1.14,1.503-2.515,0.828-3.856c-0.778-3.715-1.817-7.401-2.035-11.211
		c0.085-2.26,0.602-4.551,1.729-6.515c1.513-2.603,3.531-4.851,5.058-7.442c1.701-3.303,2.918-7.199,1.881-10.914
		c-0.333-1.24-0.482-2.537-1-3.721c-1.057-2.429-2.037-4.895-3.053-7.344c-1.388-2.837-0.221-6.482,2.182-8.354
		c1.324-0.986,2.665-2.149,4.391-2.235c3.415-0.216,6.686,1.29,9.414,3.284c3.672,3.285,5.965,8.147,5.977,13.164
		c0.021,3.8-0.493,7.777-2.402,11.106c-0.796,1.433-1.951,2.608-2.803,4c-0.238,0.351-0.32,0.746-0.252,1.175
		c2.994-1.193,4.687-4.228,6.259-6.906c5.167-3.158,9.971-6.963,15.104-10.215c3.639-2.357,6.662-5.557,10.33-7.869
		c1.703-0.953,3.69-1.246,5.607-1.185c-1.686,1.909-3.504,3.72-4.85,5.915c-2.201,2.693-4.195,5.576-6.746,7.949
		c-4.75,4.428-9.629,8.738-14.897,12.521c-0.935-0.467-1.937-0.789-2.976-0.514c0.013,0.213,0.051,0.637,0.064,0.85
		c4.579,2.078,8.862,4.78,12.854,7.877c3.296,2.486,6.228,5.408,9.274,8.196c0.962,0.528,1.808-0.043,2.177-0.977
		c-0.321-0.524-0.647-1.048-0.978-1.566c1.83-2.024,4.046-3.681,5.64-5.926c2.012-2.781,4.192-5.46,5.863-8.479
		c0.914-1.474,1.852-2.933,2.748-4.414c1.041-1.47,2.518-2.514,3.756-3.785c1.161-1.166,2.967-1.09,4.432-0.735
		c2.34,0.985,3.992,3.5,3.828,6.117c-0.002,1.812-1.133,3.298-1.703,4.946c-1.67,2.83-3.068,5.871-5.228,8.365
		c-1.599,1.877-3.231,3.73-4.565,5.824c-2.678,3.273-5.668,6.268-8.352,9.539c-1.584,2.016-3.701,3.465-5.477,5.275
		c-1.278,1.104-2.51,2.258-3.728,3.42c-4.764,3.906-10.485,6.502-16.418,7.9c-2.473,0.449-5.01,0.615-7.515,0.388
		c0.137,0.939,0.081,1.827,0.084,2.767c3.267,0.496,6.647-0.238,9.826-1.008c2.906-0.84,5.781-1.891,8.375-3.495
		c1.969-1.019,3.652-2.483,5.465-3.749c1.887-1.594,3.982-2.945,5.621-4.829c2.209-2.207,4.63-4.185,6.716-6.513
		c3.153-3.305,6.014-6.874,8.851-10.461c2.26-2.328,3.875-5.188,5.834-7.772c1.616-2.741,3.245-5.526,4.288-8.565
		c0.64-2.537-0.046-5.159-0.972-7.527C147.893,25.062,149.078,22.026,147.662,19.581z M108.152,41.2
		c-2.443-1.471-4.814-3.156-7.519-4.096c3.008-1.596,5.674-3.762,8.235-6.012c2.053-1.615,3.91-3.463,5.609-5.468
		c1.879-1.614,3.014-3.903,4.754-5.661c2.996-3.873,5.916-7.947,9.901-10.834c2.353-1.279,5.043-2.486,7.758-1.711
		c1.56,0.557,3.24,1.48,3.827,3.174c0.568,1.366,0.406,2.905-0.133,4.252c-1.637-0.041-3.303-0.043-4.905,0.342
		c-2.394,0.734-4.147,2.664-5.776,4.502c-1.5,1.39-2.455,3.248-3.875,4.705c-1.463,1.414-2.51,3.193-3.988,4.595
		C117.837,33.517,113.812,38.515,108.152,41.2z M144.781,24.929c-1.502-1.342-3.533-2.354-5.559-1.899
		c-1.764,0.29-3.209,1.458-4.633,2.476c-2.012,1.756-3.204,4.243-4.747,6.396c-2.167,2.882-4.026,5.984-6.16,8.888
		c-2.039,2.556-4.071,5.126-6.385,7.435c-2.22-1.805-4.442-3.608-6.8-5.219c2.504-1.924,5.281-3.565,7.33-6.033
		c4.08-4.035,7.44-8.754,11.426-12.889c1.852-2.423,4.119-4.561,6.804-5.967c3.032-1.834,7.194-0.438,9.132,2.412
		C146.018,21.945,145.455,23.584,144.781,24.929z"/>
	<path fill="#080000" d="M86.41,35.23c1.113,0.628,1.93,1.643,2.48,2.796c1.194,1.956,1.721,4.227,2.268,6.436
		c0.414,1.947,0.602,4.387-1.07,5.786c-0.553,0.063-1.188,0.337-1.59-0.214c0.673-1.84,0.25-3.786,0.125-5.68
		C88.335,41.205,86.75,38.353,86.41,35.23"/>
	<path fill="#080000" d="M89.035,53.847c2.078-1.1,4.342-1.885,6.697-1.953c0.354,0.195,1.021,0.906,0.34,1.117
		c-4.75,1.324-9.566,3.67-12.42,7.955c-0.508,0.887-1.459,1.164-2.41,1.084c-0.086-0.318-0.166-0.634-0.244-0.943
		c0.873-1.461,2.107-2.625,3.252-3.855C85.604,55.78,87.578,55.198,89.035,53.847"/>
	<path fill="#E0BE96" d="M141.283,26.408c-1.465-0.354-3.271-0.431-4.432,0.735c-1.238,1.271-2.715,2.315-3.756,3.785
		c-0.896,1.482-1.834,2.941-2.748,4.414c-1.671,3.02-3.852,5.698-5.863,8.479c-1.594,2.245-3.81,3.901-5.64,5.926
		c0.33,0.519,0.656,1.042,0.978,1.566c-0.369,0.934-1.215,1.505-2.177,0.977c-3.047-2.788-5.979-5.71-9.274-8.196
		c-3.991-3.097-8.274-5.799-12.854-7.877c-0.014-0.213-0.052-0.637-0.064-0.85c1.039-0.275,2.041,0.047,2.976,0.514
		c5.269-3.783,10.147-8.094,14.897-12.521c2.551-2.372,4.545-5.255,6.746-7.948c1.346-2.196,3.164-4.007,4.85-5.916
		c-1.917-0.062-3.904,0.231-5.607,1.185c-3.668,2.312-6.691,5.512-10.33,7.869c-5.134,3.252-9.938,7.057-15.104,10.215
		c-1.572,2.679-3.265,5.713-6.259,6.906c-0.068-0.429,0.014-0.824,0.252-1.175c0.852-1.392,2.007-2.567,2.803-4
		c1.909-3.329,2.423-7.307,2.402-11.106c-0.012-5.017-2.305-9.879-5.977-13.164c-2.729-1.994-5.999-3.5-9.414-3.284
		c-1.726,0.086-3.066,1.249-4.391,2.235c-2.402,1.871-3.569,5.517-2.182,8.354c1.016,2.448,1.996,4.914,3.053,7.343
		c0.518,1.184,0.667,2.481,1,3.723c1.037,3.713-0.18,7.609-1.881,10.912c-1.526,2.592-3.545,4.84-5.058,7.442
		c-1.128,1.964-1.645,4.255-1.729,6.515c0.218,3.81,1.257,7.496,2.035,11.211c0.675,1.342-0.155,2.717-0.828,3.856
		c-2.199,3.448-4.766,6.636-7.684,9.476c-2.824,2.52-5.347,5.383-8.301,7.76c-3.352,3.246-7.084,6.035-10.574,9.116
		c-3.928,3.312-8.111,6.292-12.507,8.91c-4.289,2.875-8.54,5.807-12.96,8.457c-2.587,1.881-5.531,3.133-8.219,4.847
		c-0.092,0.052-0.186,0.101-0.278,0.152c2.389,4.317,2.839,9.926,6.749,13.229c3.589-1.558,7.139-3.205,10.684-4.86
		c4.399-2.239,8.965-4.144,13.256-6.609c5.577-3.176,11.593-5.699,16.675-9.72c0.03-0.024,0.092-0.053,0.149-0.081l1.344,0.724
		c0,0,27.146-16,32.886-27.625l6.614,0.996l-0.156-1.05c1.428-0.052,2.854-0.203,4.257-0.458c5.933-1.398,11.654-3.994,16.418-7.9
		c1.218-1.162,2.449-2.316,3.728-3.42c1.775-1.811,3.893-3.26,5.477-5.275c2.684-3.271,5.674-6.266,8.352-9.539
		c1.334-2.094,2.967-3.947,4.565-5.824c2.159-2.494,3.558-5.535,5.228-8.365c0.57-1.648,1.701-3.135,1.703-4.946
		C145.275,29.908,143.623,27.394,141.283,26.408z M88.891,38.026c1.194,1.956,1.721,4.227,2.268,6.436
		c0.414,1.947,0.602,4.387-1.07,5.786c-0.553,0.063-1.188,0.337-1.59-0.214c0.673-1.84,0.25-3.786,0.125-5.68
		c-0.288-3.149-1.873-6.002-2.213-9.124C87.523,35.857,88.34,36.873,88.891,38.026z M96.072,53.011
		c-4.75,1.324-9.566,3.67-12.42,7.955c-0.508,0.887-1.459,1.164-2.41,1.084c-0.086-0.318-0.166-0.634-0.244-0.943
		c0.873-1.461,2.107-2.625,3.252-3.855c1.354-1.471,3.328-2.053,4.785-3.404c2.078-1.1,4.342-1.885,6.697-1.953
		C96.087,52.089,96.753,52.8,96.072,53.011z"/>
	<path fill="#E0BE96" d="M129.134,9.13c2.353-1.279,5.043-2.486,7.758-1.711c1.56,0.559,3.24,1.481,3.827,3.174
		c0.568,1.366,0.406,2.906-0.133,4.252c-1.637-0.041-3.303-0.043-4.905,0.342c-2.394,0.734-4.147,2.666-5.776,4.502
		c-1.5,1.391-2.455,3.248-3.875,4.707c-1.463,1.412-2.51,3.191-3.988,4.593c-4.204,4.528-8.229,9.526-13.889,12.212
		c-2.443-1.471-4.814-3.156-7.519-4.095c3.008-1.597,5.674-3.763,8.235-6.011c2.053-1.617,3.91-3.465,5.609-5.47
		c1.879-1.614,3.014-3.903,4.754-5.661C122.229,16.091,125.148,12.017,129.134,9.13"/>
	<path fill="#E0BE96" d="M136.058,18.117c3.032-1.834,7.194-0.437,9.132,2.412c0.828,1.417,0.266,3.056-0.408,4.399
		c-1.502-1.342-3.533-2.354-5.559-1.898c-1.764,0.29-3.209,1.458-4.633,2.475c-2.012,1.756-3.204,4.244-4.747,6.397
		c-2.167,2.881-4.026,5.983-6.16,8.887c-2.039,2.556-4.071,5.126-6.385,7.435c-2.22-1.805-4.442-3.608-6.8-5.219
		c2.504-1.924,5.281-3.565,7.33-6.033c4.08-4.033,7.44-8.752,11.426-12.889C131.105,21.661,133.373,19.523,136.058,18.117"/>
	<path fill="#080000" d="M47.78,112.902l-1.417-2.237C77.39,91.025,78.111,90.099,85.02,81.228c0.811-1.04,1.703-2.186,2.734-3.479
		l2.346,1.871c-1.024,1.283-1.909,2.42-2.713,3.451C80.341,92.118,79.247,92.983,47.78,112.902z"/>
	<path fill="#080000" d="M89.679,80.455c-4.397-1.133-8.15-3.249-10.854-6.119l2.184-2.057c2.925,3.104,6.736,4.579,9.419,5.271
		L89.679,80.455z"/>
	<path fill="#080000" d="M95.541,81.011c-0.104,0-2.589,0.287-5.862-0.555l0.748-2.906c2.909,0.749,5.093,0.758,5.114,0.758V81.011z
		"/>
	<circle fill="#E0BE96" cx="11.15" cy="119.567" r="7.458"/>
</g>
</svg>
