<?xml version="1.0" encoding="utf-8"?>
<!-- Generator: Adobe Illustrator 15.1.0, SVG Export Plug-In . SVG Version: 6.00 Build 0)  -->
<!DOCTYPE svg PUBLIC "-//W3C//DTD SVG 1.1//EN" "http://www.w3.org/Graphics/SVG/1.1/DTD/svg11.dtd">
<svg version="1.1" id="Calque_1" xmlns="http://www.w3.org/2000/svg" xmlns:xlink="http://www.w3.org/1999/xlink" x="0px" y="0px"
	 width="204.922px" height="34.931px" viewBox="0 0 204.922 34.931" enable-background="new 0 0 204.922 34.931"
	 xml:space="preserve">
<polyline fill="#FFFFFF" points="14.579,25.525 26.799,8.751 26.799,34.307 21.779,34.307 21.779,23.961 14.579,33.903 
	7.361,23.961 7.361,34.307 2.344,34.307 2.344,8.751 14.579,25.525 "/>
<path fill="#FFFFFF" d="M44.958,9.216v5.018H34.937v5.018h7.511v5.019h-7.511v5.019h10.021v5.018H29.902V9.216H44.958 M37.462,0.729
	l4.119,6.427h-2.539l-1.58-2.447l-1.549,2.447h-2.524L37.462,0.729z"/>
<polyline fill="#FFFFFF" points="59.366,25.525 71.586,8.751 71.586,34.307 66.566,34.307 66.566,23.961 59.366,33.903 
	52.148,23.961 52.148,34.307 47.131,34.307 47.131,8.751 59.366,25.525 "/>
<polyline fill="#FFFFFF" points="89.745,9.277 89.745,14.28 79.709,14.28 79.709,19.314 87.235,19.314 87.235,24.317 79.709,24.317 
	79.709,29.351 89.745,29.351 89.745,34.338 74.69,34.338 74.69,9.277 89.745,9.277 "/>
<path fill="#FFFFFF" d="M112.938,34.477c-3.49-0.01-6.468-1.239-8.936-3.686c-2.479-2.479-3.718-5.463-3.718-8.953
	c0-3.479,1.238-6.467,3.718-8.966c2.487-2.489,5.467-3.733,8.936-3.733l-0.015,0.062c3.854,0,6.92,1.713,8.981,3.702l-3.576,3.578
	c-1.509-1.487-3.3-2.231-5.375-2.231c-2.106,0-3.893,0.744-5.358,2.231c-1.488,1.507-2.231,3.298-2.231,5.374
	c0,2.095,0.743,3.888,2.231,5.374c1.476,1.477,3.262,2.215,5.358,2.215c2.106,0,3.902-0.744,5.39-2.23l3.578,3.578
	C119.872,32.82,116.832,34.477,112.938,34.477"/>
<polyline fill="#FFFFFF" points="129.099,9.34 129.099,19.33 137.445,19.33 137.445,9.34 142.447,9.34 142.447,34.307 
	137.445,34.307 137.445,24.302 129.099,24.302 129.099,34.307 124.096,34.307 124.096,9.34 129.099,9.34 "/>
<path fill="#FFFFFF" d="M166.243,12.872c2.487,2.488,3.732,5.477,3.732,8.966c0,3.5-1.245,6.484-3.732,8.953
	c-2.478,2.457-5.463,3.686-8.952,3.686c-3.5-0.01-6.483-1.239-8.951-3.686c-2.479-2.479-3.718-5.463-3.718-8.953
	c0-3.479,1.238-6.467,3.718-8.966c2.488-2.489,5.472-3.733,8.951-3.733S163.755,10.382,166.243,12.872 M151.917,16.434
	c-1.486,1.508-2.23,3.299-2.23,5.374c0,2.096,0.744,3.887,2.23,5.375c1.477,1.476,3.268,2.215,5.374,2.215
	c2.075,0,3.861-0.739,5.358-2.215c1.498-1.478,2.246-3.269,2.246-5.375c0-2.085-0.748-3.877-2.246-5.374
	c-1.486-1.487-3.272-2.23-5.358-2.23C155.175,14.204,153.383,14.946,151.917,16.434z"/>
<path fill="#FFFFFF" d="M179.077,29.392c1.386,0,2.916-1.151,2.916-2.536c0-2.279-3.06-2.598-4.786-3.197
	c-3.044-1.037-5.732-3.535-5.732-6.936c0-4.21,3.415-7.602,7.626-7.602c3.839,0,7.02,2.847,7.534,6.55l-4.983,1.052
	c0-1.37-1.15-2.521-2.521-2.521c-1.395,0-2.545,1.151-2.545,2.536c0,2.249,2.848,2.849,4.581,3.363
	c3.149,0.907,5.93,3.31,5.93,6.785c0,4.21-3.779,7.608-7.982,7.608c-3.86,0-7.352-2.832-7.921-6.55l4.984-1.059
	c0,1.392,1.513,2.528,2.923,2.528L179.077,29.392"/>
<polyline fill="#FFFFFF" points="204.323,9.277 204.323,14.28 194.288,14.28 194.288,19.314 201.814,19.314 201.814,24.317 
	194.288,24.317 194.288,29.351 204.323,29.351 204.323,34.338 189.271,34.338 189.271,9.277 204.323,9.277 "/>
</svg>
