<?xml version="1.0" encoding="utf-8"?>
<!-- Generator: Adobe Illustrator 15.1.0, SVG Export Plug-In . SVG Version: 6.00 Build 0)  -->
<!DOCTYPE svg PUBLIC "-//W3C//DTD SVG 1.1//EN" "http://www.w3.org/Graphics/SVG/1.1/DTD/svg11.dtd">
<svg version="1.1" id="Calque_1" xmlns="http://www.w3.org/2000/svg" xmlns:xlink="http://www.w3.org/1999/xlink" x="0px" y="0px"
	 width="88.509px" height="25.869px" viewBox="0 0 88.509 25.869" enable-background="new 0 0 88.509 25.869" xml:space="preserve">
<path fill="#FFFFFF" d="M0.291,17.904V0.436h8.766c2.427,0,4.491,0.852,6.195,2.555c1.724,1.715,2.587,3.779,2.587,6.195
	c0,2.436-0.863,4.49-2.587,6.164c-1.724,1.703-3.789,2.555-6.195,2.555H5.309v7.497H0.291V17.904 M9.057,5.406H5.309v7.527
	l3.748,0.016c2.054,0,3.764-1.723,3.764-3.764C12.82,7.147,11.102,5.406,9.057,5.406z"/>
<path fill="#FFFFFF" d="M40.705,3.967c2.488,2.488,3.73,5.478,3.73,8.967c0,3.5-1.242,6.484-3.73,8.951
	c-2.48,2.457-5.463,3.686-8.953,3.686c-3.501-0.01-6.485-1.238-8.952-3.686c-2.479-2.479-3.717-5.461-3.717-8.951
	c0-3.48,1.238-6.469,3.717-8.967c2.488-2.488,5.473-3.731,8.952-3.731C35.232,0.235,38.216,1.479,40.705,3.967 M26.378,7.528
	c-1.488,1.507-2.23,3.298-2.23,5.375c0,2.095,0.742,3.886,2.23,5.375c1.476,1.476,3.267,2.214,5.374,2.214
	c2.075,0,3.861-0.738,5.359-2.214c1.496-1.478,2.246-3.271,2.246-5.375c0-2.086-0.75-3.877-2.246-5.375
	c-1.486-1.487-3.274-2.229-5.359-2.229C29.636,5.299,27.844,6.041,26.378,7.528z"/>
<path fill="#FFFFFF" d="M61.726,15.535v-15.1h5.051v15.115c0,2.787-0.986,5.168-2.959,7.142c-1.982,1.961-4.355,2.94-7.123,2.94
	c-2.799,0-5.184-0.979-7.156-2.94c-1.971-1.974-2.957-4.354-2.957-7.142V0.436h5.049v15.1c0,2.723,2.305,5.018,5.047,5.018
	C59.396,20.553,61.726,18.24,61.726,15.535"/>
<path fill="#FFFFFF" d="M69.88,0.436h8.146c2.779,0,5.027,1.05,6.537,2.539c1.52,1.52,2.414,2.906,2.414,5.668v0.65
	c0,1.684-0.525,3.271-1.578,4.756c-0.877,1.228-1.572,1.75-2.99,2.308l5.809,9.045h-6.133l-7.172-11.043v11.043h-5.018L69.88,0.436
	 M81.806,8.799c0-0.91-0.332-1.709-0.99-2.399c-0.652-0.636-1.889-0.993-3.098-0.993h-2.82v6.893h1.938v0.017h1.672
	C80.335,12.315,81.806,10.701,81.806,8.799z"/>
</svg>
