<?xml version="1.0" encoding="utf-8"?>
<!-- Generator: Adobe Illustrator 15.1.0, SVG Export Plug-In . SVG Version: 6.00 Build 0)  -->
<!DOCTYPE svg PUBLIC "-//W3C//DTD SVG 1.1//EN" "http://www.w3.org/Graphics/SVG/1.1/DTD/svg11.dtd">
<svg version="1.1" id="Calque_1" xmlns="http://www.w3.org/2000/svg" xmlns:xlink="http://www.w3.org/1999/xlink" x="0px" y="0px"
	 width="480px" height="40px" viewBox="0 0 480 40" enable-background="new 0 0 480 40" xml:space="preserve">
<rect fill="#FFFFFF" width="480" height="40.271"/>
<path fill="#120100" d="M27.332,14.727l-1.521,1.57c-1.265-1.227-2.501-1.841-3.711-1.841c-0.768,0-1.426,0.254-1.974,0.759
	c-0.548,0.509-0.822,1.102-0.822,1.775c0,0.598,0.226,1.166,0.677,1.708c0.452,0.553,1.401,1.198,2.847,1.942
	c1.761,0.915,2.958,1.795,3.59,2.639c0.621,0.856,0.933,1.818,0.933,2.889c0,1.512-0.531,2.789-1.592,3.836
	c-1.062,1.051-2.388,1.573-3.978,1.573c-1.062,0-2.074-0.231-3.039-0.693c-0.964-0.46-1.763-1.097-2.395-1.91l1.487-1.689
	c1.208,1.363,2.491,2.045,3.846,2.045c0.948,0,1.756-0.305,2.423-0.912c0.667-0.61,1-1.323,1-2.148c0-0.675-0.222-1.276-0.662-1.807
	c-0.439-0.52-1.434-1.171-2.98-1.961c-1.66-0.856-2.79-1.702-3.389-2.535c-0.598-0.833-0.897-1.785-0.897-2.856
	c0-1.398,0.477-2.557,1.43-3.483c0.955-0.923,2.16-1.384,3.615-1.384C23.912,12.242,25.617,13.07,27.332,14.727"/>
<path fill="#120100" d="M49.844,12.714v18.391h-2.332v-3.163c-0.991,1.206-2.104,2.112-3.338,2.722
	c-1.234,0.607-2.584,0.913-4.049,0.913c-2.603,0-4.825-0.943-6.667-2.831c-1.843-1.888-2.764-4.184-2.764-6.889
	c0-2.647,0.93-4.911,2.789-6.794c1.86-1.879,4.096-2.822,6.71-2.822c1.509,0,2.875,0.322,4.098,0.963
	c1.223,0.643,2.296,1.606,3.22,2.891v-3.38H49.844 M40.388,14.522c-1.316,0-2.532,0.325-3.646,0.97
	c-1.114,0.647-2,1.558-2.658,2.728c-0.659,1.171-0.987,2.41-0.987,3.713c0,1.295,0.332,2.532,0.995,3.715
	c0.664,1.183,1.556,2.101,2.677,2.76c1.119,0.659,2.321,0.988,3.604,0.988c1.294,0,2.521-0.327,3.681-0.978
	c1.159-0.655,2.051-1.537,2.675-2.649c0.625-1.117,0.937-2.371,0.937-3.768c0-2.128-0.7-3.905-2.101-5.336
	C44.162,15.238,42.437,14.522,40.388,14.522z"/>
<rect x="54.814" y="5.615" fill="#120100" width="2.366" height="25.49"/>
<path fill="#120100" d="M70.803,12.242c2.833,0,5.181,1.023,7.042,3.076c1.693,1.869,2.54,4.084,2.54,6.641
	c0,2.569-0.895,4.814-2.683,6.736c-1.79,1.923-4.09,2.882-6.899,2.882c-2.823,0-5.128-0.959-6.917-2.882
	c-1.79-1.922-2.684-4.167-2.684-6.736c0-2.547,0.846-4.753,2.54-6.623C65.604,13.273,67.958,12.242,70.803,12.242 M70.793,14.558
	c-1.967,0-3.658,0.728-5.071,2.18c-1.414,1.454-2.12,3.21-2.12,5.274c0,1.329,0.322,2.567,0.966,3.718
	c0.645,1.147,1.515,2.036,2.612,2.661c1.096,0.626,2.301,0.938,3.612,0.938c1.312,0,2.516-0.312,3.613-0.938
	c1.098-0.625,1.968-1.514,2.612-2.661c0.645-1.15,0.968-2.389,0.968-3.718c0-2.064-0.71-3.82-2.129-5.274
	C74.438,15.285,72.75,14.558,70.793,14.558z"/>
<path fill="#120100" d="M84.764,12.715h2.366v3.295c0.946-1.26,1.995-2.204,3.143-2.83c1.15-0.626,2.401-0.938,3.753-0.938
	c1.375,0,2.594,0.35,3.659,1.047c1.064,0.7,1.849,1.639,2.358,2.824c0.507,1.184,0.76,3.023,0.76,5.526v9.466h-2.365v-8.774
	c0-2.117-0.089-3.531-0.264-4.241c-0.274-1.217-0.8-2.133-1.579-2.746c-0.778-0.615-1.791-0.923-3.041-0.923
	c-1.432,0-2.714,0.477-3.846,1.421c-1.133,0.946-1.88,2.117-2.241,3.516c-0.226,0.911-0.337,2.581-0.337,5.003v6.745h-2.366V12.715"
	/>
<path fill="#120100" d="M121.355,25l1.995,1.05c-0.654,1.284-1.41,2.321-2.268,3.108c-0.857,0.79-1.822,1.39-2.892,1.802
	c-1.074,0.409-2.285,0.616-3.638,0.616c-3,0-5.345-0.982-7.038-2.95c-1.691-1.966-2.539-4.188-2.539-6.668
	c0-2.331,0.717-4.411,2.148-6.236c1.816-2.321,4.247-3.481,7.292-3.481c3.136,0,5.638,1.189,7.512,3.566
	c1.33,1.679,2.006,3.774,2.03,6.288h-16.547c0.045,2.136,0.727,3.886,2.047,5.252c1.32,1.366,2.951,2.049,4.891,2.049
	c0.937,0,1.846-0.164,2.732-0.487c0.886-0.326,1.639-0.758,2.259-1.298C119.961,27.071,120.634,26.203,121.355,25 M121.355,20.05
	c-0.316-1.263-0.775-2.271-1.379-3.026c-0.604-0.754-1.402-1.364-2.394-1.825c-0.996-0.462-2.037-0.692-3.132-0.692
	c-1.805,0-3.357,0.581-4.653,1.739c-0.947,0.845-1.664,2.114-2.149,3.805H121.355z"/>
<path fill="#120100" d="M128.354,12.715h2.365v3.178c0.824-1.174,1.669-2.028,2.54-2.568c1.195-0.722,2.452-1.082,3.772-1.082
	c0.891,0,1.736,0.174,2.539,0.523c0.8,0.349,1.453,0.814,1.962,1.395c0.508,0.58,0.948,1.411,1.32,2.493
	c0.788-1.442,1.77-2.537,2.95-3.289c1.182-0.748,2.452-1.122,3.812-1.122c1.27,0,2.391,0.321,3.363,0.962
	c0.974,0.643,1.696,1.539,2.168,2.688c0.471,1.148,0.708,2.874,0.708,5.172v10.041h-2.417V21.064c0-1.971-0.142-3.327-0.421-4.064
	c-0.281-0.736-0.76-1.332-1.44-1.785c-0.68-0.449-1.492-0.675-2.434-0.675c-1.146,0-2.194,0.338-3.144,1.015
	c-0.948,0.676-1.643,1.578-2.082,2.703c-0.437,1.127-0.655,3.01-0.655,5.647v7.2h-2.366V21.69c0-2.221-0.138-3.727-0.415-4.521
	c-0.275-0.794-0.758-1.433-1.444-1.91c-0.688-0.479-1.504-0.719-2.451-0.719c-1.094,0-2.116,0.328-3.067,0.991
	c-0.952,0.657-1.657,1.544-2.112,2.66c-0.456,1.116-0.686,2.822-0.686,5.12v7.794h-2.365V12.715"/>
<path fill="#120100" d="M160.871,12.714h2.367v3.38c0.935-1.284,2.009-2.248,3.225-2.891c1.216-0.641,2.572-0.963,4.069-0.963
	c2.61,0,4.847,0.943,6.702,2.822c1.856,1.883,2.786,4.146,2.786,6.794c0,2.705-0.919,5.001-2.761,6.889
	c-1.839,1.888-4.06,2.831-6.66,2.831c-1.463,0-2.808-0.306-4.035-0.913c-1.228-0.609-2.336-1.516-3.326-2.722v9.887h-2.367V12.714
	 M170.337,14.522c-2.047,0-3.769,0.716-5.168,2.143c-1.399,1.431-2.101,3.208-2.101,5.336c0,1.396,0.313,2.65,0.938,3.768
	c0.624,1.112,1.518,1.994,2.681,2.649c1.163,0.65,2.392,0.978,3.683,0.978c1.271,0,2.466-0.329,3.584-0.988
	c1.117-0.659,2.009-1.577,2.673-2.76s0.995-2.42,0.995-3.715c0-1.303-0.329-2.542-0.987-3.713c-0.658-1.17-1.542-2.08-2.655-2.728
	C172.866,14.848,171.652,14.522,170.337,14.522z"/>
<rect x="184.094" y="5.615" fill="#120100" width="2.368" height="25.49"/>
<path fill="#120100" d="M200.084,12.242c2.831,0,5.18,1.023,7.042,3.076c1.692,1.869,2.539,4.084,2.539,6.641
	c0,2.569-0.895,4.814-2.684,6.736c-1.789,1.923-4.089,2.882-6.897,2.882c-2.825,0-5.13-0.959-6.917-2.882
	c-1.791-1.922-2.684-4.167-2.684-6.736c0-2.547,0.846-4.753,2.541-6.623C194.886,13.273,197.239,12.242,200.084,12.242
	 M200.075,14.558c-1.967,0-3.658,0.728-5.072,2.18c-1.415,1.454-2.12,3.21-2.12,5.274c0,1.329,0.323,2.567,0.967,3.718
	c0.644,1.147,1.516,2.036,2.612,2.661c1.097,0.626,2.302,0.938,3.613,0.938c1.312,0,2.515-0.312,3.612-0.938
	c1.098-0.625,1.968-1.514,2.613-2.661c0.645-1.15,0.966-2.389,0.966-3.718c0-2.064-0.709-3.82-2.128-5.274
	C203.719,15.285,202.032,14.558,200.075,14.558z"/>
<path fill="#120100" d="M214.865,5.144c0.537,0,0.997,0.191,1.38,0.572c0.381,0.384,0.572,0.849,0.572,1.389
	c0,0.529-0.19,0.987-0.572,1.368c-0.383,0.383-0.843,0.575-1.38,0.575c-0.528,0-0.983-0.192-1.364-0.575
	c-0.381-0.381-0.574-0.839-0.574-1.368c0-0.54,0.193-1.005,0.574-1.389C213.882,5.335,214.336,5.144,214.865,5.144 M213.689,12.715
	h2.367v18.391h-2.367V12.715z"/>
<path fill="#120100" d="M230.219,14.727l-1.52,1.57c-1.268-1.227-2.503-1.841-3.713-1.841c-0.767,0-1.426,0.254-1.975,0.759
	c-0.546,0.509-0.822,1.102-0.822,1.775c0,0.598,0.228,1.166,0.68,1.708c0.45,0.553,1.398,1.198,2.843,1.942
	c1.763,0.915,2.959,1.795,3.593,2.639c0.62,0.856,0.93,1.818,0.93,2.889c0,1.512-0.531,2.789-1.591,3.836
	c-1.061,1.051-2.388,1.573-3.977,1.573c-1.061,0-2.073-0.231-3.038-0.693c-0.967-0.46-1.763-1.097-2.397-1.91l1.488-1.689
	c1.208,1.363,2.491,2.045,3.846,2.045c0.949,0,1.757-0.305,2.423-0.912c0.666-0.61,0.999-1.323,0.999-2.148
	c0-0.675-0.22-1.276-0.659-1.807c-0.44-0.52-1.435-1.171-2.982-1.961c-1.66-0.856-2.79-1.702-3.387-2.535
	c-0.599-0.833-0.898-1.785-0.898-2.856c0-1.398,0.478-2.557,1.431-3.483c0.953-0.923,2.158-1.384,3.614-1.384
	C226.797,12.242,228.503,13.07,230.219,14.727"/>
<path fill="#120100" d="M234.411,5.614h2.365v10.395c0.958-1.26,2.011-2.204,3.162-2.83c1.147-0.626,2.393-0.938,3.733-0.938
	c1.375,0,2.594,0.351,3.659,1.048c1.063,0.7,1.852,1.637,2.358,2.814c0.508,1.178,0.76,3.021,0.76,5.536v9.466h-2.364V22.33
	c0-2.117-0.085-3.532-0.255-4.241c-0.292-1.217-0.824-2.133-1.596-2.746c-0.774-0.615-1.784-0.923-3.036-0.923
	c-1.431,0-2.712,0.477-3.843,1.421c-1.134,0.946-1.881,2.117-2.241,3.516c-0.225,0.899-0.337,2.569-0.337,5.003v6.745h-2.365V5.614"
	/>
<path fill="#120100" d="M273.842,12.714v18.391h-2.332v-3.163c-0.992,1.206-2.104,2.112-3.339,2.722
	c-1.233,0.607-2.583,0.913-4.048,0.913c-2.604,0-4.824-0.943-6.668-2.831c-1.842-1.888-2.763-4.184-2.763-6.889
	c0-2.647,0.931-4.911,2.788-6.794c1.859-1.879,4.096-2.822,6.711-2.822c1.509,0,2.875,0.322,4.097,0.963
	c1.224,0.643,2.296,1.606,3.222,2.891v-3.38H273.842 M264.385,14.522c-1.315,0-2.53,0.325-3.646,0.97
	c-1.113,0.647-2.002,1.558-2.659,2.728c-0.658,1.171-0.987,2.41-0.987,3.713c0,1.295,0.333,2.532,0.997,3.715
	c0.663,1.183,1.557,2.101,2.675,2.76c1.12,0.659,2.321,0.988,3.604,0.988c1.296,0,2.521-0.327,3.681-0.978
	c1.16-0.655,2.051-1.537,2.676-2.649c0.624-1.117,0.937-2.371,0.937-3.768c0-2.128-0.7-3.905-2.104-5.336
	C268.159,15.238,266.436,14.522,264.385,14.522z"/>
<polyline fill="#120100" points="276.681,12.715 279.114,12.715 284.751,26.067 290.617,12.715 291.047,12.715 296.955,26.067 
	302.699,12.715 305.161,12.715 297.173,31.105 296.734,31.105 290.854,17.938 284.977,31.105 284.535,31.105 276.681,12.715 "/>
<path fill="#120100" d="M308.752,5.144c0.54,0,0.999,0.191,1.38,0.572c0.382,0.384,0.572,0.849,0.572,1.389
	c0,0.529-0.19,0.987-0.572,1.368c-0.381,0.383-0.84,0.575-1.38,0.575c-0.527,0-0.982-0.192-1.363-0.575
	c-0.382-0.381-0.572-0.839-0.572-1.368c0-0.54,0.19-1.005,0.572-1.389C307.77,5.335,308.225,5.144,308.752,5.144 M307.576,12.715
	h2.367v18.391h-2.367V12.715z"/>
<path fill="#120100" d="M314.862,12.715h2.367v3.295c0.946-1.26,1.993-2.204,3.144-2.83c1.147-0.626,2.399-0.938,3.749-0.938
	c1.376,0,2.595,0.35,3.662,1.047c1.063,0.7,1.851,1.639,2.356,2.824c0.507,1.184,0.762,3.023,0.762,5.526v9.466h-2.367v-8.774
	c0-2.117-0.087-3.531-0.264-4.241c-0.273-1.217-0.799-2.133-1.577-2.746c-0.776-0.615-1.791-0.923-3.043-0.923
	c-1.433,0-2.714,0.477-3.846,1.421c-1.132,0.946-1.878,2.117-2.241,3.516c-0.223,0.911-0.335,2.581-0.335,5.003v6.745h-2.367V12.715
	"/>
<path fill="#120100" d="M336.792,5.144c0.54,0,0.997,0.191,1.38,0.572c0.382,0.384,0.572,0.849,0.572,1.389
	c0,0.529-0.19,0.987-0.572,1.368c-0.383,0.383-0.84,0.575-1.38,0.575c-0.528,0-0.982-0.192-1.363-0.575
	c-0.382-0.381-0.572-0.839-0.572-1.368c0-0.54,0.19-1.005,0.572-1.389C335.81,5.335,336.264,5.144,336.792,5.144 M335.616,12.715
	h2.368v18.391h-2.368V12.715z"/>
<path fill="#120100" d="M358.754,12.714h2.368v14.653c0,2.581-0.226,4.469-0.676,5.662c-0.62,1.69-1.696,2.992-3.228,3.904
	c-1.534,0.913-3.376,1.371-5.527,1.371c-1.577,0-2.994-0.226-4.252-0.672c-1.256-0.447-2.278-1.044-3.067-1.798
	c-0.788-0.75-1.516-1.851-2.18-3.297h2.569c0.698,1.218,1.601,2.119,2.707,2.705c1.104,0.585,2.476,0.879,4.112,0.879
	c1.612,0,2.976-0.301,4.085-0.898c1.113-0.603,1.906-1.358,2.379-2.268c0.476-0.909,0.709-2.379,0.709-4.406v-0.946
	c-0.888,1.128-1.977,1.991-3.263,2.595c-1.288,0.604-2.651,0.906-4.096,0.906c-1.69,0-3.281-0.422-4.771-1.262
	c-1.49-0.837-2.638-1.967-3.451-3.388c-0.811-1.42-1.219-2.979-1.219-4.684c0-1.699,0.425-3.285,1.27-4.757
	c0.847-1.47,2.016-2.634,3.511-3.489c1.495-0.857,3.072-1.285,4.728-1.285c1.378,0,2.661,0.285,3.851,0.854
	c1.189,0.567,2.338,1.508,3.441,2.812V12.714 M351.776,14.522c-1.343,0-2.588,0.325-3.735,0.972
	c-1.15,0.647-2.051,1.543-2.705,2.687s-0.98,2.381-0.98,3.71c0,2.018,0.678,3.686,2.027,5.005c1.353,1.316,3.104,1.976,5.258,1.976
	c2.173,0,3.925-0.65,5.247-1.961c1.325-1.307,1.986-3.023,1.986-5.153c0-1.388-0.304-2.623-0.912-3.712
	c-0.608-1.086-1.472-1.944-2.587-2.576C354.261,14.838,353.061,14.522,351.776,14.522z"/>
<path fill="#120100" d="M384.515,12.714v18.391h-2.333v-3.163c-0.992,1.206-2.104,2.112-3.339,2.722
	c-1.232,0.607-2.583,0.913-4.048,0.913c-2.602,0-4.826-0.943-6.668-2.831s-2.762-4.184-2.762-6.889c0-2.647,0.93-4.911,2.787-6.794
	c1.859-1.879,4.097-2.822,6.712-2.822c1.508,0,2.874,0.322,4.099,0.963c1.221,0.643,2.296,1.606,3.219,2.891v-3.38H384.515
	 M375.057,14.522c-1.315,0-2.532,0.325-3.646,0.97c-1.113,0.647-2,1.558-2.658,2.728c-0.659,1.171-0.987,2.41-0.987,3.713
	c0,1.295,0.333,2.532,0.996,3.715c0.664,1.183,1.555,2.101,2.675,2.76c1.121,0.659,2.321,0.988,3.605,0.988
	c1.295,0,2.521-0.327,3.681-0.978c1.159-0.655,2.05-1.537,2.675-2.649c0.624-1.117,0.937-2.371,0.937-3.768
	c0-2.128-0.7-3.905-2.101-5.336C378.831,15.238,377.107,14.522,375.057,14.522z"/>
<path fill="#120100" d="M389.839,12.715h2.365v3.295c0.946-1.26,1.995-2.204,3.144-2.83c1.15-0.626,2.399-0.938,3.752-0.938
	c1.375,0,2.594,0.35,3.659,1.047c1.063,0.7,1.851,1.639,2.358,2.824c0.508,1.184,0.76,3.023,0.76,5.526v9.466h-2.364v-8.774
	c0-2.117-0.09-3.531-0.265-4.241c-0.273-1.217-0.801-2.133-1.579-2.746c-0.776-0.615-1.791-0.923-3.043-0.923
	c-1.431,0-2.712,0.477-3.844,1.421c-1.134,0.946-1.88,2.117-2.241,3.516c-0.225,0.911-0.337,2.581-0.337,5.003v6.745h-2.365V12.715"
	/>
<path fill="#120100" d="M413.551,27.386c0.574,0,1.065,0.203,1.472,0.607c0.404,0.406,0.606,0.902,0.606,1.487
	c0,0.574-0.202,1.068-0.606,1.48c-0.406,0.409-0.897,0.616-1.472,0.616s-1.065-0.207-1.47-0.616
	c-0.406-0.412-0.608-0.906-0.608-1.48c0-0.585,0.202-1.081,0.608-1.487C412.485,27.589,412.977,27.386,413.551,27.386"/>
<path fill="#120100" d="M438.379,16.535l-1.876,1.164c-1.621-2.151-3.832-3.228-6.634-3.228c-2.241,0-4.101,0.722-5.579,2.162
	c-1.481,1.441-2.221,3.189-2.221,5.249c0,1.343,0.34,2.602,1.021,3.782c0.68,1.184,1.614,2.099,2.802,2.754
	c1.187,0.651,2.517,0.979,3.993,0.979c2.7,0,4.906-1.076,6.617-3.229l1.876,1.235c-0.877,1.322-2.06,2.349-3.541,3.079
	c-1.483,0.729-3.169,1.095-5.061,1.095c-2.909,0-5.32-0.923-7.235-2.771c-1.917-1.85-2.872-4.097-2.872-6.744
	c0-1.781,0.447-3.436,1.341-4.961c0.897-1.528,2.129-2.72,3.694-3.575c1.566-0.857,3.318-1.284,5.258-1.284
	c1.218,0,2.391,0.186,3.522,0.558s2.095,0.856,2.882,1.454C437.157,14.852,437.827,15.61,438.379,16.535"/>
<path fill="#120100" d="M461.248,12.714v18.391h-2.333v-3.163c-0.992,1.206-2.104,2.112-3.339,2.722
	c-1.232,0.607-2.583,0.913-4.048,0.913c-2.602,0-4.824-0.943-6.668-2.831c-1.842-1.888-2.762-4.184-2.762-6.889
	c0-2.647,0.93-4.911,2.787-6.794c1.86-1.879,4.097-2.822,6.712-2.822c1.508,0,2.874,0.322,4.096,0.963
	c1.224,0.643,2.299,1.606,3.222,2.891v-3.38H461.248 M451.79,14.522c-1.315,0-2.53,0.325-3.646,0.97
	c-1.115,0.647-2.002,1.558-2.658,2.728c-0.659,1.171-0.987,2.41-0.987,3.713c0,1.295,0.333,2.532,0.996,3.715
	c0.664,1.183,1.557,2.101,2.675,2.76c1.121,0.659,2.321,0.988,3.605,0.988c1.295,0,2.521-0.327,3.678-0.978
	c1.162-0.655,2.053-1.537,2.678-2.649c0.624-1.117,0.937-2.371,0.937-3.768c0-2.128-0.7-3.905-2.104-5.336
	C455.564,15.238,453.838,14.522,451.79,14.522z"/>
</svg>
