<?xml version="1.0" encoding="utf-8"?>
<!-- Generator: Adobe Illustrator 15.1.0, SVG Export Plug-In . SVG Version: 6.00 Build 0)  -->
<!DOCTYPE svg PUBLIC "-//W3C//DTD SVG 1.1//EN" "http://www.w3.org/Graphics/SVG/1.1/DTD/svg11.dtd">
<svg version="1.1" id="Calque_1" xmlns="http://www.w3.org/2000/svg" xmlns:xlink="http://www.w3.org/1999/xlink" x="0px" y="0px"
	 width="41.151px" height="56.083px" viewBox="0 0 41.151 56.083" enable-background="new 0 0 41.151 56.083" xml:space="preserve">
<path fill="#080000" d="M26.688,1.418c0.994-0.387,2.065-0.469,3.104-0.673c1.542,2.064,3.796,3.584,4.726,6.077
	c1.69,2.823,3.273,5.716,4.666,8.709c0.582,1.669,1.254,3.366,1.31,5.169c-3.742,1.833-7.312,4.077-10.481,6.829
	c-2.498,1.858-4.901,3.894-6.889,6.326c-4.036,4.354-8.406,8.686-10.651,14.354c-0.399,1.318-0.803,2.637-1.131,3.975
	c-0.346,1.172,0.187,2.324,0.325,3.483c-1.98-0.159-2.845-2.243-4.014-3.595c-2.491-2.932-4.644-6.288-5.585-10.09
	c-0.286-1.554-0.88-3.019-1.211-4.559c-0.659-3.67-0.921-7.634,0.678-11.105c1.389-2.716,2.986-5.323,4.837-7.738
	c2.61-4.003,5.989-7.455,9.79-10.274c2.227-1.428,4.371-2.979,6.591-4.414C24.049,3.045,25.188,1.884,26.688,1.418"/>
</svg>
