<?xml version="1.0" encoding="utf-8"?>
<!-- Generator: Adobe Illustrator 15.1.0, SVG Export Plug-In . SVG Version: 6.00 Build 0)  -->
<!DOCTYPE svg PUBLIC "-//W3C//DTD SVG 1.1//EN" "http://www.w3.org/Graphics/SVG/1.1/DTD/svg11.dtd">
<svg version="1.1" id="Calque_1" xmlns="http://www.w3.org/2000/svg" xmlns:xlink="http://www.w3.org/1999/xlink" x="0px" y="0px"
	 width="28.115px" height="48.677px" viewBox="0 0 28.115 48.677" enable-background="new 0 0 28.115 48.677" xml:space="preserve">
<path fill="#080000" d="M11.116,0.062c3.204,1.211,5.55,3.872,7.904,6.29c1.76,2.16,3.713,4.181,5.069,6.654
	c1.534,2.08,2.134,4.643,3.112,7.008c0.836,2.137,0.599,4.466,0.621,6.709c-0.203,3.188-1.111,6.258-1.717,9.373
	c-1.314,4.467-3.236,8.893-6.496,12.238c-0.223-0.051-0.66-0.152-0.883-0.203c-0.773-1.143-0.003-2.469-0.322-3.709
	c-0.815-4.641-3.208-8.816-6.032-12.475c-2.509-2.832-5.104-5.654-8.256-7.75c-1.227-0.79-2.477-1.55-3.694-2.362
	c0.161-1.33,0.644-2.562,1.225-3.751C4.707,12.024,7.926,6.048,11.116,0.062"/>
</svg>
