<?xml version="1.0" encoding="utf-8"?>
<!-- Generator: Adobe Illustrator 15.1.0, SVG Export Plug-In . SVG Version: 6.00 Build 0)  -->
<!DOCTYPE svg PUBLIC "-//W3C//DTD SVG 1.1//EN" "http://www.w3.org/Graphics/SVG/1.1/DTD/svg11.dtd">
<svg version="1.1" id="Calque_1" xmlns="http://www.w3.org/2000/svg" xmlns:xlink="http://www.w3.org/1999/xlink" x="0px" y="0px"
	 width="293.187px" height="35.568px" viewBox="0 0 293.187 35.568" enable-background="new 0 0 293.187 35.568"
	 xml:space="preserve">
<polyline fill="#FFFFFF" points="18.733,9.812 18.733,14.784 12.6,14.784 12.6,34.779 7.567,34.779 7.567,14.784 1.418,14.784 
	1.418,9.812 18.733,9.812 "/>
<path fill="#FFFFFF" d="M39.181,13.342c2.488,2.489,3.732,5.478,3.732,8.968c0,3.5-1.244,6.484-3.732,8.951
	c-2.478,2.459-5.462,3.687-8.952,3.687c-3.5-0.01-6.484-1.239-8.952-3.687c-2.478-2.478-3.716-5.461-3.716-8.951
	c0-3.48,1.238-6.468,3.716-8.968c2.489-2.488,5.474-3.732,8.952-3.732C33.709,9.61,36.693,10.854,39.181,13.342 M24.855,16.905
	c-1.488,1.507-2.229,3.299-2.229,5.374c0,2.096,0.741,3.887,2.229,5.374c1.477,1.478,3.269,2.215,5.374,2.215
	c2.076,0,3.861-0.737,5.359-2.215c1.497-1.476,2.246-3.267,2.246-5.374c0-2.085-0.749-3.877-2.246-5.374
	c-1.487-1.487-3.273-2.23-5.359-2.23C28.112,14.675,26.32,15.418,24.855,16.905z"/>
<path fill="#FFFFFF" d="M60.206,24.912V9.811h5.049v15.116c0,2.787-0.986,5.168-2.958,7.14c-1.982,1.962-4.357,2.942-7.124,2.942
	c-2.799,0-5.185-0.98-7.156-2.942c-1.972-1.972-2.957-4.353-2.957-7.14V9.811h5.049v15.101c0,2.723,2.305,5.018,5.048,5.018
	C57.874,29.929,60.206,27.618,60.206,24.912"/>
<path fill="#FFFFFF" d="M75.316,29.863c1.385,0,2.916-1.15,2.916-2.537c0-2.279-3.06-2.597-4.787-3.195
	c-3.044-1.037-5.731-3.537-5.731-6.937c0-4.21,3.415-7.602,7.626-7.602c3.839,0,7.02,2.847,7.534,6.55l-4.982,1.052
	c0-1.37-1.152-2.521-2.522-2.521c-1.393,0-2.545,1.151-2.545,2.536c0,2.249,2.849,2.847,4.581,3.363
	c3.151,0.908,5.931,3.309,5.931,6.784c0,4.211-3.778,7.61-7.981,7.61c-3.862,0-7.353-2.832-7.921-6.551l4.983-1.06
	c0,1.394,1.514,2.53,2.923,2.53L75.316,29.863"/>
<polyline fill="#FFFFFF" points="99.82,9.812 99.82,29.792 109.857,29.792 109.857,34.779 94.803,34.779 94.803,9.812 99.82,9.812 
	"/>
<polyline fill="#FFFFFF" points="127.084,9.75 127.084,14.753 117.048,14.753 117.048,19.786 124.575,19.786 124.575,24.789 
	117.048,24.789 117.048,29.823 127.084,29.823 127.084,34.808 112.03,34.808 112.03,9.75 127.084,9.75 "/>
<path fill="#FFFFFF" d="M136.214,29.863c1.386,0,2.916-1.15,2.916-2.537c0-2.279-3.061-2.597-4.786-3.195
	c-3.044-1.037-5.733-3.537-5.733-6.937c0-4.21,3.415-7.602,7.626-7.602c3.839,0,7.021,2.847,7.535,6.55l-4.982,1.052
	c0-1.37-1.151-2.521-2.521-2.521c-1.394,0-2.545,1.151-2.545,2.536c0,2.249,2.847,2.847,4.581,3.363
	c3.149,0.908,5.93,3.309,5.93,6.784c0,4.211-3.778,7.61-7.981,7.61c-3.861,0-7.353-2.832-7.921-6.551l4.983-1.06
	c0,1.394,1.513,2.53,2.922,2.53L136.214,29.863"/>
<path fill="#FFFFFF" d="M167.442,9.657c3.854,0,6.927,1.698,8.967,3.702l-3.577,3.577c-1.518-1.497-3.305-2.245-5.358-2.245
	c-2.096,0-3.882,0.748-5.359,2.245c-1.486,1.487-2.229,3.278-2.229,5.374s0.743,3.888,2.229,5.374
	c1.467,1.487,3.252,2.229,5.359,2.229c3.245,0,5.753-2.016,6.845-4.367h-7.124v-4.785h12.824c0.357,4.666-1.174,8.053-3.64,10.5
	c-2.488,2.469-5.473,3.703-8.952,3.703c-3.51,0-6.489-1.234-8.937-3.703c-2.478-2.457-3.717-5.44-3.717-8.951
	c0-3.479,1.239-6.468,3.717-8.967c2.457-2.488,5.437-3.732,8.937-3.732L167.442,9.657"/>
<path fill="#FFFFFF" d="M202.931,13.342c2.488,2.489,3.732,5.478,3.732,8.968c0,3.5-1.244,6.484-3.732,8.951
	c-2.478,2.459-5.462,3.687-8.952,3.687c-3.5-0.01-6.484-1.239-8.952-3.687c-2.478-2.478-3.717-5.461-3.717-8.951
	c0-3.48,1.239-6.468,3.717-8.968c2.489-2.488,5.473-3.732,8.952-3.732S200.443,10.854,202.931,13.342 M188.605,16.905
	c-1.487,1.507-2.23,3.299-2.23,5.374c0,2.096,0.743,3.887,2.23,5.374c1.477,1.478,3.268,2.215,5.374,2.215
	c2.075,0,3.862-0.737,5.359-2.215c1.497-1.476,2.245-3.267,2.245-5.374c0-2.085-0.748-3.877-2.245-5.374
	c-1.487-1.487-3.273-2.23-5.359-2.23C191.862,14.675,190.07,15.418,188.605,16.905z"/>
<path fill="#FFFFFF" d="M223.785,24.866V9.75h5.05v15.13c0,2.809-0.986,5.188-2.958,7.141c-1.951,1.962-4.326,2.943-7.124,2.943
	c-2.8,0-5.18-0.981-7.141-2.943c-1.972-1.952-2.959-4.332-2.959-7.141V9.75h5.065v15.116c0,2.733,2.272,5.019,5.018,5.019
	C221.453,29.884,223.785,27.593,223.785,24.866 M218.69,1.263l4.12,6.427h-2.54l-1.58-2.447l-1.549,2.447h-2.525L218.69,1.263z"/>
<polyline fill="#FFFFFF" points="248.169,9.812 248.169,14.784 242.036,14.784 242.036,34.779 237.003,34.779 237.003,14.784 
	230.854,14.784 230.854,9.812 248.169,9.812 "/>
<path fill="#FFFFFF" d="M257.3,29.863c1.386,0,2.916-1.15,2.916-2.537c0-2.279-3.061-2.597-4.786-3.195
	c-3.044-1.037-5.733-3.537-5.733-6.937c0-4.21,3.415-7.602,7.626-7.602c3.84,0,7.021,2.847,7.535,6.55l-4.982,1.052
	c0-1.37-1.151-2.521-2.521-2.521c-1.394,0-2.545,1.151-2.545,2.536c0,2.249,2.847,2.847,4.581,3.363
	c3.15,0.908,5.929,3.309,5.929,6.784c0,4.211-3.777,7.61-7.98,7.61c-3.861,0-7.354-2.832-7.921-6.551l4.983-1.06
	c0,1.394,1.514,2.53,2.922,2.53L257.3,29.863"/>
<path fill="#FFFFFF" d="M267.337,32.376c0-1.748,1.453-3.205,3.206-3.205c1.739,0,3.206,1.465,3.206,3.205
	c0,1.754-1.457,3.191-3.206,3.191C268.781,35.568,267.337,34.138,267.337,32.376"/>
<path fill="#FFFFFF" d="M276.54,32.376c0-1.748,1.452-3.205,3.205-3.205c1.74,0,3.206,1.465,3.206,3.205
	c0,1.754-1.457,3.191-3.206,3.191C277.984,35.568,276.54,34.138,276.54,32.376"/>
<path fill="#FFFFFF" d="M285.741,32.376c0-1.748,1.453-3.205,3.206-3.205c1.741,0,3.206,1.465,3.206,3.205
	c0,1.754-1.457,3.191-3.206,3.191C287.186,35.568,285.741,34.138,285.741,32.376"/>
</svg>
