<?xml version="1.0" encoding="utf-8"?>
<!-- Generator: Adobe Illustrator 15.1.0, SVG Export Plug-In . SVG Version: 6.00 Build 0)  -->
<!DOCTYPE svg PUBLIC "-//W3C//DTD SVG 1.1 Basic//EN" "http://www.w3.org/Graphics/SVG/1.1/DTD/svg11-basic.dtd">
<svg version="1.1" baseProfile="basic" id="Calque_1"
	 xmlns="http://www.w3.org/2000/svg" xmlns:xlink="http://www.w3.org/1999/xlink" x="0px" y="0px" width="804.73px"
	 height="121.622px" viewBox="0 0 804.73 121.622" xml:space="preserve">
<g>
	<path fill="#FFFFFF" d="M778.311,73.796h8.557l9.289-8l-12.442-3.378L778.311,73.796z M767.108,117.648h33.89V106.27h-20.941
		v-4.504h19.253V91.751h-19.253v-4.207h20.661V76.167h-33.609V117.648z M738.791,117.648h13.174V87.9h11.598V76.167h-36.368V87.9
		h11.597V117.648z M710.362,117.648h13.173v-41.48h-13.173V117.648z M675.121,117.648h31.695v-11.852h-18.522v-29.63h-13.173
		V117.648z M646.073,102.24l3.604-10.073l3.603,10.073H646.073z M626.651,117.648h14.074l2.025-5.571h13.793l2.083,5.571h14.3
		L656.319,75.87h-13.061L626.651,117.648z M606.893,118.477c11.766,0,19.591-5.57,19.591-19.733V76.167h-13.399v22.992
		c0,5.037-2.532,7.053-6.079,7.053s-6.08-2.193-6.08-7.35V76.167h-13.398v22.874C587.527,112.789,595.126,118.477,606.893,118.477
		 M562.25,106.685c-5.123,0-8.274-4.623-8.274-9.541v-0.119c0-4.858,3.151-9.48,8.162-9.48c5.123,0,8.389,4.622,8.389,9.541v0.117
		c0,0.83-0.113,1.659-0.282,2.431l-4.222-3.972l-5.517,6.52l4.504,4.03C564.164,106.507,563.207,106.685,562.25,106.685
		 M578.745,118.892l5.518-6.459l-4.054-3.615c2.195-3.378,3.49-7.467,3.49-11.911v-0.118c0-12.029-9.289-21.512-21.449-21.512
		s-21.561,9.601-21.561,21.63v0.118c0,12.03,9.289,21.511,21.448,21.511c4.616,0,8.839-1.362,12.272-3.732L578.745,118.892z
		 M488.728,117.648h33.89V106.27h-20.941v-4.504h19.253V91.751h-19.253v-4.207h20.66V76.167h-33.608V117.648z M459.173,105.559
		V88.255h2.194c6.024,0,9.908,2.606,9.908,8.593v0.118c0,5.984-3.884,8.593-9.908,8.593H459.173z M445.999,117.648h14.638
		c15.932,0,23.926-8.712,23.926-20.978v-0.119c0-12.267-7.825-20.385-23.476-20.385h-15.088V117.648z M386.664,117.648h13.061
		V98.507l14.637,19.141h11.71V76.167H413.01v18.311l-14.019-18.311h-12.328V117.648z M361.049,106.27
		c-5.067,0-8.275-4.445-8.275-9.363v-0.118c0-4.859,3.152-9.244,8.163-9.244c5.065,0,8.274,4.443,8.274,9.362v0.118
		C369.211,101.885,366.06,106.27,361.049,106.27 M360.937,118.536c12.16,0,21.561-9.6,21.561-21.629v-0.118
		c0-12.029-9.289-21.512-21.448-21.512c-12.16,0-21.562,9.601-21.562,21.63v0.118C339.488,109.055,348.777,118.536,360.937,118.536
		 M322.036,117.648h13.173v-41.48h-13.173V117.648z M293.607,117.648h13.173V87.9h11.597V76.167H282.01V87.9h11.597V117.648z
		 M259.553,102.24l3.603-10.073l3.603,10.073H259.553z M240.131,117.648h14.074l2.027-5.571h13.793l2.082,5.571h14.3L269.799,75.87
		h-13.06L240.131,117.648z M193.575,117.648h12.891V97.085l9.064,14.755h0.225l9.064-14.755v20.562h13.117V76.167H224.2
		l-8.445,14.577l-8.444-14.577h-13.736V117.648z M165.933,95.899v-8.118h5.743c3.04,0,5.01,1.305,5.01,3.971v0.118
		c0,2.549-1.914,4.029-5.067,4.029H165.933z M152.76,117.648h13.173v-11.852h2.703h0.112l7.431,11.852h15.031l-9.176-14.104
		c4.785-2.431,7.769-6.638,7.769-12.683v-0.118c0-4.267-1.239-7.348-3.603-9.837c-2.758-2.903-7.206-4.74-14.187-4.74H152.76
		V117.648z M127.146,106.27c-5.067,0-8.276-4.445-8.276-9.363v-0.118c0-4.859,3.153-9.244,8.163-9.244
		c5.067,0,8.276,4.443,8.276,9.362v0.118C135.309,101.885,132.156,106.27,127.146,106.27 M127.033,118.536
		c12.16,0,21.561-9.6,21.561-21.629v-0.118c0-12.029-9.288-21.512-21.448-21.512c-12.16,0-21.562,9.601-21.562,21.63v0.118
		C105.584,109.055,114.873,118.536,127.033,118.536 M69.837,117.648H83.01v-13.571h18.409V93.292H83.01v-5.274h19.816V76.167H69.837
		V117.648z M25.363,117.648h13.061V98.507l14.637,19.141H64.77V76.167H51.709v18.311L37.692,76.167H25.363V117.648z M7.011,117.648
		h13.173v-41.48H7.011V117.648z"/>
	<path fill="#FFFFFF" d="M403.219,59.528h33.89V48.15h-20.942v-4.503h19.253V33.632h-19.253v-4.208h20.66V18.047h-33.607V59.528z
		 M359.871,59.528h13.061V40.387l14.637,19.141h11.71v-41.48h-13.061v18.311l-14.019-18.311h-12.328V59.528z M336.677,60.358
		c11.766,0,19.591-5.57,19.591-19.733V18.047H342.87V41.04c0,5.037-2.534,7.052-6.08,7.052c-3.547,0-6.08-2.193-6.08-7.348V18.047
		h-13.398v22.874C317.311,54.669,324.911,60.358,336.677,60.358 M277.397,37.78v-8.118h5.743c3.04,0,5.01,1.304,5.01,3.971v0.118
		c0,2.548-1.914,4.029-5.067,4.029H277.397z M264.224,59.528h13.173V47.676h2.703h0.112l7.431,11.852h15.031l-9.176-14.104
		c4.785-2.429,7.769-6.637,7.769-12.681v-0.119c0-4.267-1.238-7.349-3.603-9.837c-2.758-2.903-7.206-4.74-14.187-4.74h-19.253
		V59.528z M246.998,59.528h13.173v-41.48h-13.173V59.528z M227.014,60.298c10.583,0,17.395-5.333,17.395-14.044v-0.119
		c0-8.355-6.755-11.438-16.832-13.392c-4.166-0.83-5.236-1.541-5.236-2.667v-0.118c0-1.008,0.901-1.72,2.871-1.72
		c3.659,0,8.107,1.245,11.822,4.09l6.418-9.363c-4.56-3.792-10.189-5.689-17.789-5.689c-10.866,0-16.72,6.104-16.72,13.985v0.119
		c0,8.77,7.768,11.437,16.607,13.333c4.222,0.889,5.461,1.541,5.461,2.726v0.119c0,1.126-1.014,1.777-3.378,1.777
		c-4.616,0-9.514-1.422-13.793-4.859l-7.037,8.83C211.814,57.928,219.02,60.298,227.014,60.298 M192.842,59.528h13.173v-41.48
		h-13.173V59.528z M168.241,48.15c-5.067,0-8.275-4.443-8.275-9.362v-0.118c0-4.859,3.152-9.245,8.163-9.245
		c5.066,0,8.275,4.445,8.275,9.363v0.118C176.404,43.765,173.251,48.15,168.241,48.15 M168.129,60.417
		c12.159,0,21.561-9.601,21.561-21.63v-0.118c0-12.03-9.289-21.512-21.449-21.512c-12.16,0-21.561,9.601-21.561,21.63v0.118
		C146.68,50.935,155.969,60.417,168.129,60.417 M105.246,59.528h13.173V44.654h12.048v14.874h13.173v-41.48h-13.173v14.637h-12.048
		V18.047h-13.173V59.528z M84.642,60.417c9.796,0,15.313-5.037,18.634-11.2l-10.865-6.459c-1.633,3.081-3.715,5.214-7.431,5.214
		c-4.335,0-7.375-3.792-7.375-9.185v-0.118c0-4.979,2.928-9.067,7.375-9.067c3.603,0,5.686,2.074,7.15,5.037l10.865-6.696
		c-3.322-6.341-9.177-10.785-17.846-10.785c-11.766,0-20.942,9.244-20.942,21.63v0.118C64.207,51.765,73.721,60.417,84.642,60.417
		 M23.9,15.676h8.557L27.052,4.299L14.611,7.676L23.9,15.676z M23.449,44.122l3.603-10.074l3.603,10.074H23.449z M4.027,59.528
		h14.074l2.027-5.569H33.92l2.083,5.569h14.299L33.695,17.75H20.634L4.027,59.528z"/>
</g>
</svg>
