<?xml version="1.0" encoding="utf-8"?>
<!-- Generator: Adobe Illustrator 15.1.0, SVG Export Plug-In . SVG Version: 6.00 Build 0)  -->
<!DOCTYPE svg PUBLIC "-//W3C//DTD SVG 1.1 Basic//EN" "http://www.w3.org/Graphics/SVG/1.1/DTD/svg11-basic.dtd">
<svg version="1.1" baseProfile="basic" id="Calque_1"
	 xmlns="http://www.w3.org/2000/svg" xmlns:xlink="http://www.w3.org/1999/xlink" x="0px" y="0px" width="185px" height="29.241px"
	 viewBox="0 0 185 29.241" xml:space="preserve">
<g>
	<g>
		<polyline fill="#A81F1C" points="0,2.771 0,2.101 6.708,1.541 6.708,25.799 9.278,26.729 9.278,27.4 0.188,27.4 0.188,26.729 
			2.72,25.799 2.72,3.479 0,2.771 		"/>
	</g>
	<path fill="#A81F1C" d="M13.912,20.097c0,3.167,0.671,6.521,4.546,6.521c1.08,0,2.72-0.485,5.067-2.721l0.746,0.934
		c-1.789,2.123-3.577,3.277-6.409,3.277c-5.03,0-8.384-2.719-8.384-8.347c0-4.881,2.907-8.532,8.01-8.532
		c4.398,0,7.005,3.205,7.005,7.451c0,0.225-0.038,0.41-0.038,0.634H13.912V20.097 M20.582,17.898v-0.186
		c0-1.79-0.447-5.329-2.943-5.329c-2.497,0-3.354,3.092-3.651,5.514H20.582z"/>
	<polyline points="33.731,4.149 43.618,21.326 43.468,5.528 41.307,4.819 41.307,4.149 48.014,4.149 48.014,4.819 45.667,5.528 
		45.592,27.884 42.873,27.884 30.75,7.688 30.936,25.797 33.731,26.69 33.731,27.399 25.645,27.399 25.645,26.69 28.626,25.76 
		28.626,5.751 26.018,4.819 26.018,4.149 33.731,4.149 	"/>
	<path d="M64.892,19.538c0,5.18-3.577,8.532-8.682,8.532c-5.104,0-8.643-3.353-8.643-8.532c0-5.552,3.129-8.31,8.569-8.31
		C61.613,11.228,64.892,13.874,64.892,19.538 M56.21,26.841c3.615,0,4.024-4.434,4.024-7.154c0-2.72-0.372-7.228-4.024-7.228
		c-3.501,0-4.023,4.359-4.023,7.004C52.187,22.146,52.596,26.841,56.21,26.841z"/>
	<path d="M70.981,11.564c0,0-0.037,5.773-0.037,9.648c0,3.728,0.298,5.292,2.533,5.292c0.261,0,1.714-0.037,2.981-1.564
		c0.969-1.154,0.969-2.198,1.043-4.285c0.112-3.391,0-7.004,0-7.19l-2.459-0.783V11.9l6.558-0.335c0,0-0.112,10.061-0.037,14.234
		l2.683,0.669v0.671c-1.379,0-6.409,0.598-6.409,0.598l-0.223-2.312c-0.821,1.007-2.423,2.498-5.254,2.498
		c-3.8,0-5.478-1.044-5.478-5.515V13.39l-2.384-0.856v-0.671C65.244,11.862,70.981,11.564,70.981,11.564"/>
	<polyline points="91.622,11.825 91.622,12.495 89.685,13.353 93.485,22.853 97.583,13.054 95.684,12.495 95.684,11.825 
		101.794,11.825 101.794,12.495 99.969,13.092 93.113,27.959 91.585,27.959 85.214,13.501 82.903,12.495 82.903,11.825 
		91.622,11.825 	"/>
	<path d="M104.924,20.097c0,3.167,0.67,6.521,4.546,6.521c1.08,0,2.719-0.485,5.067-2.721l0.745,0.934
		c-1.789,2.123-3.577,3.277-6.41,3.277c-5.029,0-8.383-2.719-8.383-8.347c0-4.881,2.908-8.532,8.011-8.532
		c4.398,0,7.005,3.205,7.005,7.451c0,0.225-0.037,0.41-0.037,0.634h-10.545V20.097 M111.593,17.898v-0.186
		c0-1.79-0.447-5.329-2.943-5.329s-3.354,3.092-3.651,5.514H111.593z"/>
	<g>
		<polyline points="115.754,2.771 115.754,2.101 122.461,1.541 122.461,25.799 125.031,26.729 125.031,27.4 115.941,27.4 
			115.941,26.729 118.475,25.799 118.475,3.479 115.754,2.771 		"/>
		<polyline points="125.292,2.771 125.292,2.101 131.999,1.541 131.999,25.799 134.569,26.729 134.569,27.4 125.479,27.4 
			125.479,26.729 128.012,25.799 128.012,3.479 125.292,2.771 		"/>
	</g>
	<path d="M134.682,12.645v-0.67l6.668-0.56v14.419l2.459,0.896V27.4h-8.868v-0.671l2.459-0.896V13.353L134.682,12.645 M141.35,5.305
		c0,1.155-1.081,2.31-2.31,2.31c-1.229,0-2.31-1.154-2.31-2.31s1.08-2.31,2.31-2.31C140.27,2.995,141.35,4.149,141.35,5.305z"/>
	<path d="M156.254,12.272l-0.485,3.875l-0.856-0.075l-0.412-2.198c-0.745-0.447-2.309-1.23-3.836-1.23
		c-0.894,0-2.832,0.485-2.832,1.975c0,1.975,2.199,2.161,4.472,2.869s4.657,1.862,4.657,4.956c0,3.54-2.869,5.551-6.297,5.551
		c-1.937,0-4.023-0.483-5.851-1.49l0.634-4.508l0.931,0.112l0.262,2.794c1.416,1.006,2.273,1.602,4.062,1.602
		c1.676,0,3.39-0.783,3.39-2.721c0-1.862-2.906-2.645-4.509-3.129c-2.012-0.597-4.434-1.268-4.434-4.583
		c0-3.614,2.869-4.769,6.072-4.769C153.534,11.303,155.285,11.899,156.254,12.272"/>
	<path d="M164.301,7.204v4.621h3.875v1.378h-3.875v8.235c0,2.346-0.037,3.838,0.894,4.546c0.335,0.261,0.746,0.335,1.156,0.335
		c0.708,0,1.491-0.225,2.161-0.56l0.298,1.006c-0.895,0.671-2.57,1.118-4.172,1.118c-1.492,0-2.907-0.372-3.578-1.304
		c-0.708-0.971-0.819-2.235-0.819-3.987c0-0.746,0.037-1.639,0.037-2.607v-6.782h-2.757v-1.378h2.757V8.248L164.301,7.204"/>
	<g>
		<path d="M173.351,20.097c0,3.167,0.67,6.521,4.546,6.521c1.08,0,2.72-0.485,5.067-2.721l0.745,0.934
			c-1.788,2.123-3.578,3.277-6.409,3.277c-5.029,0-8.383-2.719-8.383-8.347c0-4.881,2.906-8.532,8.011-8.532
			c4.397,0,7.005,3.205,7.005,7.451c0,0.225-0.039,0.41-0.039,0.634h-10.544V20.097 M180.021,17.898v-0.186
			c0-1.79-0.448-5.329-2.943-5.329c-2.497,0-3.354,3.092-3.652,5.514H180.021z"/>
	</g>
</g>
</svg>
