<?xml version="1.0" encoding="utf-8"?>
<!-- Generator: Adobe Illustrator 15.1.0, SVG Export Plug-In . SVG Version: 6.00 Build 0)  -->
<!DOCTYPE svg PUBLIC "-//W3C//DTD SVG 1.1 Basic//EN" "http://www.w3.org/Graphics/SVG/1.1/DTD/svg11-basic.dtd">
<svg version="1.1" baseProfile="basic" id="Calque_1"
	 xmlns="http://www.w3.org/2000/svg" xmlns:xlink="http://www.w3.org/1999/xlink" x="0px" y="0px" width="477px" height="26px"
	 viewBox="0 0 477 26" xml:space="preserve">
<g>
	<path fill="#FFFFFF" d="M457.135,23.648h5.818l2.497-4.271l2.474,4.271h5.931l-5.283-8.401l5.06-8.024h-5.817l-2.274,3.918
		l-2.252-3.918h-5.93l5.061,8.071L457.135,23.648z M449.266,23.977c4.659,0,7.758-2.206,7.758-7.814V7.223h-5.306v9.104
		c0,1.995-1.003,2.793-2.407,2.793s-2.407-0.868-2.407-2.91V7.223h-5.307v9.057C441.597,21.724,444.606,23.977,449.266,23.977
		 M427.129,23.648h13.42v-4.506h-8.292v-1.783h7.624v-3.966h-7.624v-1.666h8.182V7.223h-13.31V23.648z M416.63,15.036v-3.215h2.273
		c1.204,0,1.983,0.516,1.983,1.572v0.047c0,1.009-0.758,1.596-2.006,1.596H416.63z M411.413,23.648h5.217v-4.694h1.07h0.044
		l2.943,4.694h5.951l-3.634-5.585c1.896-0.962,3.077-2.628,3.077-5.022v-0.047c0-1.688-0.491-2.91-1.427-3.895
		c-1.092-1.15-2.854-1.877-5.618-1.877h-7.624V23.648z M400.937,19.494v-2.439h2.63c1.137,0,1.694,0.492,1.694,1.196v0.046
		c0,0.704-0.58,1.197-1.717,1.197H400.937z M400.937,13.676v-2.301h2.251c1.114,0,1.672,0.399,1.672,1.126v0.047
		c0,0.729-0.535,1.128-1.649,1.128H400.937z M395.854,23.648h8.649c3.945,0,5.996-1.925,5.996-4.553v-0.048
		c0-2.252-1.293-3.379-3.299-3.988c1.672-0.61,2.787-1.808,2.787-3.754v-0.048c0-1.127-0.402-1.971-0.959-2.558
		c-0.914-0.962-2.274-1.478-4.437-1.478h-8.738V23.648z M376.727,23.648h5.104v-8.144l3.589,5.844h0.089l3.59-5.844v8.144h5.194
		V7.223h-5.439l-3.345,5.771l-3.343-5.771h-5.439V23.648z M367.029,19.143c-2.006,0-3.277-1.761-3.277-3.707v-0.047
		c0-1.925,1.248-3.661,3.232-3.661c2.007,0,3.276,1.76,3.276,3.708v0.047C370.261,17.406,369.013,19.143,367.029,19.143 M366.984,24
		c4.815,0,8.538-3.802,8.538-8.564v-0.047c0-4.765-3.679-8.519-8.493-8.519c-4.815,0-8.538,3.801-8.538,8.565v0.047
		C358.491,20.245,362.169,24,366.984,24 M341.682,23.648h5.173v-7.58l5.796,7.58h4.637V7.223h-5.172v7.251l-5.551-7.251h-4.883
		V23.648z M328.375,23.953c4.191,0,6.888-2.112,6.888-5.562v-0.047c0-3.309-2.675-4.529-6.665-5.304
		c-1.649-0.328-2.072-0.609-2.072-1.056v-0.047c0-0.399,0.355-0.681,1.137-0.681c1.449,0,3.21,0.492,4.681,1.619l2.541-3.708
		c-1.805-1.502-4.035-2.252-7.044-2.252c-4.302,0-6.621,2.417-6.621,5.537v0.047c0,3.474,3.076,4.529,6.576,5.28
		c1.672,0.352,2.163,0.61,2.163,1.08v0.047c0,0.445-0.401,0.704-1.338,0.704c-1.828,0-3.767-0.564-5.461-1.925l-2.787,3.497
		C322.356,23.015,325.209,23.953,328.375,23.953 M312.481,23.977c4.658,0,7.757-2.206,7.757-7.814V7.223h-5.306v9.104
		c0,1.995-1.003,2.793-2.407,2.793s-2.407-0.868-2.407-2.91V7.223h-5.306v9.057C304.812,21.724,307.821,23.977,312.481,23.977
		 M291.928,23.648h12.551v-4.694h-7.334V7.223h-5.217V23.648z M282.252,15.271v-3.66h1.428c1.381,0,2.207,0.61,2.207,1.807v0.047
		c0,1.174-0.893,1.807-2.229,1.807H282.252z M277.036,23.648h5.216v-4.459h1.695c4.213,0,7.089-2.112,7.089-6.077v-0.047
		c0-3.896-2.831-5.843-6.978-5.843h-7.022V23.648z M254.432,23.648h5.172v-7.58l5.797,7.58h4.637V7.223h-5.172v7.251l-5.551-7.251
		h-4.883V23.648z M239.831,23.648h13.42v-4.506h-8.293v-1.783h7.624v-3.966h-7.624v-1.666h8.183V7.223h-13.31V23.648z
		 M226.524,23.953c4.191,0,6.888-2.112,6.888-5.562v-0.047c0-3.309-2.675-4.529-6.665-5.304c-1.65-0.328-2.074-0.609-2.074-1.056
		v-0.047c0-0.399,0.357-0.681,1.137-0.681c1.449,0,3.21,0.492,4.682,1.619l2.541-3.708c-1.806-1.502-4.035-2.252-7.044-2.252
		c-4.303,0-6.621,2.417-6.621,5.537v0.047c0,3.474,3.076,4.529,6.576,5.28c1.672,0.352,2.162,0.61,2.162,1.08v0.047
		c0,0.445-0.401,0.704-1.337,0.704c-1.828,0-3.768-0.564-5.462-1.925l-2.786,3.497C220.505,23.015,223.358,23.953,226.524,23.953
		 M210.629,23.977c4.659,0,7.758-2.206,7.758-7.814V7.223h-5.306v9.104c0,1.995-1.003,2.793-2.407,2.793
		c-1.405,0-2.408-0.868-2.408-2.91V7.223h-5.306v9.057C202.96,21.724,205.97,23.977,210.629,23.977 M190.076,23.648h12.551v-4.694
		h-7.335V7.223h-5.216V23.648z M180.401,15.271v-3.66h1.427c1.382,0,2.207,0.61,2.207,1.807v0.047c0,1.174-0.892,1.807-2.23,1.807
		H180.401z M175.185,23.648h5.216v-4.459h1.694c4.214,0,7.089-2.112,7.089-6.077v-0.047c0-3.896-2.831-5.843-6.977-5.843h-7.022
		V23.648z M155.145,23.648h13.42v-4.506h-8.293v-1.783h7.624v-3.966h-7.624v-1.666h8.181V7.223h-13.308V23.648z M143.887,18.861
		V12.01h0.87c2.385,0,3.923,1.031,3.923,3.401v0.047c0,2.37-1.538,3.403-3.923,3.403H143.887z M138.671,23.648h5.796
		c6.309,0,9.474-3.45,9.474-8.308v-0.047c0-4.857-3.099-8.071-9.296-8.071h-5.974V23.648z M125.363,23.953
		c4.191,0,6.889-2.112,6.889-5.562v-0.047c0-3.309-2.675-4.529-6.666-5.304c-1.649-0.328-2.073-0.609-2.073-1.056v-0.047
		c0-0.399,0.357-0.681,1.137-0.681c1.449,0,3.21,0.492,4.681,1.619l2.542-3.708c-1.806-1.502-4.035-2.252-7.045-2.252
		c-4.302,0-6.621,2.417-6.621,5.537v0.047c0,3.474,3.077,4.529,6.577,5.28c1.672,0.352,2.162,0.61,2.162,1.08v0.047
		c0,0.445-0.401,0.704-1.337,0.704c-1.828,0-3.768-0.564-5.462-1.925l-2.787,3.497C119.344,23.015,122.198,23.953,125.363,23.953
		 M104.052,23.648h13.42v-4.506h-8.293v-1.783h7.624v-3.966h-7.624v-1.666h8.181V7.223h-13.308V23.648z M93.285,23.648h5.216v-11.78
		h4.592V7.223H88.692v4.646h4.593V23.648z M76.677,6.283h2.786l1.984-1.313l1.984,1.313h2.832l-2.965-4.036h-3.656L76.677,6.283z
		 M74.693,23.648h13.42v-4.506H79.82v-1.783h7.624v-3.966H79.82v-1.666h8.181V7.223H74.693V23.648z M61.385,23.953
		c4.191,0,6.889-2.112,6.889-5.562v-0.047c0-3.309-2.675-4.529-6.666-5.304c-1.649-0.328-2.073-0.609-2.073-1.056v-0.047
		c0-0.399,0.357-0.681,1.137-0.681c1.449,0,3.21,0.492,4.681,1.619l2.542-3.708c-1.806-1.502-4.035-2.252-7.045-2.252
		c-4.302,0-6.621,2.417-6.621,5.537v0.047c0,3.474,3.077,4.529,6.577,5.28c1.672,0.352,2.162,0.61,2.162,1.08v0.047
		c0,0.445-0.401,0.704-1.337,0.704c-1.828,0-3.768-0.564-5.462-1.925l-2.787,3.497C55.366,23.015,58.22,23.953,61.385,23.953
		 M45.491,23.977c4.659,0,7.758-2.206,7.758-7.814V7.223h-5.306v9.104c0,1.995-1.003,2.793-2.408,2.793
		c-1.404,0-2.407-0.868-2.407-2.91V7.223h-5.306v9.057C37.822,21.724,40.832,23.977,45.491,23.977 M28.259,19.143
		c-2.006,0-3.277-1.761-3.277-3.707v-0.047c0-1.925,1.248-3.661,3.232-3.661c2.007,0,3.277,1.76,3.277,3.708v0.047
		C31.491,17.406,30.243,19.143,28.259,19.143 M28.214,24c4.815,0,8.538-3.802,8.538-8.564v-0.047c0-4.765-3.678-8.519-8.493-8.519
		s-8.538,3.801-8.538,8.565v0.047C19.721,20.245,23.399,24,28.214,24 M9.331,23.766h4.994l6.331-16.543h-5.752l-3.032,9.222
		L8.841,7.223H3L9.331,23.766z"/>
</g>
</svg>
