<?xml version="1.0" encoding="utf-8"?>
<!-- Generator: Adobe Illustrator 15.0.2, SVG Export Plug-In . SVG Version: 6.00 Build 0)  -->
<!DOCTYPE svg PUBLIC "-//W3C//DTD SVG 1.1//EN" "http://www.w3.org/Graphics/SVG/1.1/DTD/svg11.dtd">
<svg version="1.1" id="Calque_1" xmlns="http://www.w3.org/2000/svg" xmlns:xlink="http://www.w3.org/1999/xlink" x="0px" y="0px"
	 width="40px" height="40px" viewBox="0 0 40 40" enable-background="new 0 0 40 40" xml:space="preserve">
<path fill="#FFFFFF" d="M19.999,40c11.045,0,19.998-8.954,19.998-20S31.044,0,19.999,0S0,8.954,0,20S8.954,40,19.999,40"/>
<g>
	<polygon points="19.153,10.635 19.153,13.803 15.985,13.803 15.985,16.557 19.153,16.557 19.153,19.725 21.907,19.725 
		21.907,16.557 25.075,16.557 25.075,13.803 21.907,13.803 21.907,10.635 	"/>
	<g>
		<polygon points="17.095,29.586 15.69,29.586 14.601,25.213 14.583,25.213 13.513,29.586 12.081,29.586 10.38,23.162 
			11.794,23.162 12.81,27.535 12.829,27.535 13.944,23.162 15.267,23.162 16.366,27.588 16.384,27.588 17.437,23.162 18.821,23.162 
					"/>
		<polygon points="24.347,29.586 19.47,29.586 19.47,23.162 24.274,23.162 24.274,24.348 20.882,24.348 20.882,25.727 
			23.997,25.727 23.997,26.824 20.882,26.824 20.882,28.4 24.347,28.4 		"/>
		<path d="M29.505,26.096c0.559-0.27,0.873-0.711,0.873-1.342c0-1.197-0.828-1.592-2.051-1.592h-3.025v6.424h3.115
			c1.16,0,2.266-0.557,2.266-1.861C30.683,26.922,30.288,26.32,29.505,26.096z M26.714,24.258h1.324c0.504,0,0.973,0.127,0.973,0.74
			c0,0.539-0.369,0.764-0.863,0.764h-1.434V24.258z M28.228,28.49h-1.514v-1.766h1.541c0.604,0,1.018,0.262,1.018,0.918
			C29.272,28.309,28.786,28.49,28.228,28.49z"/>
	</g>
</g>
</svg>
