<?xml version="1.0" encoding="utf-8"?>
<!-- Generator: Adobe Illustrator 15.1.0, SVG Export Plug-In . SVG Version: 6.00 Build 0)  -->
<!DOCTYPE svg PUBLIC "-//W3C//DTD SVG 1.1//EN" "http://www.w3.org/Graphics/SVG/1.1/DTD/svg11.dtd">
<svg version="1.1" xmlns="http://www.w3.org/2000/svg" xmlns:xlink="http://www.w3.org/1999/xlink" x="0px" y="0px"
	 width="97.834px" height="98px" viewBox="0 0 97.834 98" enable-background="new 0 0 97.834 98" xml:space="preserve">
<g id="Calque_1">
	<g>
		<path fill="#FFFFFF" d="M48.878,97.232c26.55,0,48.072-21.523,48.072-48.073c0-13.275-5.381-25.293-14.079-33.993
			c-8.7-8.699-20.719-14.08-33.993-14.08c-26.551,0-48.073,21.523-48.073,48.073C0.805,75.709,22.327,97.232,48.878,97.232"/>
	</g>
	<g>
		<path d="M34.14,31.357c-1.364,0-2.332-1.1-2.332-2.421v-0.022c0-1.32,0.946-2.398,2.31-2.398c1.364,0,2.332,1.1,2.332,2.42v0.022
			C36.449,30.279,35.504,31.357,34.14,31.357 M34.117,32.919c2.376,0,4.104-1.793,4.104-3.983v-0.022c0-2.189-1.706-3.96-4.082-3.96
			s-4.104,1.793-4.104,3.982v0.022C30.035,31.148,31.741,32.919,34.117,32.919 M26.241,32.919c1.485,0,2.365-0.528,3.157-1.375
			l-1.078-1.089c-0.604,0.55-1.144,0.902-2.023,0.902c-1.32,0-2.233-1.1-2.233-2.421v-0.022c0-1.32,0.935-2.398,2.233-2.398
			c0.77,0,1.375,0.33,1.969,0.869l1.078-1.243c-0.715-0.704-1.584-1.188-3.036-1.188c-2.365,0-4.017,1.793-4.017,3.982v0.022
			C22.291,31.17,23.976,32.919,26.241,32.919"/>
		<path d="M55.105,32.787h5.863V31.28h-4.181v-1.617h3.631v-1.508h-3.631v-1.562h4.126v-1.507h-5.809V32.787z M49.957,32.787h1.694
			v-6.139h2.344v-1.562h-6.381v1.562h2.343V32.787z M39.661,32.787h1.672v-4.896l3.729,4.896h1.441v-7.701h-1.672v4.742
			l-3.609-4.742h-1.562V32.787z"/>
		<path d="M74.454,32.908c2.069,0,3.378-1.144,3.378-3.476v-4.346h-1.694v4.412c0,1.221-0.627,1.848-1.662,1.848
			c-1.033,0-1.661-0.649-1.661-1.903v-4.357h-1.693v4.401C71.121,31.753,72.386,32.908,74.454,32.908 M62.519,32.787h1.673v-4.896
			l3.729,4.896h1.441v-7.701h-1.673v4.742l-3.608-4.742h-1.562V32.787z"/>
		<path d="M31.444,45.789h5.863v-1.507h-4.181v-1.617h3.631v-1.507h-3.631v-1.562h4.126v-1.508h-5.809V45.789z M24.602,44.259
			v-4.642h1.31c1.387,0,2.322,0.957,2.322,2.321v0.022c0,1.364-0.936,2.299-2.322,2.299H24.602z M22.908,45.789h3.003
			c2.421,0,4.093-1.683,4.093-3.85v-0.022c0-2.167-1.672-3.829-4.093-3.829h-3.003V45.789z M19.355,45.789h1.693v-7.701h-1.693
			V45.789z"/>
		<path d="M49.154,45.789h1.693V39.65h2.345v-1.562h-6.382v1.562h2.344V45.789z M38.858,45.789h1.672v-4.896l3.729,4.896h1.441
			v-7.701h-1.672v4.742l-3.609-4.742h-1.562V45.789z"/>
		<path d="M61.607,44.358c-1.365,0-2.333-1.1-2.333-2.42v-0.022c0-1.32,0.945-2.398,2.311-2.398c1.364,0,2.332,1.1,2.332,2.42v0.022
			c0,0.385-0.066,0.737-0.209,1.056l-1.265-1.144l-1.078,1.21l1.254,1.067C62.322,44.282,61.981,44.358,61.607,44.358 M64.72,46.021
			l1.078-1.2l-0.792-0.671c0.44-0.638,0.682-1.408,0.682-2.211v-0.022c0-2.189-1.704-3.961-4.08-3.961
			c-2.377,0-4.104,1.794-4.104,3.983v0.022c0,2.189,1.705,3.961,4.082,3.961c0.858,0,1.639-0.243,2.288-0.661L64.72,46.021z
			 M54.335,45.789h1.694v-7.701h-1.694V45.789z"/>
		<path d="M75.543,45.789h5.863v-1.507h-4.18v-1.617h3.63v-1.508h-3.63v-1.562h4.125v-1.507h-5.809V45.789z M70.406,45.91
			c2.068,0,3.378-1.144,3.378-3.477v-4.345H72.09v4.411c0,1.222-0.627,1.849-1.661,1.849s-1.661-0.649-1.661-1.904v-4.356h-1.694
			v4.4C67.073,44.755,68.339,45.91,70.406,45.91"/>
		<path d="M26.527,58.912c2.068,0,3.378-1.144,3.378-3.476V51.09h-1.694v4.412c0,1.221-0.627,1.848-1.661,1.848
			c-1.035,0-1.662-0.649-1.662-1.903V51.09h-1.693v4.401C23.194,57.757,24.459,58.912,26.527,58.912 M17.44,55.568l1.024-2.498
			l1.023,2.498H17.44z M14.405,58.791h1.727l0.704-1.727h3.257l0.704,1.727h1.771l-3.301-7.756h-1.562L14.405,58.791z"/>
		<path d="M44.028,57.361c-1.364,0-2.332-1.1-2.332-2.421v-0.022c0-1.32,0.946-2.398,2.31-2.398c1.364,0,2.333,1.1,2.333,2.42v0.022
			C46.339,56.283,45.393,57.361,44.028,57.361 M44.006,58.923c2.377,0,4.104-1.793,4.104-3.983v-0.022
			c0-2.189-1.706-3.96-4.082-3.96s-4.104,1.793-4.104,3.982v0.022C39.925,57.152,41.63,58.923,44.006,58.923 M35.855,58.901
			c0.836,0,1.529-0.242,2.002-0.715c0.462-0.462,0.726-1.144,0.726-2.057V51.09h-1.737v4.962c0,0.891-0.396,1.276-1.034,1.276
			c-0.539,0-0.968-0.286-1.408-0.77l-1.067,1.188C33.864,58.373,34.656,58.901,35.855,58.901"/>
		<path d="M59.604,54.83v-2.211h1.683c0.825,0,1.331,0.374,1.331,1.1v0.022c0,0.649-0.473,1.089-1.298,1.089H59.604z M57.909,58.791
			h1.695v-2.464h1.309h0.022l1.65,2.464h1.979l-1.881-2.75c0.979-0.363,1.649-1.145,1.649-2.388v-0.022
			c0-0.726-0.23-1.331-0.659-1.76c-0.507-0.506-1.266-0.781-2.244-0.781h-3.521V58.791z M52.773,58.912
			c2.068,0,3.378-1.144,3.378-3.477V51.09h-1.695v4.411c0,1.222-0.627,1.849-1.66,1.849c-1.034,0-1.661-0.649-1.661-1.904V51.09
			H49.44v4.4C49.44,57.757,50.705,58.912,52.773,58.912"/>
		<path d="M82.957,58.791h5.534v-1.54h-3.84V51.09h-1.694V58.791z M76.775,55.568l1.022-2.498l1.024,2.498H76.775z M73.739,58.791
			h1.727l0.704-1.727h3.257l0.704,1.727h1.771l-3.301-7.756h-1.562L73.739,58.791z M65.841,58.791h1.672v-4.896l3.73,4.896h1.44
			V51.09h-1.672v4.742l-3.608-4.742h-1.562V58.791z"/>
		<path d="M36.372,68.57l1.022-2.498l1.024,2.498H36.372z M33.336,71.793h1.727l0.704-1.727h3.258l0.703,1.727h1.771l-3.3-7.756
			h-1.563L33.336,71.793z M29.024,67.975v-2.354h1.309c0.848,0,1.376,0.407,1.376,1.166v0.022c0,0.66-0.495,1.166-1.343,1.166
			H29.024z M27.33,71.793h1.694v-2.31h1.286c1.729,0,3.114-0.924,3.114-2.707v-0.022c0-1.573-1.11-2.662-2.949-2.662H27.33V71.793z"
			/>
		<path d="M49.891,71.793h1.694v-7.701h-1.694V71.793z M44.248,67.975v-2.354h1.309c0.849,0,1.376,0.407,1.376,1.166v0.022
			c0,0.66-0.494,1.166-1.343,1.166H44.248z M42.554,71.793h1.694v-2.31h1.287c1.728,0,3.114-0.924,3.114-2.707v-0.022
			c0-1.573-1.111-2.662-2.949-2.662h-3.146V71.793z"/>
		<path d="M62.552,67.832v-2.211h1.685c0.824,0,1.331,0.374,1.331,1.1v0.022c0,0.649-0.474,1.089-1.3,1.089H62.552z M60.858,71.793
			h1.693v-2.464h1.31h0.021l1.651,2.464h1.979l-1.881-2.75c0.979-0.363,1.65-1.145,1.65-2.388v-0.022c0-0.726-0.231-1.331-0.66-1.76
			c-0.506-0.506-1.265-0.781-2.244-0.781h-3.521V71.793z M53.444,71.793h5.863v-1.507h-4.181v-1.617h3.631v-1.508h-3.631v-1.562
			h4.126v-1.507h-5.809V71.793z"/>
		<path d="M71.253,71.792h1.782v-1.76h-1.782V71.792z M71.683,69.175h0.924l0.517-4.863v-0.22h-1.958v0.22L71.683,69.175z"/>
	</g>
</g>
<g id="Calque_2">
</g>
</svg>
