<?xml version="1.0" encoding="utf-8"?>
<!-- Generator: Adobe Illustrator 15.1.0, SVG Export Plug-In . SVG Version: 6.00 Build 0)  -->
<!DOCTYPE svg PUBLIC "-//W3C//DTD SVG 1.1//EN" "http://www.w3.org/Graphics/SVG/1.1/DTD/svg11.dtd">
<svg version="1.1" id="Calque_1" xmlns="http://www.w3.org/2000/svg" xmlns:xlink="http://www.w3.org/1999/xlink" x="0px" y="0px"
	 width="145.026px" height="30.054px" viewBox="0 0 145.026 30.054" enable-background="new 0 0 145.026 30.054"
	 xml:space="preserve">
<polygon fill="#B92430" points="7.975,1.61 1,2.191 1,2.889 3.827,3.628 3.827,26.842 1.195,27.808 1.195,28.507 10.65,28.507 
	10.65,27.808 7.975,26.842 "/>
<g>
	<defs>
		<rect id="SVGID_1_" x="1" y="1.61" width="142.762" height="27.634"/>
	</defs>
	<clipPath id="SVGID_2_">
		<use xlink:href="#SVGID_1_"  overflow="visible"/>
	</clipPath>
	<path clip-path="url(#SVGID_2_)" fill="#B92430" d="M15.733,23.973c0,1.706,0.541,3.373,2.558,3.373
		c1.162,0,3.293-0.777,3.644-3.646c0.153-1.161,0.114-2.363,0.114-3.524c-1.434,0-2.596,0.036-3.644,0.307
		C17.435,20.757,15.733,21.451,15.733,23.973 M19.566,11.805c1.434,0,4.188,0.154,5.548,1.741c1.082,1.281,1.082,2.559,1.082,4.343
		v8.952l2.829,0.892v0.733c-1.588,0-6.705,0.431-6.705,0.431l-0.31-3.025c-0.812,2.212-3.334,3.257-5.499,3.257
		c-2.754,0-5.079-1.747-5.079-4.649c0-3.182,3.178-4.886,6.201-5.352c1.197-0.191,2.67-0.308,4.416-0.308v-2.483
		c0-1.975-1.355-3.213-3.293-3.213c-2.366,0-3.565,2.594-4.379,4.069l-2.09-2.793C14.61,12.383,16.738,11.805,19.566,11.805"/>
	<path clip-path="url(#SVGID_2_)" d="M30.691,28.507V27.77l3.327-1.124V5.951c0,0-2.517-0.039-6.195,0.116l-1.354,3.063l-0.89-0.08
		c0.034-0.543,0.227-2.442,0.346-4.996c7.831,0.462,13.952,0.23,21.044,0.075c0,0,0.037,2.442,0.073,5.194L46.191,9.36L45.07,6.067
		c0,0-3.181-0.232-6.548-0.116v20.694l3.327,1.124v0.737H30.691z"/>
	<path clip-path="url(#SVGID_2_)" d="M43.478,13.239V12.54l6.283-0.66l0.387,2.597c1.196-1.781,2.673-2.75,4.884-2.75
		c0.965,0,1.939,0.232,2.709,0.774l-1.393,3.796c-0.697-1.122-1.399-2.244-2.987-2.244c-2.908,0-3.14,3.253-3.14,5.461v7.327
		l3.373,0.967v0.699h-9.997v-0.699l2.519-1.045V13.976L43.478,13.239z"/>
	<path clip-path="url(#SVGID_2_)" d="M65.672,5.526c0,1.2-1.123,2.402-2.398,2.402c-1.285,0-2.408-1.202-2.408-2.402
		c0-1.201,1.123-2.402,2.408-2.402C64.549,3.124,65.672,4.325,65.672,5.526 M58.735,13.161V12.46l6.937-0.58v14.999l2.56,0.929
		v0.699h-9.224v-0.699l2.559-0.929V13.896L58.735,13.161z"/>
	<path clip-path="url(#SVGID_2_)" d="M74.122,26.298c0.731,0.851,2.131,1.472,3.292,1.472c4.188,0,4.38-5.23,4.38-8.217
		c0-3.678-0.81-6.237-3.219-6.237c-3.214,0-4.571,4.418-4.571,7.441C74.004,26.26,74.122,26.298,74.122,26.298 M67.026,2.889V2.19
		l7.096-0.58l-0.118,13.952c0.893-2.439,2.832-3.722,4.879-3.876c0.352-0.039,0.662-0.039,0.975-0.039
		c4.727,0,6.856,2.946,6.897,8.333c0.042,5.234-3.679,9.226-8.841,9.226c-3.6,0-6.932-1.007-8.058-1.358V3.627L67.026,2.889z"/>
	<path clip-path="url(#SVGID_2_)" d="M93.306,12.032c0,0-0.04,6.011-0.04,10.042c0,3.875,0.312,5.504,2.63,5.504
		c0.278,0,1.785-0.041,3.104-1.629c1.006-1.201,1.006-2.287,1.084-4.458c0.119-3.522,0-7.285,0-7.479L97.528,13.2v-0.816
		l6.822-0.352c0,0-0.119,10.466-0.038,14.809l2.787,0.696v0.697c-1.434,0-6.665,0.624-6.665,0.624l-0.231-2.406
		c-0.856,1.047-2.522,2.601-5.469,2.601c-3.951,0-5.695-1.085-5.695-5.736v-9.381l-2.479-0.894v-0.695
		C87.332,12.347,93.306,12.032,93.306,12.032"/>
	<path clip-path="url(#SVGID_2_)" d="M114.7,14.478c0.729-1.009,2.277-2.984,5.655-2.984c5.033,0,5.689,1.939,5.689,6.008v9.415
		l2.873,0.892v0.7h-9.848v-0.7l2.641-0.892v-8.405c0-1.864-0.041-2.907-0.352-3.684c-0.505-1.202-1.158-1.746-2.598-1.746
		c-1.161,0-2.827,1.048-3.488,2.907c-0.387,1.085-0.5,1.706-0.5,3.605v7.322l2.404,0.892v0.7h-9.188v-0.7l2.518-0.892V13.977
		l-2.637-0.737v-0.7l6.479-0.66L114.7,14.478z"/>
	<path clip-path="url(#SVGID_2_)" d="M139.688,18.623v-0.192c0-1.859-0.465-5.542-3.059-5.542c-2.602,0-3.492,3.216-3.798,5.734
		H139.688z M132.75,20.913c0,3.292,0.697,6.781,4.733,6.781c1.121,0,2.828-0.505,5.269-2.83l0.772,0.967
		c-1.854,2.211-3.718,3.413-6.669,3.413c-5.227,0-8.717-2.83-8.717-8.682c0-5.078,3.027-8.876,8.33-8.876
		c4.58,0,7.293,3.335,7.293,7.753c0,0.232-0.041,0.425-0.041,0.657H132.75V20.913z"/>
</g>
</svg>
