<?xml version="1.0" encoding="utf-8"?>
<!-- Generator: Adobe Illustrator 15.1.0, SVG Export Plug-In . SVG Version: 6.00 Build 0)  -->
<!DOCTYPE svg PUBLIC "-//W3C//DTD SVG 1.1//EN" "http://www.w3.org/Graphics/SVG/1.1/DTD/svg11.dtd">
<svg version="1.1" id="Calque_1" xmlns="http://www.w3.org/2000/svg" xmlns:xlink="http://www.w3.org/1999/xlink" x="0px" y="0px"
	 width="194.822px" height="156px" viewBox="0 0 194.822 156" enable-background="new 0 0 194.822 156" xml:space="preserve">
<g>
	<g>
		<path d="M51.537,92.1v-0.026c0-2.565,1.927-4.812,4.757-4.812c2.831,0,4.73,2.221,4.73,4.784c0.013,0.013,0.013,0.013,0,0.026
			c0,2.562-1.927,4.811-4.757,4.811C53.438,96.883,51.537,94.663,51.537,92.1z M59.935,92.1v-0.026c0-2.113-1.542-3.841-3.667-3.841
			s-3.64,1.701-3.64,3.813v0.026c0,2.111,1.541,3.84,3.667,3.84S59.935,94.211,59.935,92.1z"/>
		<path d="M63.416,87.422h4c1.143,0,2.06,0.346,2.645,0.93c0.451,0.453,0.717,1.104,0.717,1.834v0.025
			c0,1.543-1.063,2.446-2.525,2.712l2.857,3.8h-1.29l-2.698-3.615h-0.026h-2.631v3.615h-1.05L63.416,87.422L63.416,87.422z
			 M67.322,92.165c1.396,0,2.392-0.718,2.392-1.913v-0.025c0-1.145-0.877-1.834-2.379-1.834h-2.87v3.772H67.322z"/>
		<path d="M73.222,87.422h3.229c2.923,0,4.942,2.008,4.942,4.624v0.026c0,2.617-2.02,4.65-4.942,4.65h-3.229V87.422z M76.451,95.753
			c2.352,0,3.854-1.594,3.854-3.653v-0.026c0-2.062-1.502-3.681-3.854-3.681h-2.18v7.36H76.451z"/>
		<path d="M83.838,87.422h1.05v9.301h-1.05V87.422z"/>
		<path d="M87.797,87.422h0.983l5.86,7.454v-7.454h1.023v9.301h-0.837l-6.007-7.627v7.627h-1.023L87.797,87.422L87.797,87.422z"/>
		<path d="M101.815,87.355h0.982l4.24,9.367h-1.13l-1.089-2.459h-5.063l-1.103,2.459h-1.077L101.815,87.355z M104.406,93.32
			l-2.113-4.742l-2.125,4.742H104.406z"/>
		<path d="M110.226,88.393h-3.122v-0.971h7.309v0.971h-3.122v8.33h-1.064L110.226,88.393L110.226,88.393z"/>
		<path d="M116.392,87.422h6.723v0.957h-5.674v3.176h5.077v0.955h-5.077v3.256h5.741v0.957h-6.79V87.422z"/>
		<path d="M125.147,92.83v-5.408h1.05v5.342c0,2.006,1.062,3.137,2.843,3.137c1.715,0,2.804-1.037,2.804-3.069v-5.408h1.05v5.328
			c0,2.71-1.555,4.119-3.88,4.119C126.715,96.869,125.147,95.46,125.147,92.83z"/>
		<path d="M135.671,87.422h3.999c1.143,0,2.06,0.346,2.646,0.93c0.45,0.453,0.716,1.104,0.716,1.834v0.025
			c0,1.543-1.062,2.446-2.523,2.712l2.856,3.8h-1.289l-2.697-3.615h-0.026h-2.631v3.615h-1.05L135.671,87.422L135.671,87.422z
			 M139.576,92.165c1.396,0,2.393-0.718,2.393-1.913v-0.025c0-1.145-0.877-1.834-2.378-1.834h-2.87v3.772H139.576z"/>
	</g>
	<g>
		<path d="M13.935,107.406h0.983l4.239,9.367h-1.13l-1.089-2.459h-5.063l-1.103,2.459H9.696L13.935,107.406z M16.525,113.372
			l-2.113-4.743l-2.126,4.743H16.525z"/>
	</g>
	<g>
		<path d="M21.934,115.458v1.315h-1.023v-9.7h1.023v4.212c0.558-0.824,1.368-1.527,2.631-1.527c1.648,0,3.282,1.301,3.282,3.561
			v0.026c0,2.245-1.621,3.574-3.282,3.574C23.289,116.919,22.465,116.229,21.934,115.458z M26.797,113.359v-0.027
			c0-1.622-1.116-2.657-2.418-2.657c-1.276,0-2.485,1.076-2.485,2.644v0.026c0,1.595,1.209,2.658,2.485,2.658
			C25.707,116.003,26.797,115.02,26.797,113.359z"/>
		<path d="M29.427,113.372v-0.027c0-1.938,1.514-3.587,3.588-3.587c2.059,0,3.574,1.621,3.574,3.561v0.026
			c0,1.939-1.528,3.589-3.601,3.589C30.929,116.934,29.427,115.312,29.427,113.372z M35.54,113.372v-0.027
			c0-1.475-1.103-2.685-2.551-2.685c-1.488,0-2.511,1.21-2.511,2.658v0.025c0,1.477,1.09,2.672,2.538,2.672
			C34.503,116.016,35.54,114.82,35.54,113.372z"/>
		<path d="M38.529,109.904h1.023v1.195c0.452-0.744,1.169-1.343,2.352-1.343c1.661,0,2.63,1.116,2.63,2.751v4.266h-1.023v-4.015
			c0-1.274-0.691-2.071-1.9-2.071c-1.183,0-2.06,0.863-2.06,2.151v3.935h-1.023L38.529,109.904L38.529,109.904z"/>
		<path d="M46.833,109.904h1.023v1.195c0.452-0.744,1.169-1.343,2.352-1.343c1.661,0,2.63,1.116,2.63,2.751v4.266h-1.023v-4.015
			c0-1.274-0.691-2.071-1.9-2.071c-1.183,0-2.06,0.863-2.06,2.151v3.935h-1.023L46.833,109.904L46.833,109.904z"/>
		<path d="M58.167,116.042c0.943,0,1.608-0.385,2.166-0.97l0.638,0.57c-0.691,0.771-1.528,1.291-2.831,1.291
			c-1.887,0-3.428-1.449-3.428-3.59c0-1.992,1.395-3.587,3.295-3.587c2.034,0,3.203,1.621,3.203,3.642c0,0.093,0,0.199-0.014,0.358
			H55.75C55.896,115.206,56.958,116.042,58.167,116.042z M60.174,112.934c-0.119-1.25-0.837-2.312-2.192-2.312
			c-1.183,0-2.086,0.983-2.232,2.312H60.174z"/>
		<path d="M62.512,116.122l4.558-5.354h-4.398v-0.862h5.793v0.649l-4.571,5.355h4.571v0.863h-5.953V116.122L62.512,116.122z"/>
		<path d="M69.555,112.242h3.694v1.076h-3.694V112.242z"/>
		<path d="M74.377,109.904h1.129l2.312,5.699l2.325-5.699h1.103l-2.99,6.922h-0.904L74.377,109.904z"/>
		<path d="M82.15,113.372v-0.027c0-1.938,1.515-3.587,3.588-3.587c2.059,0,3.574,1.621,3.574,3.561v0.026
			c0,1.939-1.528,3.589-3.601,3.589C83.652,116.934,82.15,115.312,82.15,113.372z M88.263,113.372v-0.027
			c0-1.475-1.103-2.685-2.551-2.685c-1.488,0-2.511,1.21-2.511,2.658v0.025c0,1.477,1.09,2.672,2.538,2.672
			C87.227,116.016,88.263,114.82,88.263,113.372z"/>
		<path d="M91.172,114.169v-4.265h1.023v4.012c0,1.275,0.691,2.073,1.9,2.073c1.17,0,2.06-0.863,2.06-2.153v-3.932h1.01v6.869h-1.01
			v-1.195c-0.465,0.742-1.169,1.341-2.352,1.341C92.143,116.919,91.172,115.805,91.172,114.169z"/>
		<path d="M98.944,115.896l0.519-0.731c0.743,0.56,1.568,0.877,2.378,0.877c0.825,0,1.422-0.425,1.422-1.089v-0.026
			c0-0.692-0.81-0.957-1.713-1.21c-1.077-0.306-2.272-0.678-2.272-1.939v-0.025c0-1.184,0.982-1.968,2.338-1.968
			c0.838,0,1.767,0.293,2.473,0.758l-0.466,0.771c-0.639-0.41-1.368-0.664-2.032-0.664c-0.811,0-1.33,0.427-1.33,0.998v0.025
			c0,0.651,0.851,0.903,1.769,1.184c1.062,0.317,2.204,0.729,2.204,1.967v0.025c0,1.303-1.075,2.061-2.444,2.061
			C100.806,116.906,99.717,116.521,98.944,115.896z"/>
		<path d="M113.149,116.042c0.942,0,1.607-0.385,2.166-0.97l0.638,0.57c-0.69,0.771-1.528,1.291-2.831,1.291
			c-1.886,0-3.427-1.449-3.427-3.59c0-1.992,1.394-3.587,3.295-3.587c2.033,0,3.201,1.621,3.201,3.642c0,0.093,0,0.199-0.013,0.358
			h-5.447C110.877,115.206,111.939,116.042,113.149,116.042z M115.155,112.934c-0.119-1.25-0.837-2.312-2.192-2.312
			c-1.182,0-2.086,0.983-2.231,2.312H115.155z"/>
		<path d="M118.118,109.904h1.023v1.195c0.451-0.744,1.169-1.343,2.352-1.343c1.661,0,2.631,1.116,2.631,2.751v4.266h-1.022v-4.015
			c0-1.274-0.692-2.071-1.901-2.071c-1.182,0-2.059,0.863-2.059,2.151v3.935h-1.023L118.118,109.904L118.118,109.904z"/>
		<path d="M130.382,107.073h1.023v9.7h-1.023V107.073z"/>
		<path d="M133.811,107.271h1.169v1.131h-1.169V107.271z M133.876,109.904h1.023v6.869h-1.023V109.904z"/>
		<path d="M137.185,117.969l0.465-0.797c0.784,0.571,1.662,0.877,2.646,0.877c1.514,0,2.498-0.838,2.498-2.443v-0.812
			c-0.6,0.797-1.436,1.448-2.698,1.448c-1.648,0-3.229-1.234-3.229-3.216V113c0-2.007,1.595-3.242,3.229-3.242
			c1.289,0,2.127,0.639,2.686,1.381v-1.233h1.022v5.674c0,1.062-0.319,1.873-0.878,2.432c-0.61,0.61-1.528,0.916-2.617,0.916
			C139.165,118.926,138.102,118.607,137.185,117.969z M142.819,113.014v-0.027c0-1.407-1.223-2.325-2.524-2.325
			c-1.303,0-2.379,0.903-2.379,2.312V113c0,1.382,1.102,2.338,2.379,2.338C141.597,115.338,142.819,114.395,142.819,113.014z"/>
		<path d="M146.181,109.904h1.022v1.195c0.452-0.744,1.169-1.343,2.353-1.343c1.66,0,2.63,1.116,2.63,2.751v4.266h-1.023v-4.015
			c0-1.274-0.69-2.071-1.898-2.071c-1.184,0-2.061,0.863-2.061,2.151v3.935h-1.022L146.181,109.904L146.181,109.904z"/>
		<path d="M157.526,116.042c0.944,0,1.609-0.385,2.166-0.97l0.639,0.57c-0.691,0.771-1.528,1.291-2.83,1.291
			c-1.888,0-3.429-1.449-3.429-3.59c0-1.992,1.396-3.587,3.295-3.587c2.034,0,3.203,1.621,3.203,3.642c0,0.093,0,0.199-0.013,0.358
			h-5.448C155.254,115.206,156.317,116.042,157.526,116.042z M159.534,112.934c-0.12-1.25-0.838-2.312-2.193-2.312
			c-1.183,0-2.087,0.983-2.231,2.312H159.534z"/>
		<path d="M165.779,115.896l0.518-0.731c0.744,0.56,1.567,0.877,2.379,0.877c0.823,0,1.421-0.425,1.421-1.089v-0.026
			c0-0.692-0.81-0.957-1.713-1.21c-1.076-0.306-2.272-0.678-2.272-1.939v-0.025c0-1.184,0.982-1.968,2.338-1.968
			c0.838,0,1.767,0.293,2.472,0.758l-0.466,0.771c-0.638-0.41-1.368-0.664-2.032-0.664c-0.812,0-1.329,0.427-1.329,0.998v0.025
			c0,0.651,0.851,0.903,1.767,1.184c1.064,0.317,2.206,0.729,2.206,1.967v0.025c0,1.303-1.076,2.061-2.444,2.061
			C167.64,116.906,166.55,116.521,165.779,115.896z"/>
		<path d="M172.874,114.169v-4.265h1.023v4.012c0,1.275,0.69,2.073,1.898,2.073c1.17,0,2.062-0.863,2.062-2.153v-3.932h1.009v6.869
			h-1.009v-1.195c-0.466,0.742-1.171,1.341-2.354,1.341C173.844,116.919,172.874,115.805,172.874,114.169z"/>
		<path d="M181.245,109.904h1.022v1.793c0.504-1.143,1.502-1.967,2.803-1.914v1.104h-0.078c-1.502,0-2.725,1.076-2.725,3.148v2.738
			h-1.022V109.904z"/>
	</g>
	<g>
		<path d="M8.354,123.018h2.02v9.7h-2.02V123.018z"/>
		<path d="M11.968,130.672v-0.027c0-1.555,1.182-2.271,2.87-2.271c0.718,0,1.236,0.119,1.741,0.292v-0.119
			c0-0.838-0.518-1.303-1.528-1.303c-0.77,0-1.315,0.146-1.966,0.385l-0.505-1.541c0.784-0.345,1.555-0.57,2.764-0.57
			c1.103,0,1.9,0.291,2.405,0.797c0.531,0.531,0.77,1.314,0.77,2.271v4.133h-1.953v-0.771c-0.492,0.545-1.169,0.903-2.153,0.903
			C13.071,132.852,11.968,132.079,11.968,130.672z M16.605,130.206v-0.358c-0.345-0.16-0.797-0.267-1.289-0.267
			c-0.864,0-1.395,0.347-1.395,0.983v0.026c0,0.545,0.451,0.863,1.103,0.863C15.968,131.455,16.605,130.938,16.605,130.206z"/>
		<path d="M20.684,130.698v-3.375h-0.851v-1.729h0.851v-1.819h2.02v1.819h1.674v1.729h-1.674v3.043c0,0.464,0.199,0.69,0.651,0.69
			c0.372,0,0.704-0.094,0.996-0.252v1.62c-0.425,0.253-0.917,0.411-1.595,0.411C21.521,132.837,20.684,132.346,20.684,130.698z"/>
		<path d="M26.119,125.596h2.02v1.436c0.412-0.982,1.076-1.621,2.272-1.567v2.113h-0.106c-1.342,0-2.166,0.81-2.166,2.511v2.631
			h-2.02V125.596z"/>
		<path d="M31.686,123.018h2.126v1.795h-2.126V123.018z M31.739,125.596h2.02v7.122h-2.02V125.596z"/>
		<path d="M37.811,131.787v0.931h-2.02v-9.7h2.02v3.603c0.492-0.665,1.169-1.156,2.219-1.156c1.661,0,3.242,1.302,3.242,3.681v0.026
			c0,2.379-1.555,3.681-3.242,3.681C38.954,132.852,38.29,132.357,37.811,131.787z M41.252,129.17v-0.025
			c0-1.184-0.797-1.967-1.741-1.967c-0.943,0-1.728,0.783-1.728,1.967v0.025c0,1.184,0.785,1.967,1.728,1.967
			C40.456,131.137,41.252,130.366,41.252,129.17z"/>
		<path d="M44.88,130.206v-4.61h2.02v3.973c0,0.957,0.451,1.449,1.223,1.449c0.77,0,1.262-0.492,1.262-1.449v-3.973h2.019v7.122
			h-2.019v-1.011c-0.465,0.598-1.063,1.145-2.086,1.145C45.771,132.852,44.88,131.841,44.88,130.206z"/>
		<path d="M53.397,125.596h2.019v1.01c0.465-0.599,1.063-1.143,2.086-1.143c1.528,0,2.419,1.01,2.419,2.645v4.61h-2.02v-3.973
			c0-0.957-0.452-1.448-1.223-1.448c-0.77,0-1.262,0.491-1.262,1.448v3.973h-2.019V125.596z"/>
		<path d="M61.501,129.197v-0.027c0-2.033,1.449-3.707,3.522-3.707c2.378,0,3.468,1.848,3.468,3.866c0,0.159-0.013,0.347-0.026,0.53
			h-4.957c0.199,0.918,0.837,1.396,1.741,1.396c0.678,0,1.169-0.212,1.728-0.73l1.156,1.023c-0.665,0.823-1.621,1.329-2.91,1.329
			C63.083,132.878,61.501,131.376,61.501,129.197z M66.525,128.6c-0.12-0.904-0.651-1.517-1.501-1.517
			c-0.837,0-1.382,0.599-1.542,1.517H66.525z"/>
		<path d="M70.019,130.592h2.152v2.126h-2.152V130.592z"/>
		<path d="M74.165,125.596h2.019v1.023c0.492-0.665,1.17-1.156,2.22-1.156c1.661,0,3.242,1.303,3.242,3.682v0.025
			c0,2.379-1.555,3.682-3.242,3.682c-1.077,0-1.741-0.492-2.22-1.063v3.058h-2.019V125.596z M79.625,129.17v-0.025
			c0-1.184-0.797-1.967-1.741-1.967c-0.944,0-1.728,0.783-1.728,1.967v0.025c0,1.184,0.784,1.967,1.728,1.967
			C78.828,131.137,79.625,130.366,79.625,129.17z"/>
		<path d="M83.319,125.596h2.02v1.436c0.412-0.982,1.076-1.621,2.272-1.567v2.113h-0.106c-1.342,0-2.166,0.81-2.166,2.511v2.631
			h-2.02V125.596z"/>
		<path d="M88.593,129.197v-0.027c0-2.033,1.449-3.707,3.521-3.707c2.379,0,3.469,1.848,3.469,3.866c0,0.159-0.014,0.347-0.027,0.53
			H90.6c0.199,0.918,0.836,1.396,1.741,1.396c0.678,0,1.169-0.212,1.728-0.73l1.155,1.023c-0.664,0.823-1.621,1.329-2.909,1.329
			C90.175,132.878,88.593,131.376,88.593,129.197z M93.616,128.6c-0.12-0.904-0.651-1.517-1.502-1.517
			c-0.837,0-1.382,0.599-1.541,1.517H93.616z"/>
		<path d="M96.605,131.773l0.864-1.328c0.771,0.559,1.582,0.851,2.245,0.851c0.586,0,0.851-0.213,0.851-0.53v-0.027
			c0-0.438-0.691-0.583-1.475-0.823c-0.996-0.292-2.126-0.758-2.126-2.14v-0.026c0-1.447,1.169-2.259,2.604-2.259
			c0.903,0,1.886,0.306,2.658,0.824l-0.772,1.395c-0.703-0.411-1.408-0.664-1.927-0.664c-0.491,0-0.743,0.212-0.743,0.491v0.026
			c0,0.398,0.678,0.586,1.448,0.851c0.996,0.333,2.152,0.812,2.152,2.112v0.027c0,1.58-1.182,2.299-2.724,2.299
			C98.666,132.852,97.549,132.52,96.605,131.773z"/>
		<path d="M103.409,131.773l0.864-1.328c0.771,0.559,1.581,0.851,2.245,0.851c0.585,0,0.851-0.213,0.851-0.53v-0.027
			c0-0.438-0.692-0.583-1.476-0.823c-0.996-0.292-2.126-0.758-2.126-2.14v-0.026c0-1.447,1.169-2.259,2.604-2.259
			c0.904,0,1.887,0.306,2.658,0.824l-0.771,1.395c-0.703-0.411-1.409-0.664-1.927-0.664c-0.491,0-0.744,0.212-0.744,0.491v0.026
			c0,0.398,0.678,0.586,1.448,0.851c0.996,0.333,2.153,0.812,2.153,2.112v0.027c0,1.58-1.183,2.299-2.725,2.299
			C105.469,132.852,104.352,132.52,103.409,131.773z"/>
		<path d="M110.81,125.596h2.02v1.436c0.413-0.982,1.076-1.621,2.273-1.567v2.113h-0.106c-1.343,0-2.167,0.81-2.167,2.511v2.631
			h-2.02V125.596z"/>
		<path d="M116.085,129.197v-0.027c0-2.033,1.449-3.707,3.521-3.707c2.379,0,3.47,1.848,3.47,3.866c0,0.159-0.015,0.347-0.027,0.53
			h-4.956c0.199,0.918,0.836,1.396,1.74,1.396c0.678,0,1.17-0.212,1.729-0.73l1.155,1.023c-0.665,0.823-1.621,1.329-2.909,1.329
			C117.666,132.878,116.085,131.376,116.085,129.197z M121.108,128.6c-0.12-0.904-0.652-1.517-1.503-1.517
			c-0.836,0-1.381,0.599-1.54,1.517H121.108z"/>
		<path d="M124.229,130.672v-0.027c0-1.555,1.182-2.271,2.87-2.271c0.719,0,1.236,0.119,1.741,0.292v-0.119
			c0-0.838-0.519-1.303-1.528-1.303c-0.771,0-1.316,0.146-1.967,0.385l-0.506-1.541c0.785-0.345,1.557-0.57,2.765-0.57
			c1.104,0,1.9,0.291,2.405,0.797c0.532,0.531,0.771,1.314,0.771,2.271v4.133h-1.953v-0.771c-0.491,0.545-1.169,0.903-2.152,0.903
			C125.333,132.852,124.229,132.079,124.229,130.672z M128.866,130.206v-0.358c-0.345-0.16-0.797-0.267-1.288-0.267
			c-0.864,0-1.396,0.347-1.396,0.983v0.026c0,0.545,0.452,0.863,1.103,0.863C128.229,131.455,128.866,130.938,128.866,130.206z"/>
		<path d="M132.362,129.17v-0.025c0-2.379,1.553-3.682,3.241-3.682c1.076,0,1.741,0.491,2.219,1.062v-3.508h2.021v9.699h-2.021
			v-1.023c-0.491,0.664-1.169,1.156-2.219,1.156C133.943,132.852,132.362,131.549,132.362,129.17z M137.849,129.17v-0.025
			c0-1.184-0.783-1.967-1.728-1.967c-0.942,0-1.74,0.771-1.74,1.967v0.025c0,1.184,0.798,1.967,1.74,1.967
			C137.065,131.137,137.849,130.354,137.849,129.17z"/>
		<path d="M141.489,129.197v-0.027c0-2.033,1.448-3.707,3.522-3.707c2.378,0,3.467,1.848,3.467,3.866
			c0,0.159-0.013,0.347-0.026,0.53h-4.956c0.199,0.918,0.838,1.396,1.741,1.396c0.678,0,1.168-0.212,1.727-0.73l1.156,1.023
			c-0.664,0.823-1.621,1.329-2.911,1.329C143.07,132.878,141.489,131.376,141.489,129.197z M146.512,128.6
			c-0.119-0.904-0.65-1.517-1.5-1.517c-0.838,0-1.384,0.599-1.543,1.517H146.512z"/>
		<path d="M150.114,125.596h2.018v1.436c0.412-0.982,1.076-1.621,2.273-1.567v2.113h-0.106c-1.342,0-2.167,0.81-2.167,2.511v2.631
			h-2.018V125.596L150.114,125.596z"/>
		<path d="M155.057,130.592h2.152v2.126h-2.152V130.592z"/>
		<path d="M158.669,129.197v-0.027c0-2.033,1.556-3.707,3.733-3.707c1.343,0,2.181,0.451,2.844,1.195l-1.235,1.328
			c-0.452-0.479-0.903-0.783-1.621-0.783c-1.01,0-1.727,0.891-1.727,1.939v0.026c0,1.089,0.704,1.967,1.807,1.967
			c0.677,0,1.143-0.292,1.634-0.758l1.183,1.196c-0.69,0.757-1.487,1.303-2.909,1.303
			C160.237,132.878,158.669,131.229,158.669,129.197z"/>
		<path d="M166.149,129.197v-0.027c0-2.046,1.648-3.707,3.867-3.707c2.206,0,3.84,1.635,3.84,3.682v0.025
			c0,2.046-1.647,3.708-3.866,3.708C167.784,132.878,166.149,131.243,166.149,129.197z M171.864,129.197v-0.027
			c0-1.05-0.757-1.967-1.874-1.967c-1.155,0-1.847,0.891-1.847,1.939v0.026c0,1.05,0.758,1.967,1.873,1.967
			C171.173,131.137,171.864,130.246,171.864,129.197z"/>
		<path d="M175.479,125.596h2.019v1.01c0.466-0.599,1.076-1.143,2.099-1.143c0.932,0,1.635,0.412,2.008,1.129
			c0.625-0.73,1.369-1.129,2.338-1.129c1.502,0,2.406,0.903,2.406,2.617v4.638h-2.021v-3.973c0-0.957-0.427-1.448-1.185-1.448
			c-0.756,0-1.223,0.491-1.223,1.448v3.973h-2.019v-3.973c0-0.957-0.427-1.448-1.183-1.448c-0.758,0-1.224,0.491-1.224,1.448v3.973
			h-2.019v-7.122H175.479z"/>
	</g>
</g>
<g>
	<rect x="16.737" y="13.937" fill="#696969" width="29.372" height="30.204"/>
	<g>
		<path fill="#FFFFFF" d="M33.305,18.848h-3.823c-3.504,0.005-6.344,2.844-6.349,6.349v12.418c0,0.869,0.706,1.573,1.574,1.572
			c0.868,0,1.572-0.704,1.572-1.572V25.197c0.003-1.768,1.435-3.199,3.203-3.203h3.823c1.769,0.001,3.202,1.434,3.206,3.203v3.822
			c-0.003,1.77-1.437,3.201-3.206,3.203h-1.517v3.146h1.517c3.504-0.005,6.344-2.845,6.349-6.35v-3.822
			C39.649,21.692,36.81,18.853,33.305,18.848z"/>
		
			<linearGradient id="SVGID_1_" gradientUnits="userSpaceOnUse" x1="-64.3081" y1="337.4727" x2="-57.0679" y2="337.4727" gradientTransform="matrix(1 0 0 -1 90 373)">
			<stop  offset="0" style="stop-color:#ABABAB"/>
			<stop  offset="0.3769" style="stop-color:#D0D0D0"/>
			<stop  offset="0.7807" style="stop-color:#F2F2F2"/>
			<stop  offset="1" style="stop-color:#FFFFFF"/>
		</linearGradient>
		<path fill="url(#SVGID_1_)" d="M29.482,32.223c-0.357,0-0.704,0.121-0.982,0.344l-2.22,1.765v3.272
			c0.002,0.479-0.215,0.932-0.588,1.229l0,0l4.332-3.464h2.908v-3.146H29.482z"/>
	</g>
</g>
<g>
	<g>
		<path fill="#010202" d="M136.513,60.465c0,2.2-1.8,4-4,4H62.188c-2.2,0-4-1.8-4-4V17.09c0-2.2,1.8-4,4-4h70.324c2.2,0,4,1.8,4,4
			L136.513,60.465L136.513,60.465z"/>
	</g>
	<g>
		<path fill="#FFFFFF" d="M131.788,57.807c0,1.1-0.9,2-2,2H64.913c-1.1,0-2-0.9-2-2v-38.5c0-1.1,0.9-2,2-2h64.875c1.1,0,2,0.9,2,2
			V57.807z"/>
	</g>
	<circle fill="#FFFFFF" cx="97.351" cy="62.219" r="1.578"/>
</g>
<path d="M91.447,65.687l-1.903,4.018c0,0-0.336,0.92-1.165,0.92s-5.921,0-5.921,0s-1.012-0.154-1.012,1.472s0.89,1.687,0.89,1.687
	h30.029c0,0,0.89-0.061,0.89-1.687s-1.012-1.472-1.012-1.472s-5.092,0-5.921,0c-0.829,0-1.165-0.92-1.165-0.92l-1.902-4.018H91.63"
	/>
<path fill="#FFFFFF" d="M97.351,65.687"/>
<rect x="64.656" y="19.546" fill="#BDBCBB" width="65.389" height="38.021"/>
</svg>
