<?xml version="1.0" encoding="utf-8"?>
<!-- Generator: Adobe Illustrator 15.1.0, SVG Export Plug-In . SVG Version: 6.00 Build 0)  -->
<!DOCTYPE svg PUBLIC "-//W3C//DTD SVG 1.1//EN" "http://www.w3.org/Graphics/SVG/1.1/DTD/svg11.dtd">
<svg version="1.1" id="Calque_1" xmlns="http://www.w3.org/2000/svg" xmlns:xlink="http://www.w3.org/1999/xlink" x="0px" y="0px"
	 width="40px" height="40px" viewBox="0 0 40 40" enable-background="new 0 0 40 40" xml:space="preserve">
<g>
	<path fill="#4C4842" d="M20,39.842c-10.94,0-19.842-8.9-19.842-19.842C0.158,9.058,9.06,0.158,20,0.158
		c10.939,0,19.842,8.901,19.842,19.842C39.842,30.941,30.939,39.842,20,39.842z M20,6.068c-7.682,0-13.931,6.25-13.931,13.932
		c0,7.682,6.249,13.932,13.931,13.932c7.682,0,13.932-6.25,13.932-13.932C33.932,12.318,27.682,6.068,20,6.068z"/>
	<polygon fill="#4C4842" points="28.938,18.031 21.968,18.031 21.968,11.062 18.032,11.062 18.032,18.031 11.063,18.031 
		11.063,21.969 18.032,21.969 18.032,28.938 21.968,28.938 21.968,21.969 28.938,21.969 	"/>
</g>
</svg>
