<?xml version="1.0" encoding="utf-8"?>
<!-- Generator: Adobe Illustrator 15.1.0, SVG Export Plug-In . SVG Version: 6.00 Build 0)  -->
<!DOCTYPE svg PUBLIC "-//W3C//DTD SVG 1.1//EN" "http://www.w3.org/Graphics/SVG/1.1/DTD/svg11.dtd">
<svg version="1.1" id="Calque_1" xmlns="http://www.w3.org/2000/svg" xmlns:xlink="http://www.w3.org/1999/xlink" x="0px" y="0px"
	 width="97.343px" height="27.053px" viewBox="491.577 827.413 97.343 27.053"
	 enable-background="new 491.577 827.413 97.343 27.053" xml:space="preserve">
<path fill="#979693" d="M532.608,853.583h-38.53c-0.801,0-1.462-0.653-1.462-1.454v-9.378c0-0.8,0.661-1.452,1.462-1.452h38.53
	c0.8,0,1.465,0.652,1.465,1.452v9.378C534.073,852.93,533.408,853.583,532.608,853.583"/>
<path d="M533.775,852.13c0,0.649-0.525,1.176-1.178,1.176h-38.528c-0.651,0-1.181-0.525-1.181-1.176v-9.379
	c0-0.65,0.528-1.179,1.181-1.179h38.527c0.652,0,1.179,0.527,1.179,1.179V852.13z"/>
<path fill="#FFFFFF" d="M501.878,847.375c-0.009-0.99,0.81-1.472,0.848-1.494c-0.464-0.676-1.183-0.77-1.436-0.775
	c-0.604-0.062-1.19,0.36-1.498,0.36c-0.314,0-0.788-0.354-1.298-0.344c-0.657,0.01-1.272,0.39-1.609,0.979
	c-0.695,1.205-0.177,2.977,0.49,3.949c0.333,0.478,0.723,1.009,1.232,0.991c0.498-0.021,0.686-0.319,1.286-0.319
	c0.599,0,0.772,0.319,1.292,0.308c0.536-0.009,0.873-0.479,1.195-0.961c0.385-0.546,0.54-1.085,0.546-1.111
	C502.916,848.953,501.888,848.562,501.878,847.375"/>
<path fill="#FFFFFF" d="M506.49,850.975h-0.598v-3.919h0.598V850.975z M500.896,844.464c0.268-0.336,0.45-0.792,0.399-1.256
	c-0.389,0.018-0.874,0.271-1.153,0.598c-0.247,0.29-0.47,0.765-0.41,1.21C500.167,845.047,500.615,844.794,500.896,844.464"/>
<path fill="#FFFFFF" d="M508.048,847.148c-0.158,0.557-0.346,1.014-0.563,1.37l-0.369,0.038c0.161-0.441,0.276-0.893,0.348-1.354
	L508.048,847.148z"/>
<path fill="#FFFFFF" d="M510.972,850.974h-0.636l-0.348-1.094h-1.21l-0.332,1.094h-0.619l1.198-3.726h0.74L510.972,850.974z
	 M509.883,849.421l-0.313-0.974c-0.033-0.1-0.098-0.333-0.188-0.702h-0.011c-0.037,0.159-0.097,0.394-0.178,0.702l-0.31,0.974
	H509.883z"/>
<path fill="#FFFFFF" d="M514.056,849.598c0,0.457-0.124,0.817-0.37,1.083c-0.222,0.236-0.494,0.354-0.822,0.354
	c-0.354,0-0.608-0.127-0.765-0.381h-0.011v1.415h-0.597v-2.896c0-0.287-0.007-0.582-0.022-0.885h0.525l0.033,0.427h0.011
	c0.199-0.32,0.501-0.48,0.907-0.48c0.315,0,0.581,0.125,0.793,0.375C513.95,848.858,514.056,849.188,514.056,849.598
	 M513.448,849.619c0-0.262-0.061-0.478-0.177-0.646c-0.13-0.177-0.304-0.265-0.521-0.265c-0.148,0-0.282,0.049-0.4,0.146
	c-0.12,0.098-0.197,0.226-0.234,0.385c-0.021,0.072-0.028,0.134-0.028,0.183v0.447c0,0.194,0.061,0.359,0.18,0.494
	s0.275,0.202,0.469,0.202c0.225,0,0.398-0.086,0.523-0.26C513.385,850.132,513.448,849.903,513.448,849.619"/>
<path fill="#FFFFFF" d="M517.146,849.598c0,0.457-0.123,0.817-0.37,1.083c-0.223,0.236-0.496,0.354-0.824,0.354
	c-0.354,0-0.608-0.127-0.763-0.381h-0.013v1.415h-0.597v-2.896c0-0.287-0.007-0.582-0.022-0.885h0.525l0.033,0.427h0.012
	c0.199-0.32,0.5-0.48,0.906-0.48c0.315,0,0.581,0.125,0.793,0.375C517.04,848.858,517.146,849.188,517.146,849.598 M516.538,849.619
	c0-0.262-0.06-0.478-0.177-0.646c-0.129-0.177-0.304-0.265-0.521-0.265c-0.146,0-0.282,0.049-0.399,0.146
	c-0.12,0.098-0.199,0.226-0.235,0.385c-0.019,0.072-0.028,0.134-0.028,0.183v0.447c0,0.194,0.062,0.359,0.181,0.494
	s0.275,0.202,0.468,0.202c0.225,0,0.398-0.086,0.523-0.26C516.475,850.132,516.538,849.903,516.538,849.619"/>
<path fill="#FFFFFF" d="M520.601,849.93c0,0.316-0.109,0.574-0.329,0.773c-0.243,0.217-0.582,0.326-1.017,0.326
	c-0.401,0-0.723-0.078-0.966-0.232l0.139-0.497c0.263,0.158,0.549,0.237,0.862,0.237c0.225,0,0.4-0.051,0.525-0.151
	c0.125-0.103,0.188-0.237,0.188-0.407c0-0.151-0.051-0.278-0.154-0.382s-0.273-0.2-0.515-0.288
	c-0.651-0.244-0.979-0.601-0.979-1.068c0-0.307,0.114-0.558,0.344-0.753c0.229-0.195,0.531-0.293,0.912-0.293
	c0.339,0,0.621,0.059,0.846,0.177l-0.149,0.486c-0.21-0.114-0.447-0.172-0.714-0.172c-0.209,0-0.373,0.052-0.491,0.153
	c-0.1,0.093-0.148,0.205-0.148,0.339c0,0.146,0.057,0.269,0.172,0.363c0.099,0.089,0.279,0.186,0.541,0.288
	c0.32,0.129,0.557,0.28,0.707,0.453S520.601,849.671,520.601,849.93"/>
<path fill="#FFFFFF" d="M522.573,848.735h-0.657v1.305c0,0.331,0.115,0.497,0.349,0.497c0.106,0,0.195-0.009,0.266-0.028
	l0.017,0.454c-0.117,0.044-0.271,0.066-0.464,0.066c-0.236,0-0.421-0.072-0.553-0.217c-0.133-0.144-0.199-0.386-0.199-0.725v-1.354
	h-0.393v-0.448h0.393v-0.492l0.586-0.177v0.669h0.657L522.573,848.735L522.573,848.735z"/>
<path fill="#FFFFFF" d="M525.542,849.609c0,0.41-0.118,0.751-0.354,1.017c-0.246,0.271-0.573,0.409-0.982,0.409
	c-0.396,0-0.708-0.131-0.942-0.395c-0.233-0.261-0.351-0.591-0.351-0.987c0-0.417,0.12-0.758,0.361-1.023
	c0.24-0.265,0.565-0.397,0.976-0.397c0.396,0,0.712,0.132,0.951,0.394C525.428,848.879,525.542,849.207,525.542,849.609
	 M524.923,849.628c0-0.248-0.053-0.46-0.161-0.638c-0.125-0.214-0.303-0.321-0.536-0.321c-0.238,0-0.421,0.107-0.547,0.321
	c-0.105,0.178-0.16,0.394-0.16,0.647c0,0.248,0.055,0.46,0.16,0.639c0.129,0.215,0.312,0.32,0.542,0.32
	c0.229,0,0.407-0.107,0.536-0.327C524.867,850.09,524.923,849.875,524.923,849.628"/>
<path fill="#FFFFFF" d="M527.481,848.812c-0.06-0.012-0.121-0.017-0.188-0.017c-0.21,0-0.372,0.079-0.486,0.236
	c-0.101,0.141-0.148,0.316-0.148,0.531v1.408h-0.598l0.006-1.84c0-0.311-0.008-0.592-0.021-0.847h0.521l0.021,0.515h0.017
	c0.062-0.177,0.161-0.318,0.299-0.426c0.133-0.096,0.276-0.144,0.431-0.144c0.056,0,0.105,0.003,0.149,0.011L527.481,848.812
	L527.481,848.812z"/>
<path fill="#FFFFFF" d="M530.151,849.504c0,0.106-0.009,0.197-0.021,0.271h-1.791c0.007,0.266,0.094,0.469,0.26,0.607
	c0.151,0.125,0.347,0.188,0.586,0.188c0.266,0,0.507-0.042,0.725-0.126l0.095,0.414c-0.254,0.11-0.556,0.166-0.901,0.166
	c-0.417,0-0.743-0.122-0.979-0.368c-0.238-0.244-0.357-0.573-0.357-0.985c0-0.406,0.111-0.743,0.331-1.012
	c0.233-0.288,0.546-0.433,0.94-0.433c0.387,0,0.681,0.145,0.88,0.433C530.072,848.887,530.151,849.168,530.151,849.504
	 M529.583,849.349c0.004-0.177-0.035-0.33-0.116-0.459c-0.104-0.166-0.262-0.248-0.477-0.248c-0.194,0-0.354,0.081-0.476,0.242
	c-0.1,0.13-0.157,0.284-0.177,0.465H529.583L529.583,849.349z"/>
<polygon fill="#FFFFFF" points="507.308,843.688 506.732,843.688 506.732,845.425 506.41,845.425 506.41,843.688 505.839,843.688 
	505.839,843.417 507.308,843.417 "/>
<path fill="#FFFFFF" d="M509.676,845.425h-0.322v-2.11h0.322V845.425z M508.887,844.632c0,0.06-0.004,0.106-0.013,0.146h-0.965
	c0.004,0.143,0.05,0.252,0.14,0.328c0.082,0.065,0.188,0.101,0.315,0.101c0.144,0,0.272-0.021,0.392-0.068l0.05,0.225
	c-0.138,0.059-0.299,0.089-0.484,0.089c-0.226,0-0.4-0.066-0.529-0.198c-0.128-0.132-0.191-0.309-0.191-0.531
	c0-0.219,0.06-0.399,0.18-0.546c0.125-0.153,0.293-0.23,0.506-0.23c0.208,0,0.366,0.077,0.474,0.23
	C508.844,844.299,508.887,844.451,508.887,844.632 M508.579,844.549c0.002-0.096-0.02-0.178-0.062-0.248
	c-0.056-0.089-0.142-0.134-0.256-0.134c-0.104,0-0.19,0.044-0.256,0.131c-0.055,0.07-0.085,0.153-0.096,0.251H508.579z
	 M508.711,843.369l-0.36,0.432h-0.224l0.259-0.432H508.711z"/>
<path fill="#FFFFFF" d="M511.439,844.632c0,0.06-0.005,0.106-0.014,0.146h-0.965c0.004,0.143,0.05,0.252,0.14,0.328
	c0.081,0.065,0.188,0.101,0.315,0.101c0.144,0,0.273-0.021,0.391-0.068l0.052,0.225c-0.139,0.059-0.301,0.089-0.485,0.089
	c-0.225,0-0.401-0.066-0.529-0.198s-0.19-0.309-0.19-0.531c0-0.219,0.059-0.399,0.179-0.546c0.125-0.153,0.293-0.23,0.506-0.23
	c0.208,0,0.366,0.077,0.475,0.23C511.396,844.299,511.439,844.451,511.439,844.632 M511.132,844.549
	c0.002-0.096-0.019-0.178-0.062-0.248c-0.058-0.089-0.143-0.134-0.256-0.134c-0.105,0-0.191,0.044-0.258,0.131
	c-0.054,0.07-0.085,0.153-0.095,0.251H511.132z M511.263,843.369l-0.358,0.432h-0.226l0.261-0.432H511.263z"/>
<path fill="#FFFFFF" d="M512.939,844.016l-0.062,0.244c-0.082-0.039-0.175-0.06-0.281-0.06c-0.14,0-0.252,0.048-0.335,0.142
	c-0.082,0.094-0.123,0.214-0.123,0.358c0,0.153,0.043,0.273,0.129,0.362c0.087,0.091,0.196,0.135,0.329,0.135
	c0.102,0,0.197-0.02,0.292-0.06l0.045,0.241c-0.104,0.05-0.237,0.075-0.397,0.075c-0.223,0-0.396-0.067-0.527-0.201
	c-0.131-0.135-0.197-0.313-0.197-0.538s0.071-0.409,0.213-0.553c0.142-0.146,0.33-0.217,0.567-0.217
	C512.726,843.946,512.843,843.97,512.939,844.016"/>
<path fill="#FFFFFF" d="M514.638,845.425h-0.32v-0.823c0-0.26-0.099-0.389-0.293-0.389c-0.148,0-0.251,0.074-0.308,0.227
	c-0.01,0.03-0.015,0.069-0.015,0.114v0.871h-0.322v-2.112h0.322v0.873h0.006c0.102-0.158,0.246-0.237,0.436-0.237
	c0.134,0,0.243,0.043,0.33,0.131c0.108,0.108,0.164,0.271,0.164,0.485V845.425L514.638,845.425z"/>
<path fill="#FFFFFF" d="M516.288,845.424h-0.289l-0.024-0.166h-0.009c-0.099,0.133-0.239,0.199-0.423,0.199
	c-0.137,0-0.247-0.043-0.33-0.131c-0.076-0.079-0.114-0.178-0.114-0.295c0-0.176,0.074-0.312,0.223-0.405
	c0.147-0.093,0.356-0.139,0.625-0.137v-0.027c0-0.188-0.102-0.286-0.302-0.286c-0.143,0-0.269,0.036-0.377,0.108l-0.064-0.212
	c0.135-0.083,0.301-0.125,0.497-0.125c0.379,0,0.566,0.199,0.566,0.599v0.533C516.267,845.224,516.273,845.339,516.288,845.424
	 M515.954,844.927v-0.223c-0.355-0.006-0.533,0.091-0.533,0.292c0,0.075,0.021,0.132,0.062,0.169
	c0.043,0.038,0.095,0.057,0.156,0.057c0.071,0,0.139-0.021,0.197-0.065c0.062-0.045,0.098-0.104,0.112-0.171
	C515.952,844.968,515.954,844.949,515.954,844.927"/>
<path fill="#FFFFFF" d="M517.596,844.26c-0.031-0.006-0.064-0.009-0.102-0.009c-0.112,0-0.201,0.043-0.262,0.128
	c-0.055,0.076-0.081,0.171-0.081,0.286v0.76h-0.321l0.004-0.992c0-0.167-0.006-0.317-0.013-0.456h0.28l0.012,0.277h0.009
	c0.033-0.095,0.087-0.172,0.16-0.229c0.072-0.054,0.148-0.078,0.232-0.078c0.029,0,0.058,0.002,0.08,0.006L517.596,844.26
	L517.596,844.26z"/>
<path fill="#FFFFFF" d="M519.275,843.977c-0.009,0.117-0.014,0.255-0.014,0.411v0.828c0,0.312-0.067,0.53-0.208,0.655
	c-0.127,0.116-0.306,0.173-0.536,0.173c-0.199,0-0.361-0.038-0.484-0.113l0.074-0.247c0.12,0.073,0.259,0.11,0.41,0.11
	c0.284,0,0.428-0.153,0.428-0.459v-0.14h-0.006c-0.091,0.146-0.231,0.221-0.428,0.221c-0.175,0-0.317-0.067-0.432-0.2
	s-0.169-0.302-0.169-0.506c0-0.233,0.063-0.42,0.195-0.562c0.12-0.134,0.27-0.199,0.443-0.199c0.196,0,0.337,0.076,0.423,0.229
	h0.006l0.013-0.198h0.284V843.977z M518.942,844.805v-0.256c0-0.097-0.031-0.181-0.093-0.25c-0.061-0.07-0.141-0.104-0.239-0.104
	c-0.11,0-0.2,0.046-0.271,0.137c-0.071,0.092-0.105,0.214-0.105,0.367c0,0.139,0.032,0.251,0.1,0.336
	c0.066,0.094,0.16,0.14,0.278,0.14c0.07,0,0.136-0.021,0.191-0.062c0.059-0.042,0.099-0.102,0.121-0.175
	C518.936,844.9,518.942,844.856,518.942,844.805"/>
<path fill="#FFFFFF" d="M521.026,844.632c0,0.059-0.005,0.107-0.013,0.146h-0.965c0.004,0.144,0.05,0.253,0.141,0.328
	c0.08,0.067,0.188,0.102,0.315,0.102c0.144,0,0.272-0.023,0.39-0.068l0.052,0.224c-0.139,0.061-0.3,0.091-0.485,0.091
	c-0.225,0-0.401-0.066-0.528-0.199c-0.129-0.132-0.191-0.31-0.191-0.531c0-0.219,0.06-0.398,0.179-0.545
	c0.125-0.154,0.294-0.232,0.507-0.232c0.208,0,0.366,0.078,0.474,0.232C520.984,844.3,521.026,844.452,521.026,844.632
	 M520.72,844.549c0.002-0.095-0.019-0.178-0.062-0.247c-0.058-0.09-0.143-0.134-0.257-0.134c-0.104,0-0.19,0.043-0.258,0.131
	c-0.053,0.069-0.085,0.153-0.095,0.25H520.72z"/>
<path fill="#FFFFFF" d="M522.26,844.26c-0.031-0.006-0.063-0.009-0.101-0.009c-0.114,0-0.201,0.043-0.263,0.128
	c-0.055,0.076-0.08,0.171-0.08,0.286v0.76h-0.322l0.003-0.992c0-0.167-0.004-0.317-0.011-0.456h0.277l0.014,0.277h0.009
	c0.034-0.095,0.088-0.172,0.161-0.229c0.07-0.054,0.147-0.078,0.231-0.078c0.029,0,0.058,0.002,0.08,0.006L522.26,844.26
	L522.26,844.26z"/>
<path fill="#FFFFFF" d="M524.827,845.425h-0.286l-0.015-0.231h-0.01c-0.092,0.177-0.245,0.265-0.465,0.265
	c-0.175,0-0.318-0.068-0.435-0.205s-0.172-0.315-0.172-0.533c0-0.233,0.062-0.424,0.187-0.567c0.121-0.137,0.271-0.203,0.446-0.203
	c0.195,0,0.331,0.064,0.409,0.195h0.006v-0.83h0.321v1.722C524.815,845.175,524.82,845.305,524.827,845.425 M524.494,844.812v-0.239
	c0-0.042-0.003-0.076-0.009-0.104c-0.02-0.077-0.059-0.142-0.117-0.193c-0.06-0.053-0.131-0.079-0.215-0.079
	c-0.12,0-0.214,0.048-0.283,0.143c-0.069,0.096-0.104,0.218-0.104,0.367c0,0.143,0.033,0.259,0.1,0.348
	c0.068,0.097,0.163,0.145,0.28,0.145c0.104,0,0.189-0.04,0.255-0.119C524.463,845.006,524.494,844.917,524.494,844.812"/>
<path fill="#FFFFFF" d="M526.471,845.424h-0.287l-0.023-0.166h-0.009c-0.102,0.133-0.24,0.199-0.425,0.199
	c-0.137,0-0.245-0.043-0.329-0.131c-0.075-0.079-0.113-0.178-0.113-0.295c0-0.176,0.074-0.312,0.222-0.405
	c0.148-0.093,0.356-0.139,0.624-0.137v-0.027c0-0.188-0.1-0.286-0.3-0.286c-0.144,0-0.269,0.036-0.378,0.108l-0.065-0.212
	c0.137-0.083,0.301-0.125,0.497-0.125c0.379,0,0.568,0.199,0.568,0.599v0.533C526.451,845.224,526.458,845.339,526.471,845.424
	 M526.138,844.927v-0.223c-0.354-0.006-0.531,0.091-0.531,0.292c0,0.075,0.021,0.132,0.062,0.169
	c0.042,0.038,0.094,0.057,0.157,0.057c0.069,0,0.137-0.021,0.197-0.065c0.06-0.045,0.097-0.104,0.109-0.171
	C526.136,844.968,526.138,844.949,526.138,844.927"/>
<path fill="#FFFFFF" d="M528.271,845.425h-0.321v-0.829c0-0.256-0.099-0.383-0.293-0.383c-0.095,0-0.172,0.034-0.231,0.104
	c-0.059,0.069-0.089,0.152-0.089,0.248v0.858h-0.322v-1.034c0-0.127-0.004-0.265-0.012-0.414h0.283l0.015,0.228h0.009
	c0.037-0.07,0.094-0.129,0.167-0.175c0.087-0.055,0.186-0.081,0.291-0.081c0.137,0,0.248,0.043,0.338,0.131
	c0.11,0.106,0.166,0.268,0.166,0.479V845.425L528.271,845.425z"/>
<path fill="#FFFFFF" d="M529.722,845.009c0,0.135-0.05,0.243-0.148,0.323c-0.1,0.081-0.235,0.122-0.41,0.122
	c-0.165,0-0.306-0.032-0.42-0.099l0.067-0.238c0.111,0.067,0.229,0.102,0.354,0.102c0.165,0,0.247-0.061,0.247-0.182
	c0-0.054-0.018-0.098-0.055-0.133c-0.035-0.035-0.1-0.068-0.189-0.104c-0.258-0.096-0.387-0.233-0.387-0.417
	c0-0.125,0.047-0.229,0.143-0.312c0.095-0.084,0.221-0.125,0.378-0.125c0.144,0,0.266,0.028,0.367,0.087l-0.069,0.23
	c-0.093-0.055-0.19-0.083-0.295-0.083c-0.067,0-0.119,0.017-0.157,0.047c-0.037,0.032-0.058,0.073-0.058,0.122
	c0,0.051,0.021,0.091,0.061,0.122c0.033,0.03,0.1,0.062,0.195,0.099C529.597,844.667,529.722,844.812,529.722,845.009"/>
<path d="M586.455,853.583h-38.386c-0.847,0-1.535-0.691-1.535-1.535v-9.213c0-0.845,0.688-1.536,1.535-1.536h38.386
	c0.844,0,1.535,0.691,1.535,1.536v9.213C587.99,852.892,587.299,853.583,586.455,853.583"/>
<path fill="#8B8787" d="M586.455,841.546c0.711,0,1.29,0.577,1.29,1.288v9.214c0,0.711-0.579,1.29-1.29,1.29h-38.386
	c-0.711,0-1.29-0.579-1.29-1.29v-9.214c0-0.711,0.579-1.288,1.29-1.288H586.455 M586.455,841.3h-38.386
	c-0.847,0-1.535,0.69-1.535,1.534v9.214c0,0.845,0.688,1.535,1.535,1.535h38.386c0.844,0,1.535-0.69,1.535-1.535v-9.214
	C587.99,841.99,587.299,841.3,586.455,841.3"/>
<path fill="#FFFFFF" d="M567.457,847.979c-0.722,0-1.311,0.551-1.311,1.308c0,0.752,0.589,1.306,1.311,1.306
	c0.723,0,1.312-0.554,1.312-1.306C568.769,848.528,568.18,847.979,567.457,847.979 M567.457,850.077
	c-0.396,0-0.737-0.327-0.737-0.792c0-0.471,0.342-0.791,0.737-0.791s0.737,0.32,0.737,0.791
	C568.194,849.75,567.854,850.077,567.457,850.077 M564.598,847.979c-0.723,0-1.312,0.551-1.312,1.308
	c0,0.752,0.589,1.306,1.312,1.306s1.312-0.554,1.312-1.306C565.908,848.528,565.319,847.979,564.598,847.979 M564.598,850.077
	c-0.396,0-0.736-0.327-0.736-0.792c0-0.471,0.341-0.791,0.736-0.791s0.736,0.32,0.736,0.791
	C565.334,849.75,564.992,850.077,564.598,850.077 M561.195,848.38v0.554h1.324c-0.038,0.312-0.144,0.539-0.301,0.698
	c-0.192,0.192-0.495,0.405-1.023,0.405c-0.816,0-1.455-0.658-1.455-1.475c0-0.817,0.639-1.475,1.455-1.475
	c0.439,0,0.762,0.173,0.999,0.396l0.392-0.392c-0.332-0.315-0.771-0.56-1.391-0.56c-1.119,0-2.059,0.911-2.059,2.028
	s0.938,2.027,2.059,2.027c0.604,0,1.059-0.196,1.414-0.568c0.365-0.365,0.479-0.88,0.479-1.296c0-0.13-0.01-0.247-0.028-0.347
	h-1.865V848.38z M575.108,848.81c-0.108-0.292-0.44-0.831-1.118-0.831c-0.673,0-1.23,0.529-1.23,1.308
	c0,0.73,0.553,1.306,1.295,1.306c0.6,0,0.945-0.366,1.089-0.579l-0.444-0.296c-0.147,0.217-0.353,0.361-0.645,0.361
	c-0.291,0-0.499-0.134-0.633-0.396l1.746-0.722L575.108,848.81z M573.327,849.246c-0.015-0.505,0.392-0.762,0.684-0.762
	c0.229,0,0.42,0.111,0.484,0.275L573.327,849.246z M571.907,850.512h0.573v-3.839h-0.573V850.512z M570.968,848.271h-0.021
	c-0.128-0.152-0.375-0.293-0.688-0.293c-0.652,0-1.251,0.574-1.251,1.312c0,0.731,0.599,1.301,1.251,1.301
	c0.312,0,0.56-0.138,0.688-0.297h0.021v0.188c0,0.5-0.268,0.769-0.696,0.769c-0.352,0-0.569-0.253-0.658-0.466l-0.5,0.208
	c0.144,0.347,0.524,0.771,1.158,0.771c0.673,0,1.241-0.396,1.241-1.358v-2.348h-0.545V848.271z M570.31,850.077
	c-0.396,0-0.728-0.332-0.728-0.787c0-0.46,0.331-0.796,0.728-0.796c0.392,0,0.698,0.336,0.698,0.796
	C571.008,849.745,570.7,850.077,570.31,850.077 M577.797,846.673h-1.373v3.839h0.572v-1.454h0.801c0.635,0,1.26-0.46,1.26-1.191
	C579.057,847.134,578.432,846.673,577.797,846.673 M577.812,848.523h-0.815v-1.316h0.815c0.429,0,0.672,0.354,0.672,0.658
	C578.483,848.163,578.24,848.523,577.812,848.523 M581.354,847.972c-0.414,0-0.845,0.185-1.022,0.588l0.51,0.212
	c0.108-0.212,0.312-0.279,0.522-0.279c0.297,0,0.599,0.177,0.604,0.494v0.038c-0.104-0.06-0.326-0.147-0.599-0.147
	c-0.548,0-1.105,0.301-1.105,0.864c0,0.514,0.449,0.845,0.953,0.845c0.386,0,0.599-0.173,0.731-0.376h0.02v0.296h0.554v-1.471
	C582.519,848.352,582.011,847.972,581.354,847.972 M581.283,850.076c-0.188,0-0.449-0.095-0.449-0.326
	c0-0.296,0.326-0.41,0.607-0.41c0.252,0,0.371,0.055,0.523,0.128C581.922,849.824,581.614,850.076,581.283,850.076 M584.533,848.056
	l-0.656,1.664h-0.02l-0.683-1.664h-0.617l1.021,2.326l-0.582,1.294h0.598l1.575-3.62H584.533z M579.373,850.512h0.572v-3.839h-0.572
	V850.512z"/>
<path fill="#6BB2DA" d="M549.738,843.617c-0.09,0.095-0.144,0.241-0.144,0.431v6.786c0,0.189,0.054,0.337,0.144,0.431l0.021,0.023
	l3.802-3.802v-0.091l-3.802-3.802L549.738,843.617"/>
<linearGradient id="SVGID_1_" gradientUnits="userSpaceOnUse" x1="69.2168" y1="-60.8159" x2="70.2156" y2="-60.8159" gradientTransform="matrix(-7.4244 0 0 7.4244 1069.822 1298.9683)">
	<stop  offset="0" style="stop-color:#E1C52A"/>
	<stop  offset="0.1668" style="stop-color:#D9B128"/>
	<stop  offset="0.5358" style="stop-color:#D09129"/>
	<stop  offset="0.8262" style="stop-color:#CC7E29"/>
	<stop  offset="1" style="stop-color:#CA7729"/>
</linearGradient>
<path fill="url(#SVGID_1_)" d="M553.562,847.396v0.091l1.266,1.268l0.029-0.017l1.502-0.854l0.141-0.098
	c0.281-0.242,0.234-0.575-0.141-0.788l-1.53-0.869L553.562,847.396z"/>
<g>
	<g>
		<g>
			<defs>
				<path id="SVGID_2_" d="M549.737,851.265l0.123,0.087c0.137,0.062,0.317,0.045,0.515-0.066l4.482-2.547l-1.295-1.296
					L549.737,851.265z"/>
			</defs>
			<clipPath id="SVGID_3_">
				<use xlink:href="#SVGID_2_"  overflow="visible"/>
			</clipPath>
			<g clip-path="url(#SVGID_3_)">
				
					<image overflow="visible" enable-background="new    " width="29" height="21" xlink:href="13EADD5E.jpg"  transform="matrix(0.1864 0 0 0.1864 549.6748 847.5244)">
				</image>
			</g>
		</g>
	</g>
</g>
<linearGradient id="SVGID_4_" gradientUnits="userSpaceOnUse" x1="50.8721" y1="-54.0244" x2="51.8713" y2="-54.0244" gradientTransform="matrix(5.7015 5.7015 5.7015 -5.7015 564.9355 241.4824)">
	<stop  offset="0" style="stop-color:#4C8359"/>
	<stop  offset="0.3239" style="stop-color:#5A9059"/>
	<stop  offset="0.7419" style="stop-color:#6B9E58"/>
	<stop  offset="1" style="stop-color:#71A357"/>
</linearGradient>
<path fill="url(#SVGID_4_)" d="M549.737,843.617l3.825,3.823l1.295-1.297l-4.482-2.547c-0.123-0.067-0.239-0.103-0.344-0.103
	C549.913,843.495,549.812,843.538,549.737,843.617z"/>
<path fill="#FFFFFF" d="M559.209,845.291v-1.842h0.564c0.282,0,0.509,0.085,0.679,0.256s0.255,0.393,0.255,0.665
	s-0.085,0.494-0.255,0.665s-0.396,0.256-0.679,0.256H559.209 M559.446,845.065h0.327c0.213,0,0.381-0.062,0.506-0.185
	c0.124-0.122,0.186-0.292,0.186-0.512c0-0.218-0.062-0.389-0.186-0.511c-0.125-0.122-0.293-0.186-0.506-0.186h-0.327V845.065z"/>
<path fill="#FFFFFF" d="M561.039,843.449h0.237v1.843h-0.237V843.449z M559.209,845.291h0.031v-1.812h0.533
	c0.275,0.002,0.493,0.084,0.657,0.247c0.162,0.165,0.244,0.378,0.244,0.645c0,0.268-0.082,0.479-0.244,0.645
	c-0.164,0.163-0.382,0.245-0.657,0.246h-0.564V845.291h0.031H559.209v0.031h0.564c0.289,0,0.523-0.088,0.7-0.266
	s0.265-0.407,0.265-0.688s-0.088-0.51-0.265-0.688s-0.411-0.266-0.7-0.266h-0.595v1.904h0.029L559.209,845.291 M559.446,845.065
	v0.03h0.327c0.218,0,0.396-0.063,0.525-0.191c0.132-0.128,0.196-0.31,0.196-0.534c0-0.224-0.064-0.404-0.196-0.533
	c-0.131-0.129-0.309-0.192-0.525-0.192h-0.358v1.452h0.031V845.065h0.03v-1.359h0.297c0.207,0,0.365,0.06,0.482,0.175
	c0.118,0.116,0.178,0.277,0.178,0.489c0,0.214-0.061,0.375-0.178,0.49s-0.275,0.174-0.482,0.174h-0.327V845.065h0.03H559.446z"/>
<polygon fill="#FFFFFF" points="561.039,845.292 561.07,845.292 561.07,843.479 561.245,843.479 561.245,845.261 561.039,845.261 
	561.039,845.292 561.07,845.292 561.039,845.292 561.039,845.322 561.307,845.322 561.307,843.419 561.009,843.419 561.009,845.322 
	561.039,845.322 "/>
<path fill="#FFFFFF" d="M562.218,845.333c-0.134,0-0.265-0.043-0.393-0.132c-0.128-0.088-0.212-0.21-0.251-0.367l0.217-0.087
	c0.025,0.101,0.077,0.186,0.157,0.255s0.17,0.104,0.27,0.104c0.104,0,0.19-0.025,0.265-0.08c0.072-0.055,0.108-0.128,0.108-0.222
	c0-0.103-0.036-0.182-0.108-0.236c-0.073-0.056-0.188-0.107-0.347-0.155c-0.163-0.053-0.287-0.118-0.371-0.2
	c-0.084-0.081-0.126-0.186-0.126-0.312c0-0.133,0.053-0.247,0.157-0.346c0.104-0.098,0.241-0.146,0.409-0.146
	c0.155,0,0.282,0.039,0.381,0.117c0.098,0.079,0.16,0.164,0.19,0.256l-0.218,0.091c-0.015-0.059-0.053-0.112-0.113-0.162
	c-0.062-0.05-0.141-0.074-0.235-0.074c-0.092,0-0.168,0.024-0.231,0.076c-0.065,0.05-0.098,0.112-0.098,0.188
	c0,0.067,0.029,0.126,0.089,0.173c0.06,0.049,0.146,0.091,0.262,0.128c0.091,0.028,0.167,0.058,0.229,0.085s0.123,0.063,0.185,0.109
	c0.063,0.046,0.11,0.103,0.143,0.17c0.031,0.067,0.048,0.146,0.048,0.234c0,0.09-0.019,0.17-0.056,0.24
	c-0.037,0.069-0.086,0.126-0.146,0.167c-0.062,0.041-0.126,0.071-0.197,0.094C562.363,845.321,562.292,845.333,562.218,845.333"/>
<path fill="#FFFFFF" d="M562.218,845.333v-0.031c-0.127,0-0.251-0.041-0.375-0.125c-0.122-0.084-0.201-0.198-0.239-0.352
	l-0.028,0.009l0.012,0.027l0.216-0.087l-0.011-0.027l-0.03,0.007c0.026,0.106,0.084,0.197,0.168,0.271
	c0.084,0.072,0.183,0.11,0.289,0.11c0.107,0,0.204-0.027,0.282-0.087c0.08-0.059,0.121-0.145,0.121-0.245
	c0-0.108-0.041-0.2-0.12-0.262c-0.078-0.06-0.196-0.112-0.355-0.161c-0.16-0.05-0.279-0.115-0.357-0.191s-0.117-0.17-0.117-0.29
	c0-0.124,0.048-0.229,0.146-0.323c0.1-0.091,0.227-0.138,0.389-0.138c0.15,0,0.27,0.036,0.361,0.109
	c0.094,0.076,0.152,0.156,0.18,0.242l0.03-0.011l-0.013-0.027l-0.216,0.09l0.011,0.028l0.03-0.009
	c-0.018-0.064-0.061-0.125-0.125-0.177c-0.066-0.056-0.153-0.082-0.255-0.082c-0.097,0-0.183,0.026-0.252,0.082
	c-0.07,0.055-0.108,0.129-0.108,0.214c0,0.078,0.036,0.146,0.102,0.196v0.001c0.062,0.051,0.153,0.095,0.271,0.133h0.001
	c0.091,0.028,0.165,0.058,0.225,0.084c0.06,0.025,0.119,0.062,0.181,0.105c0.06,0.042,0.103,0.095,0.132,0.157
	s0.044,0.138,0.044,0.223s-0.018,0.16-0.051,0.226c-0.035,0.066-0.081,0.117-0.138,0.156c-0.06,0.039-0.121,0.069-0.188,0.091
	c-0.066,0.021-0.136,0.029-0.207,0.029v0.062c0.077,0,0.151-0.011,0.226-0.033c0.073-0.022,0.143-0.056,0.205-0.099
	c0.064-0.044,0.118-0.104,0.156-0.179c0.039-0.074,0.06-0.159,0.06-0.254c0-0.092-0.018-0.176-0.051-0.248
	c-0.034-0.071-0.085-0.134-0.15-0.183c-0.064-0.046-0.128-0.084-0.191-0.111h0.001c-0.062-0.028-0.14-0.058-0.231-0.086
	c-0.111-0.037-0.195-0.079-0.251-0.123c-0.053-0.043-0.076-0.09-0.076-0.148c0-0.066,0.025-0.119,0.084-0.165
	s0.129-0.068,0.214-0.068c0.091,0,0.161,0.022,0.216,0.066h0.001h-0.001c0.059,0.047,0.092,0.097,0.104,0.146l0.009,0.034
	l0.248-0.104l0.026-0.012l-0.009-0.026c-0.031-0.101-0.101-0.189-0.2-0.271c-0.104-0.083-0.239-0.124-0.399-0.123
	c-0.175-0.001-0.319,0.051-0.431,0.154c-0.11,0.103-0.167,0.227-0.167,0.367c0,0.133,0.046,0.247,0.136,0.334
	s0.218,0.154,0.384,0.207c0.155,0.048,0.269,0.1,0.336,0.15c0.064,0.051,0.097,0.118,0.097,0.213c0,0.086-0.03,0.146-0.096,0.196
	c-0.067,0.05-0.147,0.074-0.246,0.074c-0.092,0-0.173-0.031-0.249-0.097c-0.075-0.064-0.124-0.146-0.147-0.24l-0.009-0.033
	l-0.249,0.1l-0.023,0.011l0.006,0.025c0.041,0.164,0.129,0.295,0.263,0.386c0.133,0.091,0.271,0.138,0.41,0.138v-0.027"/>
<path fill="#FFFFFF" d="M563.409,845.292h-0.237v-1.844h0.628c0.156,0,0.292,0.053,0.406,0.155c0.114,0.104,0.171,0.235,0.171,0.395
	c0,0.156-0.057,0.287-0.171,0.392s-0.25,0.156-0.406,0.156h-0.391V845.292 M563.409,844.318h0.396c0.102,0,0.182-0.033,0.24-0.101
	c0.061-0.066,0.09-0.142,0.09-0.221c0-0.081-0.028-0.155-0.09-0.223c-0.06-0.066-0.14-0.101-0.24-0.101h-0.396V844.318z"/>
<path fill="#FFFFFF" d="M563.409,845.292v-0.031h-0.206v-1.78h0.597c0.149,0,0.276,0.049,0.386,0.147
	c0.107,0.099,0.16,0.219,0.16,0.37c0,0.148-0.053,0.27-0.16,0.368c-0.108,0.1-0.235,0.147-0.386,0.147h-0.422v0.777L563.409,845.292
	v-0.032V845.292h0.031v-0.717h0.358c0.163,0.001,0.309-0.056,0.427-0.163c0.121-0.108,0.183-0.249,0.183-0.414
	c0-0.166-0.062-0.308-0.183-0.416c-0.118-0.108-0.264-0.164-0.427-0.163h-0.657v1.903h0.299v-0.03H563.409 M563.409,844.318v0.03
	h0.396c0.107,0,0.197-0.036,0.265-0.109c0.062-0.071,0.098-0.153,0.097-0.241c0.001-0.09-0.033-0.172-0.097-0.242
	c-0.066-0.074-0.156-0.111-0.265-0.111h-0.427v0.705h0.031V844.318h0.031v-0.612h0.363c0.095,0.001,0.163,0.029,0.219,0.091
	c0.056,0.062,0.081,0.128,0.081,0.201c0,0.071-0.025,0.138-0.081,0.199c-0.056,0.061-0.123,0.091-0.219,0.091h-0.396
	L563.409,844.318h0.03H563.409z"/>
<path fill="#FFFFFF" d="M566.182,845.053c-0.181,0.188-0.405,0.279-0.676,0.279c-0.27,0-0.494-0.092-0.675-0.279
	c-0.182-0.186-0.271-0.414-0.271-0.683c0-0.27,0.091-0.497,0.271-0.683c0.181-0.188,0.405-0.279,0.675-0.279
	c0.269,0,0.493,0.093,0.675,0.28c0.183,0.187,0.273,0.413,0.273,0.682S566.362,844.867,566.182,845.053 M565.006,844.899
	c0.137,0.138,0.303,0.206,0.5,0.206c0.198,0,0.365-0.068,0.501-0.206c0.136-0.14,0.205-0.314,0.205-0.529
	c0-0.214-0.069-0.39-0.205-0.529c-0.136-0.138-0.303-0.207-0.501-0.207c-0.197,0-0.363,0.069-0.5,0.207
	c-0.137,0.141-0.205,0.315-0.205,0.529C564.801,844.585,564.869,844.761,565.006,844.899"/>
<path fill="#FFFFFF" d="M566.182,845.053l-0.021-0.021c-0.177,0.181-0.393,0.27-0.654,0.27s-0.478-0.089-0.653-0.27v-0.001v0.001
	c-0.175-0.182-0.262-0.399-0.263-0.662c0.001-0.262,0.088-0.481,0.263-0.662c0.177-0.18,0.393-0.269,0.653-0.271
	c0.261,0.002,0.477,0.091,0.652,0.271s0.265,0.399,0.265,0.66c0,0.263-0.087,0.48-0.263,0.662l0.044,0.043
	c0.187-0.191,0.28-0.43,0.279-0.705c0.001-0.274-0.095-0.511-0.28-0.703c-0.188-0.192-0.423-0.29-0.697-0.29
	c-0.276,0-0.512,0.098-0.697,0.289c-0.185,0.19-0.279,0.428-0.279,0.704c0,0.275,0.095,0.514,0.279,0.705
	c0.187,0.191,0.421,0.289,0.697,0.288c0.277,0.001,0.512-0.097,0.698-0.288L566.182,845.053 M565.006,844.899l-0.021,0.021
	c0.143,0.146,0.317,0.217,0.521,0.217c0.205,0,0.382-0.072,0.522-0.217c0.143-0.143,0.214-0.329,0.214-0.55s-0.071-0.407-0.214-0.55
	c-0.142-0.146-0.317-0.217-0.522-0.217c-0.204,0-0.38,0.071-0.521,0.217c-0.143,0.143-0.215,0.329-0.213,0.55
	c-0.002,0.221,0.07,0.407,0.213,0.55l0.044-0.043c-0.13-0.132-0.195-0.299-0.195-0.507s0.065-0.375,0.195-0.507
	c0.131-0.134,0.288-0.198,0.479-0.198c0.191,0,0.349,0.064,0.479,0.198h0.001h-0.001c0.131,0.132,0.195,0.299,0.195,0.507
	s-0.064,0.375-0.195,0.507c-0.131,0.133-0.288,0.198-0.479,0.198c-0.19,0-0.348-0.065-0.479-0.198L565.006,844.899z"/>
<polygon fill="#FFFFFF" points="566.785,845.292 566.785,843.448 567.073,843.448 567.97,844.883 567.979,844.883 567.97,844.527 
	567.97,843.448 568.207,843.448 568.207,845.292 567.96,845.292 567.021,843.788 567.013,843.788 567.021,844.144 567.021,845.292 
	"/>
<path fill="#FFFFFF" d="M568.629,843.448h0.236v1.844h-0.236V843.448z M566.785,845.292h0.031v-1.812h0.239l0.896,1.434h0.059
	L568,844.527v-1.047h0.175v1.78h-0.199l-0.938-1.503h-0.06l0.012,0.387v1.116h-0.206L566.785,845.292h0.03H566.785v0.03h0.268v-1.18
	l-0.01-0.354h-0.03v0.031h0.011v-0.031l-0.026,0.017l0.945,1.519h0.295v-1.903h-0.298v1.108l0.01,0.355l0.031-0.001v-0.031h-0.011
	v0.031l0.026-0.017l-0.905-1.447h-0.336v1.903h0.03V845.292z"/>
<polygon fill="#FFFFFF" points="568.628,845.292 568.659,845.292 568.659,843.479 568.834,843.479 568.834,845.261 568.628,845.261 
	568.628,845.292 568.659,845.292 568.628,845.292 568.628,845.322 568.896,845.322 568.896,843.419 568.598,843.419 
	568.598,845.322 568.628,845.322 "/>
<path fill="#FFFFFF" d="M569.287,845.291v-1.842h0.666c0.145,0,0.27,0.047,0.375,0.142c0.104,0.098,0.158,0.217,0.158,0.359
	c0,0.088-0.023,0.165-0.068,0.231c-0.046,0.066-0.104,0.117-0.182,0.151v0.01c0.091,0.031,0.166,0.084,0.224,0.16
	c0.06,0.075,0.087,0.163,0.087,0.263c0,0.15-0.055,0.275-0.166,0.376c-0.109,0.1-0.24,0.148-0.392,0.148L569.287,845.291
	 M569.523,844.239h0.43c0.089,0,0.161-0.03,0.215-0.089c0.055-0.061,0.081-0.124,0.081-0.194c0-0.071-0.026-0.135-0.079-0.192
	c-0.052-0.059-0.121-0.089-0.207-0.089h-0.438L569.523,844.239L569.523,844.239z M569.523,845.065h0.476
	c0.091,0,0.165-0.032,0.222-0.098c0.058-0.062,0.084-0.132,0.084-0.208c0-0.074-0.026-0.144-0.087-0.206
	c-0.058-0.062-0.135-0.095-0.229-0.095h-0.466V845.065z"/>
<path fill="#FFFFFF" d="M569.287,845.291h0.031v-1.812h0.635c0.137,0.002,0.253,0.046,0.354,0.136c0.1,0.091,0.147,0.2,0.147,0.336
	c0,0.083-0.021,0.153-0.062,0.215c-0.042,0.062-0.099,0.109-0.17,0.142l-0.018,0.009v0.052l0.021,0.007
	c0.086,0.03,0.154,0.079,0.21,0.15v-0.001c0.055,0.069,0.081,0.149,0.081,0.244c-0.001,0.144-0.053,0.259-0.155,0.353
	c-0.106,0.095-0.229,0.141-0.372,0.142h-0.702L569.287,845.291h0.03H569.287v0.031h0.702c0.158,0,0.297-0.053,0.413-0.157
	c0.117-0.104,0.176-0.24,0.176-0.398c0-0.104-0.031-0.199-0.094-0.28c-0.062-0.08-0.144-0.138-0.238-0.17l-0.01,0.027h0.029v-0.01
	h-0.029l0.013,0.028c0.08-0.037,0.146-0.091,0.194-0.163c0.049-0.072,0.072-0.156,0.072-0.249c0.001-0.151-0.057-0.281-0.169-0.381
	v-0.001v0.001c-0.108-0.102-0.242-0.151-0.395-0.151h-0.697v1.904h0.031L569.287,845.291 M569.523,844.239v0.03h0.43
	c0.096,0,0.178-0.032,0.238-0.1c0.058-0.062,0.089-0.137,0.088-0.215c0.001-0.078-0.029-0.15-0.086-0.214
	c-0.058-0.065-0.138-0.099-0.23-0.099h-0.471v0.625h0.031V844.239h0.03v-0.533h0.408c0.079,0,0.139,0.026,0.187,0.077
	c0.048,0.054,0.068,0.109,0.068,0.173c0,0.062-0.021,0.118-0.072,0.173c-0.048,0.054-0.108,0.079-0.191,0.079h-0.43V844.239h0.03
	H569.523z M569.523,845.065v0.03h0.476c0.099,0,0.184-0.036,0.244-0.105c0.062-0.068,0.093-0.146,0.093-0.229
	c0-0.084-0.033-0.16-0.096-0.228c-0.062-0.069-0.15-0.104-0.251-0.104h-0.497v0.667h0.031V845.065h0.03v-0.574h0.436
	c0.088,0,0.153,0.028,0.207,0.084c0.054,0.058,0.078,0.119,0.079,0.186c0,0.068-0.025,0.13-0.077,0.188
	c-0.052,0.057-0.115,0.085-0.199,0.085h-0.476V845.065h0.03H569.523z"/>
<polygon fill="#FFFFFF" points="570.867,845.292 570.867,843.448 571.104,843.448 571.104,845.065 571.901,845.065 571.901,845.292 
	"/>
<polygon fill="#FFFFFF" points="570.867,845.292 570.896,845.292 570.896,843.479 571.072,843.479 571.072,845.096 571.871,845.096 
	571.871,845.261 570.867,845.261 570.867,845.292 570.896,845.292 570.867,845.292 570.867,845.322 571.932,845.322 
	571.932,845.034 571.135,845.034 571.135,843.419 570.836,843.419 570.836,845.322 570.867,845.322 "/>
<polygon fill="#FFFFFF" points="573.275,843.675 572.438,843.675 572.438,844.259 573.193,844.259 573.193,844.481 572.438,844.481 
	572.438,845.065 573.275,845.065 573.275,845.291 572.199,845.291 572.199,843.449 573.275,843.449 "/>
<polygon fill="#FFFFFF" points="573.275,843.675 573.275,843.645 572.405,843.645 572.405,844.29 573.162,844.29 573.162,844.45 
	572.405,844.45 572.405,845.097 573.246,845.097 573.246,845.261 572.23,845.261 572.23,843.479 573.246,843.479 573.246,843.675 
	573.275,843.675 573.275,843.645 573.275,843.675 573.307,843.675 573.307,843.418 572.17,843.418 572.17,845.322 573.307,845.322 
	573.307,845.034 572.468,845.034 572.468,844.511 573.224,844.511 573.224,844.229 572.468,844.229 572.468,843.706 
	573.307,843.706 573.307,843.675 "/>
<path fill="#FFFFFF" d="M574.706,845.333c-0.134,0-0.264-0.043-0.392-0.132c-0.129-0.088-0.213-0.21-0.252-0.367l0.217-0.087
	c0.025,0.101,0.078,0.186,0.158,0.255c0.079,0.069,0.17,0.104,0.269,0.104c0.104,0,0.19-0.025,0.265-0.08
	c0.072-0.055,0.108-0.128,0.108-0.222c0-0.103-0.036-0.182-0.108-0.236c-0.072-0.057-0.188-0.107-0.347-0.155
	c-0.163-0.053-0.287-0.118-0.371-0.2c-0.084-0.081-0.126-0.186-0.126-0.312c0-0.133,0.054-0.247,0.157-0.346
	c0.104-0.098,0.241-0.146,0.409-0.146c0.155,0,0.283,0.039,0.381,0.117c0.098,0.079,0.161,0.164,0.19,0.256l-0.217,0.091
	c-0.016-0.059-0.054-0.112-0.114-0.162c-0.062-0.05-0.141-0.074-0.235-0.074c-0.091,0-0.168,0.024-0.231,0.076
	c-0.064,0.05-0.098,0.112-0.098,0.188c0,0.067,0.03,0.126,0.089,0.173c0.06,0.049,0.146,0.091,0.261,0.128
	c0.092,0.028,0.168,0.058,0.229,0.085c0.061,0.027,0.123,0.063,0.186,0.109s0.109,0.103,0.143,0.17
	c0.03,0.067,0.047,0.146,0.047,0.234c0,0.09-0.019,0.17-0.056,0.24c-0.037,0.069-0.086,0.126-0.146,0.167
	c-0.062,0.041-0.126,0.071-0.197,0.094C574.854,845.321,574.78,845.333,574.706,845.333"/>
<path fill="#FFFFFF" d="M574.706,845.333v-0.031c-0.127,0-0.251-0.041-0.375-0.125c-0.122-0.084-0.201-0.198-0.239-0.352
	l-0.027,0.009l0.011,0.027l0.217-0.087l-0.012-0.027l-0.03,0.007c0.027,0.106,0.084,0.197,0.168,0.271h0.001h-0.001
	c0.084,0.072,0.183,0.11,0.289,0.11c0.107,0,0.204-0.027,0.282-0.087c0.08-0.059,0.122-0.145,0.122-0.245
	c0-0.108-0.041-0.2-0.121-0.262c-0.078-0.06-0.196-0.112-0.356-0.161c-0.159-0.05-0.278-0.115-0.356-0.191s-0.117-0.17-0.117-0.29
	c0-0.124,0.047-0.229,0.146-0.323c0.1-0.091,0.227-0.138,0.389-0.138c0.151,0,0.27,0.036,0.361,0.109
	c0.094,0.076,0.152,0.156,0.181,0.242l0.029-0.011l-0.013-0.027l-0.216,0.09l0.012,0.028l0.029-0.009
	c-0.018-0.064-0.061-0.125-0.125-0.177c-0.066-0.056-0.152-0.082-0.255-0.082c-0.097,0-0.183,0.026-0.251,0.082
	c-0.071,0.055-0.109,0.129-0.109,0.214c0,0.078,0.036,0.146,0.103,0.196v0.001c0.062,0.051,0.151,0.095,0.27,0.133h0.001
	c0.091,0.028,0.165,0.058,0.226,0.084c0.059,0.025,0.118,0.062,0.18,0.105c0.058,0.042,0.103,0.095,0.132,0.157
	s0.044,0.138,0.044,0.223s-0.017,0.16-0.051,0.226c-0.035,0.066-0.081,0.117-0.138,0.156c-0.06,0.039-0.12,0.069-0.188,0.091
	c-0.066,0.021-0.136,0.029-0.207,0.029v0.062c0.077,0,0.152-0.011,0.226-0.033c0.074-0.022,0.143-0.056,0.205-0.099
	c0.065-0.044,0.117-0.104,0.156-0.179s0.06-0.159,0.06-0.254c0-0.092-0.018-0.176-0.052-0.248c-0.033-0.071-0.084-0.134-0.149-0.183
	h-0.001h0.001c-0.064-0.046-0.127-0.084-0.19-0.111c-0.062-0.028-0.14-0.058-0.229-0.086c-0.113-0.037-0.197-0.079-0.252-0.123
	c-0.055-0.043-0.077-0.09-0.077-0.148c0-0.066,0.024-0.119,0.085-0.165c0.058-0.046,0.128-0.068,0.213-0.068
	c0.091,0,0.162,0.022,0.216,0.066c0.059,0.047,0.091,0.097,0.104,0.146l0.01,0.034l0.248-0.104l0.025-0.012l-0.009-0.026
	c-0.031-0.101-0.1-0.189-0.2-0.271c-0.104-0.083-0.238-0.124-0.399-0.123c-0.175-0.001-0.319,0.051-0.431,0.154
	c-0.108,0.103-0.167,0.227-0.167,0.367c0,0.133,0.046,0.247,0.137,0.334c0.089,0.087,0.217,0.154,0.383,0.207
	c0.155,0.048,0.268,0.1,0.336,0.15c0.064,0.051,0.098,0.118,0.098,0.213c0,0.086-0.031,0.146-0.097,0.196
	c-0.067,0.05-0.147,0.074-0.246,0.074c-0.092,0-0.173-0.031-0.249-0.097c-0.074-0.064-0.124-0.146-0.147-0.24l-0.009-0.033
	l-0.248,0.1l-0.025,0.011l0.007,0.025c0.041,0.164,0.129,0.295,0.263,0.386c0.133,0.091,0.271,0.138,0.41,0.138v-0.027"/>
<path fill="#FFFFFF" d="M576.303,845.333c-0.203,0-0.367-0.067-0.494-0.201c-0.125-0.133-0.188-0.309-0.188-0.524v-1.158h0.236
	v1.169c0,0.146,0.037,0.264,0.113,0.354c0.076,0.091,0.188,0.134,0.332,0.134c0.144,0,0.254-0.044,0.329-0.134
	c0.077-0.091,0.115-0.209,0.115-0.354v-1.169h0.236v1.158c0,0.218-0.062,0.395-0.186,0.525
	C576.678,845.267,576.51,845.333,576.303,845.333"/>
<path fill="#FFFFFF" d="M576.303,845.333v-0.031c-0.197,0-0.351-0.062-0.472-0.19c-0.12-0.127-0.18-0.293-0.18-0.504v-1.127h0.174
	v1.138c0,0.15,0.04,0.276,0.122,0.374c0.083,0.098,0.204,0.146,0.354,0.146c0.149,0.001,0.271-0.048,0.354-0.146
	c0.083-0.098,0.122-0.224,0.122-0.374v-1.138h0.176v1.127c0,0.213-0.061,0.379-0.176,0.506c-0.117,0.126-0.273,0.188-0.476,0.188
	v0.062c0.216,0,0.392-0.069,0.521-0.21c0.129-0.14,0.19-0.322,0.19-0.547v-1.188h-0.298v1.198c0,0.142-0.036,0.25-0.106,0.334
	c-0.069,0.082-0.168,0.123-0.307,0.124c-0.14-0.001-0.237-0.042-0.309-0.124c-0.071-0.084-0.107-0.192-0.107-0.334v-1.198h-0.298
	v1.188c0,0.223,0.065,0.406,0.197,0.546c0.132,0.141,0.306,0.211,0.517,0.211L576.303,845.333"/>
<path fill="#FFFFFF" d="M577.365,845.292v-1.843h0.628c0.155,0,0.291,0.052,0.405,0.154c0.112,0.104,0.171,0.234,0.171,0.394
	c0,0.129-0.042,0.243-0.127,0.341c-0.083,0.1-0.188,0.161-0.313,0.188l-0.006,0.007l0.519,0.749v0.011h-0.28l-0.496-0.747h-0.264
	v0.747L577.365,845.292 M577.602,844.324h0.382c0.094,0,0.175-0.031,0.242-0.094c0.067-0.062,0.103-0.141,0.103-0.233
	c0-0.081-0.03-0.154-0.09-0.221c-0.061-0.067-0.141-0.103-0.24-0.103h-0.396V844.324L577.602,844.324z"/>
<path fill="#FFFFFF" d="M577.365,845.292h0.029v-1.812h0.599c0.148,0,0.274,0.05,0.384,0.147c0.108,0.098,0.161,0.219,0.161,0.369
	c0,0.122-0.039,0.227-0.119,0.321c-0.08,0.094-0.178,0.15-0.297,0.177l-0.012,0.002l-0.014,0.018l-0.012,0.02l0.524,0.758v0.001
	h0.03v-0.031h-0.265l-0.497-0.746h-0.309v0.746h-0.206v0.03h0.029H577.365v0.03h0.267v-0.746h0.216l0.496,0.746h0.327v-0.051
	l-0.521-0.758l-0.026,0.019l0.026,0.017l0.005-0.007l-0.025-0.017l0.006,0.028c0.132-0.025,0.243-0.094,0.331-0.195
	c0.089-0.104,0.135-0.227,0.134-0.361c0.001-0.165-0.061-0.308-0.182-0.415c-0.119-0.109-0.263-0.164-0.425-0.164h-0.659v1.904
	h0.031L577.365,845.292 M577.602,844.324v0.029h0.382c0.101,0,0.189-0.032,0.264-0.101c0.074-0.067,0.112-0.155,0.111-0.257
	c0.001-0.088-0.033-0.17-0.099-0.241c-0.064-0.074-0.155-0.112-0.263-0.111h-0.426v0.71h0.029L577.602,844.324h0.029v-0.618h0.365
	c0.093,0.001,0.162,0.03,0.217,0.09c0.057,0.063,0.082,0.128,0.082,0.201c0,0.087-0.029,0.155-0.092,0.212
	c-0.062,0.056-0.134,0.084-0.223,0.084H577.6v0.031h0.03H577.602z"/>
<g>
	<path d="M494.29,830.183h-1.384v-0.43h3.238v0.43h-1.385v3.693h-0.471L494.29,830.183L494.29,830.183z"/>
	<path d="M497.019,829.753h2.98v0.424h-2.515v1.408h2.25v0.424h-2.25v1.443h2.544v0.424h-3.011L497.019,829.753L497.019,829.753z
		 M498.744,828.534l0.472,0.218l-0.666,0.636h-0.365L498.744,828.534z"/>
	<path d="M500.966,829.753h0.466v3.693h2.32v0.43h-2.786V829.753z"/>
	<path d="M504.613,829.753h2.979v0.424h-2.515v1.408h2.249v0.424h-2.249v1.443h2.544v0.424h-3.01L504.613,829.753L504.613,829.753z
		 M506.339,828.534l0.472,0.218l-0.666,0.636h-0.364L506.339,828.534z"/>
	<path d="M508.378,831.826v-0.012c0-1.166,0.872-2.133,2.085-2.133c0.748,0,1.196,0.266,1.608,0.653l-0.318,0.342
		c-0.348-0.33-0.736-0.564-1.296-0.564c-0.913,0-1.596,0.741-1.596,1.689v0.013c0,0.953,0.688,1.701,1.596,1.701
		c0.565,0,0.937-0.218,1.331-0.595l0.307,0.301c-0.43,0.437-0.9,0.725-1.648,0.725C509.256,833.946,508.378,833.01,508.378,831.826z
		"/>
	<path d="M512.909,829.753h0.466v1.832h2.379v-1.832h0.466v4.123h-0.466v-1.854h-2.379v1.854h-0.466V829.753z"/>
	<path d="M518.912,829.724h0.436l1.879,4.152h-0.5l-0.482-1.09H518l-0.488,1.09h-0.478L518.912,829.724z M520.061,832.368
		l-0.937-2.104l-0.942,2.104H520.061z"/>
	<path d="M522.041,829.753h1.773c0.506,0,0.911,0.153,1.172,0.412c0.199,0.2,0.316,0.489,0.316,0.812v0.013
		c0,0.683-0.471,1.083-1.119,1.201l1.268,1.685h-0.571l-1.194-1.603h-0.013h-1.166v1.603h-0.466V829.753z M523.771,831.855
		c0.619,0,1.062-0.317,1.062-0.849v-0.012c0-0.507-0.389-0.813-1.055-0.813h-1.271v1.673L523.771,831.855L523.771,831.855z"/>
	<path d="M526.118,831.826v-0.012c0-1.132,0.831-2.133,2.066-2.133c0.695,0,1.125,0.2,1.537,0.548l-0.3,0.354
		c-0.318-0.277-0.672-0.472-1.255-0.472c-0.913,0-1.566,0.771-1.566,1.689v0.013c0,0.982,0.631,1.714,1.632,1.714
		c0.472,0,0.906-0.184,1.189-0.412v-1.024h-1.255v-0.419h1.702v1.645c-0.383,0.342-0.96,0.63-1.655,0.63
		C526.919,833.946,526.118,833.004,526.118,831.826z"/>
	<path d="M530.92,829.753h2.98v0.424h-2.516v1.408h2.249v0.424h-2.249v1.443h2.544v0.424h-3.01L530.92,829.753L530.92,829.753z"/>
	<path d="M534.68,833.562l2.668-3.393h-2.578v-0.418h3.216v0.312l-2.675,3.393h2.675v0.418h-3.306V833.562L534.68,833.562z"/>
	<path d="M540.53,831.826v-0.012c0-1.132,0.831-2.133,2.066-2.133c0.695,0,1.125,0.2,1.537,0.548l-0.3,0.354
		c-0.318-0.277-0.672-0.472-1.255-0.472c-0.913,0-1.566,0.771-1.566,1.689v0.013c0,0.982,0.63,1.714,1.632,1.714
		c0.472,0,0.906-0.184,1.189-0.412v-1.024h-1.255v-0.419h1.702v1.645c-0.383,0.342-0.96,0.63-1.655,0.63
		C541.331,833.946,540.53,833.004,540.53,831.826z"/>
	<path d="M545.332,829.753h1.773c0.506,0,0.911,0.153,1.172,0.412c0.199,0.2,0.316,0.489,0.316,0.812v0.013
		c0,0.683-0.471,1.083-1.119,1.201l1.268,1.685h-0.571l-1.195-1.603h-0.012h-1.166v1.603h-0.466V829.753z M547.062,831.855
		c0.619,0,1.062-0.317,1.062-0.849v-0.012c0-0.507-0.389-0.813-1.055-0.813h-1.271v1.673L547.062,831.855L547.062,831.855z"/>
	<path d="M551.117,829.724h0.436l1.879,4.152h-0.5l-0.482-1.09h-2.244l-0.488,1.09h-0.478L551.117,829.724z M552.266,832.368
		l-0.937-2.104l-0.942,2.104H552.266z"/>
	<path d="M554.812,830.183h-1.385v-0.43h3.239v0.43h-1.385v3.693h-0.472v-3.693H554.812z"/>
	<path d="M557.476,832.15v-2.397h0.466v2.368c0,0.889,0.472,1.39,1.261,1.39c0.76,0,1.242-0.459,1.242-1.359v-2.397h0.466v2.362
		c0,1.201-0.689,1.825-1.72,1.825C558.17,833.94,557.476,833.316,557.476,832.15z"/>
	<path d="M562.053,829.753h0.466v4.123h-0.466V829.753z"/>
	<path d="M564.816,830.183h-1.385v-0.43h3.239v0.43h-1.385v3.693h-0.471L564.816,830.183L564.816,830.183z"/>
	<path d="M567.545,829.753h2.98v0.424h-2.516v1.408h2.249v0.424h-2.249v1.443h2.544v0.424h-3.01L567.545,829.753L567.545,829.753z"
		/>
	<path d="M571.492,829.753h0.472l1.502,2.25l1.502-2.25h0.472v4.123h-0.466v-3.34l-1.502,2.209h-0.023l-1.502-2.203v3.334h-0.453
		L571.492,829.753L571.492,829.753z"/>
	<path d="M576.606,829.753h2.979v0.424h-2.515v1.408h2.25v0.424h-2.25v1.443h2.544v0.424h-3.01L576.606,829.753L576.606,829.753z"/>
	<path d="M580.554,829.753h0.437l2.598,3.305v-3.305h0.454v4.123h-0.371l-2.662-3.381v3.381h-0.454L580.554,829.753L580.554,829.753
		z"/>
	<path d="M586.299,830.183h-1.384v-0.43h3.239v0.43h-1.385v3.693h-0.472L586.299,830.183L586.299,830.183z"/>
</g>
</svg>
