<?xml version="1.0" encoding="utf-8"?>
<!-- Generator: Adobe Illustrator 15.1.0, SVG Export Plug-In . SVG Version: 6.00 Build 0)  -->
<!DOCTYPE svg PUBLIC "-//W3C//DTD SVG 1.1//EN" "http://www.w3.org/Graphics/SVG/1.1/DTD/svg11.dtd">
<svg version="1.1" id="Calque_1" xmlns="http://www.w3.org/2000/svg" xmlns:xlink="http://www.w3.org/1999/xlink" x="0px" y="0px"
	 width="42.501px" height="13.188px" viewBox="0 0 42.501 13.188" enable-background="new 0 0 42.501 13.188" xml:space="preserve">
<g>
	<path fill="#979693" d="M40.515,12.839H1.984c-0.801,0-1.462-0.653-1.462-1.454V2.007c0-0.8,0.661-1.452,1.462-1.452h38.53
		c0.8,0,1.465,0.652,1.465,1.452v9.378C41.979,12.186,41.314,12.839,40.515,12.839"/>
	<path d="M41.682,11.386c0,0.649-0.525,1.176-1.177,1.176H1.975c-0.65,0-1.179-0.526-1.179-1.176V2.007
		c0-0.65,0.528-1.179,1.179-1.179h38.529c0.652,0,1.178,0.528,1.178,1.179V11.386z"/>
	<path fill="#FFFFFF" d="M9.784,6.631c-0.009-0.99,0.81-1.472,0.848-1.494c-0.464-0.676-1.183-0.77-1.436-0.776
		c-0.604-0.062-1.19,0.361-1.498,0.361c-0.314,0-0.788-0.355-1.298-0.344c-0.657,0.01-1.272,0.39-1.609,0.98
		c-0.696,1.205-0.177,2.975,0.49,3.949c0.333,0.477,0.723,1.009,1.232,0.991c0.499-0.021,0.686-0.319,1.287-0.319
		c0.598,0,0.772,0.319,1.292,0.307c0.536-0.009,0.873-0.479,1.195-0.961c0.385-0.546,0.54-1.085,0.546-1.111
		C10.822,8.208,9.794,7.817,9.784,6.631"/>
	<path fill="#FFFFFF" d="M14.396,10.23h-0.598V6.312h0.598V10.23z M8.801,3.72c0.269-0.336,0.452-0.792,0.401-1.256
		c-0.389,0.018-0.874,0.27-1.154,0.598c-0.247,0.289-0.469,0.764-0.41,1.21C8.073,4.303,8.521,4.05,8.801,3.72"/>
	<path fill="#FFFFFF" d="M15.954,6.404c-0.158,0.557-0.346,1.013-0.564,1.371l-0.37,0.038c0.162-0.442,0.278-0.893,0.349-1.354
		L15.954,6.404z"/>
	<path fill="#FFFFFF" d="M18.878,10.229h-0.636l-0.348-1.095h-1.211l-0.332,1.095h-0.618l1.198-3.726h0.741L18.878,10.229z
		 M17.789,8.676l-0.315-0.973c-0.032-0.099-0.096-0.333-0.188-0.702h-0.011c-0.037,0.159-0.097,0.394-0.178,0.702l-0.309,0.973
		H17.789z"/>
	<path fill="#FFFFFF" d="M21.962,8.854c0,0.457-0.124,0.817-0.371,1.083c-0.221,0.235-0.495,0.354-0.822,0.354
		c-0.354,0-0.608-0.127-0.764-0.381h-0.011v1.415h-0.597V8.428c0-0.287-0.007-0.582-0.022-0.885H19.9l0.033,0.427h0.011
		c0.199-0.321,0.501-0.481,0.907-0.481c0.316,0,0.581,0.125,0.793,0.375C21.856,8.114,21.962,8.444,21.962,8.854 M21.354,8.875
		c0-0.262-0.06-0.477-0.177-0.646c-0.13-0.178-0.303-0.266-0.52-0.266c-0.148,0-0.282,0.05-0.401,0.147
		c-0.12,0.097-0.197,0.225-0.234,0.384c-0.02,0.073-0.028,0.134-0.028,0.182v0.448c0,0.195,0.061,0.36,0.18,0.494
		c0.119,0.135,0.275,0.202,0.468,0.202c0.225,0,0.399-0.086,0.524-0.259C21.291,9.388,21.354,9.159,21.354,8.875"/>
	<path fill="#FFFFFF" d="M25.052,8.854c0,0.457-0.122,0.817-0.369,1.083c-0.222,0.235-0.496,0.354-0.824,0.354
		c-0.354,0-0.608-0.127-0.764-0.381h-0.011v1.415h-0.597V8.428c0-0.287-0.007-0.582-0.022-0.885h0.525l0.033,0.427h0.012
		c0.199-0.321,0.5-0.481,0.906-0.481c0.316,0,0.581,0.125,0.793,0.375C24.946,8.114,25.052,8.444,25.052,8.854 M24.444,8.875
		c0-0.262-0.06-0.477-0.177-0.646c-0.129-0.178-0.303-0.266-0.52-0.266c-0.147,0-0.282,0.05-0.4,0.147
		c-0.12,0.097-0.199,0.225-0.235,0.384c-0.02,0.073-0.028,0.134-0.028,0.182v0.448c0,0.195,0.061,0.36,0.18,0.494
		c0.12,0.135,0.276,0.202,0.468,0.202c0.225,0,0.399-0.086,0.524-0.259C24.381,9.388,24.444,9.159,24.444,8.875"/>
	<path fill="#FFFFFF" d="M28.507,9.186c0,0.316-0.11,0.574-0.33,0.773c-0.243,0.217-0.582,0.326-1.016,0.326
		c-0.401,0-0.723-0.078-0.966-0.232l0.138-0.498c0.263,0.159,0.55,0.238,0.863,0.238c0.224,0,0.4-0.051,0.525-0.152
		s0.188-0.237,0.188-0.406c0-0.152-0.051-0.279-0.154-0.382c-0.104-0.104-0.274-0.2-0.515-0.288
		c-0.651-0.244-0.978-0.601-0.978-1.069c0-0.306,0.114-0.557,0.343-0.753c0.228-0.195,0.532-0.293,0.912-0.293
		c0.339,0,0.621,0.059,0.846,0.177l-0.149,0.486c-0.21-0.114-0.448-0.171-0.714-0.171c-0.21,0-0.373,0.051-0.491,0.153
		c-0.1,0.093-0.149,0.205-0.149,0.338c0,0.147,0.057,0.269,0.172,0.364c0.099,0.089,0.279,0.186,0.541,0.288
		c0.32,0.129,0.557,0.28,0.707,0.453C28.431,8.711,28.507,8.927,28.507,9.186"/>
	<path fill="#FFFFFF" d="M30.479,7.991h-0.657v1.305c0,0.331,0.115,0.497,0.349,0.497c0.105,0,0.195-0.009,0.265-0.028l0.017,0.454
		c-0.117,0.044-0.272,0.066-0.464,0.066c-0.236,0-0.421-0.072-0.553-0.216c-0.133-0.144-0.199-0.386-0.199-0.725V7.991h-0.393V7.543
		h0.393V7.051l0.586-0.177v0.669h0.657V7.991z"/>
	<path fill="#FFFFFF" d="M33.448,8.864c0,0.412-0.118,0.751-0.354,1.018c-0.247,0.271-0.574,0.409-0.983,0.409
		c-0.395,0-0.708-0.132-0.942-0.394c-0.234-0.261-0.351-0.591-0.351-0.989c0-0.417,0.12-0.757,0.361-1.022
		c0.241-0.265,0.566-0.398,0.976-0.398c0.395,0,0.712,0.132,0.951,0.394C33.334,8.135,33.448,8.463,33.448,8.864 M32.829,8.884
		c0-0.248-0.053-0.46-0.161-0.638c-0.125-0.215-0.303-0.321-0.536-0.321c-0.239,0-0.421,0.106-0.547,0.321
		c-0.106,0.178-0.16,0.394-0.16,0.648c0,0.248,0.054,0.46,0.16,0.637c0.129,0.216,0.311,0.322,0.542,0.322
		c0.229,0,0.407-0.108,0.536-0.327C32.773,9.346,32.829,9.131,32.829,8.884"/>
	<path fill="#FFFFFF" d="M35.388,8.068c-0.059-0.011-0.121-0.016-0.188-0.016c-0.209,0-0.371,0.078-0.485,0.236
		c-0.101,0.141-0.149,0.317-0.149,0.531v1.409h-0.597l0.005-1.84c0-0.311-0.007-0.593-0.021-0.847h0.52l0.022,0.515h0.016
		c0.062-0.178,0.162-0.319,0.299-0.427c0.133-0.095,0.277-0.143,0.431-0.143c0.056,0,0.105,0.003,0.149,0.011V8.068z"/>
	<path fill="#FFFFFF" d="M38.058,8.76c0,0.106-0.008,0.196-0.021,0.271h-1.791c0.007,0.266,0.094,0.468,0.26,0.608
		c0.151,0.125,0.346,0.187,0.586,0.187c0.265,0,0.506-0.042,0.724-0.126l0.095,0.414c-0.254,0.111-0.556,0.166-0.901,0.166
		c-0.417,0-0.744-0.122-0.98-0.368c-0.238-0.245-0.357-0.573-0.357-0.985c0-0.406,0.111-0.743,0.331-1.013
		c0.233-0.288,0.546-0.431,0.939-0.431c0.388,0,0.682,0.143,0.881,0.431C37.979,8.143,38.058,8.424,38.058,8.76 M37.489,8.604
		c0.004-0.177-0.035-0.33-0.116-0.459c-0.104-0.166-0.262-0.248-0.477-0.248c-0.194,0-0.353,0.081-0.475,0.242
		c-0.1,0.13-0.158,0.284-0.177,0.465H37.489z"/>
	<polygon fill="#FFFFFF" points="15.214,2.943 14.639,2.943 14.639,4.681 14.316,4.681 14.316,2.943 13.745,2.943 13.745,2.673 
		15.214,2.673 	"/>
	<path fill="#FFFFFF" d="M17.582,4.681H17.26V2.569h0.322V4.681z M16.793,3.888c0,0.059-0.004,0.106-0.013,0.146h-0.965
		c0.004,0.143,0.05,0.252,0.14,0.328c0.082,0.066,0.187,0.101,0.315,0.101c0.144,0,0.273-0.022,0.392-0.069l0.05,0.225
		c-0.138,0.059-0.299,0.089-0.485,0.089c-0.225,0-0.401-0.066-0.529-0.198S15.506,4.2,15.506,3.977c0-0.218,0.059-0.399,0.179-0.545
		C15.81,3.277,15.978,3.2,16.19,3.2c0.208,0,0.366,0.077,0.474,0.231C16.75,3.555,16.793,3.707,16.793,3.888 M16.485,3.805
		c0.002-0.096-0.019-0.178-0.062-0.248c-0.057-0.089-0.142-0.134-0.256-0.134c-0.105,0-0.191,0.044-0.257,0.131
		c-0.054,0.07-0.085,0.153-0.095,0.251H16.485z M16.616,2.625l-0.359,0.432h-0.225l0.26-0.432H16.616z"/>
	<path fill="#FFFFFF" d="M19.346,3.888c0,0.059-0.005,0.106-0.013,0.146h-0.965c0.004,0.143,0.05,0.252,0.139,0.328
		c0.082,0.066,0.188,0.101,0.316,0.101c0.143,0,0.273-0.022,0.391-0.069l0.051,0.225c-0.138,0.059-0.3,0.089-0.485,0.089
		c-0.225,0-0.401-0.066-0.529-0.198S18.059,4.2,18.059,3.977c0-0.218,0.059-0.399,0.179-0.545C18.362,3.277,18.53,3.2,18.743,3.2
		c0.208,0,0.366,0.077,0.473,0.231C19.303,3.555,19.346,3.707,19.346,3.888 M19.038,3.805c0.002-0.096-0.019-0.178-0.062-0.248
		c-0.057-0.089-0.142-0.134-0.256-0.134c-0.105,0-0.191,0.044-0.257,0.131c-0.054,0.07-0.085,0.153-0.095,0.251H19.038z
		 M19.169,2.625L18.81,3.057h-0.225l0.26-0.432H19.169z"/>
	<path fill="#FFFFFF" d="M20.846,3.271l-0.062,0.244c-0.082-0.039-0.175-0.06-0.281-0.06c-0.14,0-0.252,0.047-0.335,0.142
		c-0.082,0.094-0.123,0.214-0.123,0.358c0,0.153,0.043,0.274,0.129,0.363c0.087,0.09,0.196,0.134,0.329,0.134
		c0.1,0,0.197-0.019,0.292-0.059l0.045,0.241c-0.104,0.05-0.238,0.074-0.398,0.074c-0.222,0-0.396-0.066-0.527-0.2
		c-0.131-0.135-0.197-0.314-0.197-0.538c0-0.225,0.071-0.409,0.212-0.554c0.142-0.144,0.33-0.216,0.568-0.216
		C20.632,3.202,20.749,3.226,20.846,3.271"/>
	<path fill="#FFFFFF" d="M22.544,4.681h-0.321V3.857c0-0.26-0.098-0.39-0.293-0.39c-0.148,0-0.251,0.075-0.307,0.227
		c-0.01,0.031-0.015,0.07-0.015,0.115v0.871h-0.322V2.568h0.322v0.873h0.006c0.102-0.159,0.246-0.238,0.436-0.238
		c0.133,0,0.243,0.043,0.33,0.131c0.108,0.109,0.164,0.271,0.164,0.485V4.681z"/>
	<path fill="#FFFFFF" d="M24.194,4.68h-0.289l-0.024-0.166h-0.009c-0.099,0.133-0.24,0.199-0.423,0.199
		c-0.137,0-0.247-0.043-0.33-0.131c-0.076-0.079-0.114-0.179-0.114-0.295c0-0.177,0.074-0.312,0.222-0.405
		c0.148-0.093,0.357-0.139,0.625-0.137V3.718c0-0.19-0.101-0.286-0.301-0.286c-0.143,0-0.269,0.036-0.377,0.108l-0.065-0.212
		c0.135-0.083,0.301-0.125,0.497-0.125c0.379,0,0.567,0.199,0.567,0.599v0.533C24.173,4.479,24.18,4.595,24.194,4.68 M23.86,4.183
		V3.96c-0.355-0.006-0.533,0.091-0.533,0.292c0,0.075,0.021,0.132,0.062,0.169c0.042,0.038,0.095,0.057,0.157,0.057
		c0.071,0,0.138-0.021,0.197-0.066c0.061-0.045,0.098-0.103,0.112-0.171C23.858,4.224,23.86,4.205,23.86,4.183"/>
	<path fill="#FFFFFF" d="M25.502,3.516C25.47,3.51,25.437,3.507,25.4,3.507c-0.113,0-0.201,0.043-0.262,0.128
		c-0.054,0.076-0.081,0.171-0.081,0.286v0.76h-0.321l0.003-0.992c0-0.167-0.005-0.318-0.012-0.456h0.28L25.02,3.51h0.009
		c0.033-0.095,0.087-0.172,0.16-0.229c0.072-0.052,0.149-0.077,0.233-0.077c0.029,0,0.057,0.002,0.08,0.006V3.516z"/>
	<path fill="#FFFFFF" d="M27.182,3.232c-0.008,0.117-0.013,0.254-0.013,0.411v0.828c0,0.312-0.068,0.53-0.208,0.655
		C26.834,5.242,26.655,5.3,26.425,5.3c-0.2,0-0.362-0.038-0.485-0.113l0.074-0.247c0.121,0.073,0.259,0.11,0.411,0.11
		c0.284,0,0.427-0.153,0.427-0.459V4.45h-0.007c-0.089,0.147-0.23,0.222-0.426,0.222c-0.175,0-0.318-0.067-0.432-0.2
		s-0.169-0.302-0.169-0.506c0-0.233,0.064-0.42,0.195-0.563c0.121-0.133,0.27-0.199,0.444-0.199c0.196,0,0.337,0.076,0.423,0.229
		h0.005l0.013-0.199H27.182z M26.849,4.061V3.805c0-0.097-0.031-0.181-0.092-0.25c-0.061-0.07-0.141-0.105-0.24-0.105
		c-0.11,0-0.2,0.047-0.271,0.138c-0.071,0.092-0.106,0.214-0.106,0.367c0,0.139,0.033,0.251,0.1,0.336
		c0.066,0.094,0.16,0.14,0.278,0.14c0.071,0,0.136-0.021,0.192-0.064c0.058-0.042,0.098-0.1,0.121-0.174
		C26.842,4.155,26.849,4.112,26.849,4.061"/>
	<path fill="#FFFFFF" d="M28.933,3.888c0,0.058-0.004,0.106-0.012,0.146h-0.965c0.004,0.144,0.05,0.252,0.14,0.328
		c0.081,0.068,0.188,0.102,0.316,0.102c0.143,0,0.272-0.023,0.39-0.068l0.051,0.223c-0.138,0.061-0.299,0.091-0.485,0.091
		c-0.225,0-0.401-0.066-0.528-0.199c-0.129-0.132-0.192-0.31-0.192-0.531c0-0.219,0.06-0.4,0.179-0.545
		c0.125-0.155,0.294-0.233,0.507-0.233c0.208,0,0.366,0.078,0.473,0.233C28.891,3.556,28.933,3.708,28.933,3.888 M28.626,3.805
		c0.002-0.095-0.02-0.178-0.062-0.247c-0.056-0.09-0.141-0.134-0.256-0.134c-0.104,0-0.19,0.043-0.257,0.131
		c-0.053,0.069-0.085,0.153-0.095,0.25H28.626z"/>
	<path fill="#FFFFFF" d="M30.166,3.516c-0.032-0.006-0.064-0.009-0.101-0.009c-0.114,0-0.201,0.043-0.263,0.128
		c-0.054,0.076-0.08,0.171-0.08,0.286v0.76H29.4l0.003-0.992c0-0.167-0.004-0.318-0.011-0.456h0.278l0.013,0.277h0.009
		c0.034-0.095,0.088-0.172,0.161-0.229c0.071-0.052,0.148-0.077,0.232-0.077c0.029,0,0.057,0.002,0.08,0.006V3.516z"/>
	<path fill="#FFFFFF" d="M32.733,4.681h-0.286l-0.015-0.233h-0.009c-0.092,0.178-0.246,0.266-0.465,0.266
		c-0.175,0-0.319-0.068-0.435-0.205s-0.172-0.315-0.172-0.533c0-0.235,0.062-0.424,0.187-0.569c0.121-0.135,0.271-0.202,0.446-0.202
		c0.195,0,0.331,0.065,0.409,0.196H32.4V2.568h0.321V4.29C32.722,4.431,32.727,4.561,32.733,4.681 M32.4,4.069v-0.24
		c0-0.042-0.003-0.076-0.009-0.103c-0.019-0.077-0.058-0.142-0.117-0.195c-0.06-0.052-0.131-0.078-0.215-0.078
		c-0.12,0-0.214,0.048-0.283,0.143c-0.069,0.096-0.103,0.218-0.103,0.367c0,0.143,0.032,0.259,0.099,0.348
		c0.069,0.095,0.163,0.144,0.281,0.144c0.104,0,0.189-0.04,0.254-0.119C32.369,4.262,32.4,4.173,32.4,4.069"/>
	<path fill="#FFFFFF" d="M34.377,4.68h-0.288l-0.023-0.166h-0.009c-0.101,0.133-0.24,0.199-0.424,0.199
		c-0.137,0-0.246-0.043-0.33-0.131c-0.075-0.079-0.113-0.179-0.113-0.295c0-0.177,0.074-0.312,0.222-0.405
		c0.148-0.093,0.356-0.139,0.624-0.137V3.718c0-0.19-0.1-0.286-0.3-0.286c-0.144,0-0.269,0.036-0.378,0.108l-0.065-0.212
		c0.136-0.083,0.3-0.125,0.497-0.125c0.379,0,0.568,0.199,0.568,0.599v0.533C34.357,4.479,34.364,4.595,34.377,4.68 M34.044,4.183
		V3.96c-0.355-0.006-0.532,0.091-0.532,0.292c0,0.075,0.021,0.132,0.062,0.169c0.042,0.038,0.094,0.057,0.157,0.057
		c0.07,0,0.137-0.021,0.197-0.066c0.06-0.045,0.097-0.103,0.11-0.171C34.042,4.224,34.044,4.205,34.044,4.183"/>
	<path fill="#FFFFFF" d="M36.177,4.681h-0.321V3.852c0-0.256-0.098-0.384-0.293-0.384c-0.095,0-0.172,0.035-0.231,0.105
		s-0.089,0.153-0.089,0.248v0.859H34.92V3.646c0-0.127-0.004-0.266-0.012-0.414h0.283l0.015,0.227h0.009
		c0.037-0.07,0.093-0.129,0.167-0.175c0.087-0.054,0.185-0.081,0.291-0.081c0.136,0,0.248,0.043,0.338,0.131
		c0.11,0.107,0.166,0.268,0.166,0.479V4.681z"/>
	<path fill="#FFFFFF" d="M37.628,4.265c0,0.135-0.05,0.242-0.149,0.323c-0.099,0.081-0.235,0.122-0.41,0.122
		c-0.165,0-0.306-0.032-0.42-0.099l0.067-0.238c0.112,0.068,0.23,0.102,0.355,0.102c0.165,0,0.247-0.061,0.247-0.182
		c0-0.054-0.018-0.098-0.055-0.133c-0.036-0.035-0.099-0.069-0.189-0.103c-0.258-0.096-0.388-0.234-0.388-0.417
		c0-0.125,0.048-0.229,0.144-0.312c0.095-0.084,0.221-0.125,0.378-0.125c0.143,0,0.265,0.029,0.367,0.087l-0.069,0.231
		c-0.093-0.056-0.191-0.083-0.295-0.083c-0.068,0-0.12,0.016-0.158,0.047c-0.037,0.032-0.057,0.073-0.057,0.122
		c0,0.05,0.02,0.09,0.06,0.122c0.034,0.029,0.1,0.062,0.196,0.098C37.503,3.922,37.628,4.068,37.628,4.265"/>
</g>
</svg>
