<?xml version="1.0" encoding="utf-8"?>
<!-- Generator: Adobe Illustrator 15.1.0, SVG Export Plug-In . SVG Version: 6.00 Build 0)  -->
<!DOCTYPE svg PUBLIC "-//W3C//DTD SVG 1.1//EN" "http://www.w3.org/Graphics/SVG/1.1/DTD/svg11.dtd">
<svg version="1.1" id="Calque_1" xmlns="http://www.w3.org/2000/svg" xmlns:xlink="http://www.w3.org/1999/xlink" x="0px" y="0px"
	 width="26px" height="25.5px" viewBox="0 0 26 25.5" enable-background="new 0 0 26 25.5" xml:space="preserve">
<g>
	<g>
		<defs>
			<rect id="SVGID_1_" x="-587.5" y="-606.333" width="733" height="900"/>
		</defs>
		<clipPath id="SVGID_2_">
			<use xlink:href="#SVGID_1_"  overflow="visible"/>
		</clipPath>
	</g>
	<g>
		<defs>
			<rect id="SVGID_3_" x="-587.5" y="-606.333" width="733" height="900"/>
		</defs>
		<clipPath id="SVGID_4_">
			<use xlink:href="#SVGID_3_"  overflow="visible"/>
		</clipPath>
		<path clip-path="url(#SVGID_4_)" stroke="#000000" stroke-width="0.5" stroke-miterlimit="10" d="M23.984,1.679
			C23.271,0.983,22.33,0.6,21.318,0.6H4.421c-1.01,0-1.951,0.384-2.647,1.079C1.059,2.376,0.676,3.317,0.676,4.311v11.984
			c0,1.864,1.395,3.434,3.24,3.678v4.547c0,0.033,0,0.068,0.018,0.104l0.035,0.088c0.034,0.069,0.069,0.121,0.121,0.174l0.088,0.053
			l0.174,0.069c0.018,0,0.035,0,0.053,0.019H4.44c0.034,0,0.052,0,0.104-0.019l0.087-0.034c0.035-0.019,0.053-0.035,0.088-0.053
			l7.299-4.93h9.32c1.01,0,1.951-0.385,2.665-1.081c0.715-0.714,1.115-1.638,1.115-2.63V4.311C25.1,3.317,24.699,2.376,23.984,1.679
			 M24.072,16.365c-0.018,0.679-0.297,1.324-0.801,1.812c-0.523,0.507-1.222,0.802-1.953,0.802h-9.477c-0.035,0-0.069,0-0.122,0.019
			l-0.087,0.017c-0.035,0.019-0.069,0.035-0.087,0.053l-6.62,4.496v-4.061c0-0.277-0.227-0.505-0.506-0.505
			c-0.73,0-1.411-0.279-1.933-0.802c-0.505-0.506-0.803-1.186-0.803-1.899V4.311c0-0.714,0.279-1.395,0.803-1.899
			C3.01,1.906,3.69,1.627,4.421,1.627h16.897c0.731,0,1.43,0.279,1.953,0.784c0.521,0.505,0.801,1.186,0.801,1.899V16.365z"/>
	</g>
</g>
</svg>
