<?xml version="1.0" encoding="utf-8"?>
<!-- Generator: Adobe Illustrator 15.1.0, SVG Export Plug-In . SVG Version: 6.00 Build 0)  -->
<!DOCTYPE svg PUBLIC "-//W3C//DTD SVG 1.1//EN" "http://www.w3.org/Graphics/SVG/1.1/DTD/svg11.dtd">
<svg version="1.1" id="Calque_1" xmlns="http://www.w3.org/2000/svg" xmlns:xlink="http://www.w3.org/1999/xlink" x="0px" y="0px"
	 width="624px" height="28px" viewBox="0 0 624 28" enable-background="new 0 0 624 28" xml:space="preserve">
<g>
	
		<path fill="none" stroke="#000000" stroke-width="1.5" stroke-miterlimit="10" stroke-dasharray="0,62.094" stroke-dashoffset="62" d="
		M15.931,3.66c5.368,1.06,9.416,5.794,9.416,11.475c0,6.461-5.237,11.698-11.698,11.698S1.95,21.596,1.95,15.135
		c0-3.255,1.329-6.199,3.474-8.319"/>
	<path fill="none" stroke="#000000" stroke-width="1.5" stroke-miterlimit="10" d="M13.583,1.501c-0.395-0.001-0.78,0.123-1.1,0.354
		c-0.32,0.232-0.558,0.559-0.68,0.934c-0.122,0.376-0.122,0.78,0,1.156c0.122,0.375,0.36,0.702,0.68,0.934
		c0.32,0.231,0.705,0.355,1.1,0.354c0.495,0,0.97-0.197,1.319-0.547c0.35-0.349,0.547-0.824,0.547-1.319
		c0-0.495-0.197-0.97-0.547-1.319C14.553,1.698,14.078,1.501,13.583,1.501z"/>
</g>
<g>
	
		<path fill="none" stroke="#000000" stroke-width="1.5" stroke-miterlimit="10" stroke-dasharray="0.2672,61.8269" stroke-dashoffset="62" d="
		M41.931,3.66c5.368,1.06,9.416,5.794,9.416,11.475c0,6.461-5.237,11.698-11.698,11.698S27.95,21.596,27.95,15.135
		c0-3.255,1.329-6.199,3.474-8.319"/>
	<path fill="none" stroke="#000000" stroke-width="1.5" stroke-miterlimit="10" d="M39.583,1.501c-0.395-0.001-0.78,0.123-1.1,0.354
		c-0.32,0.232-0.558,0.559-0.68,0.934c-0.122,0.376-0.122,0.78,0,1.156c0.122,0.375,0.36,0.702,0.68,0.934
		c0.32,0.231,0.705,0.355,1.1,0.354c0.495,0,0.97-0.197,1.319-0.547c0.35-0.349,0.547-0.824,0.547-1.319
		c0-0.495-0.197-0.97-0.547-1.319C40.553,1.698,40.078,1.501,39.583,1.501z"/>
</g>
<g>
	
		<path fill="none" stroke="#000000" stroke-width="1.5" stroke-miterlimit="10" stroke-dasharray="1.1774,60.9166" stroke-dashoffset="62" d="
		M67.931,3.66c5.368,1.06,9.416,5.794,9.416,11.475c0,6.461-5.237,11.698-11.698,11.698S53.95,21.596,53.95,15.135
		c0-3.255,1.329-6.199,3.474-8.319"/>
	<path fill="none" stroke="#000000" stroke-width="1.5" stroke-miterlimit="10" d="M65.583,1.501c-0.395-0.001-0.78,0.123-1.1,0.354
		c-0.32,0.232-0.558,0.559-0.68,0.934c-0.122,0.376-0.122,0.78,0,1.156c0.122,0.375,0.36,0.702,0.68,0.934
		c0.32,0.231,0.705,0.355,1.1,0.354c0.495,0,0.97-0.197,1.319-0.547c0.35-0.349,0.547-0.824,0.547-1.319
		c0-0.495-0.197-0.97-0.547-1.319C66.553,1.698,66.078,1.501,65.583,1.501z"/>
</g>
<g>
	
		<path fill="none" stroke="#000000" stroke-width="1.5" stroke-miterlimit="10" stroke-dasharray="2.9453,59.1487" stroke-dashoffset="62" d="
		M93.931,3.66c5.368,1.06,9.416,5.794,9.416,11.475c0,6.461-5.237,11.698-11.698,11.698S79.95,21.596,79.95,15.135
		c0-3.255,1.329-6.199,3.474-8.319"/>
	<path fill="none" stroke="#000000" stroke-width="1.5" stroke-miterlimit="10" d="M91.583,1.501c-0.395-0.001-0.78,0.123-1.1,0.354
		c-0.32,0.232-0.558,0.559-0.68,0.934c-0.122,0.376-0.122,0.78,0,1.156c0.122,0.375,0.36,0.702,0.68,0.934
		c0.32,0.231,0.705,0.355,1.1,0.354c0.495,0,0.97-0.197,1.319-0.547c0.35-0.349,0.547-0.824,0.547-1.319
		c0-0.495-0.197-0.97-0.547-1.319C92.553,1.698,92.078,1.501,91.583,1.501z"/>
</g>
<g>
	
		<path fill="none" stroke="#000000" stroke-width="1.5" stroke-miterlimit="10" stroke-dasharray="5.8662,56.2278" stroke-dashoffset="62" d="
		M119.931,3.66c5.368,1.06,9.416,5.794,9.416,11.475c0,6.461-5.237,11.698-11.698,11.698s-11.699-5.237-11.699-11.698
		c0-3.255,1.329-6.199,3.474-8.319"/>
	<path fill="none" stroke="#000000" stroke-width="1.5" stroke-miterlimit="10" d="M117.583,1.501
		c-0.395-0.001-0.78,0.123-1.1,0.354c-0.32,0.232-0.558,0.559-0.68,0.934c-0.122,0.376-0.122,0.78,0,1.156
		c0.122,0.375,0.36,0.702,0.68,0.934c0.32,0.231,0.705,0.355,1.1,0.354c0.495,0,0.97-0.197,1.319-0.547
		c0.35-0.349,0.547-0.824,0.547-1.319c0-0.495-0.197-0.97-0.547-1.319C118.553,1.698,118.078,1.501,117.583,1.501z"/>
</g>
<g>
	
		<path fill="none" stroke="#000000" stroke-width="1.5" stroke-miterlimit="10" stroke-dasharray="10.2825,51.8115" stroke-dashoffset="62" d="
		M145.931,3.66c5.368,1.06,9.416,5.794,9.416,11.475c0,6.461-5.237,11.698-11.698,11.698s-11.699-5.237-11.699-11.698
		c0-3.255,1.329-6.199,3.474-8.319"/>
	<path fill="none" stroke="#000000" stroke-width="1.5" stroke-miterlimit="10" d="M143.583,1.501
		c-0.395-0.001-0.78,0.123-1.1,0.354c-0.32,0.232-0.558,0.559-0.68,0.934c-0.122,0.376-0.122,0.78,0,1.156
		c0.122,0.375,0.36,0.702,0.68,0.934c0.32,0.231,0.705,0.355,1.1,0.354c0.495,0,0.97-0.197,1.319-0.547
		c0.35-0.349,0.547-0.824,0.547-1.319c0-0.495-0.197-0.97-0.547-1.319C144.553,1.698,144.078,1.501,143.583,1.501z"/>
</g>
<g>
	
		<path fill="none" stroke="#000000" stroke-width="1.5" stroke-miterlimit="10" stroke-dasharray="16.3493,45.7448" stroke-dashoffset="62" d="
		M171.931,3.66c5.368,1.06,9.416,5.794,9.416,11.475c0,6.461-5.237,11.698-11.698,11.698s-11.699-5.237-11.699-11.698
		c0-3.255,1.329-6.199,3.474-8.319"/>
	<path fill="none" stroke="#000000" stroke-width="1.5" stroke-miterlimit="10" d="M169.583,1.501
		c-0.395-0.001-0.78,0.123-1.1,0.354c-0.32,0.232-0.558,0.559-0.68,0.934c-0.122,0.376-0.122,0.78,0,1.156
		c0.122,0.375,0.36,0.702,0.68,0.934c0.32,0.231,0.705,0.355,1.1,0.354c0.495,0,0.97-0.197,1.319-0.547
		c0.35-0.349,0.547-0.824,0.547-1.319c0-0.495-0.197-0.97-0.547-1.319C170.553,1.698,170.078,1.501,169.583,1.501z"/>
</g>
<g>
	
		<path fill="none" stroke="#000000" stroke-width="1.5" stroke-miterlimit="10" stroke-dasharray="23.5451,38.5489" stroke-dashoffset="62" d="
		M197.931,3.66c5.368,1.06,9.416,5.794,9.416,11.475c0,6.461-5.237,11.698-11.698,11.698s-11.699-5.237-11.699-11.698
		c0-3.255,1.329-6.199,3.474-8.319"/>
	<path fill="none" stroke="#000000" stroke-width="1.5" stroke-miterlimit="10" d="M195.583,1.501
		c-0.395-0.001-0.78,0.123-1.1,0.354c-0.32,0.232-0.558,0.559-0.68,0.934c-0.122,0.376-0.122,0.78,0,1.156
		c0.122,0.375,0.36,0.702,0.68,0.934c0.32,0.231,0.705,0.355,1.1,0.354c0.495,0,0.97-0.197,1.319-0.547
		c0.35-0.349,0.547-0.824,0.547-1.319c0-0.495-0.197-0.97-0.547-1.319C196.553,1.698,196.078,1.501,195.583,1.501z"/>
</g>
<g>
	
		<path fill="none" stroke="#000000" stroke-width="1.5" stroke-miterlimit="10" stroke-dasharray="30.7083,31.3857" stroke-dashoffset="62" d="
		M223.931,3.66c5.368,1.06,9.416,5.794,9.416,11.475c0,6.461-5.237,11.698-11.698,11.698s-11.699-5.237-11.699-11.698
		c0-3.255,1.329-6.199,3.474-8.319"/>
	<path fill="none" stroke="#000000" stroke-width="1.5" stroke-miterlimit="10" d="M221.583,1.501
		c-0.395-0.001-0.78,0.123-1.1,0.354c-0.32,0.232-0.558,0.559-0.68,0.934c-0.122,0.376-0.122,0.78,0,1.156
		c0.122,0.375,0.36,0.702,0.68,0.934c0.32,0.231,0.705,0.355,1.1,0.354c0.495,0,0.97-0.197,1.319-0.547
		c0.35-0.349,0.547-0.824,0.547-1.319c0-0.495-0.197-0.97-0.547-1.319C222.553,1.698,222.078,1.501,221.583,1.501z"/>
</g>
<g>
	
		<path fill="none" stroke="#000000" stroke-width="1.5" stroke-miterlimit="10" stroke-dasharray="36.9791,25.1149" stroke-dashoffset="62" d="
		M249.931,3.66c5.368,1.06,9.416,5.794,9.416,11.475c0,6.461-5.237,11.698-11.698,11.698s-11.699-5.237-11.699-11.698
		c0-3.255,1.329-6.199,3.474-8.319"/>
	<path fill="none" stroke="#000000" stroke-width="1.5" stroke-miterlimit="10" d="M247.583,1.501
		c-0.395-0.001-0.78,0.123-1.1,0.354c-0.32,0.232-0.558,0.559-0.68,0.934c-0.122,0.376-0.122,0.78,0,1.156
		c0.122,0.375,0.36,0.702,0.68,0.934c0.32,0.231,0.705,0.355,1.1,0.354c0.495,0,0.97-0.197,1.319-0.547
		c0.35-0.349,0.547-0.824,0.547-1.319c0-0.495-0.197-0.97-0.547-1.319C248.553,1.698,248.078,1.501,247.583,1.501z"/>
</g>
<g>
	
		<path fill="none" stroke="#000000" stroke-width="1.5" stroke-miterlimit="10" stroke-dasharray="42.1576,19.9364" stroke-dashoffset="62" d="
		M275.931,3.66c5.368,1.06,9.416,5.794,9.416,11.475c0,6.461-5.237,11.698-11.698,11.698s-11.699-5.237-11.699-11.698
		c0-3.255,1.329-6.199,3.474-8.319"/>
	<path fill="none" stroke="#000000" stroke-width="1.5" stroke-miterlimit="10" d="M273.583,1.501
		c-0.395-0.001-0.78,0.123-1.1,0.354c-0.32,0.232-0.558,0.559-0.68,0.934c-0.122,0.376-0.122,0.78,0,1.156
		c0.122,0.375,0.36,0.702,0.68,0.934c0.32,0.231,0.705,0.355,1.1,0.354c0.495,0,0.97-0.197,1.319-0.547
		c0.35-0.349,0.547-0.824,0.547-1.319c0-0.495-0.197-0.97-0.547-1.319C274.553,1.698,274.078,1.501,273.583,1.501z"/>
</g>
<g>
	
		<path fill="none" stroke="#000000" stroke-width="1.5" stroke-miterlimit="10" stroke-dasharray="46.3632,15.7308" stroke-dashoffset="62" d="
		M301.931,3.66c5.368,1.06,9.416,5.794,9.416,11.475c0,6.461-5.236,11.698-11.698,11.698c-6.461,0-11.699-5.237-11.699-11.698
		c0-3.255,1.329-6.199,3.474-8.319"/>
	<path fill="none" stroke="#000000" stroke-width="1.5" stroke-miterlimit="10" d="M299.583,1.501
		c-0.395-0.001-0.78,0.123-1.1,0.354c-0.32,0.232-0.558,0.559-0.68,0.934c-0.122,0.376-0.122,0.78,0,1.156
		c0.122,0.375,0.36,0.702,0.68,0.934c0.32,0.231,0.705,0.355,1.1,0.354c0.495,0,0.97-0.197,1.319-0.547
		c0.35-0.349,0.547-0.824,0.547-1.319c0-0.495-0.197-0.97-0.547-1.319C300.553,1.698,300.078,1.501,299.583,1.501z"/>
</g>
<g>
	
		<path fill="none" stroke="#000000" stroke-width="1.5" stroke-miterlimit="10" stroke-dasharray="49.7749,12.3191" stroke-dashoffset="62" d="
		M327.931,3.66c5.368,1.06,9.416,5.794,9.416,11.475c0,6.461-5.236,11.698-11.697,11.698c-6.462,0-11.699-5.237-11.699-11.698
		c0-3.255,1.329-6.199,3.474-8.319"/>
	<path fill="none" stroke="#000000" stroke-width="1.5" stroke-miterlimit="10" d="M325.583,1.501
		c-0.395-0.001-0.78,0.123-1.1,0.354c-0.32,0.232-0.559,0.559-0.681,0.934c-0.122,0.376-0.122,0.78,0,1.156
		c0.122,0.375,0.36,0.702,0.681,0.934c0.319,0.231,0.704,0.355,1.1,0.354c0.495,0,0.97-0.197,1.319-0.547
		c0.35-0.349,0.547-0.824,0.547-1.319c0-0.495-0.197-0.97-0.547-1.319C326.553,1.698,326.078,1.501,325.583,1.501z"/>
</g>
<g>
	
		<path fill="none" stroke="#000000" stroke-width="1.5" stroke-miterlimit="10" stroke-dasharray="52.549,9.545" stroke-dashoffset="62" d="
		M353.931,3.66c5.368,1.06,9.416,5.794,9.416,11.475c0,6.461-5.236,11.698-11.697,11.698c-6.462,0-11.699-5.237-11.699-11.698
		c0-3.255,1.329-6.199,3.474-8.319"/>
	<path fill="none" stroke="#000000" stroke-width="1.5" stroke-miterlimit="10" d="M351.583,1.501
		c-0.395-0.001-0.78,0.123-1.1,0.354c-0.32,0.232-0.559,0.559-0.681,0.934c-0.122,0.376-0.122,0.78,0,1.156
		c0.122,0.375,0.36,0.702,0.681,0.934c0.319,0.231,0.704,0.355,1.1,0.354c0.495,0,0.97-0.197,1.319-0.547
		c0.35-0.349,0.547-0.824,0.547-1.319c0-0.495-0.197-0.97-0.547-1.319C352.553,1.698,352.078,1.501,351.583,1.501z"/>
</g>
<g>
	
		<path fill="none" stroke="#000000" stroke-width="1.5" stroke-miterlimit="10" stroke-dasharray="54.8077,7.2863" stroke-dashoffset="62" d="
		M379.931,3.66c5.368,1.06,9.416,5.794,9.416,11.475c0,6.461-5.236,11.698-11.697,11.698c-6.462,0-11.699-5.237-11.699-11.698
		c0-3.255,1.329-6.199,3.474-8.319"/>
	<path fill="none" stroke="#000000" stroke-width="1.5" stroke-miterlimit="10" d="M377.583,1.501
		c-0.395-0.001-0.78,0.123-1.1,0.354c-0.32,0.232-0.559,0.559-0.681,0.934c-0.122,0.376-0.122,0.78,0,1.156
		c0.122,0.375,0.36,0.702,0.681,0.934c0.319,0.231,0.704,0.355,1.1,0.354c0.495,0,0.97-0.197,1.319-0.547
		c0.35-0.349,0.547-0.824,0.547-1.319c0-0.495-0.197-0.97-0.547-1.319C378.553,1.698,378.078,1.501,377.583,1.501z"/>
</g>
<g>
	
		<path fill="none" stroke="#000000" stroke-width="1.5" stroke-miterlimit="10" stroke-dasharray="56.6438,5.4502" stroke-dashoffset="62" d="
		M405.931,3.66c5.368,1.06,9.416,5.794,9.416,11.475c0,6.461-5.236,11.698-11.697,11.698c-6.462,0-11.699-5.237-11.699-11.698
		c0-3.255,1.329-6.199,3.474-8.319"/>
	<path fill="none" stroke="#000000" stroke-width="1.5" stroke-miterlimit="10" d="M403.583,1.501
		c-0.395-0.001-0.78,0.123-1.1,0.354c-0.32,0.232-0.559,0.559-0.681,0.934c-0.122,0.376-0.122,0.78,0,1.156
		c0.122,0.375,0.36,0.702,0.681,0.934c0.319,0.231,0.704,0.355,1.1,0.354c0.495,0,0.97-0.197,1.319-0.547
		c0.35-0.349,0.547-0.824,0.547-1.319c0-0.495-0.197-0.97-0.547-1.319C404.553,1.698,404.078,1.501,403.583,1.501z"/>
</g>
<g>
	
		<path fill="none" stroke="#000000" stroke-width="1.5" stroke-miterlimit="10" stroke-dasharray="58.1281,3.9659" stroke-dashoffset="62" d="
		M431.931,3.66c5.368,1.06,9.416,5.794,9.416,11.475c0,6.461-5.236,11.698-11.697,11.698c-6.462,0-11.699-5.237-11.699-11.698
		c0-3.255,1.329-6.199,3.474-8.319"/>
	<path fill="none" stroke="#000000" stroke-width="1.5" stroke-miterlimit="10" d="M429.583,1.501
		c-0.395-0.001-0.78,0.123-1.1,0.354c-0.32,0.232-0.559,0.559-0.681,0.934c-0.122,0.376-0.122,0.78,0,1.156
		c0.122,0.375,0.36,0.702,0.681,0.934c0.319,0.231,0.704,0.355,1.1,0.354c0.495,0,0.97-0.197,1.319-0.547
		c0.35-0.349,0.547-0.824,0.547-1.319c0-0.495-0.197-0.97-0.547-1.319C430.553,1.698,430.078,1.501,429.583,1.501z"/>
</g>
<g>
	
		<path fill="none" stroke="#000000" stroke-width="1.5" stroke-miterlimit="10" stroke-dasharray="59.3154,2.7786" stroke-dashoffset="62" d="
		M457.931,3.66c5.368,1.06,9.416,5.794,9.416,11.475c0,6.461-5.236,11.698-11.697,11.698c-6.462,0-11.699-5.237-11.699-11.698
		c0-3.255,1.329-6.199,3.474-8.319"/>
	<path fill="none" stroke="#000000" stroke-width="1.5" stroke-miterlimit="10" d="M455.583,1.501
		c-0.395-0.001-0.78,0.123-1.1,0.354c-0.32,0.232-0.559,0.559-0.681,0.934c-0.122,0.376-0.122,0.78,0,1.156
		c0.122,0.375,0.36,0.702,0.681,0.934c0.319,0.231,0.704,0.355,1.1,0.354c0.495,0,0.97-0.197,1.319-0.547
		c0.35-0.349,0.547-0.824,0.547-1.319c0-0.495-0.197-0.97-0.547-1.319C456.553,1.698,456.078,1.501,455.583,1.501z"/>
</g>
<g>
	
		<path fill="none" stroke="#000000" stroke-width="1.5" stroke-miterlimit="10" stroke-dasharray="60.2484,1.8456" stroke-dashoffset="62" d="
		M483.931,3.66c5.368,1.06,9.416,5.794,9.416,11.475c0,6.461-5.236,11.698-11.697,11.698c-6.462,0-11.699-5.237-11.699-11.698
		c0-3.255,1.329-6.199,3.474-8.319"/>
	<path fill="none" stroke="#000000" stroke-width="1.5" stroke-miterlimit="10" d="M481.583,1.501
		c-0.395-0.001-0.78,0.123-1.1,0.354c-0.32,0.232-0.559,0.559-0.681,0.934c-0.122,0.376-0.122,0.78,0,1.156
		c0.122,0.375,0.36,0.702,0.681,0.934c0.319,0.231,0.704,0.355,1.1,0.354c0.495,0,0.97-0.197,1.319-0.547
		c0.35-0.349,0.547-0.824,0.547-1.319c0-0.495-0.197-0.97-0.547-1.319C482.553,1.698,482.078,1.501,481.583,1.501z"/>
</g>
<g>
	
		<path fill="none" stroke="#000000" stroke-width="1.5" stroke-miterlimit="10" stroke-dasharray="60.9613,1.1328" stroke-dashoffset="62" d="
		M509.931,3.66c5.368,1.06,9.416,5.794,9.416,11.475c0,6.461-5.236,11.698-11.697,11.698c-6.462,0-11.699-5.237-11.699-11.698
		c0-3.255,1.329-6.199,3.474-8.319"/>
	<path fill="none" stroke="#000000" stroke-width="1.5" stroke-miterlimit="10" d="M507.583,1.501
		c-0.395-0.001-0.78,0.123-1.1,0.354c-0.32,0.232-0.559,0.559-0.681,0.934c-0.122,0.376-0.122,0.78,0,1.156
		c0.122,0.375,0.36,0.702,0.681,0.934c0.319,0.231,0.704,0.355,1.1,0.354c0.495,0,0.97-0.197,1.319-0.547
		c0.35-0.349,0.547-0.824,0.547-1.319c0-0.495-0.197-0.97-0.547-1.319C508.553,1.698,508.078,1.501,507.583,1.501z"/>
</g>
<g>
	
		<path fill="none" stroke="#000000" stroke-width="1.5" stroke-miterlimit="10" stroke-dasharray="61.4816,0.6125" stroke-dashoffset="62" d="
		M535.931,3.66c5.368,1.06,9.416,5.794,9.416,11.475c0,6.461-5.236,11.698-11.697,11.698s-11.699-5.237-11.699-11.698
		c0-3.255,1.329-6.199,3.474-8.319"/>
	<path fill="none" stroke="#000000" stroke-width="1.5" stroke-miterlimit="10" d="M533.583,1.501
		c-0.396-0.001-0.78,0.123-1.1,0.354c-0.32,0.232-0.559,0.559-0.681,0.934c-0.122,0.376-0.122,0.78,0,1.156
		c0.122,0.375,0.36,0.702,0.681,0.934c0.319,0.231,0.705,0.355,1.1,0.354c0.495,0,0.97-0.197,1.319-0.547
		c0.35-0.349,0.547-0.824,0.547-1.319c0-0.495-0.197-0.97-0.547-1.319C534.553,1.698,534.078,1.501,533.583,1.501z"/>
</g>
<g>
	
		<path fill="none" stroke="#000000" stroke-width="1.5" stroke-miterlimit="10" stroke-dasharray="61.8318,0.2622" stroke-dashoffset="62" d="
		M561.931,3.66c5.368,1.06,9.416,5.794,9.416,11.475c0,6.461-5.236,11.698-11.697,11.698s-11.699-5.237-11.699-11.698
		c0-3.255,1.329-6.199,3.474-8.319"/>
	<path fill="none" stroke="#000000" stroke-width="1.5" stroke-miterlimit="10" d="M559.583,1.501
		c-0.396-0.001-0.78,0.123-1.1,0.354c-0.32,0.232-0.559,0.559-0.681,0.934c-0.122,0.376-0.122,0.78,0,1.156
		c0.122,0.375,0.36,0.702,0.681,0.934c0.319,0.231,0.705,0.355,1.1,0.354c0.495,0,0.97-0.197,1.319-0.547
		c0.35-0.349,0.547-0.824,0.547-1.319c0-0.495-0.197-0.97-0.547-1.319C560.553,1.698,560.078,1.501,559.583,1.501z"/>
</g>
<g>
	
		<path fill="none" stroke="#000000" stroke-width="1.5" stroke-miterlimit="10" stroke-dasharray="62.0308,0.0632" stroke-dashoffset="62" d="
		M587.931,3.66c5.368,1.06,9.416,5.794,9.416,11.475c0,6.461-5.236,11.698-11.697,11.698s-11.699-5.237-11.699-11.698
		c0-3.255,1.329-6.199,3.474-8.319"/>
	<path fill="none" stroke="#000000" stroke-width="1.5" stroke-miterlimit="10" d="M585.583,1.501
		c-0.396-0.001-0.78,0.123-1.1,0.354c-0.32,0.232-0.559,0.559-0.681,0.934c-0.122,0.376-0.122,0.78,0,1.156
		c0.122,0.375,0.36,0.702,0.681,0.934c0.319,0.231,0.705,0.355,1.1,0.354c0.495,0,0.97-0.197,1.319-0.547
		c0.35-0.349,0.547-0.824,0.547-1.319c0-0.495-0.197-0.97-0.547-1.319C586.553,1.698,586.078,1.501,585.583,1.501z"/>
</g>
<g>
	<path fill="none" stroke="#000000" stroke-width="1.5" stroke-miterlimit="10" d="M613.931,3.66
		c5.368,1.06,9.416,5.794,9.416,11.475c0,6.461-5.236,11.698-11.697,11.698s-11.699-5.237-11.699-11.698
		c0-3.255,1.329-6.199,3.474-8.319"/>
	<path fill="none" stroke="#000000" stroke-width="1.5" stroke-miterlimit="10" d="M611.583,1.501
		c-0.396-0.001-0.78,0.123-1.1,0.354c-0.32,0.232-0.559,0.559-0.681,0.934c-0.122,0.376-0.122,0.78,0,1.156
		c0.122,0.375,0.36,0.702,0.681,0.934c0.319,0.231,0.705,0.355,1.1,0.354c0.495,0,0.97-0.197,1.319-0.547
		c0.35-0.349,0.547-0.824,0.547-1.319c0-0.495-0.197-0.97-0.547-1.319C612.553,1.698,612.078,1.501,611.583,1.501z"/>
</g>
</svg>
