<?xml version="1.0" encoding="utf-8"?>
<!-- Generator: Adobe Illustrator 15.1.0, SVG Export Plug-In . SVG Version: 6.00 Build 0)  -->
<!DOCTYPE svg PUBLIC "-//W3C//DTD SVG 1.1//EN" "http://www.w3.org/Graphics/SVG/1.1/DTD/svg11.dtd">
<svg version="1.1" id="Calque_1" xmlns="http://www.w3.org/2000/svg" xmlns:xlink="http://www.w3.org/1999/xlink" x="0px" y="0px"
	 width="418.832px" height="38.961px" viewBox="0 0 418.832 38.961" enable-background="new 0 0 418.832 38.961"
	 xml:space="preserve">
<g>
	<path d="M307.637,8.705c1.138,0,1.804-0.681,1.804-1.568V7.107c0-1.02-0.71-1.566-1.849-1.566h-1.76v3.164H307.637z M303.555,3.485
		h4.229c2.469,0,3.962,1.464,3.962,3.578v0.029c0,2.396-1.863,3.637-4.184,3.637h-1.73v3.106h-2.277V3.485z"/>
	<path d="M319.111,9.917V9.888c0-1.168-0.842-2.188-2.084-2.188c-1.287,0-2.055,0.99-2.055,2.158v0.03
		c0,1.169,0.843,2.188,2.085,2.188C318.343,12.075,319.111,11.085,319.111,9.917 M312.754,9.917V9.888
		c0-2.277,1.833-4.125,4.303-4.125c2.454,0,4.272,1.818,4.272,4.095v0.03c0,2.276-1.833,4.126-4.303,4.126
		C314.572,14.014,312.754,12.193,312.754,9.917"/>
	<path d="M328.976,9.888v-0.03c0-1.314-0.888-2.188-1.937-2.188c-1.05,0-1.922,0.873-1.922,2.188v0.03
		c0,1.315,0.872,2.188,1.922,2.188C328.088,12.075,328.976,11.219,328.976,9.888 M322.9,5.91h2.247v1.139
		c0.547-0.74,1.301-1.286,2.469-1.286c1.848,0,3.607,1.449,3.607,4.095v0.03c0,2.646-1.729,4.095-3.607,4.095
		c-1.197,0-1.938-0.547-2.469-1.182V16.2H322.9V5.91z"/>
	<path d="M332.822,11.041V5.91h2.247v4.421c0,1.064,0.503,1.611,1.359,1.611c0.858,0,1.406-0.547,1.406-1.611V5.91h2.247v7.926
		h-2.247v-1.124c-0.518,0.666-1.184,1.271-2.322,1.271C333.811,13.982,332.822,12.859,332.822,11.041"/>
</g>
<rect x="342.198" y="3.041" width="2.247" height="10.794"/>
<g>
	<path d="M351.246,11.041v-0.399c-0.385-0.178-0.887-0.296-1.434-0.296c-0.961,0-1.552,0.384-1.552,1.095v0.029
		c0,0.606,0.503,0.961,1.226,0.961C350.536,12.431,351.246,11.854,351.246,11.041 M346.086,11.558v-0.028
		c0-1.73,1.316-2.529,3.192-2.529c0.799,0,1.376,0.133,1.938,0.326V9.193c0-0.933-0.577-1.449-1.7-1.449
		c-0.858,0-1.464,0.163-2.189,0.428l-0.561-1.715c0.872-0.384,1.729-0.635,3.075-0.635c1.226,0,2.113,0.324,2.676,0.886
		c0.591,0.592,0.857,1.464,0.857,2.529v4.598h-2.174v-0.857c-0.547,0.606-1.301,1.006-2.395,1.006
		C347.314,13.983,346.086,13.125,346.086,11.558"/>
</g>
<path d="M355.417,5.91h2.247v7.925h-2.247V5.91z M355.359,3.041h2.365v1.996h-2.365V3.041z"/>
<g>
	<path d="M359.781,5.91h2.247v1.598c0.458-1.096,1.196-1.805,2.527-1.745v2.351h-0.118c-1.492,0-2.409,0.901-2.409,2.794v2.929
		h-2.247V5.91z"/>
	<path d="M371.018,9.251c-0.133-1.005-0.726-1.686-1.671-1.686c-0.933,0-1.537,0.666-1.715,1.686H371.018z M365.429,9.917V9.888
		c0-2.263,1.61-4.125,3.918-4.125c2.646,0,3.858,2.055,3.858,4.302c0,0.178-0.014,0.385-0.028,0.592h-5.517
		c0.223,1.021,0.933,1.553,1.938,1.553c0.754,0,1.301-0.236,1.922-0.813l1.286,1.139c-0.739,0.916-1.805,1.479-3.238,1.479
		C367.189,14.014,365.429,12.343,365.429,9.917"/>
	<path d="M374.257,12.785l0.961-1.478c0.856,0.621,1.76,0.946,2.499,0.946c0.649,0,0.945-0.237,0.945-0.593v-0.028
		c0-0.489-0.769-0.651-1.641-0.917c-1.11-0.326-2.367-0.844-2.367-2.38v-0.03c0-1.612,1.302-2.513,2.899-2.513
		c1.006,0,2.099,0.34,2.957,0.916l-0.858,1.553c-0.783-0.458-1.567-0.74-2.143-0.74c-0.549,0-0.828,0.237-0.828,0.547v0.029
		c0,0.445,0.754,0.652,1.61,0.947c1.11,0.369,2.396,0.901,2.396,2.351v0.03c0,1.759-1.317,2.557-3.032,2.557
		C376.548,13.982,375.307,13.613,374.257,12.785"/>
</g>
<polygon points="266.618,27.987 268.042,27.987 268.042,34.797 272.303,34.797 272.303,36.095 266.618,36.095 "/>
<g>
	<path d="M277.708,32.608c-0.092-0.903-0.625-1.609-1.551-1.609c-0.857,0-1.46,0.66-1.587,1.609H277.708z M273.179,33.061v-0.023
		c0-1.749,1.239-3.185,2.987-3.185c1.946,0,2.932,1.528,2.932,3.289c0,0.127-0.012,0.255-0.023,0.394h-4.494
		c0.151,0.996,0.857,1.552,1.76,1.552c0.685,0,1.171-0.255,1.656-0.729l0.823,0.729c-0.579,0.695-1.378,1.146-2.502,1.146
		C274.545,36.233,273.179,34.948,273.179,33.061"/>
	<path d="M279.858,35.296l0.626-0.95c0.659,0.498,1.378,0.753,2.003,0.753c0.602,0,0.949-0.255,0.949-0.66v-0.023
		c0-0.475-0.647-0.637-1.366-0.856c-0.903-0.255-1.91-0.626-1.91-1.795V31.74c0-1.158,0.961-1.864,2.177-1.864
		c0.764,0,1.598,0.266,2.247,0.694l-0.556,0.995c-0.592-0.358-1.217-0.578-1.727-0.578c-0.545,0-0.856,0.255-0.856,0.614v0.022
		c0,0.439,0.659,0.626,1.378,0.856c0.893,0.279,1.898,0.685,1.898,1.784v0.023c0,1.285-0.996,1.923-2.269,1.923
		C281.583,36.211,280.623,35.897,279.858,35.296"/>
	<path d="M289.615,29.979h1.401v0.95c0.395-0.579,0.961-1.077,1.912-1.077c1.377,0,2.176,0.927,2.176,2.351v3.892h-1.4V32.62
		c0-0.949-0.477-1.495-1.309-1.495c-0.812,0-1.379,0.568-1.379,1.519v3.451h-1.401V29.979z"/>
	<path d="M301.573,33.072v-0.023c0-1.077-0.774-1.969-1.875-1.969c-1.123,0-1.842,0.88-1.842,1.945v0.023
		c0,1.065,0.776,1.969,1.865,1.969C300.856,35.018,301.573,34.126,301.573,33.072 M296.455,33.072v-0.023
		c0-1.749,1.391-3.196,3.267-3.196s3.254,1.425,3.254,3.173v0.023c0,1.737-1.39,3.185-3.277,3.185
		C297.833,36.233,296.455,34.81,296.455,33.072"/>
	<path d="M304.326,33.871v-3.892h1.401v3.475c0,0.95,0.475,1.494,1.309,1.494c0.811,0,1.379-0.567,1.379-1.518v-3.451h1.4v6.115
		h-1.4v-0.949c-0.395,0.578-0.962,1.076-1.911,1.076C305.125,36.222,304.326,35.296,304.326,33.871"/>
</g>
<polygon points="310.992,29.979 312.498,29.979 314.141,34.474 315.798,29.979 317.268,29.979 314.766,36.141 313.505,36.141 "/>
<g>
	<path d="M322.313,32.608c-0.091-0.903-0.625-1.609-1.551-1.609c-0.856,0-1.459,0.66-1.586,1.609H322.313z M317.786,33.061v-0.023
		c0-1.749,1.238-3.185,2.987-3.185c1.946,0,2.932,1.528,2.932,3.289c0,0.127-0.012,0.255-0.023,0.394h-4.495
		c0.152,0.996,0.858,1.552,1.762,1.552c0.684,0,1.17-0.255,1.655-0.729l0.823,0.729c-0.579,0.695-1.378,1.146-2.502,1.146
		C319.153,36.233,317.786,34.948,317.786,33.061"/>
</g>
<rect x="325.193" y="27.641" width="1.401" height="8.454"/>
<rect x="328.502" y="27.641" width="1.401" height="8.454"/>
<g>
	<path d="M335.924,32.608c-0.092-0.903-0.625-1.609-1.552-1.609c-0.856,0-1.459,0.66-1.586,1.609H335.924z M331.396,33.061v-0.023
		c0-1.749,1.239-3.185,2.988-3.185c1.945,0,2.931,1.528,2.931,3.289c0,0.127-0.012,0.255-0.023,0.394h-4.495
		c0.152,0.996,0.858,1.552,1.762,1.552c0.684,0,1.17-0.255,1.655-0.729l0.823,0.729c-0.579,0.695-1.378,1.146-2.502,1.146
		C332.763,36.233,331.396,34.948,331.396,33.061"/>
	<path d="M338.225,35.296l0.626-0.95c0.66,0.498,1.378,0.753,2.003,0.753c0.602,0,0.95-0.255,0.95-0.66v-0.023
		c0-0.475-0.648-0.637-1.367-0.856c-0.903-0.255-1.91-0.626-1.91-1.795V31.74c0-1.158,0.961-1.864,2.177-1.864
		c0.765,0,1.599,0.266,2.247,0.694l-0.556,0.995c-0.591-0.358-1.216-0.578-1.727-0.578c-0.545,0-0.856,0.255-0.856,0.614v0.022
		c0,0.439,0.66,0.626,1.378,0.856c0.892,0.279,1.899,0.685,1.899,1.784v0.023c0,1.285-0.996,1.923-2.27,1.923
		C339.951,36.211,338.99,35.897,338.225,35.296"/>
</g>
<rect x="348.866" y="27.641" width="1.401" height="8.454"/>
<g>
	<path d="M356.288,32.608c-0.092-0.903-0.625-1.609-1.551-1.609c-0.856,0-1.459,0.66-1.586,1.609H356.288z M351.76,33.061v-0.023
		c0-1.749,1.238-3.185,2.987-3.185c1.945,0,2.932,1.528,2.932,3.289c0,0.127-0.013,0.255-0.023,0.394h-4.495
		c0.152,0.996,0.858,1.552,1.762,1.552c0.684,0,1.17-0.254,1.655-0.729l0.823,0.729c-0.58,0.695-1.378,1.146-2.502,1.146
		C353.126,36.233,351.76,34.948,351.76,33.061"/>
	<path d="M358.588,35.296l0.626-0.95c0.659,0.498,1.378,0.753,2.003,0.753c0.602,0,0.95-0.255,0.95-0.66v-0.023
		c0-0.475-0.648-0.637-1.367-0.856c-0.903-0.255-1.91-0.626-1.91-1.795V31.74c0-1.158,0.961-1.864,2.177-1.864
		c0.764,0,1.598,0.266,2.247,0.694l-0.556,0.995c-0.591-0.358-1.216-0.578-1.727-0.578c-0.545,0-0.856,0.255-0.856,0.614v0.022
		c0,0.44,0.66,0.626,1.378,0.857c0.892,0.277,1.898,0.684,1.898,1.783v0.023c0,1.285-0.996,1.923-2.269,1.923
		C360.314,36.211,359.353,35.897,358.588,35.296"/>
	<path d="M373.244,33.049v-0.023c0-1.181-0.798-1.957-1.749-1.957c-0.949,0-1.783,0.787-1.783,1.957v0.023
		c0,1.182,0.834,1.957,1.783,1.957C372.456,35.006,373.244,34.253,373.244,33.049 M368.345,29.979h1.4v1.02
		c0.453-0.637,1.089-1.146,2.074-1.146c1.448,0,2.849,1.146,2.849,3.173v0.023c0,2.026-1.39,3.173-2.849,3.173
		c-1.008,0-1.645-0.509-2.074-1.076v2.803h-1.4V29.979z"/>
</g>
<rect x="376.181" y="27.641" width="1.4" height="8.454"/>
<g>
	<path d="M379.341,33.871v-3.892h1.4v3.475c0,0.95,0.476,1.494,1.31,1.494c0.811,0,1.379-0.567,1.379-1.518v-3.451h1.4v6.115h-1.4
		v-0.949c-0.396,0.578-0.962,1.076-1.911,1.076C380.14,36.222,379.341,35.296,379.341,33.871"/>
	<path d="M386.088,35.296l0.626-0.95c0.659,0.498,1.378,0.753,2.003,0.753c0.602,0,0.95-0.255,0.95-0.66v-0.023
		c0-0.475-0.648-0.637-1.367-0.856c-0.903-0.255-1.91-0.626-1.91-1.795V31.74c0-1.158,0.961-1.864,2.177-1.864
		c0.764,0,1.598,0.266,2.247,0.694l-0.556,0.995c-0.591-0.358-1.216-0.578-1.727-0.578c-0.545,0-0.856,0.255-0.856,0.614v0.022
		c0,0.44,0.66,0.626,1.378,0.857c0.892,0.277,1.898,0.684,1.898,1.783v0.023c0,1.285-0.996,1.923-2.269,1.923
		C387.814,36.211,386.853,35.897,386.088,35.296"/>
</g>
<rect x="395.926" y="27.641" width="1.4" height="8.454"/>
<g>
	<path d="M399.086,33.871v-3.892h1.4v3.475c0,0.95,0.476,1.494,1.31,1.494c0.81,0,1.379-0.567,1.379-1.518v-3.451h1.399v6.115
		h-1.399v-0.949c-0.396,0.578-0.962,1.076-1.911,1.076C399.885,36.222,399.086,35.296,399.086,33.871"/>
	<path d="M410.523,32.608c-0.091-0.903-0.625-1.609-1.551-1.609c-0.856,0-1.459,0.66-1.586,1.609H410.523z M405.996,33.061v-0.023
		c0-1.749,1.238-3.185,2.987-3.185c1.946,0,2.932,1.528,2.932,3.289c0,0.127-0.013,0.255-0.023,0.394h-4.495
		c0.152,0.996,0.858,1.552,1.761,1.552c0.685,0,1.171-0.254,1.656-0.729l0.823,0.729c-0.579,0.695-1.378,1.146-2.502,1.146
		C407.362,36.233,405.996,34.948,405.996,33.061"/>
	<path d="M412.824,35.296l0.626-0.95c0.659,0.498,1.378,0.753,2.003,0.753c0.602,0,0.949-0.255,0.949-0.66v-0.023
		c0-0.475-0.647-0.637-1.365-0.856c-0.904-0.255-1.911-0.626-1.911-1.795V31.74c0-1.158,0.961-1.864,2.176-1.864
		c0.765,0,1.599,0.266,2.248,0.694l-0.556,0.995c-0.592-0.358-1.218-0.578-1.727-0.578c-0.545,0-0.856,0.255-0.856,0.614v0.022
		c0,0.44,0.66,0.626,1.378,0.857c0.892,0.277,1.898,0.684,1.898,1.783v0.023c0,1.285-0.996,1.923-2.269,1.923
		C414.549,36.211,413.588,35.897,412.824,35.296"/>
	<path d="M46.193,11.365c1.863,0,3.12-1.258,3.12-3.091V8.246c0-1.834-1.257-3.12-3.12-3.12h-1.76v6.239H46.193z M42.157,3.071
		h4.036c3.253,0,5.501,2.231,5.501,5.145v0.03c0,2.912-2.248,5.175-5.501,5.175h-4.036V3.071z"/>
	<path d="M58.689,8.837c-0.133-1.006-0.725-1.687-1.671-1.687c-0.932,0-1.537,0.666-1.715,1.687H58.689z M53.1,9.503v-0.03
		c0-2.263,1.611-4.125,3.918-4.125c2.646,0,3.859,2.055,3.859,4.302c0,0.178-0.014,0.385-0.029,0.592h-5.516
		c0.222,1.021,0.932,1.554,1.938,1.554c0.754,0,1.301-0.237,1.922-0.814l1.286,1.139c-0.739,0.916-1.804,1.479-3.238,1.479
		C54.86,13.599,53.1,11.928,53.1,9.503"/>
	<path d="M62.549,5.496h2.247v1.597c0.458-1.095,1.197-1.804,2.528-1.745v2.351h-0.118c-1.493,0-2.41,0.901-2.41,2.794v2.929h-2.247
		V5.496z"/>
	<path d="M68.731,5.496h2.247v1.122c0.518-0.664,1.183-1.271,2.321-1.271c1.701,0,2.692,1.124,2.692,2.942v5.131h-2.248V9
		c0-1.065-0.503-1.611-1.361-1.611c-0.857,0-1.404,0.546-1.404,1.611v4.421h-2.247V5.496z"/>
</g>
<path d="M78.048,5.495h2.247v7.925h-2.247V5.495z M77.988,2.626h2.365v1.996h-2.365V2.626z"/>
<g>
	<path d="M87.614,8.837c-0.133-1.006-0.725-1.687-1.671-1.687c-0.932,0-1.537,0.666-1.715,1.687H87.614z M83.208,2.849l1.937-0.843
		l1.67,2.616H85.1L83.208,2.849z M82.025,9.503v-0.03c0-2.263,1.611-4.125,3.918-4.125c2.646,0,3.859,2.055,3.859,4.302
		c0,0.178-0.014,0.385-0.029,0.592h-5.516c0.222,1.021,0.932,1.554,1.938,1.554c0.754,0,1.301-0.237,1.922-0.814l1.286,1.139
		c-0.739,0.916-1.804,1.479-3.238,1.479C83.785,13.599,82.025,11.928,82.025,9.503"/>
	<path d="M91.474,5.496h2.247v1.597c0.458-1.095,1.197-1.804,2.528-1.745v2.351h-0.118c-1.493,0-2.41,0.901-2.41,2.794v2.929h-2.247
		V5.496z"/>
	<path d="M102.712,8.837c-0.133-1.006-0.725-1.687-1.671-1.687c-0.932,0-1.537,0.666-1.715,1.687H102.712z M97.123,9.503v-0.03
		c0-2.263,1.611-4.125,3.918-4.125c2.647,0,3.859,2.055,3.859,4.302c0,0.178-0.014,0.385-0.029,0.592h-5.515
		c0.221,1.021,0.931,1.554,1.937,1.554c0.754,0,1.301-0.237,1.922-0.814l1.286,1.139c-0.739,0.916-1.804,1.479-3.238,1.479
		C98.883,13.599,97.123,11.928,97.123,9.503"/>
	<path d="M110.668,2.626h2.247v3.992c0.518-0.665,1.183-1.271,2.321-1.271c1.701,0,2.692,1.124,2.692,2.941v5.132h-2.248V8.999
		c0-1.063-0.503-1.61-1.361-1.61c-0.857,0-1.404,0.547-1.404,1.61v4.422h-2.247V2.626z"/>
	<path d="M125.086,8.837c-0.133-1.006-0.725-1.687-1.671-1.687c-0.932,0-1.537,0.666-1.715,1.687H125.086z M119.497,9.503v-0.03
		c0-2.263,1.611-4.125,3.918-4.125c2.646,0,3.859,2.055,3.859,4.302c0,0.178-0.014,0.385-0.029,0.592h-5.516
		c0.222,1.021,0.932,1.554,1.938,1.554c0.754,0,1.301-0.237,1.922-0.814l1.286,1.139c-0.739,0.916-1.804,1.479-3.238,1.479
		C121.257,13.599,119.497,11.928,119.497,9.503"/>
	<path d="M128.887,10.626V5.495h2.247v4.422c0,1.063,0.503,1.61,1.36,1.61c0.858,0,1.406-0.547,1.406-1.61V5.495h2.247v7.926H133.9
		v-1.124c-0.518,0.666-1.184,1.271-2.322,1.271C129.877,13.567,128.887,12.444,128.887,10.626"/>
	<path d="M138.16,5.496h2.247v1.597c0.458-1.095,1.197-1.804,2.528-1.745v2.351h-0.118c-1.493,0-2.41,0.901-2.41,2.794v2.929h-2.247
		V5.496z"/>
	<path d="M149.397,8.837c-0.133-1.006-0.725-1.687-1.671-1.687c-0.932,0-1.537,0.666-1.715,1.687H149.397z M143.808,9.503v-0.03
		c0-2.263,1.611-4.125,3.918-4.125c2.646,0,3.859,2.055,3.859,4.302c0,0.178-0.014,0.385-0.029,0.592h-5.516
		c0.222,1.021,0.932,1.554,1.938,1.554c0.754,0,1.301-0.237,1.922-0.814l1.286,1.139c-0.739,0.916-1.804,1.479-3.238,1.479
		C145.568,13.599,143.808,11.928,143.808,9.503"/>
	<path d="M117.313,32.537c-0.092-0.903-0.625-1.61-1.551-1.61c-0.857,0-1.459,0.661-1.586,1.61H117.313z M112.785,32.989v-0.023
		c0-1.749,1.239-3.185,2.988-3.185c1.946,0,2.931,1.528,2.931,3.289c0,0.127-0.012,0.255-0.023,0.394h-4.495
		c0.152,0.996,0.858,1.552,1.761,1.552c0.684,0,1.17-0.254,1.656-0.729l0.823,0.729c-0.58,0.695-1.378,1.146-2.502,1.146
		C114.152,36.162,112.785,34.877,112.785,32.989"/>
	<path d="M120.111,29.908h1.401v0.95c0.395-0.579,0.962-1.077,1.912-1.077c1.377,0,2.177,0.927,2.177,2.351v3.892H124.2v-3.475
		c0-0.949-0.476-1.495-1.309-1.495c-0.811,0-1.379,0.568-1.379,1.519v3.451h-1.401V29.908z"/>
	<path d="M130.863,34.333v-3.22h-0.776v-1.205h0.776v-1.68h1.401v1.68h1.645v1.205h-1.645v2.999c0,0.545,0.278,0.765,0.753,0.765
		c0.313,0,0.59-0.069,0.869-0.209v1.147c-0.348,0.196-0.742,0.312-1.263,0.312C131.593,36.128,130.863,35.676,130.863,34.333"/>
	<path d="M139.348,32.537c-0.092-0.903-0.625-1.61-1.552-1.61c-0.856,0-1.459,0.661-1.585,1.61H139.348z M134.82,32.989v-0.023
		c0-1.749,1.239-3.185,2.988-3.185c1.945,0,2.931,1.528,2.931,3.289c0,0.127-0.012,0.255-0.024,0.394h-4.494
		c0.152,0.996,0.858,1.552,1.761,1.552c0.684,0,1.17-0.254,1.656-0.729l0.823,0.729c-0.58,0.695-1.378,1.146-2.502,1.146
		C136.187,36.162,134.82,34.877,134.82,32.989"/>
	<path d="M141.928,29.908h1.401v0.927c0.395-0.544,0.927-1.054,1.866-1.054c0.879,0,1.494,0.429,1.818,1.077
		c0.498-0.648,1.146-1.077,2.072-1.077c1.332,0,2.143,0.846,2.143,2.339v3.903h-1.402v-3.475c0-0.973-0.451-1.495-1.239-1.495
		c-0.763,0-1.308,0.534-1.308,1.519v3.451h-1.402v-3.486c0-0.949-0.463-1.483-1.239-1.483c-0.775,0-1.309,0.58-1.309,1.53v3.439
		h-1.401V29.908z"/>
	<path d="M157.822,32.978v-0.023c0-1.181-0.798-1.957-1.749-1.957c-0.949,0-1.783,0.787-1.783,1.957v0.023
		c0,1.182,0.834,1.957,1.783,1.957C157.034,34.935,157.822,34.181,157.822,32.978 M152.923,29.908h1.401v1.02
		c0.453-0.637,1.089-1.146,2.074-1.146c1.448,0,2.849,1.146,2.849,3.173v0.023c0,2.026-1.39,3.173-2.849,3.173
		c-1.008,0-1.645-0.509-2.074-1.076v2.803h-1.401V29.908z"/>
	<path d="M160.179,35.225l0.626-0.95c0.66,0.498,1.378,0.753,2.003,0.753c0.603,0,0.95-0.255,0.95-0.66v-0.023
		c0-0.475-0.648-0.638-1.366-0.856c-0.904-0.255-1.911-0.626-1.911-1.795v-0.023c0-1.158,0.961-1.864,2.177-1.864
		c0.764,0,1.598,0.266,2.247,0.694l-0.556,0.995c-0.591-0.358-1.217-0.578-1.726-0.578c-0.545,0-0.857,0.255-0.857,0.614v0.022
		c0,0.44,0.66,0.626,1.378,0.857c0.893,0.277,1.899,0.684,1.899,1.783v0.023c0,1.285-0.996,1.923-2.269,1.923
		C161.905,36.14,160.944,35.826,160.179,35.225"/>
	<path d="M169.937,29.908h1.401v1.379c0.383-0.915,1.089-1.541,2.166-1.494v1.482h-0.081c-1.227,0-2.085,0.799-2.085,2.42v2.328
		h-1.401V29.908z"/>
	<path d="M177.948,27.233l1.275,0.566l-1.413,1.332h-1.089L177.948,27.233z M178.909,32.537c-0.092-0.903-0.625-1.61-1.551-1.61
		c-0.857,0-1.459,0.661-1.586,1.61H178.909z M174.381,32.989v-0.023c0-1.749,1.239-3.185,2.988-3.185
		c1.946,0,2.931,1.528,2.931,3.289c0,0.127-0.012,0.255-0.023,0.394h-4.495c0.152,0.996,0.858,1.552,1.761,1.552
		c0.684,0,1.17-0.254,1.656-0.729l0.823,0.729c-0.58,0.695-1.378,1.146-2.502,1.146C175.748,36.162,174.381,34.877,174.381,32.989"
		/>
	<path d="M185.899,32.537c-0.091-0.903-0.625-1.61-1.551-1.61c-0.857,0-1.459,0.661-1.586,1.61H185.899z M181.371,32.989v-0.023
		c0-1.749,1.239-3.185,2.988-3.185c1.946,0,2.931,1.528,2.931,3.289c0,0.127-0.012,0.255-0.023,0.394h-4.495
		c0.152,0.996,0.858,1.552,1.761,1.552c0.684,0,1.17-0.254,1.656-0.729l0.823,0.729c-0.579,0.695-1.378,1.146-2.502,1.146
		C182.738,36.162,181.371,34.877,181.371,32.989"/>
</g>
<rect x="188.779" y="27.569" width="1.401" height="8.454"/>
<polygon points="4.065,27.987 4.065,36.094 9.751,36.094 9.751,34.797 5.49,34.797 5.49,27.987 "/>
<g>
	<path d="M15.154,32.608c-0.092-0.903-0.625-1.609-1.551-1.609c-0.857,0-1.459,0.66-1.586,1.609H15.154z M10.626,33.061v-0.023
		c0-1.749,1.239-3.185,2.988-3.185c1.946,0,2.931,1.528,2.931,3.289c0,0.127-0.012,0.255-0.024,0.394h-4.494
		c0.152,0.996,0.858,1.552,1.761,1.552c0.684,0,1.17-0.255,1.656-0.729l0.823,0.729c-0.58,0.695-1.378,1.146-2.502,1.146
		C11.994,36.233,10.626,34.948,10.626,33.061"/>
	<path d="M25.71,29.979h1.401v6.115H25.71V29.979z M25.652,27.71h1.506v1.332h-1.506V27.71z M21.588,31.185h-0.776v-1.17h0.776
		v-0.44c0-0.684,0.173-1.192,0.497-1.517c0.325-0.324,0.776-0.487,1.379-0.487c0.486,0,0.822,0.07,1.135,0.163v1.18
		c-0.279-0.092-0.522-0.149-0.822-0.149c-0.534,0-0.811,0.289-0.811,0.927v0.336h1.621v1.158h-1.598v4.91h-1.401V31.185z"/>
</g>
<rect x="29.018" y="27.641" width="1.401" height="8.454"/>
<g>
	<path d="M40.352,33.049v-0.023c0-1.181-0.834-1.957-1.771-1.957c-0.962,0-1.761,0.741-1.761,1.957v0.023
		c0,1.182,0.811,1.957,1.761,1.957C39.518,35.006,40.352,34.219,40.352,33.049 M35.407,33.049v-0.023
		c0-2.026,1.378-3.173,2.838-3.173c1.007,0,1.644,0.51,2.084,1.077v-3.289h1.401v8.454h-1.401v-1.02
		c-0.451,0.638-1.088,1.146-2.084,1.146C36.808,36.222,35.407,35.075,35.407,33.049"/>
	<path d="M47.665,32.608c-0.091-0.903-0.625-1.609-1.551-1.609c-0.857,0-1.459,0.66-1.586,1.609H47.665z M43.137,33.061v-0.023
		c0-1.749,1.239-3.185,2.988-3.185c1.946,0,2.931,1.528,2.931,3.289c0,0.127-0.012,0.255-0.023,0.394h-4.495
		c0.152,0.996,0.858,1.552,1.761,1.552c0.684,0,1.17-0.255,1.656-0.729l0.823,0.729c-0.579,0.695-1.378,1.146-2.502,1.146
		C44.504,36.233,43.137,34.948,43.137,33.061"/>
	<path d="M53.924,29.979h1.401v0.95c0.395-0.579,0.962-1.077,1.912-1.077c1.377,0,2.177,0.927,2.177,2.351v3.892h-1.401V32.62
		c0-0.949-0.476-1.495-1.309-1.495c-0.811,0-1.379,0.568-1.379,1.519v3.451h-1.401V29.979z"/>
	<path d="M65.883,33.072v-0.023c0-1.077-0.775-1.969-1.876-1.969c-1.123,0-1.842,0.88-1.842,1.945v0.023
		c0,1.065,0.777,1.969,1.866,1.969C65.165,35.018,65.883,34.126,65.883,33.072 M60.764,33.072v-0.023
		c0-1.749,1.391-3.196,3.267-3.196s3.254,1.425,3.254,3.173v0.023c0,1.737-1.39,3.185-3.278,3.185
		C62.143,36.233,60.764,34.81,60.764,33.072"/>
	<path d="M68.635,33.871v-3.892h1.401v3.475c0,0.95,0.475,1.494,1.309,1.494c0.811,0,1.379-0.567,1.379-1.518v-3.451h1.4v6.115h-1.4
		v-0.949c-0.395,0.578-0.962,1.076-1.911,1.076C69.434,36.222,68.635,35.296,68.635,33.871"/>
</g>
<polygon points="75.301,29.979 76.807,29.979 78.451,34.474 80.108,29.979 81.578,29.979 79.077,36.141 77.815,36.141 "/>
<g>
	<path d="M86.623,32.608c-0.091-0.903-0.625-1.609-1.551-1.609c-0.857,0-1.459,0.66-1.586,1.609H86.623z M82.095,33.061v-0.023
		c0-1.749,1.239-3.185,2.988-3.185c1.946,0,2.931,1.528,2.931,3.289c0,0.127-0.012,0.255-0.024,0.394h-4.494
		c0.152,0.996,0.858,1.552,1.761,1.552c0.684,0,1.17-0.255,1.656-0.729l0.823,0.729c-0.579,0.695-1.378,1.146-2.502,1.146
		C83.462,36.233,82.095,34.948,82.095,33.061"/>
</g>
<rect x="89.503" y="27.641" width="1.401" height="8.454"/>
<rect x="92.813" y="27.641" width="1.401" height="8.454"/>
<g>
	<path d="M100.233,32.608c-0.091-0.903-0.625-1.609-1.551-1.609c-0.857,0-1.459,0.66-1.586,1.609H100.233z M95.706,33.061v-0.023
		c0-1.749,1.239-3.185,2.988-3.185c1.946,0,2.931,1.528,2.931,3.289c0,0.127-0.012,0.255-0.023,0.394h-4.495
		c0.152,0.996,0.858,1.552,1.761,1.552c0.684,0,1.17-0.255,1.656-0.729l0.823,0.729c-0.579,0.695-1.378,1.146-2.502,1.146
		C97.073,36.233,95.706,34.948,95.706,33.061"/>
	<path d="M102.535,35.296l0.626-0.95c0.66,0.498,1.378,0.753,2.003,0.753c0.602,0,0.95-0.255,0.95-0.66v-0.023
		c0-0.475-0.648-0.637-1.366-0.856c-0.904-0.255-1.911-0.626-1.911-1.795V31.74c0-1.158,0.961-1.864,2.177-1.864
		c0.764,0,1.598,0.266,2.247,0.694l-0.556,0.995c-0.591-0.358-1.217-0.578-1.726-0.578c-0.545,0-0.857,0.255-0.857,0.614v0.022
		c0,0.439,0.66,0.626,1.378,0.856c0.892,0.279,1.899,0.685,1.899,1.784v0.023c0,1.285-0.996,1.923-2.269,1.923
		C104.261,36.211,103.3,35.897,102.535,35.296"/>
</g>
</svg>
