<?xml version="1.0" encoding="utf-8"?>
<!-- Generator: Adobe Illustrator 15.1.0, SVG Export Plug-In . SVG Version: 6.00 Build 0)  -->
<!DOCTYPE svg PUBLIC "-//W3C//DTD SVG 1.1//EN" "http://www.w3.org/Graphics/SVG/1.1/DTD/svg11.dtd">
<svg version="1.1" id="Calque_1" xmlns="http://www.w3.org/2000/svg" xmlns:xlink="http://www.w3.org/1999/xlink" x="0px" y="0px"
	 width="26px" height="25.5px" viewBox="0 0 26 25.5" enable-background="new 0 0 26 25.5" xml:space="preserve">
<g>
	<g>
		<g>
			<defs>
				<rect id="SVGID_1_" x="-587.5" y="-606.333" width="733" height="900"/>
			</defs>
			<clipPath id="SVGID_2_">
				<use xlink:href="#SVGID_1_"  overflow="visible"/>
			</clipPath>
			<path clip-path="url(#SVGID_2_)" fill="#E8CD2B" d="M17.173,9.467l-1.759,1.725c-0.122,0.122-0.176,0.278-0.141,0.453
				l0.418,2.438v0.053c0,0.068-0.034,0.122-0.086,0.175c-0.069,0.069-0.191,0.104-0.297,0.051l-2.196-1.167
				c-0.07-0.035-0.157-0.052-0.244-0.052s-0.157,0.017-0.244,0.052l-2.177,1.15c-0.105,0.052-0.227,0.035-0.297-0.052
				c-0.052-0.054-0.069-0.105-0.069-0.176v-0.053l0.418-2.438c0.035-0.175-0.018-0.331-0.139-0.453L8.585,9.467
				C8.532,9.414,8.516,9.362,8.498,9.274c0-0.052,0.018-0.122,0.052-0.174c0.053-0.052,0.088-0.087,0.157-0.087l2.438-0.349
				c0.175-0.018,0.313-0.121,0.384-0.278l1.097-2.212c0.019-0.054,0.052-0.088,0.105-0.105c0.068-0.052,0.19-0.052,0.261,0
				c0.052,0.018,0.07,0.07,0.105,0.105l1.096,2.212c0.07,0.157,0.228,0.261,0.384,0.278l2.438,0.349
				c0.068,0.017,0.123,0.035,0.155,0.087c0.035,0.052,0.07,0.104,0.07,0.174C17.243,9.362,17.227,9.414,17.173,9.467"/>
		</g>
	</g>
</g>
</svg>
