<?xml version="1.0" encoding="utf-8"?>
<!-- Generator: Adobe Illustrator 15.1.0, SVG Export Plug-In . SVG Version: 6.00 Build 0)  -->
<!DOCTYPE svg PUBLIC "-//W3C//DTD SVG 1.1//EN" "http://www.w3.org/Graphics/SVG/1.1/DTD/svg11.dtd">
<svg version="1.1" id="Calque_1" xmlns="http://www.w3.org/2000/svg" xmlns:xlink="http://www.w3.org/1999/xlink" x="0px" y="0px"
	 width="26px" height="25.5px" viewBox="0 0 26 25.5" enable-background="new 0 0 26 25.5" xml:space="preserve">
<g>
	<g>
		<defs>
			<rect id="SVGID_1_" x="-587.5" y="-606.333" width="733" height="900"/>
		</defs>
		<clipPath id="SVGID_2_">
			<use xlink:href="#SVGID_1_"  overflow="visible"/>
		</clipPath>
		<path clip-path="url(#SVGID_2_)" stroke="#000000" stroke-width="0.5" stroke-miterlimit="10" d="M17.173,8.021l-2.178-0.312
			l-0.976-1.97c-0.104-0.226-0.278-0.4-0.487-0.54c-0.401-0.226-0.923-0.226-1.306,0c-0.209,0.122-0.385,0.314-0.488,0.54
			l-0.976,1.97L8.585,8.021C8.271,8.072,7.976,8.229,7.783,8.474C7.592,8.7,7.487,8.996,7.487,9.293c0,0.33,0.139,0.679,0.383,0.905
			l1.568,1.533l-0.366,2.16c-0.017,0.07-0.017,0.14-0.017,0.227c0,0.331,0.139,0.681,0.383,0.906
			c0.383,0.383,1.011,0.471,1.48,0.209l1.951-1.028l1.951,1.047c0.174,0.104,0.383,0.155,0.593,0.155
			c0.33,0,0.646-0.121,0.889-0.364c0.243-0.244,0.384-0.575,0.384-0.906c0-0.069,0-0.157-0.019-0.228l-0.365-2.177l1.567-1.533
			c0.244-0.244,0.383-0.575,0.383-0.905c0-0.297-0.104-0.593-0.296-0.819C17.783,8.229,17.486,8.056,17.173,8.021 M17.173,9.467
			l-1.759,1.725c-0.122,0.122-0.176,0.278-0.141,0.453l0.418,2.438v0.053c0,0.068-0.034,0.122-0.086,0.175
			c-0.069,0.069-0.191,0.104-0.297,0.051l-2.195-1.167c-0.07-0.035-0.157-0.052-0.244-0.052s-0.157,0.017-0.244,0.052l-2.177,1.15
			c-0.105,0.052-0.227,0.035-0.297-0.052c-0.052-0.054-0.069-0.105-0.069-0.176v-0.053l0.418-2.438
			c0.035-0.175-0.018-0.331-0.139-0.453L8.585,9.467C8.532,9.414,8.516,9.362,8.498,9.274c0-0.052,0.018-0.122,0.052-0.174
			c0.053-0.052,0.088-0.087,0.157-0.087l2.438-0.349c0.175-0.018,0.313-0.121,0.384-0.278l1.097-2.212
			c0.019-0.054,0.052-0.088,0.105-0.105c0.068-0.052,0.19-0.052,0.261,0c0.052,0.018,0.07,0.07,0.105,0.105l1.096,2.212
			c0.07,0.157,0.228,0.261,0.384,0.278l2.438,0.349c0.069,0.017,0.123,0.035,0.156,0.087c0.035,0.052,0.07,0.104,0.07,0.174
			C17.243,9.362,17.227,9.414,17.173,9.467"/>
	</g>
</g>
</svg>
