<?xml version="1.0" encoding="utf-8"?>
<!-- Generator: Adobe Illustrator 15.1.0, SVG Export Plug-In . SVG Version: 6.00 Build 0)  -->
<!DOCTYPE svg PUBLIC "-//W3C//DTD SVG 1.1//EN" "http://www.w3.org/Graphics/SVG/1.1/DTD/svg11.dtd">
<svg version="1.1" id="Calque_1" xmlns="http://www.w3.org/2000/svg" xmlns:xlink="http://www.w3.org/1999/xlink" x="0px" y="0px"
	 width="23.586px" height="23.562px" viewBox="0 0 23.586 23.562" enable-background="new 0 0 23.586 23.562" xml:space="preserve">
<g>
	<path d="M11.099,14.795c-0.014,0.76,0.361,1.463,0.987,1.896c0.391,0.27,0.831,0.416,1.318,0.4
		c0.605,0.003,1.187-0.234,1.613-0.675c0.431-0.436,0.668-1.008,0.686-1.633c0.003-0.188-0.03-0.372-0.071-0.592L13.857,2.906
		L12.896,2.91l-1.722,11.266C11.105,14.417,11.08,14.592,11.099,14.795 M14.611,14.381l0.015,0.076
		c0.042,0.122,0.063,0.232,0.044,0.349c-0.012,0.344-0.143,0.67-0.365,0.897c-0.238,0.251-0.553,0.385-0.894,0.37
		c-0.261,0.011-0.522-0.075-0.739-0.224c-0.346-0.239-0.55-0.637-0.551-1.054c0.003-0.094,0.019-0.211,0.066-0.371l1.194-7.92
		L14.611,14.381z"/>
	<path fill="none" stroke="#000000" stroke-width="0.6" stroke-miterlimit="10" d="M11.099,14.795
		c-0.014,0.76,0.361,1.463,0.987,1.896c0.391,0.27,0.831,0.416,1.318,0.4c0.605,0.003,1.187-0.234,1.613-0.675
		c0.431-0.436,0.668-1.008,0.686-1.633c0.003-0.188-0.03-0.372-0.071-0.592L13.857,2.906L12.896,2.91l-1.722,11.266
		C11.105,14.417,11.08,14.592,11.099,14.795 M14.611,14.381l0.015,0.076c0.042,0.122,0.063,0.232,0.044,0.349
		c-0.012,0.344-0.143,0.67-0.365,0.897c-0.238,0.251-0.553,0.385-0.894,0.37c-0.261,0.011-0.522-0.075-0.739-0.224
		c-0.346-0.239-0.55-0.637-0.551-1.054c0.003-0.094,0.019-0.211,0.066-0.371l1.194-7.92L14.611,14.381z"/>
</g>
</svg>
