<?xml version="1.0" encoding="utf-8"?>
<!-- Generator: Adobe Illustrator 15.1.0, SVG Export Plug-In . SVG Version: 6.00 Build 0)  -->
<!DOCTYPE svg PUBLIC "-//W3C//DTD SVG 1.1//EN" "http://www.w3.org/Graphics/SVG/1.1/DTD/svg11.dtd">
<svg version="1.1" id="Calque_1" xmlns="http://www.w3.org/2000/svg" xmlns:xlink="http://www.w3.org/1999/xlink" x="0px" y="0px"
	 width="41.977px" height="12.625px" viewBox="0 0 41.977 12.625" enable-background="new 0 0 41.977 12.625" xml:space="preserve">
<g>
	<path d="M40.175,12.455H1.789c-0.846,0-1.535-0.691-1.535-1.535V1.707c0-0.845,0.689-1.536,1.535-1.536h38.386
		c0.844,0,1.535,0.691,1.535,1.536v9.213C41.71,11.764,41.019,12.455,40.175,12.455"/>
	<path fill="#8B8787" d="M40.175,0.417c0.711,0,1.29,0.578,1.29,1.289v9.213c0,0.711-0.579,1.29-1.29,1.29H1.789
		c-0.711,0-1.29-0.579-1.29-1.29V1.706c0-0.711,0.579-1.289,1.29-1.289H40.175 M40.175,0.171H1.789
		c-0.846,0-1.535,0.691-1.535,1.535v9.213c0,0.846,0.689,1.536,1.535,1.536h38.386c0.844,0,1.535-0.69,1.535-1.536V1.706
		C41.71,0.862,41.019,0.171,40.175,0.171"/>
	<path fill="#FFFFFF" d="M21.177,6.851c-0.722,0-1.311,0.549-1.311,1.307c0,0.752,0.589,1.306,1.311,1.306
		c0.723,0,1.312-0.554,1.312-1.306C22.488,7.399,21.899,6.851,21.177,6.851 M21.177,8.949c-0.396,0-0.737-0.327-0.737-0.792
		c0-0.471,0.342-0.791,0.737-0.791c0.396,0,0.737,0.32,0.737,0.791C21.914,8.622,21.573,8.949,21.177,8.949 M18.317,6.851
		c-0.724,0-1.312,0.549-1.312,1.307c0,0.752,0.588,1.306,1.312,1.306c0.722,0,1.311-0.554,1.311-1.306
		C19.628,7.399,19.039,6.851,18.317,6.851 M18.317,8.949c-0.396,0-0.737-0.327-0.737-0.792c0-0.471,0.341-0.791,0.737-0.791
		c0.395,0,0.736,0.32,0.736,0.791C19.054,8.622,18.712,8.949,18.317,8.949 M14.915,7.252v0.554h1.325
		c-0.039,0.312-0.144,0.539-0.301,0.698c-0.193,0.192-0.495,0.405-1.024,0.405c-0.816,0-1.455-0.658-1.455-1.475
		s0.639-1.474,1.455-1.474c0.44,0,0.762,0.173,0.999,0.395l0.392-0.39c-0.332-0.317-0.772-0.56-1.391-0.56
		c-1.119,0-2.058,0.91-2.058,2.028s0.938,2.028,2.058,2.028c0.604,0,1.059-0.197,1.414-0.569c0.366-0.365,0.48-0.88,0.48-1.296
		c0-0.129-0.01-0.247-0.029-0.346H14.915z M28.828,7.682c-0.109-0.292-0.44-0.831-1.118-0.831c-0.673,0-1.23,0.529-1.23,1.307
		c0,0.731,0.553,1.306,1.295,1.306c0.599,0,0.944-0.366,1.089-0.579l-0.445-0.296c-0.147,0.217-0.352,0.361-0.644,0.361
		c-0.291,0-0.499-0.135-0.633-0.396l1.746-0.722L28.828,7.682z M27.047,8.118c-0.015-0.505,0.392-0.763,0.684-0.763
		c0.228,0,0.42,0.113,0.484,0.277L27.047,8.118z M25.627,9.384h0.574V5.545h-0.574V9.384z M24.688,7.143h-0.021
		c-0.128-0.152-0.375-0.292-0.687-0.292c-0.653,0-1.251,0.574-1.251,1.312c0,0.731,0.598,1.301,1.251,1.301
		c0.312,0,0.559-0.138,0.687-0.297h0.021v0.188c0,0.5-0.268,0.769-0.697,0.769c-0.351,0-0.569-0.253-0.658-0.466l-0.5,0.208
		c0.144,0.347,0.525,0.771,1.158,0.771c0.673,0,1.242-0.396,1.242-1.36V6.93h-0.545V7.143z M24.029,8.949
		c-0.396,0-0.728-0.332-0.728-0.787c0-0.46,0.331-0.796,0.728-0.796c0.391,0,0.698,0.336,0.698,0.796
		C24.728,8.617,24.42,8.949,24.029,8.949 M31.517,5.545h-1.373v3.839h0.572V7.93h0.801c0.635,0,1.26-0.46,1.26-1.192
		S32.151,5.545,31.517,5.545 M31.531,7.396h-0.815V6.079h0.815c0.429,0,0.672,0.354,0.672,0.658
		C32.203,7.035,31.96,7.396,31.531,7.396 M35.072,6.844c-0.414,0-0.844,0.184-1.022,0.588l0.51,0.212
		c0.108-0.212,0.311-0.28,0.522-0.28c0.297,0,0.599,0.177,0.604,0.493v0.039c-0.104-0.059-0.326-0.147-0.599-0.147
		c-0.548,0-1.105,0.301-1.105,0.864c0,0.514,0.449,0.845,0.953,0.845c0.386,0,0.598-0.173,0.731-0.376h0.02v0.296h0.553V7.906
		C36.238,7.224,35.73,6.844,35.072,6.844 M35.003,8.948c-0.188,0-0.449-0.095-0.449-0.326c0-0.296,0.326-0.41,0.607-0.41
		c0.252,0,0.371,0.055,0.524,0.128C35.642,8.696,35.334,8.948,35.003,8.948 M38.253,6.928l-0.656,1.664h-0.02l-0.682-1.664h-0.617
		L37.3,9.254l-0.583,1.294h0.599l1.575-3.62H38.253z M33.092,9.384h0.573V5.545h-0.573V9.384z"/>
	<path fill="#6BB2DA" d="M3.458,2.489C3.369,2.584,3.315,2.729,3.315,2.92v6.786c0,0.189,0.054,0.337,0.143,0.431L3.48,10.16
		l3.802-3.803v-0.09L3.48,2.467L3.458,2.489"/>
	
		<linearGradient id="SVGID_1_" gradientUnits="userSpaceOnUse" x1="-545.7974" y1="59.5039" x2="-544.7985" y2="59.5039" gradientTransform="matrix(-7.4244 0 0 -7.4244 -4042.4438 448.094)">
		<stop  offset="0" style="stop-color:#E1C52A"/>
		<stop  offset="0.1668" style="stop-color:#D9B128"/>
		<stop  offset="0.5358" style="stop-color:#D09129"/>
		<stop  offset="0.8262" style="stop-color:#CC7E29"/>
		<stop  offset="1" style="stop-color:#CA7729"/>
	</linearGradient>
	<path fill="url(#SVGID_1_)" d="M7.282,6.268v0.09l1.266,1.269l0.029-0.018l1.502-0.853l0.142-0.098
		c0.28-0.242,0.233-0.575-0.142-0.788l-1.53-0.869L7.282,6.268z"/>
	<g>
		<g>
			<defs>
				<path id="SVGID_2_" d="M3.457,10.137l0.123,0.087c0.137,0.062,0.318,0.044,0.516-0.067l4.481-2.548L7.282,6.312L3.457,10.137z"
					/>
			</defs>
			<clipPath id="SVGID_3_">
				<use xlink:href="#SVGID_2_"  overflow="visible"/>
			</clipPath>
			<g clip-path="url(#SVGID_3_)">
				<image overflow="visible" width="22" height="17" xlink:href="24D0D7E.jpg"  transform="matrix(0.24 0 0 0.24 3.457 6.3125)">
				</image>
			</g>
		</g>
	</g>
	
		<linearGradient id="SVGID_4_" gradientUnits="userSpaceOnUse" x1="-545.897" y1="59.3975" x2="-544.8962" y2="59.3975" gradientTransform="matrix(5.7015 5.7015 -5.7015 5.7015 3451.9346 2772.3643)">
		<stop  offset="0" style="stop-color:#4C8359"/>
		<stop  offset="0.3239" style="stop-color:#5A9059"/>
		<stop  offset="0.7419" style="stop-color:#6B9E58"/>
		<stop  offset="1" style="stop-color:#71A357"/>
	</linearGradient>
	<path fill="url(#SVGID_4_)" d="M3.457,2.489l3.825,3.823l1.295-1.296L4.095,2.47C3.973,2.4,3.855,2.367,3.751,2.367
		C3.633,2.367,3.533,2.41,3.457,2.489z"/>
	<path fill="#FFFFFF" d="M12.929,4.163V2.321h0.564c0.283,0,0.509,0.085,0.679,0.256s0.255,0.392,0.255,0.665
		s-0.085,0.494-0.255,0.665s-0.396,0.256-0.679,0.256H12.929 M13.166,3.938h0.327c0.213,0,0.381-0.062,0.506-0.184
		c0.124-0.122,0.186-0.292,0.186-0.512c0-0.218-0.062-0.388-0.186-0.511c-0.125-0.122-0.293-0.185-0.506-0.185h-0.327V3.938z"/>
	<path fill="#FFFFFF" d="M14.759,2.321h0.237v1.843h-0.237V2.321z M12.929,4.163h0.031V2.352h0.533
		c0.277,0.001,0.494,0.083,0.658,0.247c0.163,0.164,0.245,0.377,0.245,0.644s-0.082,0.479-0.245,0.644
		c-0.164,0.164-0.381,0.246-0.658,0.247h-0.564V4.163h0.031H12.929v0.031h0.564c0.289,0,0.525-0.088,0.701-0.266
		c0.176-0.177,0.264-0.407,0.264-0.687s-0.088-0.51-0.264-0.688c-0.176-0.177-0.412-0.265-0.701-0.265h-0.594v1.904h0.029V4.163
		 M13.166,3.938v0.03h0.327c0.218,0,0.396-0.063,0.527-0.191c0.131-0.128,0.195-0.31,0.195-0.534c0-0.224-0.064-0.404-0.195-0.533
		c-0.132-0.129-0.31-0.192-0.527-0.192h-0.358v1.451h0.031V3.938h0.031V2.578h0.296c0.207,0,0.366,0.059,0.484,0.175
		c0.117,0.116,0.177,0.277,0.177,0.489c0,0.214-0.061,0.375-0.177,0.49c-0.118,0.116-0.277,0.174-0.484,0.174h-0.327V3.938h0.031
		H13.166z"/>
	<polygon fill="#FFFFFF" points="14.759,4.163 14.79,4.163 14.79,2.352 14.965,2.352 14.965,4.133 14.759,4.133 14.759,4.163 
		14.79,4.163 14.759,4.163 14.759,4.194 15.026,4.194 15.026,2.29 14.729,2.29 14.729,4.194 14.759,4.194 	"/>
	<path fill="#FFFFFF" d="M15.938,4.204c-0.134,0-0.264-0.043-0.392-0.131c-0.129-0.088-0.213-0.21-0.252-0.367l0.217-0.088
		c0.025,0.102,0.078,0.187,0.157,0.256c0.08,0.069,0.171,0.104,0.27,0.104c0.103,0,0.19-0.026,0.264-0.08s0.109-0.128,0.109-0.221
		c0-0.103-0.036-0.183-0.109-0.237c-0.073-0.056-0.188-0.107-0.346-0.156c-0.163-0.052-0.287-0.117-0.371-0.199
		c-0.084-0.081-0.126-0.186-0.126-0.312c0-0.132,0.052-0.247,0.157-0.345c0.104-0.099,0.241-0.147,0.409-0.147
		c0.155,0,0.282,0.039,0.381,0.117c0.098,0.079,0.161,0.164,0.19,0.256l-0.217,0.09c-0.015-0.058-0.053-0.111-0.114-0.161
		c-0.061-0.05-0.14-0.074-0.235-0.074c-0.091,0-0.168,0.024-0.232,0.076c-0.064,0.05-0.097,0.112-0.097,0.188
		c0,0.068,0.03,0.126,0.089,0.173c0.059,0.048,0.146,0.09,0.261,0.128c0.091,0.029,0.167,0.058,0.229,0.085
		c0.061,0.027,0.123,0.064,0.185,0.109c0.063,0.046,0.11,0.102,0.143,0.17c0.03,0.068,0.047,0.146,0.047,0.235
		c0,0.09-0.019,0.17-0.056,0.239c-0.037,0.07-0.086,0.126-0.146,0.167c-0.062,0.041-0.126,0.072-0.197,0.095
		C16.083,4.193,16.012,4.204,15.938,4.204"/>
	<path fill="#FFFFFF" d="M15.938,4.204v-0.03c-0.127,0-0.251-0.041-0.375-0.125c-0.122-0.084-0.201-0.199-0.239-0.352l-0.029,0.009
		l0.012,0.027l0.216-0.087l-0.011-0.028l-0.03,0.008c0.027,0.106,0.084,0.197,0.168,0.271c0.084,0.073,0.182,0.111,0.289,0.111
		c0.108,0,0.204-0.028,0.282-0.087c0.08-0.059,0.122-0.145,0.122-0.245c0-0.109-0.041-0.201-0.121-0.262
		c-0.078-0.06-0.196-0.112-0.356-0.161c-0.16-0.051-0.279-0.115-0.357-0.192c-0.078-0.076-0.117-0.17-0.117-0.29
		c0-0.124,0.048-0.229,0.146-0.323c0.1-0.091,0.227-0.138,0.389-0.138c0.15,0,0.27,0.037,0.361,0.11
		c0.095,0.075,0.153,0.155,0.181,0.241l0.029-0.01l-0.012-0.027l-0.216,0.09l0.011,0.027l0.03-0.008
		c-0.018-0.064-0.061-0.125-0.125-0.177c-0.067-0.055-0.153-0.082-0.255-0.082c-0.097,0-0.183,0.027-0.252,0.082
		c-0.07,0.055-0.108,0.129-0.108,0.214c0,0.078,0.036,0.146,0.102,0.197V2.97c0.062,0.05,0.152,0.094,0.27,0.132h0.001
		c0.09,0.029,0.165,0.057,0.224,0.084c0.06,0.026,0.119,0.062,0.181,0.106c0.059,0.042,0.102,0.095,0.132,0.157
		c0.029,0.063,0.044,0.138,0.044,0.223s-0.017,0.16-0.051,0.225c-0.035,0.067-0.081,0.118-0.138,0.157
		c-0.059,0.039-0.121,0.069-0.188,0.09s-0.136,0.03-0.207,0.03v0.062c0.077,0,0.152-0.011,0.225-0.034
		c0.073-0.021,0.143-0.055,0.205-0.098C16.433,4.06,16.485,4,16.524,3.926c0.039-0.075,0.059-0.16,0.059-0.254
		c0-0.093-0.017-0.177-0.051-0.248c-0.034-0.072-0.085-0.134-0.15-0.183c-0.064-0.046-0.127-0.084-0.191-0.111h0.001
		c-0.063-0.029-0.14-0.058-0.232-0.086c-0.111-0.037-0.195-0.079-0.251-0.123c-0.053-0.043-0.076-0.09-0.076-0.149
		c0-0.067,0.025-0.119,0.085-0.165c0.058-0.046,0.128-0.069,0.213-0.069c0.091,0,0.162,0.023,0.216,0.067h0.001h-0.001
		c0.058,0.047,0.091,0.096,0.104,0.146l0.01,0.033l0.248-0.103l0.025-0.011l-0.008-0.027c-0.032-0.1-0.1-0.19-0.201-0.271
		c-0.104-0.083-0.239-0.124-0.399-0.123c-0.175-0.001-0.319,0.051-0.431,0.154c-0.109,0.103-0.167,0.227-0.167,0.367
		c0,0.133,0.046,0.247,0.137,0.334c0.089,0.087,0.217,0.155,0.383,0.207c0.155,0.048,0.268,0.099,0.336,0.151
		c0.064,0.05,0.097,0.118,0.097,0.213c0,0.085-0.031,0.146-0.096,0.196c-0.068,0.05-0.148,0.074-0.246,0.074
		c-0.092,0-0.173-0.031-0.249-0.097c-0.075-0.065-0.124-0.145-0.148-0.24l-0.009-0.034l-0.249,0.101l-0.023,0.01l0.006,0.026
		c0.041,0.164,0.129,0.295,0.263,0.386c0.132,0.09,0.271,0.137,0.41,0.137V4.204"/>
	<path fill="#FFFFFF" d="M17.129,4.163h-0.237V2.32h0.629c0.155,0,0.291,0.053,0.405,0.156c0.114,0.104,0.171,0.235,0.171,0.393
		s-0.057,0.288-0.171,0.393c-0.114,0.104-0.25,0.156-0.405,0.156h-0.392V4.163 M17.129,3.19h0.396c0.1,0,0.18-0.033,0.239-0.1
		c0.061-0.067,0.09-0.142,0.09-0.222c0-0.081-0.029-0.154-0.09-0.222c-0.06-0.066-0.14-0.1-0.239-0.1h-0.396V3.19z"/>
	<path fill="#FFFFFF" d="M17.129,4.163v-0.03h-0.206V2.352h0.598c0.148,0,0.275,0.049,0.385,0.148
		c0.107,0.099,0.161,0.219,0.161,0.369s-0.054,0.271-0.161,0.369c-0.109,0.1-0.236,0.148-0.385,0.148h-0.423v0.776H17.129v-0.03
		V4.163h0.031V3.447h0.36c0.162,0.001,0.307-0.055,0.426-0.164c0.121-0.107,0.182-0.249,0.182-0.414
		c0-0.166-0.061-0.307-0.182-0.416c-0.119-0.107-0.264-0.163-0.426-0.162h-0.658v1.903h0.298V4.163H17.129 M17.129,3.19v0.031h0.396
		c0.106,0,0.196-0.037,0.263-0.11c0.063-0.071,0.098-0.153,0.097-0.242c0.001-0.089-0.033-0.171-0.097-0.241
		c-0.066-0.074-0.156-0.111-0.263-0.111h-0.428v0.705h0.031V3.19h0.031V2.577h0.365c0.093,0.001,0.163,0.03,0.217,0.092
		c0.056,0.062,0.082,0.128,0.082,0.2s-0.026,0.139-0.082,0.2c-0.054,0.061-0.123,0.09-0.217,0.09h-0.396V3.19h0.031H17.129z"/>
	<path fill="#FFFFFF" d="M19.901,3.925c-0.181,0.188-0.406,0.279-0.676,0.279s-0.494-0.092-0.675-0.279
		c-0.182-0.186-0.271-0.414-0.271-0.683c0-0.27,0.09-0.497,0.271-0.684c0.181-0.186,0.405-0.278,0.675-0.278
		c0.268,0,0.493,0.093,0.675,0.28c0.183,0.187,0.273,0.413,0.273,0.682S20.083,3.739,19.901,3.925 M18.726,3.771
		c0.137,0.138,0.303,0.207,0.5,0.207c0.198,0,0.365-0.069,0.501-0.207c0.136-0.139,0.205-0.314,0.205-0.529
		c0-0.214-0.069-0.39-0.205-0.529c-0.136-0.138-0.303-0.207-0.501-0.207c-0.197,0-0.363,0.069-0.5,0.207
		c-0.136,0.14-0.205,0.315-0.205,0.529C18.521,3.457,18.59,3.633,18.726,3.771"/>
	<path fill="#FFFFFF" d="M19.901,3.925L19.88,3.904c-0.177,0.181-0.392,0.27-0.654,0.27c-0.262,0-0.478-0.089-0.653-0.27
		l-0.001-0.001l0.001,0.001c-0.175-0.182-0.262-0.399-0.263-0.662c0.001-0.262,0.088-0.481,0.263-0.662
		c0.176-0.18,0.392-0.269,0.653-0.27c0.261,0.001,0.476,0.09,0.653,0.271c0.176,0.181,0.264,0.399,0.264,0.66
		c0,0.263-0.087,0.48-0.263,0.662l0.044,0.043c0.187-0.191,0.28-0.429,0.279-0.705c0.001-0.274-0.094-0.511-0.28-0.703
		c-0.188-0.193-0.422-0.29-0.697-0.29c-0.276,0-0.511,0.097-0.697,0.289c-0.186,0.191-0.28,0.428-0.28,0.704s0.095,0.514,0.28,0.705
		c0.187,0.191,0.421,0.289,0.697,0.288c0.277,0.001,0.512-0.097,0.698-0.288L19.901,3.925 M18.726,3.771l-0.022,0.021
		c0.143,0.145,0.318,0.217,0.522,0.217c0.205,0,0.382-0.072,0.522-0.217c0.143-0.143,0.215-0.329,0.215-0.55
		s-0.072-0.407-0.215-0.55c-0.141-0.145-0.317-0.218-0.522-0.217c-0.204-0.001-0.38,0.072-0.522,0.217
		c-0.142,0.143-0.214,0.329-0.213,0.55c-0.001,0.221,0.071,0.407,0.213,0.55l0.044-0.043c-0.13-0.132-0.195-0.299-0.195-0.507
		s0.065-0.375,0.195-0.507c0.132-0.133,0.288-0.198,0.479-0.198c0.191,0,0.348,0.065,0.479,0.198h0.001h-0.001
		C19.836,2.867,19.9,3.034,19.9,3.242s-0.064,0.375-0.196,0.507c-0.131,0.133-0.287,0.198-0.479,0.198
		c-0.19,0-0.347-0.065-0.479-0.198L18.726,3.771z"/>
	<polygon fill="#FFFFFF" points="20.506,4.163 20.506,2.32 20.793,2.32 21.689,3.755 21.699,3.755 21.689,3.399 21.689,2.32 
		21.927,2.32 21.927,4.163 21.68,4.163 20.742,2.66 20.732,2.66 20.742,3.016 20.742,4.163 	"/>
	<path fill="#FFFFFF" d="M22.349,2.32h0.236v1.843h-0.236V2.32z M20.506,4.163h0.03V2.352h0.24l0.896,1.434h0.059l-0.011-0.387
		V2.352h0.175v1.781h-0.199L20.76,2.63H20.7l0.012,0.387v1.116h-0.206V4.163h0.03H20.506v0.031h0.267V3.016l-0.01-0.355h-0.03v0.031
		h0.01V2.66l-0.025,0.017l0.944,1.518h0.295V2.29h-0.298v1.109l0.01,0.356l0.031-0.001V3.724h-0.01v0.031l0.026-0.017L20.811,2.29
		h-0.336v1.904h0.031V4.163z"/>
	<polygon fill="#FFFFFF" points="22.348,4.163 22.379,4.163 22.379,2.352 22.554,2.352 22.554,4.133 22.348,4.133 22.348,4.163 
		22.379,4.163 22.348,4.163 22.348,4.194 22.615,4.194 22.615,2.29 22.317,2.29 22.317,4.194 22.348,4.194 	"/>
	<path fill="#FFFFFF" d="M23.007,4.163V2.321h0.666c0.145,0,0.27,0.047,0.375,0.142c0.105,0.097,0.158,0.216,0.158,0.359
		c0,0.088-0.023,0.165-0.068,0.231c-0.046,0.067-0.105,0.118-0.182,0.152v0.01c0.091,0.031,0.166,0.084,0.224,0.16
		c0.06,0.075,0.087,0.163,0.087,0.262c0,0.151-0.055,0.276-0.166,0.377c-0.109,0.099-0.24,0.148-0.392,0.148H23.007 M23.243,3.111
		h0.43c0.089,0,0.161-0.03,0.215-0.089c0.055-0.06,0.081-0.124,0.081-0.194c0-0.071-0.025-0.135-0.079-0.193
		c-0.052-0.058-0.121-0.088-0.207-0.088h-0.439V3.111z M23.243,3.938h0.476c0.091,0,0.165-0.032,0.223-0.097
		c0.056-0.062,0.084-0.132,0.084-0.208c0-0.074-0.028-0.144-0.087-0.207c-0.059-0.062-0.136-0.094-0.229-0.094h-0.466V3.938z"/>
	<path fill="#FFFFFF" d="M23.007,4.163h0.031V2.352h0.635c0.137,0.001,0.253,0.045,0.354,0.135c0.099,0.091,0.147,0.2,0.147,0.336
		c0,0.083-0.021,0.153-0.062,0.215C24.07,3.1,24.014,3.146,23.943,3.178l-0.019,0.009v0.052l0.021,0.007
		c0.086,0.03,0.154,0.079,0.21,0.15V3.395c0.054,0.07,0.081,0.15,0.081,0.243c-0.001,0.145-0.053,0.26-0.156,0.354
		c-0.106,0.095-0.229,0.141-0.372,0.142h-0.702V4.163h0.031H23.007v0.031h0.702c0.158,0,0.297-0.053,0.413-0.157
		c0.117-0.104,0.176-0.24,0.176-0.399c0-0.104-0.031-0.199-0.094-0.28c-0.062-0.08-0.143-0.138-0.238-0.17l-0.01,0.028h0.03v-0.01
		h-0.03l0.013,0.028c0.08-0.037,0.146-0.091,0.194-0.163c0.049-0.072,0.073-0.156,0.073-0.249c0.001-0.151-0.057-0.281-0.168-0.381
		L24.067,2.44l0.001,0.001c-0.11-0.101-0.244-0.151-0.396-0.151h-0.697v1.904h0.031V4.163 M23.243,3.111v0.03h0.43
		c0.096,0.001,0.178-0.032,0.238-0.099C23.969,2.979,24,2.906,23.999,2.828C24,2.75,23.97,2.677,23.913,2.614
		c-0.057-0.065-0.137-0.098-0.23-0.098h-0.471v0.625h0.031V3.111h0.031V2.578h0.408c0.079,0,0.139,0.026,0.186,0.077
		c0.048,0.054,0.07,0.11,0.07,0.173s-0.023,0.118-0.073,0.173c-0.048,0.053-0.109,0.079-0.192,0.079h-0.43V3.111h0.031H23.243z
		 M23.243,3.938v0.03h0.476c0.1,0,0.184-0.035,0.244-0.105c0.062-0.068,0.093-0.146,0.093-0.229c0-0.084-0.032-0.161-0.096-0.228
		c-0.062-0.069-0.15-0.104-0.251-0.104h-0.497v0.667h0.031V3.938h0.031V3.363h0.435c0.088,0,0.154,0.028,0.207,0.084
		c0.054,0.058,0.078,0.119,0.079,0.186c0,0.068-0.025,0.129-0.077,0.188c-0.052,0.057-0.115,0.085-0.199,0.085h-0.476V3.938h0.031
		H23.243z"/>
	<polygon fill="#FFFFFF" points="24.587,4.163 24.587,2.32 24.823,2.32 24.823,3.938 25.622,3.938 25.622,4.163 	"/>
	<polygon fill="#FFFFFF" points="24.587,4.163 24.617,4.163 24.617,2.352 24.793,2.352 24.793,3.968 25.591,3.968 25.591,4.133 
		24.587,4.133 24.587,4.163 24.617,4.163 24.587,4.163 24.587,4.194 25.651,4.194 25.651,3.906 24.854,3.906 24.854,2.29 
		24.556,2.29 24.556,4.194 24.587,4.194 	"/>
	<polygon fill="#FFFFFF" points="26.995,2.547 26.156,2.547 26.156,3.131 26.913,3.131 26.913,3.354 26.156,3.354 26.156,3.938 
		26.995,3.938 26.995,4.163 25.919,4.163 25.919,2.321 26.995,2.321 	"/>
	<polygon fill="#FFFFFF" points="26.995,2.547 26.995,2.517 26.125,2.517 26.125,3.162 26.883,3.162 26.883,3.322 26.125,3.322 
		26.125,3.968 26.966,3.968 26.966,4.133 25.95,4.133 25.95,2.352 26.966,2.352 26.966,2.547 26.995,2.547 26.995,2.517 
		26.995,2.547 27.026,2.547 27.026,2.29 25.89,2.29 25.89,4.194 27.026,4.194 27.026,3.906 26.188,3.906 26.188,3.383 26.943,3.383 
		26.943,3.102 26.188,3.102 26.188,2.578 27.026,2.578 27.026,2.547 	"/>
	<path fill="#FFFFFF" d="M28.426,4.204c-0.134,0-0.264-0.043-0.392-0.131s-0.212-0.21-0.251-0.367l0.216-0.088
		c0.026,0.102,0.078,0.187,0.158,0.256s0.17,0.104,0.269,0.104c0.104,0,0.191-0.026,0.265-0.08c0.072-0.054,0.108-0.128,0.108-0.221
		c0-0.103-0.036-0.183-0.108-0.237c-0.073-0.056-0.188-0.107-0.347-0.156c-0.163-0.052-0.286-0.117-0.37-0.199
		c-0.085-0.081-0.127-0.186-0.127-0.312c0-0.132,0.054-0.247,0.157-0.345c0.105-0.099,0.241-0.147,0.409-0.147
		c0.156,0,0.283,0.039,0.381,0.117c0.098,0.079,0.161,0.164,0.191,0.256l-0.216,0.09c-0.017-0.058-0.055-0.111-0.115-0.161
		c-0.062-0.05-0.141-0.074-0.236-0.074c-0.091,0-0.168,0.024-0.231,0.076c-0.065,0.05-0.098,0.112-0.098,0.188
		c0,0.068,0.03,0.126,0.089,0.173c0.06,0.048,0.146,0.09,0.262,0.128c0.091,0.029,0.167,0.058,0.228,0.085
		c0.062,0.027,0.123,0.064,0.186,0.109c0.062,0.046,0.109,0.102,0.142,0.17c0.031,0.068,0.047,0.146,0.047,0.235
		c0,0.09-0.018,0.17-0.055,0.239c-0.037,0.07-0.086,0.126-0.147,0.167c-0.061,0.041-0.126,0.072-0.197,0.095
		C28.572,4.193,28.5,4.204,28.426,4.204"/>
	<path fill="#FFFFFF" d="M28.426,4.204v-0.03c-0.127,0-0.251-0.041-0.375-0.125c-0.122-0.084-0.2-0.199-0.238-0.352l-0.029,0.009
		l0.011,0.027l0.217-0.087l-0.012-0.028l-0.03,0.008c0.027,0.106,0.084,0.197,0.168,0.271h0.001h-0.001
		c0.084,0.073,0.183,0.111,0.289,0.111c0.108,0,0.204-0.028,0.282-0.087c0.08-0.059,0.122-0.145,0.122-0.245
		c0-0.109-0.041-0.201-0.121-0.262c-0.078-0.06-0.196-0.112-0.355-0.161c-0.16-0.051-0.279-0.115-0.358-0.192
		c-0.078-0.076-0.117-0.17-0.117-0.29c0-0.124,0.047-0.229,0.147-0.323c0.099-0.091,0.226-0.138,0.388-0.138
		c0.152,0,0.27,0.037,0.362,0.11c0.094,0.075,0.152,0.155,0.18,0.241l0.03-0.01l-0.012-0.027l-0.217,0.09l0.013,0.027l0.028-0.008
		c-0.017-0.064-0.06-0.125-0.125-0.177c-0.066-0.055-0.152-0.082-0.255-0.082c-0.096,0-0.182,0.027-0.251,0.082
		c-0.071,0.055-0.109,0.129-0.109,0.214c0,0.078,0.036,0.146,0.102,0.197V2.97c0.062,0.05,0.153,0.094,0.27,0.132h0.001
		c0.091,0.029,0.165,0.057,0.226,0.084c0.058,0.026,0.118,0.062,0.179,0.106c0.058,0.042,0.103,0.095,0.132,0.157
		c0.029,0.063,0.044,0.138,0.044,0.223s-0.017,0.16-0.051,0.225c-0.035,0.067-0.081,0.118-0.137,0.157
		c-0.06,0.039-0.121,0.069-0.189,0.09c-0.066,0.021-0.136,0.03-0.207,0.03v0.062c0.077,0,0.152-0.011,0.226-0.034
		c0.074-0.021,0.142-0.055,0.205-0.098C28.922,4.06,28.974,4,29.013,3.926c0.039-0.075,0.06-0.16,0.06-0.254
		c0-0.093-0.018-0.177-0.051-0.248c-0.034-0.072-0.084-0.134-0.151-0.183h-0.001h0.001c-0.064-0.046-0.127-0.084-0.19-0.111
		c-0.062-0.029-0.14-0.058-0.23-0.086c-0.113-0.037-0.197-0.079-0.252-0.123c-0.053-0.043-0.077-0.09-0.077-0.149
		c0-0.067,0.026-0.119,0.085-0.165c0.058-0.046,0.128-0.069,0.213-0.069c0.091,0,0.162,0.023,0.216,0.067
		c0.059,0.047,0.092,0.096,0.105,0.146l0.009,0.033l0.248-0.103l0.026-0.011l-0.009-0.027c-0.031-0.1-0.1-0.19-0.2-0.271
		c-0.104-0.083-0.239-0.124-0.4-0.123c-0.174-0.001-0.319,0.051-0.43,0.154c-0.109,0.103-0.167,0.227-0.167,0.367
		c0,0.133,0.046,0.247,0.136,0.334c0.089,0.087,0.217,0.155,0.383,0.207c0.156,0.048,0.269,0.099,0.336,0.151
		c0.065,0.05,0.098,0.118,0.099,0.213c-0.001,0.085-0.032,0.146-0.098,0.196c-0.067,0.05-0.147,0.074-0.246,0.074
		c-0.092,0-0.173-0.031-0.249-0.097c-0.074-0.065-0.124-0.145-0.147-0.24l-0.009-0.034l-0.248,0.101l-0.026,0.01l0.007,0.026
		c0.041,0.164,0.129,0.295,0.264,0.386c0.132,0.09,0.27,0.137,0.409,0.137V4.204"/>
	<path fill="#FFFFFF" d="M30.022,4.204c-0.203,0-0.367-0.066-0.494-0.2C29.403,3.87,29.34,3.695,29.34,3.479V2.32h0.236v1.169
		c0,0.146,0.038,0.264,0.115,0.354c0.075,0.09,0.186,0.134,0.331,0.134c0.143,0,0.254-0.044,0.33-0.134
		c0.076-0.091,0.114-0.209,0.114-0.354V2.32h0.236v1.158c0,0.218-0.062,0.395-0.185,0.526C30.397,4.139,30.23,4.204,30.022,4.204"/>
	<path fill="#FFFFFF" d="M30.022,4.204v-0.03c-0.197,0-0.351-0.063-0.472-0.191c-0.12-0.127-0.18-0.293-0.18-0.504V2.352h0.174
		v1.138c0,0.151,0.04,0.277,0.122,0.374c0.083,0.098,0.204,0.146,0.355,0.146c0.149,0.001,0.271-0.048,0.353-0.146
		c0.083-0.097,0.122-0.223,0.122-0.374V2.352h0.176v1.127c0,0.213-0.06,0.379-0.176,0.506c-0.117,0.126-0.273,0.189-0.475,0.189
		v0.062c0.215,0,0.391-0.069,0.52-0.21c0.129-0.139,0.192-0.323,0.192-0.547V2.291h-0.298v1.198c0,0.142-0.037,0.25-0.108,0.334
		c-0.069,0.082-0.168,0.123-0.306,0.124c-0.14-0.001-0.238-0.042-0.309-0.124c-0.07-0.084-0.106-0.192-0.106-0.334V2.291H29.31
		v1.188c0,0.222,0.064,0.407,0.196,0.546c0.132,0.141,0.307,0.211,0.517,0.211V4.204"/>
	<path fill="#FFFFFF" d="M31.085,4.164V2.321h0.628c0.155,0,0.291,0.052,0.405,0.155c0.114,0.104,0.171,0.234,0.171,0.393
		c0,0.129-0.042,0.243-0.127,0.341c-0.083,0.099-0.188,0.161-0.313,0.187l-0.006,0.008l0.519,0.749v0.011H32.08l-0.496-0.747h-0.263
		v0.747H31.085 M31.321,3.196h0.381c0.094,0,0.175-0.031,0.243-0.094c0.067-0.061,0.102-0.14,0.102-0.233
		c0-0.081-0.03-0.154-0.09-0.222c-0.06-0.066-0.14-0.101-0.24-0.101h-0.396V3.196z"/>
	<path fill="#FFFFFF" d="M31.085,4.164h0.03V2.352h0.598c0.149,0,0.275,0.049,0.384,0.148c0.108,0.098,0.161,0.219,0.161,0.369
		c0,0.122-0.039,0.227-0.119,0.32c-0.08,0.095-0.178,0.152-0.297,0.178L31.83,3.369l-0.012,0.018l-0.013,0.019l0.524,0.758v0.001
		h0.031V4.133h-0.265L31.6,3.387h-0.309v0.746h-0.206V4.164h0.03H31.085v0.03h0.267V3.448h0.216l0.497,0.746h0.326V4.144
		l-0.521-0.757l-0.026,0.018l0.026,0.017l0.005-0.007l-0.025-0.018l0.007,0.03c0.131-0.027,0.242-0.094,0.331-0.197
		c0.089-0.103,0.134-0.225,0.133-0.36c0.001-0.165-0.061-0.307-0.182-0.415c-0.119-0.109-0.263-0.164-0.425-0.164h-0.659v1.904
		h0.031V4.164 M31.321,3.196v0.03h0.381c0.101,0,0.19-0.034,0.264-0.101c0.074-0.067,0.112-0.155,0.111-0.257
		c0.001-0.088-0.033-0.17-0.097-0.241c-0.066-0.074-0.156-0.112-0.264-0.111h-0.426v0.71h0.03V3.196h0.03V2.578h0.365
		c0.093,0.001,0.162,0.029,0.217,0.09c0.057,0.062,0.082,0.128,0.082,0.201c0,0.087-0.029,0.154-0.092,0.212
		c-0.062,0.056-0.134,0.084-0.222,0.084h-0.381V3.196h0.03H31.321z"/>
</g>
</svg>
