<?xml version="1.0" encoding="utf-8"?>
<!-- Generator: Adobe Illustrator 15.1.0, SVG Export Plug-In . SVG Version: 6.00 Build 0)  -->
<!DOCTYPE svg PUBLIC "-//W3C//DTD SVG 1.1//EN" "http://www.w3.org/Graphics/SVG/1.1/DTD/svg11.dtd">
<svg version="1.1" id="Calque_1" xmlns="http://www.w3.org/2000/svg" xmlns:xlink="http://www.w3.org/1999/xlink" x="0px" y="0px"
	 width="276.514px" height="61.486px" viewBox="3.217 0 276.514 61.486" enable-background="new 3.217 0 276.514 61.486"
	 xml:space="preserve">
<g>
	
		<linearGradient id="SVGID_1_" gradientUnits="userSpaceOnUse" x1="41.6282" y1="34.0125" x2="252.9813" y2="91.5639" gradientTransform="matrix(1 0 0 -1 0 62.4858)">
		<stop  offset="0" style="stop-color:#BAAAC7"/>
		<stop  offset="0.9571" style="stop-color:#9384B2"/>
	</linearGradient>
	<path fill="url(#SVGID_1_)" d="M6.213,15.873h10.975v41.502H6.213V15.873z"/>
	
		<linearGradient id="SVGID_2_" gradientUnits="userSpaceOnUse" x1="44.0271" y1="26.1091" x2="256.2793" y2="83.9054" gradientTransform="matrix(1 0 0 -1 0 62.4858)">
		<stop  offset="0" style="stop-color:#BAAAC7"/>
		<stop  offset="0.9571" style="stop-color:#9384B2"/>
	</linearGradient>
	<path fill="url(#SVGID_2_)" d="M24.426,15.873h10.238l16.291,21.937V15.873h10.86v41.502h-9.561l-16.97-22.768v22.768h-10.86
		L24.426,15.873L24.426,15.873z"/>
	
		<linearGradient id="SVGID_3_" gradientUnits="userSpaceOnUse" x1="46.3342" y1="18.2429" x2="258.4773" y2="76.0096" gradientTransform="matrix(1 0 0 -1 0 62.4858)">
		<stop  offset="0" style="stop-color:#BAAAC7"/>
		<stop  offset="0.9571" style="stop-color:#9384B2"/>
	</linearGradient>
	<path fill="url(#SVGID_3_)" d="M79.802,52.95v4.425H68.829V15.873h31.676v10.079H79.802v7.055h18.724v9.546H79.802V52.95"/>
	
		<linearGradient id="SVGID_4_" gradientUnits="userSpaceOnUse" x1="49.8079" y1="5.2351" x2="262.5677" y2="63.1696" gradientTransform="matrix(1 0 0 -1 0 62.4858)">
		<stop  offset="0" style="stop-color:#BAAAC7"/>
		<stop  offset="0.9571" style="stop-color:#9384B2"/>
	</linearGradient>
	<path fill="url(#SVGID_4_)" d="M104.238,36.742v-0.119c0-11.917,9.163-21.581,21.381-21.581c12.219,0,21.27,9.545,21.27,21.463
		v0.117c0,11.918-9.163,21.582-21.382,21.582C113.288,58.205,104.238,48.659,104.238,36.742z M135.631,36.742v-0.119
		c0-6.047-4.072-11.206-10.125-11.206s-10.068,5.101-10.068,11.088v0.117c0,5.988,4.13,11.207,10.182,11.207
		C131.615,47.83,135.631,42.73,135.631,36.742z"/>
	
		<linearGradient id="SVGID_5_" gradientUnits="userSpaceOnUse" x1="53.2117" y1="-6.1458" x2="265.5654" y2="51.6782" gradientTransform="matrix(1 0 0 -1 0 62.4858)">
		<stop  offset="0" style="stop-color:#BAAAC7"/>
		<stop  offset="0.9571" style="stop-color:#9384B2"/>
	</linearGradient>
	<path fill="url(#SVGID_5_)" d="M152.542,15.873h18.724c6.053,0,10.237,1.66,12.896,4.447c2.319,2.431,3.508,5.573,3.508,9.664
		v0.119c0,6.403-3.225,10.612-8.146,12.806l9.446,14.467h-12.614l-7.977-12.569h-4.863v12.569h-10.975L152.542,15.873
		L152.542,15.873z M170.813,35.794c3.677,0,5.883-1.896,5.883-4.921v-0.119c0-3.319-2.319-4.979-5.939-4.979h-7.239v10.021
		L170.813,35.794L170.813,35.794z"/>
	
		<linearGradient id="SVGID_6_" gradientUnits="userSpaceOnUse" x1="56.3552" y1="-17.1335" x2="268.6689" y2="40.6796" gradientTransform="matrix(1 0 0 -1 0 62.4858)">
		<stop  offset="0" style="stop-color:#BAAAC7"/>
		<stop  offset="0.9571" style="stop-color:#9384B2"/>
	</linearGradient>
	<path fill="url(#SVGID_6_)" d="M193.212,15.873h11.597l9.445,16.067l9.446-16.067h11.596v41.502h-10.917V33.541l-10.125,16.244
		h-0.227L203.959,33.6v23.774h-10.747V15.873z"/>
	
		<linearGradient id="SVGID_7_" gradientUnits="userSpaceOnUse" x1="58.72" y1="-24.7195" x2="270.8765" y2="33.0509" gradientTransform="matrix(1 0 0 -1 0 62.4858)">
		<stop  offset="0" style="stop-color:#BAAAC7"/>
		<stop  offset="0.9571" style="stop-color:#9384B2"/>
	</linearGradient>
	<path fill="url(#SVGID_7_)" d="M242.31,15.873h31.846v9.724H253.17v6.344h19.006v9.072H253.17v6.579h21.27v9.783H242.31V15.873z
		 M260.241,3.422l10.238,3.262l-8.371,6.344h-7.977L260.241,3.422z"/>
</g>
</svg>
