<?xml version="1.0" encoding="utf-8"?>
<!-- Generator: Adobe Illustrator 15.1.0, SVG Export Plug-In . SVG Version: 6.00 Build 0)  -->
<!DOCTYPE svg PUBLIC "-//W3C//DTD SVG 1.1//EN" "http://www.w3.org/Graphics/SVG/1.1/DTD/svg11.dtd">
<svg version="1.1" id="Calque_1" xmlns="http://www.w3.org/2000/svg" xmlns:xlink="http://www.w3.org/1999/xlink" x="0px" y="0px"
	 width="218.02px" height="34.212px" viewBox="0 0 218.02 34.212" enable-background="new 0 0 218.02 34.212" xml:space="preserve">
<polygon fill="#A81F1C" points="1.574,2.685 1.574,1.897 9.418,1.244 9.418,29.61 12.423,30.697 12.423,31.48 1.791,31.48 
	1.791,30.697 4.753,29.61 4.753,3.512 "/>
<path fill="#A81F1C" d="M17.842,22.942c0,3.701,0.784,7.62,5.314,7.62c1.266,0,3.18-0.563,5.928-3.176l0.87,1.089
	c-2.092,2.479-4.182,3.833-7.494,3.833c-5.883,0-9.802-3.184-9.802-9.758c0-5.714,3.397-9.976,9.366-9.976
	c5.142,0,8.193,3.744,8.193,8.716l-0.047,0.731H17.842V22.942z M25.641,20.371v-0.217c0-2.09-0.521-6.234-3.443-6.234
	c-2.917,0-3.923,3.621-4.268,6.451H25.641z"/>
<polygon points="41.015,4.292 52.579,24.381 52.4,5.911 49.875,5.078 49.875,4.292 57.711,4.292 57.711,5.078 54.969,5.911 
	54.884,32.048 51.708,32.048 37.531,8.435 37.748,29.61 41.015,30.656 41.015,31.483 31.56,31.483 31.56,30.656 35.049,29.566 
	35.049,6.168 31.996,5.078 31.996,4.292 "/>
<path d="M77.453,22.285c0,6.057-4.18,9.979-10.154,9.979c-5.969,0-10.107-3.923-10.107-9.979c0-6.486,3.662-9.713,10.022-9.713
	C73.618,12.572,77.453,15.665,77.453,22.285 M67.298,30.829c4.228,0,4.703-5.183,4.703-8.365c0-3.184-0.43-8.449-4.703-8.449
	c-4.092,0-4.7,5.094-4.7,8.191C62.598,25.343,63.072,30.829,67.298,30.829"/>
<path d="M84.573,12.967c0,0-0.047,6.746-0.047,11.279c0,4.365,0.351,6.188,2.964,6.188c0.31,0,2.008-0.044,3.486-1.823
	c1.135-1.357,1.135-2.576,1.22-5.02c0.128-3.964,0-8.189,0-8.409l-2.876-0.912v-0.908l7.669-0.396c0,0-0.128,11.762-0.044,16.645
	l3.14,0.779v0.783c-1.613,0-7.497,0.695-7.497,0.695l-0.264-2.691c-0.952,1.169-2.826,2.914-6.138,2.914
	c-4.44,0-6.407-1.222-6.407-6.445V15.101l-2.788-1.003v-0.786C77.865,13.312,84.573,12.967,84.573,12.967"/>
<polygon points="108.704,13.271 108.704,14.052 106.439,15.054 110.884,26.167 115.675,14.707 113.457,14.052 113.457,13.271 
	120.6,13.271 120.6,14.052 118.46,14.753 110.446,32.136 108.664,32.136 101.218,15.229 98.516,14.052 98.516,13.271 "/>
<path d="M124.259,22.942c0,3.701,0.784,7.62,5.314,7.62c1.269,0,3.183-0.563,5.931-3.176l0.871,1.089
	c-2.096,2.479-4.183,3.833-7.495,3.833c-5.889,0-9.809-3.184-9.809-9.758c0-5.714,3.405-9.976,9.373-9.976
	c5.14,0,8.193,3.744,8.193,8.716l-0.044,0.731h-12.335V22.942z M132.064,20.371v-0.217c0-2.09-0.526-6.234-3.438-6.234
	c-2.922,0-3.933,3.621-4.284,6.451H132.064z"/>
<polygon points="136.921,2.685 136.921,1.897 144.767,1.244 144.767,29.61 147.778,30.697 147.778,31.48 137.141,31.48 
	137.141,30.697 140.099,29.61 140.099,3.512 "/>
<polygon points="148.073,2.685 148.073,1.897 155.922,1.244 155.922,29.61 158.924,30.697 158.924,31.48 148.294,31.48 
	148.294,30.697 151.258,29.61 151.258,3.512 "/>
<path d="M159.059,14.229v-0.783l7.801-0.659v16.86l2.867,1.053v0.78h-10.365V30.7l2.879-1.053V15.054L159.059,14.229z M166.86,5.646
	c0,1.354-1.264,2.703-2.709,2.703c-1.436,0-2.695-1.35-2.695-2.703c0-1.355,1.26-2.704,2.695-2.704
	C165.596,2.941,166.86,4.29,166.86,5.646"/>
<path d="M184.286,13.794l-0.572,4.53l-1.002-0.084l-0.486-2.575c-0.854-0.523-2.695-1.435-4.473-1.435
	c-1.051,0-3.326,0.561-3.326,2.309c0,2.306,2.578,2.523,5.242,3.353c2.658,0.83,5.441,2.18,5.441,5.797
	c0,4.135-3.357,6.488-7.357,6.488c-2.27,0-4.707-0.567-6.842-1.742l0.74-5.271l1.09,0.135l0.305,3.266
	c1.654,1.174,2.656,1.87,4.742,1.87c1.959,0,3.965-0.911,3.965-3.178c0-2.187-3.402-3.095-5.268-3.665
	c-2.359-0.689-5.188-1.479-5.188-5.352c0-4.229,3.355-5.577,7.107-5.577C181.102,12.663,183.147,13.358,184.286,13.794"/>
<path d="M193.688,7.866v5.401h4.535v1.611h-4.535v9.632c0,2.746-0.039,4.485,1.045,5.312c0.393,0.307,0.885,0.392,1.354,0.392
	c0.83,0,1.748-0.26,2.527-0.648l0.352,1.169c-1.047,0.789-3.002,1.31-4.881,1.31c-1.736,0-3.396-0.433-4.188-1.518
	c-0.83-1.137-0.957-2.618-0.957-4.665c0-0.873,0.047-1.923,0.047-3.051v-7.933h-3.223v-1.611h3.223V9.085L193.688,7.866z"/>
<path d="M204.278,22.942c0,3.701,0.777,7.62,5.316,7.62c1.262,0,3.172-0.563,5.92-3.176l0.875,1.089
	c-2.092,2.479-4.188,3.833-7.498,3.833c-5.875,0-9.801-3.184-9.801-9.758c0-5.714,3.402-9.976,9.367-9.976
	c5.145,0,8.188,3.744,8.188,8.716l-0.043,0.731h-12.324V22.942z M212.075,20.371v-0.217c0-2.09-0.516-6.234-3.443-6.234
	c-2.92,0-3.926,3.621-4.273,6.451H212.075z"/>
</svg>
