<?xml version="1.0" encoding="utf-8"?>
<!-- Generator: Adobe Illustrator 15.1.0, SVG Export Plug-In . SVG Version: 6.00 Build 0)  -->
<!DOCTYPE svg PUBLIC "-//W3C//DTD SVG 1.1//EN" "http://www.w3.org/Graphics/SVG/1.1/DTD/svg11.dtd">
<svg version="1.1" id="Calque_1" xmlns="http://www.w3.org/2000/svg" xmlns:xlink="http://www.w3.org/1999/xlink" x="0px" y="0px"
	 width="263.71px" height="80.406px" viewBox="0 0 263.71 80.406" enable-background="new 0 0 263.71 80.406" xml:space="preserve">
<g>
	
		<linearGradient id="SVGID_1_" gradientUnits="userSpaceOnUse" x1="24.8936" y1="24.7485" x2="51.3933" y2="146.7472" gradientTransform="matrix(1 0 0 -1 0 81.4053)">
		<stop  offset="0" style="stop-color:#BAAAC7"/>
		<stop  offset="0.9571" style="stop-color:#9384B2"/>
	</linearGradient>
	<path fill="url(#SVGID_1_)" d="M5.708,34.258H25.7c6.462,0,10.933,1.695,13.771,4.542c2.477,2.483,3.745,5.69,3.745,9.87v0.119
		c0,6.539-3.443,10.838-8.698,13.078l10.086,14.772H31.136L22.62,63.802h-5.195v12.837H5.708V34.258z M25.217,54.6
		c3.926,0,6.282-1.937,6.282-5.024v-0.121c0-3.391-2.477-5.086-6.342-5.086h-7.731V54.6H25.217z"/>
	
		<linearGradient id="SVGID_2_" gradientUnits="userSpaceOnUse" x1="64.1704" y1="16.2153" x2="90.6704" y2="138.2153" gradientTransform="matrix(1 0 0 -1 0 81.4053)">
		<stop  offset="0" style="stop-color:#BAAAC7"/>
		<stop  offset="0.9571" style="stop-color:#9384B2"/>
	</linearGradient>
	<path fill="url(#SVGID_2_)" d="M49.133,34.258h34.005v9.929H60.73v6.479h20.294v9.265H60.73v6.72h22.71v9.99H49.133V34.258z"/>
	
		<linearGradient id="SVGID_3_" gradientUnits="userSpaceOnUse" x1="101.8203" y1="8.0396" x2="128.3212" y2="130.0435" gradientTransform="matrix(1 0 0 -1 0 81.4053)">
		<stop  offset="0" style="stop-color:#BAAAC7"/>
		<stop  offset="0.9571" style="stop-color:#9384B2"/>
	</linearGradient>
	<path fill="url(#SVGID_3_)" d="M86.277,70.341l6.524-7.811c4.228,3.33,8.818,5.086,13.71,5.086c3.201,0,4.892-1.09,4.892-2.906
		v-0.121c0-1.815-1.389-2.723-7.188-4.115c-8.999-2.059-15.945-4.602-15.945-13.26v-0.121c0-7.871,6.221-13.561,16.368-13.561
		c7.188,0,12.805,1.938,17.395,5.631l-5.859,8.293c-3.866-2.785-8.093-4.176-11.838-4.176c-2.839,0-4.228,1.149-4.228,2.723v0.121
		c0,1.938,1.45,2.785,7.369,4.117c9.664,2.119,15.703,5.268,15.703,13.198v0.121c0,8.657-6.825,13.806-17.093,13.806
		C98.599,77.367,91.532,75.003,86.277,70.341z"/>
	
		<linearGradient id="SVGID_4_" gradientUnits="userSpaceOnUse" x1="134.9277" y1="0.8481" x2="161.4283" y2="122.8507" gradientTransform="matrix(1 0 0 -1 0 81.4053)">
		<stop  offset="0" style="stop-color:#BAAAC7"/>
		<stop  offset="0.9571" style="stop-color:#9384B2"/>
	</linearGradient>
	<path fill="url(#SVGID_4_)" d="M137.979,44.55h-12.624V34.258h37.024V44.55h-12.684v32.089h-11.717V44.55L137.979,44.55z"/>
	
		<linearGradient id="SVGID_5_" gradientUnits="userSpaceOnUse" x1="177.2148" y1="-8.3379" x2="203.714" y2="113.6584" gradientTransform="matrix(1 0 0 -1 0 81.4053)">
		<stop  offset="0" style="stop-color:#BAAAC7"/>
		<stop  offset="0.9571" style="stop-color:#9384B2"/>
	</linearGradient>
	<path fill="url(#SVGID_5_)" d="M167.512,34.258h34.004v9.929h-22.408v6.479h20.295v9.265h-20.295v6.72h22.711v9.99h-34.307V34.258z
		"/>
	
		<linearGradient id="SVGID_6_" gradientUnits="userSpaceOnUse" x1="217.9346" y1="-17.1821" x2="244.4349" y2="104.8192" gradientTransform="matrix(1 0 0 -1 0 81.4053)">
		<stop  offset="0" style="stop-color:#BAAAC7"/>
		<stop  offset="0.9571" style="stop-color:#9384B2"/>
	</linearGradient>
	<path fill="url(#SVGID_6_)" d="M207.855,34.258h19.992c6.463,0,10.934,1.695,13.771,4.542c2.478,2.483,3.745,5.69,3.745,9.87v0.119
		c0,6.539-3.442,10.838-8.697,13.078l10.087,14.772h-13.469l-8.519-12.837h-5.192v12.837h-11.718V34.258L207.855,34.258z
		 M227.365,54.6c3.926,0,6.281-1.937,6.281-5.024v-0.121c0-3.391-2.477-5.086-6.342-5.086h-7.73V54.6H227.365z"/>
</g>
<g>
	<path fill="#FFFFFF" d="M6.446,13.096V7.375h2.677v5.663c0,1.47,0.697,2.169,1.762,2.169c1.079,0,1.775-0.669,1.775-2.096V7.375
		h2.677v5.648c0,3.275-1.762,4.731-4.479,4.731C8.153,17.754,6.446,16.284,6.446,13.096z"/>
	<path fill="#FFFFFF" d="M16.911,7.375h2.472l3.933,5.386V7.375h2.622v10.19H23.63l-4.097-5.59v5.59h-2.622V7.375z"/>
	<path fill="#FFFFFF" d="M27.634,7.375h7.688v2.387h-5.066v1.558h4.589v2.228h-4.589v1.616h5.135v2.402h-7.757V7.375z"/>
	<path fill="#FFFFFF" d="M39.821,16.051l1.475-1.878c0.956,0.8,1.994,1.223,3.1,1.223c0.724,0,1.106-0.262,1.106-0.699v-0.029
		c0-0.437-0.314-0.655-1.625-0.99c-2.035-0.495-3.605-1.105-3.605-3.188v-0.029c0-1.893,1.406-3.261,3.701-3.261
		c1.625,0,2.896,0.466,3.933,1.354l-1.325,1.994c-0.874-0.669-1.83-1.004-2.677-1.004c-0.642,0-0.956,0.277-0.956,0.655v0.029
		c0,0.466,0.328,0.67,1.666,0.99c2.185,0.509,3.551,1.266,3.551,3.173v0.029c0,2.082-1.543,3.319-3.865,3.319
		C42.606,17.74,41.009,17.172,39.821,16.051z"/>
	<path fill="#FFFFFF" d="M49.452,7.375h7.688v2.387h-5.066v1.558h4.589v2.228h-4.589v1.616h5.135v2.402h-7.757V7.375z"/>
	<path fill="#FFFFFF" d="M58.468,13.096V7.375h2.677v5.663c0,1.47,0.697,2.169,1.762,2.169c1.079,0,1.775-0.669,1.775-2.096V7.375
		h2.677v5.648c0,3.275-1.762,4.731-4.479,4.731C60.175,17.754,58.468,16.284,58.468,13.096z"/>
	<path fill="#FFFFFF" d="M68.933,7.375h2.649v7.715h4.629v2.475h-7.279L68.933,7.375L68.933,7.375z"/>
	<path fill="#FFFFFF" d="M77.361,7.375h7.688v2.387h-5.066v1.558h4.589v2.228h-4.589v1.616h5.135v2.402h-7.757V7.375z"/>
	<path fill="#FFFFFF" d="M93.576,7.302h2.554l4.069,10.263h-2.84l-0.683-1.834h-3.701l-0.683,1.834H89.52L93.576,7.302z
		 M95.898,13.533l-1.065-2.882l-1.079,2.882H95.898z"/>
	<path fill="#FFFFFF" d="M101.132,7.375h4.111c2.403,0,3.96,1.325,3.96,3.566v0.029c0,2.417-1.734,3.683-4.097,3.683h-1.325v2.911
		h-2.649V7.375z M105.052,12.441c0.929,0,1.516-0.539,1.516-1.339v-0.029c0-0.874-0.587-1.325-1.53-1.325h-1.256v2.693H105.052z"/>
	<path fill="#FFFFFF" d="M110.326,7.375h4.111c2.403,0,3.96,1.325,3.96,3.566v0.029c0,2.417-1.734,3.683-4.097,3.683h-1.325v2.911
		h-2.649V7.375z M114.246,12.441c0.929,0,1.516-0.539,1.516-1.339v-0.029c0-0.874-0.587-1.325-1.53-1.325h-1.256v2.693H114.246z"/>
	<path fill="#FFFFFF" d="M119.52,7.375h2.649v7.715h4.629v2.475h-7.279L119.52,7.375L119.52,7.375z"/>
	<path fill="#FFFFFF" d="M128.018,7.375h2.649v10.19h-2.649V7.375z"/>
	<path fill="#FFFFFF" d="M132.102,12.499V12.47c0-2.97,2.131-5.299,5.025-5.299c1.953,0,3.21,0.874,4.057,2.111l-1.994,1.645
		c-0.545-0.713-1.174-1.194-2.09-1.194c-1.338,0-2.279,1.223-2.279,2.708v0.029c0,1.528,0.941,2.722,2.279,2.722
		c0.998,0,1.586-0.495,2.158-1.238l1.994,1.514c-0.9,1.325-2.117,2.3-4.22,2.3C134.301,17.769,132.102,15.542,132.102,12.499z"/>
	<path fill="#FFFFFF" d="M145.626,7.302h2.554l4.069,10.263h-2.841l-0.684-1.834h-3.699l-0.685,1.834h-2.771L145.626,7.302z
		 M147.947,13.533l-1.064-2.882l-1.08,2.882H147.947z"/>
	<path fill="#FFFFFF" d="M154.287,9.85h-2.854V7.375h8.371V9.85h-2.867v7.715h-2.649L154.287,9.85L154.287,9.85z"/>
	<path fill="#FFFFFF" d="M161.037,7.375h2.648v10.19h-2.648V7.375z"/>
	<path fill="#FFFFFF" d="M165.121,12.499V12.47c0-2.926,2.213-5.299,5.162-5.299s5.135,2.344,5.135,5.27v0.029
		c0,2.926-2.212,5.298-5.162,5.298C167.307,17.769,165.121,15.425,165.121,12.499z M172.701,12.499V12.47
		c0-1.485-0.983-2.751-2.445-2.751c-1.461,0-2.43,1.252-2.43,2.722v0.029c0,1.47,0.996,2.751,2.457,2.751
		C171.73,15.221,172.701,13.969,172.701,12.499z"/>
	<path fill="#FFFFFF" d="M176.788,7.375h2.472l3.934,5.386V7.375h2.621v10.19h-2.307l-4.098-5.59v5.59h-2.622V7.375z"/>
	<path fill="#FFFFFF" d="M191.296,7.375h4.11c2.404,0,3.961,1.325,3.961,3.566v0.029c0,2.417-1.734,3.683-4.098,3.683h-1.324v2.911
		h-2.649V7.375L191.296,7.375z M195.215,12.441c0.93,0,1.518-0.539,1.518-1.339v-0.029c0-0.874-0.588-1.325-1.53-1.325h-1.257v2.693
		H195.215z"/>
	<path fill="#FFFFFF" d="M200.176,12.499V12.47c0-2.926,2.213-5.299,5.162-5.299c2.95,0,5.135,2.344,5.135,5.27v0.029
		c0,2.926-2.212,5.298-5.162,5.298C202.361,17.769,200.176,15.425,200.176,12.499z M207.756,12.499V12.47
		c0-1.485-0.982-2.751-2.445-2.751c-1.461,0-2.43,1.252-2.43,2.722v0.029c0,1.47,0.996,2.751,2.457,2.751
		C206.786,15.221,207.756,13.969,207.756,12.499z"/>
	<path fill="#FFFFFF" d="M211.732,13.096V7.375h2.678v5.663c0,1.47,0.697,2.169,1.762,2.169c1.079,0,1.775-0.669,1.775-2.096V7.375
		h2.677v5.648c0,3.275-1.763,4.731-4.479,4.731C213.439,17.754,211.732,16.284,211.732,13.096z"/>
	<path fill="#FFFFFF" d="M222.197,7.375h4.521c1.462,0,2.472,0.408,3.113,1.092c0.56,0.597,0.847,1.369,0.847,2.373v0.029
		c0,1.572-0.777,2.606-1.967,3.145l2.28,3.552h-3.046l-1.926-3.086h-1.174v3.086h-2.65V7.375H222.197z M226.609,12.266
		c0.887,0,1.42-0.466,1.42-1.208v-0.029c0-0.815-0.562-1.223-1.434-1.223h-1.748v2.46H226.609z"/>
</g>
</svg>
