<?xml version="1.0" encoding="utf-8"?>
<!-- Generator: Adobe Illustrator 15.1.0, SVG Export Plug-In . SVG Version: 6.00 Build 0)  -->
<!DOCTYPE svg PUBLIC "-//W3C//DTD SVG 1.1//EN" "http://www.w3.org/Graphics/SVG/1.1/DTD/svg11.dtd">
<svg version="1.1" id="Calque_1" xmlns="http://www.w3.org/2000/svg" xmlns:xlink="http://www.w3.org/1999/xlink" x="0px" y="0px"
	 width="311.652px" height="48.686px" viewBox="0 -16.893 311.652 48.686" enable-background="new 0 -16.893 311.652 48.686"
	 xml:space="preserve">
<g>
	<g>
		<path fill="#FFFFFF" d="M17.842,27.48l0.915-1.088c0.828,0.717,1.656,1.125,2.731,1.125c0.939,0,1.533-0.434,1.533-1.088v-0.023
			c0-0.618-0.346-0.952-1.953-1.322c-1.842-0.445-2.88-0.989-2.88-2.583v-0.024c0-1.482,1.236-2.51,2.954-2.51
			c1.261,0,2.262,0.383,3.139,1.088l-0.815,1.149c-0.779-0.581-1.558-0.89-2.349-0.89c-0.889,0-1.408,0.457-1.408,1.024v0.024
			c0,0.668,0.395,0.965,2.051,1.359c1.83,0.443,2.781,1.101,2.781,2.533v0.024c0,1.618-1.273,2.584-3.09,2.584
			C20.129,28.866,18.881,28.408,17.842,27.48"/>
		<path fill="#FFFFFF" d="M31.392,25.491v-0.024c0-1.261-0.853-2.089-1.866-2.089c-1.014,0-1.904,0.841-1.904,2.089v0.024
			c0,1.261,0.89,2.089,1.904,2.089C30.552,27.58,31.392,26.775,31.392,25.491 M26.165,22.215h1.496v1.088
			c0.481-0.68,1.161-1.224,2.212-1.224c1.545,0,3.04,1.224,3.04,3.387v0.024c0,2.162-1.483,3.387-3.04,3.387
			c-1.076,0-1.755-0.544-2.212-1.148v2.99h-1.496V22.215z"/>
		<path fill="#FFFFFF" d="M39.553,25.516v-0.024c0-1.149-0.828-2.101-2.003-2.101c-1.198,0-1.964,0.939-1.964,2.075v0.024
			c0,1.138,0.827,2.102,1.989,2.102C38.786,27.592,39.553,26.641,39.553,25.516 M34.09,25.516v-0.024c0-1.866,1.483-3.41,3.485-3.41
			s3.473,1.521,3.473,3.386v0.024c0,1.854-1.483,3.399-3.498,3.399C35.562,28.891,34.09,27.371,34.09,25.516"/>
		<path fill="#FFFFFF" d="M42.572,22.215h1.496v1.473c0.407-0.978,1.161-1.646,2.311-1.596v1.582h-0.087
			c-1.31,0-2.224,0.852-2.224,2.583v2.484h-1.496V22.215z"/>
		<path fill="#FFFFFF" d="M47.988,26.938v-3.436H47.16v-1.287h0.828v-1.792h1.495v1.792h1.756v1.287h-1.756v3.2
			c0,0.581,0.297,0.815,0.804,0.815c0.333,0,0.63-0.074,0.927-0.224v1.224c-0.371,0.211-0.791,0.334-1.348,0.334
			C48.766,28.854,47.988,28.371,47.988,26.938"/>
		<path fill="#FFFFFF" d="M52.216,27.889l0.667-1.014c0.705,0.531,1.471,0.805,2.139,0.805c0.642,0,1.013-0.272,1.013-0.705V26.95
			c0-0.507-0.692-0.681-1.458-0.915c-0.964-0.271-2.04-0.667-2.04-1.916v-0.024c0-1.235,1.026-1.989,2.324-1.989
			c0.816,0,1.706,0.285,2.398,0.742l-0.593,1.062c-0.631-0.384-1.298-0.617-1.842-0.617c-0.581,0-0.915,0.271-0.915,0.653v0.025
			c0,0.471,0.705,0.668,1.471,0.914c0.952,0.297,2.027,0.729,2.027,1.903v0.024c0,1.371-1.063,2.053-2.422,2.053
			C54.059,28.866,53.032,28.532,52.216,27.889"/>
	</g>
	<rect x="66.857" y="18.878" fill="#FFFFFF" width="1.199" height="11.444"/>
	<path fill="#FFFFFF" d="M82.929,25.307l-1.495-3.462l-1.484,3.462H82.929z M80.754,20.027h1.409l3.807,8.715h-1.607l-0.877-2.09
		h-4.092l-0.889,2.09h-1.558L80.754,20.027z"/>
	<g>
		<path fill="#FFFFFF" d="M87.382,23.501h-0.828v-1.249h0.828v-0.469c0-0.729,0.186-1.273,0.532-1.619
			c0.345-0.348,0.828-0.52,1.47-0.52c0.519,0,0.878,0.073,1.211,0.172v1.262c-0.296-0.1-0.556-0.16-0.877-0.16
			c-0.568,0-0.865,0.309-0.865,0.988v0.357h1.73V23.5h-1.705v5.24h-1.496V23.501z"/>
		<path fill="#FFFFFF" d="M92.02,23.501h-0.828v-1.249h0.828v-0.469c0-0.729,0.185-1.273,0.532-1.619
			c0.345-0.348,0.828-0.52,1.47-0.52c0.519,0,0.878,0.073,1.211,0.172v1.262c-0.296-0.1-0.556-0.16-0.877-0.16
			c-0.568,0-0.865,0.309-0.865,0.988v0.357h1.73V23.5h-1.705v5.24H92.02V23.501z"/>
		<path fill="#FFFFFF" d="M100.191,26.009c-0.383-0.147-0.914-0.259-1.495-0.259c-0.94,0-1.496,0.384-1.496,1.014v0.024
			c0,0.618,0.556,0.964,1.261,0.964c0.989,0,1.73-0.557,1.73-1.371V26.009z M100.153,28.742v-0.805
			c-0.445,0.532-1.125,0.939-2.114,0.939c-1.236,0-2.323-0.704-2.323-2.016v-0.023c0-1.445,1.124-2.139,2.645-2.139
			c0.791,0,1.297,0.111,1.804,0.271v-0.123c0-0.902-0.568-1.396-1.607-1.396c-0.729,0-1.273,0.16-1.866,0.408l-0.408-1.199
			c0.717-0.321,1.422-0.544,2.485-0.544c1.928,0,2.867,1.014,2.867,2.757v3.868L100.153,28.742L100.153,28.742z"/>
	</g>
	<path fill="#FFFFFF" d="M103.494,22.215h1.496v6.526h-1.496V22.215z M103.432,19.793h1.607v1.421h-1.607V19.793z"/>
	<g>
		<path fill="#FFFFFF" d="M106.943,22.215h1.496v1.473c0.407-0.978,1.161-1.646,2.311-1.596v1.582h-0.087
			c-1.31,0-2.224,0.852-2.224,2.583v2.484h-1.496V22.215z"/>
		<path fill="#FFFFFF" d="M116.314,25.021c-0.1-0.965-0.668-1.719-1.656-1.719c-0.914,0-1.558,0.705-1.693,1.719H116.314z
			 M111.482,25.503v-0.024c0-1.865,1.321-3.398,3.188-3.398c2.076,0,3.127,1.632,3.127,3.511c0,0.136-0.012,0.271-0.023,0.42h-4.797
			c0.161,1.062,0.915,1.656,1.879,1.656c0.729,0,1.248-0.272,1.769-0.778l0.877,0.778c-0.618,0.741-1.472,1.224-2.671,1.224
			C112.939,28.891,111.482,27.518,111.482,25.503"/>
		<path fill="#FFFFFF" d="M118.777,27.889l0.668-1.014c0.705,0.531,1.471,0.805,2.139,0.805c0.643,0,1.013-0.272,1.013-0.705V26.95
			c0-0.507-0.692-0.681-1.458-0.915c-0.964-0.271-2.04-0.667-2.04-1.916v-0.024c0-1.235,1.026-1.989,2.324-1.989
			c0.815,0,1.706,0.285,2.397,0.742l-0.592,1.062c-0.632-0.384-1.299-0.617-1.843-0.617c-0.581,0-0.915,0.271-0.915,0.653v0.025
			c0,0.471,0.705,0.668,1.471,0.914c0.953,0.297,2.027,0.729,2.027,1.903v0.024c0,1.371-1.062,2.053-2.423,2.053
			C120.619,28.866,119.592,28.532,118.777,27.889"/>
	</g>
	<rect x="131.542" y="18.965" fill="#FFFFFF" width="1.198" height="11.445"/>
	<polygon fill="#FFFFFF" points="145.273,19.967 146.793,19.967 146.793,27.236 151.341,27.236 151.341,28.619 145.273,28.619 	"/>
	<g>
		<path fill="#FFFFFF" d="M157.115,24.898c-0.1-0.963-0.666-1.719-1.655-1.719c-0.914,0-1.558,0.705-1.693,1.719H157.115z
			 M152.283,25.38v-0.022c0-1.867,1.322-3.4,3.189-3.4c2.076,0,3.126,1.632,3.126,3.511c0,0.138-0.012,0.271-0.023,0.421h-4.796
			c0.162,1.062,0.916,1.655,1.879,1.655c0.729,0,1.25-0.271,1.769-0.776l0.877,0.776c-0.618,0.741-1.471,1.226-2.67,1.226
			C153.742,28.768,152.283,27.396,152.283,25.38"/>
	</g>
	<polygon fill="#FFFFFF" points="163.979,19.967 165.598,19.967 168.233,24.059 170.864,19.967 172.483,19.967 172.483,28.619 
		170.963,28.619 170.963,22.415 168.233,26.493 168.182,26.493 165.475,22.439 165.475,28.619 163.979,28.619 	"/>
	<g>
		<path fill="#FFFFFF" d="M178.569,25.889c-0.383-0.149-0.914-0.261-1.494-0.261c-0.94,0-1.496,0.384-1.496,1.013v0.024
			c0,0.618,0.556,0.965,1.261,0.965c0.987,0,1.729-0.557,1.729-1.371V25.889L178.569,25.889z M178.532,28.619v-0.805
			c-0.445,0.533-1.125,0.94-2.113,0.94c-1.236,0-2.323-0.704-2.323-2.016v-0.023c0-1.446,1.124-2.14,2.644-2.14
			c0.793,0,1.299,0.111,1.806,0.271v-0.123c0-0.902-0.567-1.396-1.606-1.396c-0.729,0-1.271,0.161-1.865,0.408l-0.408-1.199
			c0.717-0.32,1.422-0.544,2.484-0.544c1.928,0,2.867,1.015,2.867,2.757v3.868L178.532,28.619L178.532,28.619z"/>
		<path fill="#FFFFFF" d="M186.741,25.046v-0.022c0-1.076-0.877-1.807-1.916-1.807c-1.037,0-1.854,0.717-1.854,1.792v0.025
			c0,1.075,0.828,1.804,1.854,1.804C185.864,26.838,186.741,26.098,186.741,25.046 M181.784,29.842l0.557-1.125
			c0.693,0.434,1.436,0.692,2.324,0.692c1.336,0,2.064-0.692,2.064-2.002V26.9c-0.545,0.705-1.226,1.197-2.3,1.197
			c-1.532,0-2.967-1.137-2.967-3.053v-0.023c0-1.929,1.446-3.065,2.967-3.065c1.101,0,1.779,0.507,2.287,1.112v-0.978h1.494v5.191
			c0,1.101-0.283,1.916-0.828,2.46c-0.592,0.593-1.508,0.877-2.683,0.877C183.627,30.621,182.625,30.35,181.784,29.842"/>
	</g>
	<rect x="198.008" y="18.755" fill="#FFFFFF" width="1.199" height="11.445"/>
	<g>
		<path fill="#FFFFFF" d="M207.987,27.345l1-1.024c0.508,0.643,1.015,1.014,1.744,1.014c0.814,0,1.371-0.544,1.371-1.693v-5.673
			h1.557v5.71c0,1.025-0.297,1.792-0.803,2.299c-0.507,0.508-1.236,0.768-2.102,0.768C209.42,28.743,208.555,28.125,207.987,27.345"
			/>
		<path fill="#FFFFFF" d="M220.053,24.898c-0.1-0.963-0.668-1.719-1.656-1.719c-0.914,0-1.559,0.705-1.693,1.719H220.053z
			 M215.22,25.38v-0.022c0-1.867,1.321-3.4,3.188-3.4c2.076,0,3.127,1.632,3.127,3.511c0,0.138-0.014,0.271-0.025,0.421h-4.795
			c0.16,1.062,0.914,1.655,1.879,1.655c0.729,0,1.248-0.271,1.768-0.776l0.877,0.776c-0.616,0.741-1.471,1.226-2.67,1.226
			C216.678,28.768,215.22,27.396,215.22,25.38"/>
		<path fill="#FFFFFF" d="M222.972,26.246v-4.152h1.496v3.708c0,1.013,0.507,1.595,1.396,1.595c0.865,0,1.473-0.605,1.473-1.619
			v-3.684h1.495v6.525h-1.495v-1.014c-0.42,0.619-1.025,1.149-2.039,1.149C223.825,28.755,222.972,27.768,222.972,26.246"/>
	</g>
	<polygon fill="#FFFFFF" points="232.542,25.307 230.231,22.092 231.862,22.092 233.37,24.244 234.877,22.092 236.471,22.092 
		234.161,25.27 236.571,28.62 234.94,28.62 233.333,26.333 231.739,28.62 230.143,28.62 	"/>
	<rect x="245.811" y="18.755" fill="#FFFFFF" width="1.198" height="11.445"/>
	<polygon fill="#FFFFFF" points="256.641,19.967 258.26,19.967 260.893,24.059 263.526,19.967 265.143,19.967 265.143,28.619 
		263.624,28.619 263.624,22.415 260.893,26.493 260.842,26.493 258.137,22.439 258.137,28.619 256.641,28.619 	"/>
	<g>
		<path fill="#FFFFFF" d="M270.649,19.239l1.359,0.604l-1.508,1.423h-1.161L270.649,19.239z M271.674,24.898
			c-0.1-0.963-0.667-1.719-1.656-1.719c-0.914,0-1.557,0.705-1.691,1.719H271.674z M266.842,25.38v-0.022
			c0-1.867,1.322-3.4,3.188-3.4c2.078,0,3.129,1.632,3.129,3.511c0,0.138-0.014,0.271-0.024,0.421h-4.795
			c0.16,1.062,0.914,1.655,1.878,1.655c0.729,0,1.249-0.271,1.77-0.776l0.877,0.776c-0.619,0.741-1.472,1.226-2.67,1.226
			C268.3,28.768,266.842,27.396,266.842,25.38"/>
		<path fill="#FFFFFF" d="M274.979,26.814v-3.436h-0.828v-1.287h0.828V20.3h1.494v1.792h1.756v1.287h-1.756v3.201
			c0,0.581,0.297,0.814,0.805,0.814c0.332,0,0.629-0.074,0.926-0.224v1.224c-0.369,0.211-0.791,0.334-1.348,0.334
			C275.756,28.73,274.979,28.249,274.979,26.814"/>
		<path fill="#FFFFFF" d="M283.188,19.239l1.357,0.604l-1.508,1.423h-1.16L283.188,19.239z M284.211,24.898
			c-0.098-0.963-0.666-1.719-1.655-1.719c-0.913,0-1.558,0.705-1.692,1.719H284.211z M279.379,25.38v-0.022
			c0-1.867,1.322-3.4,3.188-3.4c2.078,0,3.127,1.632,3.127,3.511c0,0.138-0.012,0.271-0.023,0.421h-4.795
			c0.16,1.062,0.914,1.655,1.879,1.655c0.729,0,1.248-0.271,1.768-0.776l0.877,0.776c-0.617,0.741-1.471,1.226-2.67,1.226
			C280.838,28.768,279.379,27.396,279.379,25.38"/>
		<path fill="#FFFFFF" d="M292.311,25.393v-0.023c0-1.15-0.828-2.102-2.002-2.102c-1.199,0-1.965,0.939-1.965,2.075v0.025
			c0,1.137,0.827,2.101,1.989,2.101C291.544,27.469,292.311,26.518,292.311,25.393 M286.848,25.393v-0.023
			c0-1.867,1.483-3.411,3.485-3.411s3.473,1.521,3.473,3.386v0.025c0,1.854-1.483,3.398-3.497,3.398
			C288.319,28.768,286.848,27.248,286.848,25.393"/>
	</g>
	<path fill="#FFFFFF" d="M8.208,4.671l1.496,3.461H6.724L8.208,4.671z M7.528,2.854l-3.807,8.714h1.558l0.889-2.089h4.091
		l0.878,2.089h1.607L8.937,2.854H7.528z"/>
	<g>
		<path fill="#FFFFFF" d="M13.403,8.342V8.317c0-1.854,1.434-3.41,3.386-3.41c1.237,0,2.003,0.458,2.608,1.125l-0.927,1
			c-0.457-0.481-0.939-0.815-1.693-0.815c-1.088,0-1.879,0.94-1.879,2.076v0.024c0,1.162,0.804,2.102,1.953,2.102
			c0.705,0,1.224-0.334,1.694-0.815l0.902,0.89c-0.643,0.717-1.397,1.224-2.67,1.224C14.837,11.716,13.403,10.197,13.403,8.342"/>
		<path fill="#FFFFFF" d="M21.119,9.763V6.328h-0.828V5.042h0.828V3.25h1.495v1.792h1.755v1.286h-1.755v3.201
			c0,0.581,0.297,0.815,0.804,0.815c0.333,0,0.63-0.074,0.926-0.223v1.224c-0.37,0.21-0.79,0.334-1.347,0.334
			C21.897,11.679,21.119,11.197,21.119,9.763"/>
		<path fill="#FFFFFF" d="M25.805,9.195V5.042h1.496V8.75c0,1.014,0.506,1.595,1.396,1.595c0.865,0,1.471-0.604,1.471-1.619V5.042
			h1.495v6.526h-1.495v-1.014c-0.42,0.618-1.026,1.149-2.039,1.149C26.658,11.704,25.805,10.716,25.805,9.195"/>
		<path fill="#FFFFFF" d="M37.575,8.836c-0.383-0.148-0.915-0.26-1.496-0.26c-0.939,0-1.495,0.383-1.495,1.014v0.024
			c0,0.618,0.556,0.964,1.261,0.964c0.988,0,1.73-0.556,1.73-1.371V8.836z M37.538,11.568v-0.804
			c-0.445,0.532-1.125,0.939-2.114,0.939c-1.236,0-2.324-0.704-2.324-2.015V9.665c0-1.446,1.125-2.139,2.645-2.139
			c0.791,0,1.298,0.111,1.805,0.272V7.674c0-0.902-0.568-1.396-1.607-1.396c-0.729,0-1.273,0.161-1.866,0.408l-0.408-1.199
			c0.717-0.321,1.422-0.544,2.485-0.544c1.927,0,2.867,1.014,2.867,2.757v3.868H37.538z"/>
	</g>
	<rect x="40.89" y="2.545" fill="#FFFFFF" width="1.496" height="9.022"/>
	<path fill="#FFFFFF" d="M44.427,5.042h1.496v6.525h-1.496V5.042z M44.365,2.62h1.607v1.421h-1.607V2.62z"/>
	<g>
		<path fill="#FFFFFF" d="M48.186,9.763V6.328h-0.828V5.042h0.828V3.25h1.495v1.792h1.755v1.286H49.68v3.201
			c0,0.581,0.297,0.815,0.804,0.815c0.333,0,0.63-0.074,0.927-0.223v1.224c-0.371,0.21-0.792,0.334-1.348,0.334
			C48.963,11.679,48.186,11.197,48.186,9.763"/>
		<path fill="#FFFFFF" d="M56.396,2.187l1.359,0.605l-1.508,1.422h-1.161L56.396,2.187z M57.421,7.847
			c-0.1-0.964-0.668-1.718-1.657-1.718c-0.914,0-1.557,0.705-1.693,1.718H57.421z M52.588,8.33V8.305
			c0-1.866,1.322-3.399,3.189-3.399c2.076,0,3.126,1.632,3.126,3.511c0,0.136-0.012,0.271-0.024,0.42h-4.796
			c0.161,1.062,0.915,1.656,1.879,1.656c0.729,0,1.249-0.272,1.768-0.778l0.877,0.778c-0.618,0.741-1.471,1.224-2.67,1.224
			C54.046,11.716,52.588,10.344,52.588,8.33"/>
		<path fill="#FFFFFF" d="M59.882,10.715l0.667-1.014c0.705,0.531,1.471,0.804,2.139,0.804c0.642,0,1.013-0.272,1.013-0.705V9.776
			c0-0.507-0.692-0.68-1.458-0.916c-0.964-0.271-2.04-0.667-2.04-1.914V6.92c0-1.235,1.026-1.989,2.324-1.989
			c0.816,0,1.706,0.284,2.398,0.741l-0.592,1.063c-0.631-0.383-1.298-0.617-1.842-0.617c-0.581,0-0.915,0.271-0.915,0.654v0.025
			c0,0.47,0.705,0.667,1.471,0.914C64,8.008,65.074,8.44,65.074,9.614V9.64c0,1.371-1.063,2.052-2.422,2.052
			C61.724,11.692,60.698,11.358,59.882,10.715"/>
	</g>
	<rect x="74.524" y="1.705" fill="#FFFFFF" width="1.199" height="11.444"/>
	<g>
		<path fill="#FFFFFF" d="M92.424,7.267V7.242c0-1.681-1.224-3.077-2.941-3.077c-1.719,0-2.917,1.373-2.917,3.053v0.024
			c0,1.682,1.223,3.078,2.941,3.078S92.424,8.948,92.424,7.267 M84.971,7.267V7.242c0-2.435,1.879-4.474,4.536-4.474
			s4.511,2.015,4.511,4.449v0.024c0,2.436-1.878,4.475-4.535,4.475C86.825,11.716,84.971,9.702,84.971,7.267"/>
		<path fill="#FFFFFF" d="M100.92,8.317V8.292c0-1.261-0.853-2.089-1.866-2.089c-1.014,0-1.904,0.841-1.904,2.089v0.024
			c0,1.261,0.89,2.089,1.904,2.089C100.08,10.406,100.92,9.604,100.92,8.317 M95.692,5.042h1.496V6.13
			c0.481-0.68,1.161-1.224,2.212-1.224c1.545,0,3.04,1.224,3.04,3.387v0.024c0,2.164-1.483,3.387-3.04,3.387
			c-1.076,0-1.755-0.544-2.212-1.149v2.991h-1.496V5.042z"/>
	</g>
	<path fill="#FFFFFF" d="M104.063,5.042h1.496v6.525h-1.496V5.042z M104.001,2.62h1.607v1.421h-1.607V2.62z"/>
	<g>
		<path fill="#FFFFFF" d="M107.513,5.042h1.496v1.014c0.419-0.616,1.025-1.149,2.039-1.149c1.471,0,2.322,0.99,2.322,2.509v4.153
			h-1.494V7.86c0-1.014-0.508-1.595-1.396-1.595c-0.865,0-1.471,0.606-1.471,1.619v3.684h-1.496V5.042z"/>
	</g>
	<path fill="#FFFFFF" d="M115.265,5.042h1.496v6.525h-1.496V5.042z M115.203,2.62h1.607v1.421h-1.607V2.62z"/>
	<g>
		<path fill="#FFFFFF" d="M123.82,8.342V8.317c0-1.149-0.828-2.101-2.002-2.101c-1.199,0-1.965,0.94-1.965,2.076v0.024
			c0,1.138,0.827,2.102,1.989,2.102C123.053,10.418,123.82,9.466,123.82,8.342 M118.357,8.342V8.317c0-1.866,1.483-3.41,3.485-3.41
			s3.474,1.52,3.474,3.386v0.024c0,1.854-1.483,3.399-3.498,3.399C119.828,11.716,118.357,10.197,118.357,8.342"/>
		<path fill="#FFFFFF" d="M126.839,5.042h1.496v1.014c0.42-0.616,1.025-1.149,2.039-1.149c1.47,0,2.322,0.99,2.322,2.509v4.153
			h-1.494V7.86c0-1.014-0.508-1.595-1.397-1.595c-0.864,0-1.47,0.606-1.47,1.619v3.684h-1.496V5.042z"/>
		<path fill="#FFFFFF" d="M133.974,10.715l0.667-1.014c0.705,0.531,1.472,0.804,2.14,0.804c0.643,0,1.013-0.272,1.013-0.705V9.776
			c0-0.507-0.692-0.68-1.458-0.916c-0.965-0.271-2.04-0.667-2.04-1.914V6.92c0-1.235,1.026-1.989,2.323-1.989
			c0.816,0,1.707,0.284,2.398,0.741l-0.593,1.062c-0.631-0.383-1.298-0.617-1.842-0.617c-0.581,0-0.915,0.271-0.915,0.654v0.025
			c0,0.47,0.705,0.667,1.471,0.914c0.952,0.297,2.027,0.729,2.027,1.903V9.64c0,1.371-1.062,2.052-2.422,2.052
			C135.816,11.692,134.791,11.358,133.974,10.715"/>
	</g>
	<rect x="148.615" y="1.705" fill="#FFFFFF" width="1.199" height="11.444"/>
	<polygon fill="#FFFFFF" points="159.446,2.917 161.065,2.917 163.698,7.007 166.329,2.917 167.948,2.917 167.948,11.568 
		166.428,11.568 166.428,5.364 163.698,9.442 163.649,9.442 160.942,5.388 160.942,11.568 159.446,11.568 	"/>
	<g>
		<path fill="#FFFFFF" d="M175.11,8.342V8.317c0-1.149-0.826-2.101-2.002-2.101c-1.197,0-1.965,0.94-1.965,2.076v0.024
			c0,1.138,0.828,2.102,1.989,2.102C174.343,10.418,175.11,9.466,175.11,8.342 M169.647,8.342V8.317c0-1.866,1.483-3.41,3.485-3.41
			s3.474,1.52,3.474,3.386v0.024c0,1.854-1.482,3.399-3.498,3.399C171.118,11.716,169.647,10.197,169.647,8.342"/>
		<path fill="#FFFFFF" d="M178.129,5.042h1.496v1.014c0.42-0.616,1.025-1.149,2.039-1.149c1.47,0,2.322,0.99,2.322,2.509v4.153
			h-1.494V7.86c0-1.014-0.508-1.595-1.397-1.595c-0.864,0-1.47,0.606-1.47,1.619v3.684h-1.496V5.042z"/>
		<path fill="#FFFFFF" d="M190.739,8.317V8.292c0-1.261-0.89-2.089-1.891-2.089c-1.025,0-1.88,0.791-1.88,2.089v0.024
			c0,1.261,0.865,2.089,1.88,2.089C189.85,10.406,190.739,9.566,190.739,8.317 M185.461,8.317V8.292
			c0-2.163,1.472-3.387,3.027-3.387c1.076,0,1.756,0.544,2.227,1.149v-3.51h1.496v9.022h-1.496V10.48
			c-0.482,0.68-1.162,1.224-2.227,1.224C186.958,11.704,185.461,10.48,185.461,8.317"/>
		<path fill="#FFFFFF" d="M198.553,7.847c-0.1-0.964-0.666-1.718-1.656-1.718c-0.912,0-1.557,0.705-1.691,1.718H198.553z
			 M193.721,8.33V8.305c0-1.866,1.322-3.399,3.189-3.399c2.076,0,3.125,1.632,3.125,3.511c0,0.136-0.012,0.271-0.023,0.42h-4.795
			c0.16,1.062,0.914,1.656,1.879,1.656c0.729,0,1.248-0.272,1.768-0.778l0.877,0.778c-0.617,0.741-1.471,1.224-2.67,1.224
			C195.18,11.716,193.721,10.344,193.721,8.33"/>
	</g>
	<path fill="#FFFFFF" d="M223.612,8.113l-1.494-3.461l-1.484,3.461H223.612z M221.438,2.835h1.408l3.807,8.714h-1.605l-0.878-2.089
		h-4.093l-0.889,2.089h-1.558L221.438,2.835z"/>
	<g>
		<path fill="#FFFFFF" d="M227.967,5.023h1.496v1.472c0.406-0.978,1.16-1.646,2.311-1.595v1.582h-0.086
			c-1.311,0-2.225,0.852-2.225,2.583v2.483h-1.496V5.023z"/>
		<path fill="#FFFFFF" d="M233.383,9.745V6.309h-0.828V5.022h0.828V3.23h1.494v1.792h1.756v1.287h-1.756V9.51
			c0,0.581,0.297,0.815,0.805,0.815c0.333,0,0.631-0.074,0.928-0.224v1.225c-0.371,0.21-0.791,0.334-1.349,0.334
			C234.161,11.661,233.383,11.178,233.383,9.745"/>
		<path fill="#FFFFFF" d="M237.612,10.697l0.666-1.015c0.705,0.532,1.472,0.805,2.14,0.805c0.644,0,1.013-0.272,1.013-0.705V9.757
			c0-0.507-0.691-0.68-1.457-0.915c-0.965-0.271-2.041-0.667-2.041-1.916V6.901c0-1.234,1.026-1.988,2.324-1.988
			c0.816,0,1.706,0.284,2.398,0.741l-0.594,1.062c-0.632-0.383-1.298-0.618-1.843-0.618c-0.58,0-0.914,0.272-0.914,0.655v0.025
			c0,0.47,0.705,0.667,1.472,0.913c0.951,0.298,2.026,0.73,2.026,1.903V9.62c0,1.371-1.063,2.052-2.423,2.052
			C239.454,11.673,238.428,11.339,237.612,10.697"/>
	</g>
	<rect x="252.252" y="1.685" fill="#FFFFFF" width="1.199" height="11.445"/>
	<g>
		<path fill="#FFFFFF" d="M262.7,7.249V7.223c0-2.459,1.842-4.474,4.461-4.474c1.596,0,2.56,0.556,3.388,1.347l-0.978,1.125
			c-0.691-0.643-1.434-1.076-2.422-1.076c-1.656,0-2.854,1.36-2.854,3.053v0.025c0,1.693,1.198,3.078,2.854,3.078
			c1.062,0,1.741-0.434,2.483-1.125l0.978,0.989c-0.902,0.938-1.892,1.531-3.511,1.531C264.579,11.697,262.7,9.732,262.7,7.249"/>
	</g>
	<path fill="#FFFFFF" d="M272.122,5.022h1.496v6.526h-1.496V5.022z M272.061,2.6h1.605v1.421h-1.605V2.6z"/>
	<g>
		<path fill="#FFFFFF" d="M275.571,5.023h1.496v1.014c0.42-0.618,1.024-1.15,2.039-1.15c1.471,0,2.323,0.989,2.323,2.51v4.152
			h-1.496V7.84c0-1.013-0.507-1.594-1.396-1.594c-0.865,0-1.471,0.606-1.471,1.619v3.683h-1.496V5.023z"/>
		<path fill="#FFFFFF" d="M286.686,2.167l1.359,0.606l-1.508,1.422h-1.162L286.686,2.167z M287.711,7.829
			c-0.1-0.964-0.668-1.718-1.656-1.718c-0.914,0-1.557,0.705-1.693,1.718H287.711z M282.879,8.311V8.287
			c0-1.867,1.322-3.4,3.188-3.4c2.078,0,3.127,1.633,3.127,3.512c0,0.136-0.012,0.271-0.022,0.42h-4.795
			c0.159,1.062,0.914,1.656,1.877,1.656c0.729,0,1.25-0.272,1.769-0.778l0.877,0.778c-0.617,0.74-1.471,1.224-2.67,1.224
			C284.336,11.698,282.879,10.326,282.879,8.311"/>
		<path fill="#FFFFFF" d="M290.706,5.023h1.496v0.988c0.418-0.581,0.988-1.125,1.988-1.125c0.94,0,1.596,0.458,1.94,1.15
			c0.53-0.692,1.224-1.15,2.213-1.15c1.422,0,2.287,0.903,2.287,2.497v4.165h-1.496V7.84c0-1.038-0.481-1.594-1.323-1.594
			c-0.814,0-1.396,0.569-1.396,1.619v3.683h-1.495v-3.72c0-1.013-0.494-1.582-1.322-1.582s-1.396,0.618-1.396,1.631v3.671h-1.495
			L290.706,5.023L290.706,5.023z"/>
		<path fill="#FFFFFF" d="M306.483,8.817c-0.384-0.148-0.916-0.259-1.496-0.259c-0.938,0-1.496,0.384-1.496,1.013v0.025
			c0,0.618,0.558,0.964,1.263,0.964c0.987,0,1.729-0.556,1.729-1.371V8.817z M306.446,11.549v-0.805
			c-0.445,0.532-1.125,0.94-2.115,0.94c-1.235,0-2.323-0.704-2.323-2.015V9.646c0-1.447,1.125-2.139,2.646-2.139
			c0.791,0,1.297,0.11,1.806,0.271V7.655c0-0.901-0.568-1.396-1.606-1.396c-0.73,0-1.273,0.161-1.867,0.407l-0.406-1.198
			c0.717-0.321,1.422-0.544,2.484-0.544c1.928,0,2.867,1.014,2.867,2.757v3.868H306.446z"/>
	</g>
	<rect x="208.934" y="1.705" fill="#FFFFFF" width="1.199" height="11.444"/>
</g>
<g>
	<polygon fill="#FFFFFF" points="119.619,-14.065 117.055,-7.158 114.492,-14.065 112.11,-14.065 116.075,-4.188 117.979,-4.188 
		121.944,-14.065 	"/>
	<g>
		<path fill="#FFFFFF" d="M127.835-7.971V-8c0-1.106-0.798-2.073-1.976-2.073c-1.217,0-1.946,0.938-1.946,2.046V-8
			c0,1.106,0.798,2.073,1.976,2.073C127.108-5.926,127.835-6.864,127.835-7.971 M121.813-7.971V-8c0-2.156,1.736-3.907,4.076-3.907
			c2.324,0,4.049,1.723,4.049,3.88V-8c0,2.157-1.738,3.908-4.078,3.908C123.536-4.091,121.813-5.814,121.813-7.971"/>
		<path fill="#FFFFFF" d="M130.883-5.253l0.912-1.401c0.812,0.588,1.666,0.896,2.366,0.896c0.616,0,0.896-0.223,0.896-0.561v-0.027
			c0-0.463-0.728-0.616-1.556-0.869c-1.05-0.308-2.24-0.798-2.24-2.255v-0.028c0-1.525,1.232-2.381,2.746-2.381
			c0.951,0,1.988,0.322,2.801,0.868l-0.812,1.471c-0.742-0.434-1.484-0.7-2.031-0.7c-0.519,0-0.785,0.225-0.785,0.519v0.028
			c0,0.42,0.716,0.616,1.527,0.896c1.051,0.35,2.27,0.854,2.27,2.227v0.028c0,1.667-1.246,2.423-2.871,2.423
			C133.055-4.12,131.879-4.469,130.883-5.253"/>
		<path fill="#FFFFFF" d="M141.79-5.253l0.911-1.401c0.812,0.588,1.666,0.896,2.366,0.896c0.617,0,0.896-0.223,0.896-0.561v-0.027
			c0-0.463-0.729-0.616-1.555-0.869c-1.051-0.308-2.241-0.798-2.241-2.255v-0.028c0-1.525,1.233-2.381,2.746-2.381
			c0.952,0,1.989,0.322,2.801,0.868l-0.812,1.471c-0.743-0.434-1.485-0.7-2.031-0.7c-0.518,0-0.785,0.225-0.785,0.519v0.028
			c0,0.42,0.715,0.616,1.527,0.896c1.051,0.35,2.269,0.854,2.269,2.227v0.028c0,1.667-1.245,2.423-2.87,2.423
			C143.96-4.12,142.785-4.469,141.79-5.253"/>
		<path fill="#FFFFFF" d="M154.336-8.602c-0.125-0.952-0.687-1.597-1.582-1.597c-0.883,0-1.457,0.631-1.625,1.597H154.336z
			 M149.042-7.971V-8c0-2.143,1.527-3.907,3.713-3.907c2.507,0,3.656,1.946,3.656,4.075c0,0.168-0.015,0.364-0.029,0.561h-5.225
			c0.211,0.967,0.883,1.471,1.836,1.471c0.715,0,1.232-0.224,1.82-0.771l1.219,1.078c-0.699,0.869-1.709,1.401-3.068,1.401
			C150.709-4.091,149.042-5.674,149.042-7.971"/>
		<path fill="#FFFFFF" d="M157.624-7.971V-8c0-2.143,1.639-3.907,3.936-3.907c1.416,0,2.297,0.476,2.998,1.26l-1.303,1.401
			c-0.477-0.505-0.951-0.827-1.709-0.827c-1.064,0-1.82,0.938-1.82,2.046V-8c0,1.148,0.742,2.073,1.904,2.073
			c0.715,0,1.205-0.308,1.723-0.798l1.248,1.26c-0.729,0.799-1.569,1.373-3.068,1.373C159.276-4.091,157.624-5.828,157.624-7.971"/>
		<path fill="#FFFFFF" d="M166.333-6.388v-3.559h-0.896v-1.82h0.896v-1.919h2.129v1.919h1.765v1.82h-1.765v3.209
			c0,0.489,0.209,0.728,0.686,0.728c0.393,0,0.743-0.098,1.051-0.267v1.709c-0.447,0.267-0.967,0.435-1.681,0.435
			C167.213-4.133,166.333-4.652,166.333-6.388"/>
	</g>
	<path fill="#FFFFFF" d="M171.889-11.767h2.13v7.508h-2.13V-11.767z M171.834-14.485h2.24v1.891h-2.24V-14.485z"/>
	<g>
		<path fill="#FFFFFF" d="M181.678-7.971V-8c0-1.106-0.798-2.073-1.975-2.073c-1.219,0-1.947,0.938-1.947,2.046V-8
			c0,1.106,0.798,2.073,1.975,2.073C180.95-5.926,181.678-6.864,181.678-7.971 M175.655-7.971V-8c0-2.156,1.737-3.907,4.076-3.907
			c2.325,0,4.049,1.723,4.049,3.88V-8c0,2.157-1.737,3.908-4.076,3.908C177.378-4.091,175.655-5.814,175.655-7.971"/>
		<path fill="#FFFFFF" d="M185.315-11.767h2.129v1.065c0.49-0.632,1.121-1.206,2.199-1.206c1.611,0,2.549,1.064,2.549,2.788v4.86
			h-2.129v-4.188c0-1.009-0.476-1.526-1.287-1.526c-0.813,0-1.332,0.518-1.332,1.526v4.188h-2.129V-11.767z"/>
		<path fill="#FFFFFF" d="M193.449-5.253l0.911-1.401c0.812,0.588,1.666,0.896,2.367,0.896c0.615,0,0.896-0.223,0.896-0.561v-0.027
			c0-0.463-0.728-0.616-1.555-0.869c-1.05-0.308-2.241-0.798-2.241-2.255v-0.028c0-1.525,1.232-2.381,2.745-2.381
			c0.953,0,1.989,0.322,2.802,0.868l-0.812,1.471c-0.742-0.434-1.484-0.7-2.031-0.7c-0.518,0-0.784,0.225-0.784,0.519v0.028
			c0,0.42,0.716,0.616,1.527,0.896c1.05,0.35,2.269,0.854,2.269,2.227v0.028c0,1.667-1.246,2.423-2.871,2.423
			C195.62-4.12,194.444-4.469,193.449-5.253"/>
	</g>
</g>
</svg>
