<svg xmlns="http://www.w3.org/2000/svg" viewBox="0 0 744 23" width="744" height="23"><g fill="none" stroke="#ffffff" stroke-width="1.25" stroke-miterlimit="10"><path d="M6.592 5.335H1.911s-.696.026-.696.963v13.457s.214 2.568 2.996 2.568c0 0 2.863.268 2.863-2.568V2.179s-.16-.936 1.043-.936h20.84s.829-.054.829.963v17.255s-.187 2.869-2.996 2.869H4.362" stroke-dasharray="0,113.96570269017657" stroke-dashoffset="113.965703" stroke-linecap="round" stroke-linejoin="round"/><path d="M11.06 5.282h5.377v4.521H11.06z" stroke-dasharray="0,19.796000000000003" stroke-dashoffset="19.796"/><path d="M19.968 5.282h5.592m-5.592 4.521h5.592" stroke-dasharray="0,5.591999999999999" stroke-dashoffset="5.592" stroke-linecap="round" stroke-linejoin="round"/><path d="M11.06 14.137h14.5m-14.5 4.254h14.5" stroke-dasharray="0,14.499999999999998" stroke-dashoffset="14.5" stroke-linecap="round" stroke-linejoin="round"/></g><g fill="none" stroke="#ffffff" stroke-width="1.25" stroke-miterlimit="10"><path d="M37.592 5.335h-4.681s-.696.026-.696.963v13.457s.214 2.568 2.996 2.568c0 0 2.863.268 2.863-2.568V2.179s-.16-.936 1.043-.936h20.84s.829-.054.829.963v17.255s-.187 2.869-2.996 2.869H35.362" stroke-dasharray="0.49034135743004437,113.47536133274652" stroke-dashoffset="113.965703" stroke-linecap="round" stroke-linejoin="round"/><path d="M42.06 5.282h5.377v4.521H42.06z" stroke-dasharray="0.0921905061323982,19.703809493867602" stroke-dashoffset="19.796"/><path d="M50.968 5.282h5.592m-5.592 4.521h5.592" stroke-dasharray="0,5.591999999999999" stroke-dashoffset="5.592" stroke-linecap="round" stroke-linejoin="round"/><path d="M42.06 14.137h14.5m-14.5 4.254h14.5" stroke-dasharray="0.06238674895081829,14.43761325104918" stroke-dashoffset="14.5" stroke-linecap="round" stroke-linejoin="round"/></g><g fill="none" stroke="#ffffff" stroke-width="1.25" stroke-miterlimit="10"><path d="M68.592 5.335h-4.681s-.696.026-.696.963v13.457s.214 2.568 2.996 2.568c0 0 2.863.268 2.863-2.568V2.179s-.16-.936 1.043-.936h20.84s.829-.054.829.963v17.255s-.187 2.869-2.996 2.869H66.362" stroke-dasharray="2.161042467940534,111.80466022223604" stroke-dashoffset="113.965703" stroke-linecap="round" stroke-linejoin="round"/><path d="M73.06 5.282h5.377v4.521H73.06z" stroke-dasharray="0.36704468983148203,19.428955310168522" stroke-dashoffset="19.796"/><path d="M81.968 5.282h5.592m-5.592 4.521h5.592" stroke-dasharray="0,5.591999999999999" stroke-dashoffset="5.592" stroke-linecap="round" stroke-linejoin="round"/><path d="M73.06 14.137h14.5m-14.5 4.254h14.5" stroke-dasharray="0.2749521570566222,14.225047842943376" stroke-dashoffset="14.5" stroke-linecap="round" stroke-linejoin="round"/></g><g fill="none" stroke="#ffffff" stroke-width="1.25" stroke-miterlimit="10"><path d="M99.592 5.335h-4.681s-.696.026-.696.963v13.457s.214 2.568 2.996 2.568c0 0 2.863.268 2.863-2.568V2.179s-.16-.936 1.043-.936h20.84s.829-.054.829.963v17.255s-.187 2.869-2.996 2.869H97.362" stroke-dasharray="5.405698930480196,108.56000375969637" stroke-dashoffset="113.965703" stroke-linecap="round" stroke-linejoin="round"/><path d="M104.06 5.282h5.377v4.521h-5.377z" stroke-dasharray="0.8194425376990248,18.976557462300978" stroke-dashoffset="19.796"/><path d="M112.968 5.282h5.592m-5.592 4.521h5.592" stroke-dasharray="0,5.591999999999999" stroke-dashoffset="5.592" stroke-linecap="round" stroke-linejoin="round"/><path d="M104.06 14.137h14.5m-14.5 4.254h14.5" stroke-dasharray="0.6877738884745992,13.8122261115254" stroke-dashoffset="14.5" stroke-linecap="round" stroke-linejoin="round"/></g><g fill="none" stroke="#ffffff" stroke-width="1.25" stroke-miterlimit="10"><path d="M130.592 5.335h-4.681s-.696.026-.696.963v13.457s.214 2.568 2.996 2.568c0 0 2.863.268 2.863-2.568V2.179s-.16-.936 1.043-.936h20.84s.829-.054.829.963v17.255s-.187 2.869-2.996 2.869h-22.428" stroke-dasharray="10.766687813561427,103.19901487661515" stroke-dashoffset="113.965703" stroke-linecap="round" stroke-linejoin="round"/><path d="M135.06 5.282h5.377v4.521h-5.377z" stroke-dasharray="1.4409567337988543,18.35504326620115" stroke-dashoffset="19.796"/><path d="M143.968 5.282h5.592m-5.592 4.521h5.592" stroke-dasharray="0,5.591999999999999" stroke-dashoffset="5.592" stroke-linecap="round" stroke-linejoin="round"/><path d="M135.06 14.137h14.5m-14.5 4.254h14.5" stroke-dasharray="1.369859261264375,13.130140738735623" stroke-dashoffset="14.5" stroke-linecap="round" stroke-linejoin="round"/></g><g fill="none" stroke="#ffffff" stroke-width="1.25" stroke-miterlimit="10"><path d="M161.592 5.335h-4.681s-.696.026-.696.963v13.457s.214 2.568 2.996 2.568c0 0 2.863.268 2.863-2.568V2.179s-.16-.936 1.043-.936h20.84s.829-.054.829.963v17.255s-.187 2.869-2.996 2.869h-22.428" stroke-dasharray="18.87223158824747,95.0934711019291" stroke-dashoffset="113.965703" stroke-linecap="round" stroke-linejoin="round"/><path d="M166.06 5.282h5.377v4.521h-5.377z" stroke-dasharray="2.220009644607653,17.57599035539235" stroke-dashoffset="19.796"/><path d="M174.968 5.282h5.592m-5.592 4.521h5.592" stroke-dasharray="0,5.591999999999999" stroke-dashoffset="5.592" stroke-linecap="round" stroke-linejoin="round"/><path d="M166.06 14.137h14.5m-14.5 4.254h14.5" stroke-dasharray="2.4011378122549467,12.09886218774505" stroke-dashoffset="14.5" stroke-linecap="round" stroke-linejoin="round"/></g><g fill="none" stroke="#ffffff" stroke-width="1.25" stroke-miterlimit="10"><path d="M192.592 5.335h-4.681s-.696.026-.696.963v13.457s.214 2.568 2.996 2.568c0 0 2.863.268 2.863-2.568V2.179s-.16-.936 1.043-.936h20.84s.829-.054.829.963v17.255s-.187 2.869-2.996 2.869h-22.428" stroke-dasharray="30.007005775654864,83.95869691452171" stroke-dashoffset="113.965703" stroke-linecap="round" stroke-linejoin="round"/><path d="M197.06 5.282h5.377v4.521h-5.377z" stroke-dasharray="3.142088988421762,16.65391101157824" stroke-dashoffset="19.796"/><path d="M205.968 5.282h5.592m-5.592 4.521h5.592" stroke-dasharray="0,5.591999999999999" stroke-dashoffset="5.592" stroke-linecap="round" stroke-linejoin="round"/><path d="M197.06 14.137h14.5m-14.5 4.254h14.5" stroke-dasharray="3.817829166813883,10.682170833186117" stroke-dashoffset="14.5" stroke-linecap="round" stroke-linejoin="round"/></g><g fill="none" stroke="#ffffff" stroke-width="1.25" stroke-miterlimit="10"><path d="M223.592 5.335h-4.681s-.696.026-.696.963v13.457s.214 2.568 2.996 2.568c0 0 2.863.268 2.863-2.568V2.179s-.16-.936 1.043-.936h20.84s.829-.054.829.963v17.255s-.187 2.869-2.996 2.869h-22.428" stroke-dasharray="43.214009227967914,70.75169346220866" stroke-dashoffset="113.965703" stroke-linecap="round" stroke-linejoin="round"/><path d="M228.06 5.282h5.377v4.521h-5.377z" stroke-dasharray="4.190018171707044,15.60598182829296" stroke-dashoffset="19.796"/><path d="M236.968 5.282h5.592m-5.592 4.521h5.592" stroke-dasharray="0,5.591999999999999" stroke-dashoffset="5.592" stroke-linecap="round" stroke-linejoin="round"/><path d="M228.06 14.137h14.5m-14.5 4.254h14.5" stroke-dasharray="5.498172862663757,9.001827137336242" stroke-dashoffset="14.5" stroke-linecap="round" stroke-linejoin="round"/></g><g fill="none" stroke="#ffffff" stroke-width="1.25" stroke-miterlimit="10"><path d="M254.592 5.335h-4.681s-.696.026-.696.963v13.457s.214 2.568 2.996 2.568c0 0 2.863.268 2.863-2.568V2.179s-.16-.936 1.043-.936h20.84s.829-.054.829.963v17.255s-.187 2.869-2.996 2.869h-22.428" stroke-dasharray="56.36124502741147,57.60445766276511" stroke-dashoffset="113.965703" stroke-linecap="round" stroke-linejoin="round"/><path d="M259.06 5.282h5.377v4.521h-5.377z" stroke-dasharray="5.344276256537053,14.451723743462951" stroke-dashoffset="19.796"/><path d="M267.968 5.282h5.592m-5.592 4.521h5.592" stroke-dasharray="0,5.591999999999999" stroke-dashoffset="5.592" stroke-linecap="round" stroke-linejoin="round"/><path d="M259.06 14.137h14.5m-14.5 4.254h14.5" stroke-dasharray="7.17091224470561,7.329087755294389" stroke-dashoffset="14.5" stroke-linecap="round" stroke-linejoin="round"/></g><g fill="none" stroke="#ffffff" stroke-width="1.25" stroke-miterlimit="10"><path d="M285.592 5.335h-4.681s-.696.026-.696.963v13.457s.214 2.568 2.996 2.568c0 0 2.863.268 2.863-2.568V2.179s-.16-.936 1.043-.936h20.84s.829-.054.829.963v17.255s-.187 2.869-2.996 2.869h-22.428" stroke-dasharray="67.87040284205179,46.09529984812479" stroke-dashoffset="113.965703" stroke-linecap="round" stroke-linejoin="round"/><path d="M290.06 5.282h5.377v4.521h-5.377z" stroke-dasharray="6.583361598731578,13.212638401268425" stroke-dashoffset="19.796"/><path d="M298.968 5.282h5.592m-5.592 4.521h5.592" stroke-dasharray="0.0023445952300196237,5.589655404769979" stroke-dashoffset="5.592" stroke-linecap="round" stroke-linejoin="round"/><path d="M290.06 14.137h14.5m-14.5 4.254h14.5" stroke-dasharray="8.635236900044827,5.864763099955171" stroke-dashoffset="14.5" stroke-linecap="round" stroke-linejoin="round"/></g><g fill="none" stroke="#ffffff" stroke-width="1.25" stroke-miterlimit="10"><path d="M316.592 5.335h-4.681s-.696.026-.696.963v13.457s.214 2.568 2.996 2.568c0 0 2.863.268 2.863-2.568V2.179s-.16-.936 1.043-.936h20.84s.829-.054.829.963v17.255s-.187 2.869-2.996 2.869h-22.428" stroke-dasharray="77.37489216563641,36.59081052454016" stroke-dashoffset="113.965703" stroke-linecap="round" stroke-linejoin="round"/><path d="M321.06 5.282h5.377v4.521h-5.377z" stroke-dasharray="7.884192382805025,11.91180761719498" stroke-dashoffset="19.796"/><path d="M329.968 5.282h5.592m-5.592 4.521h5.592" stroke-dasharray="0.09935537718054091,5.492644622819458" stroke-dashoffset="5.592" stroke-linecap="round" stroke-linejoin="round"/><path d="M321.06 14.137h14.5m-14.5 4.254h14.5" stroke-dasharray="9.84450505650622,4.655494943493778" stroke-dashoffset="14.5" stroke-linecap="round" stroke-linejoin="round"/></g><g fill="none" stroke="#ffffff" stroke-width="1.25" stroke-miterlimit="10"><path d="M347.592 5.335h-4.681s-.696.026-.696.963v13.457s.214 2.568 2.996 2.568c0 0 2.863.268 2.863-2.568V2.179s-.16-.936 1.043-.936h20.84s.829-.054.829.963v17.255s-.187 2.869-2.996 2.869h-22.428" stroke-dasharray="85.09385179508219,28.871850895094376" stroke-dashoffset="113.965703" stroke-linecap="round" stroke-linejoin="round"/><path d="M352.06 5.282h5.377v4.521h-5.377z" stroke-dasharray="9.222536592516485,10.573463407483517" stroke-dashoffset="19.796"/><path d="M360.968 5.282h5.592m-5.592 4.521h5.592" stroke-dasharray="0.39818460310659687,5.1938153968934015" stroke-dashoffset="5.592" stroke-linecap="round" stroke-linejoin="round"/><path d="M352.06 14.137h14.5m-14.5 4.254h14.5" stroke-dasharray="10.826598019432437,3.6734019805675606" stroke-dashoffset="14.5" stroke-linecap="round" stroke-linejoin="round"/></g><g fill="none" stroke="#ffffff" stroke-width="1.25" stroke-miterlimit="10"><path d="M378.592 5.335h-4.681s-.696.026-.696.963v13.457s.214 2.568 2.996 2.568c0 0 2.863.268 2.863-2.568V2.179s-.16-.936 1.043-.936h20.84s.829-.054.829.963v17.255s-.187 2.869-2.996 2.869h-22.428" stroke-dasharray="91.35549803591582,22.61020465426076" stroke-dashoffset="113.965703" stroke-linecap="round" stroke-linejoin="round"/><path d="M383.06 5.282h5.377v4.521h-5.377z" stroke-dasharray="10.573463407483516,9.222536592516487" stroke-dashoffset="19.796"/><path d="M391.968 5.282h5.592m-5.592 4.521h5.592" stroke-dasharray="1.0143947005358096,4.57760529946419" stroke-dashoffset="5.592" stroke-linecap="round" stroke-linejoin="round"/><path d="M383.06 14.137h14.5m-14.5 4.254h14.5" stroke-dasharray="11.623275163072018,2.876724836927981" stroke-dashoffset="14.5" stroke-linecap="round" stroke-linejoin="round"/></g><g fill="none" stroke="#ffffff" stroke-width="1.25" stroke-miterlimit="10"><path d="M409.592 5.335h-4.681s-.696.026-.696.963v13.457s.214 2.568 2.996 2.568c0 0 2.863.268 2.863-2.568V2.179s-.16-.936 1.043-.936h20.84s.829-.054.829.963v17.255s-.187 2.869-2.996 2.869h-22.428" stroke-dasharray="96.44704065455811,17.51866203561847" stroke-dashoffset="113.965703" stroke-linecap="round" stroke-linejoin="round"/><path d="M414.06 5.282h5.377v4.521h-5.377z" stroke-dasharray="11.911807617194967,7.884192382805037" stroke-dashoffset="19.796"/><path d="M422.968 5.282h5.592m-5.592 4.521h5.592" stroke-dasharray="1.9883488924694774,3.6036511075305215" stroke-dashoffset="5.592" stroke-linecap="round" stroke-linejoin="round"/><path d="M414.06 14.137h14.5m-14.5 4.254h14.5" stroke-dasharray="12.271078548016854,2.228921451983145" stroke-dashoffset="14.5" stroke-linecap="round" stroke-linejoin="round"/></g><g fill="none" stroke="#ffffff" stroke-width="1.25" stroke-miterlimit="10"><path d="M440.592 5.335h-4.681s-.696.026-.696.963v13.457s.214 2.568 2.996 2.568c0 0 2.863.268 2.863-2.568V2.179s-.16-.936 1.043-.936h20.84s.829-.054.829.963v17.255s-.187 2.869-2.996 2.869h-22.428" stroke-dasharray="100.59256357111744,13.373139119059134" stroke-dashoffset="113.965703" stroke-linecap="round" stroke-linejoin="round"/><path d="M445.06 5.282h5.377v4.521h-5.377z" stroke-dasharray="13.212638401268421,6.583361598731581" stroke-dashoffset="19.796"/><path d="M453.968 5.282h5.592m-5.592 4.521h5.592" stroke-dasharray="3.015261677374439,2.57673832262556" stroke-dashoffset="5.592" stroke-linecap="round" stroke-linejoin="round"/><path d="M445.06 14.137h14.5m-14.5 4.254h14.5" stroke-dasharray="12.798518653866275,1.7014813461337241" stroke-dashoffset="14.5" stroke-linecap="round" stroke-linejoin="round"/></g><g fill="none" stroke="#ffffff" stroke-width="1.25" stroke-miterlimit="10"><path d="M471.592 5.335h-4.681s-.696.026-.696.963v13.457s.214 2.568 2.996 2.568c0 0 2.863.268 2.863-2.568V2.179s-.16-.936 1.043-.936h20.84s.829-.054.829.963v17.255s-.187 2.869-2.996 2.869h-22.428" stroke-dasharray="103.96249628268352,10.003206407493048" stroke-dashoffset="113.965703" stroke-linecap="round" stroke-linejoin="round"/><path d="M476.06 5.282h5.377v4.521h-5.377z" stroke-dasharray="14.451723743462948,5.3442762565370545" stroke-dashoffset="19.796"/><path d="M484.968 5.282h5.592m-5.592 4.521h5.592" stroke-dasharray="3.813741260289058,1.7782587397109406" stroke-dashoffset="5.592" stroke-linecap="round" stroke-linejoin="round"/><path d="M476.06 14.137h14.5m-14.5 4.254h14.5" stroke-dasharray="13.227279440350857,1.2727205596491413" stroke-dashoffset="14.5" stroke-linecap="round" stroke-linejoin="round"/></g><g fill="none" stroke="#ffffff" stroke-width="1.25" stroke-miterlimit="10"><path d="M502.592 5.335h-4.681s-.696.026-.696.963v13.457s.214 2.568 2.996 2.568c0 0 2.863.268 2.863-2.568V2.179s-.16-.936 1.043-.936h20.84s.829-.054.829.963v17.255s-.187 2.869-2.996 2.869h-22.428" stroke-dasharray="106.68681088532308,7.278891804853482" stroke-dashoffset="113.965703" stroke-linecap="round" stroke-linejoin="round"/><path d="M507.06 5.282h5.377v4.521h-5.377z" stroke-dasharray="15.605981828292954,4.190018171707049" stroke-dashoffset="19.796"/><path d="M515.968 5.282h5.592m-5.592 4.521h5.592" stroke-dasharray="4.385465293808289,1.2065347061917104" stroke-dashoffset="5.592" stroke-linecap="round" stroke-linejoin="round"/><path d="M507.06 14.137h14.5m-14.5 4.254h14.5" stroke-dasharray="13.573897421074971,0.9261025789250277" stroke-dashoffset="14.5" stroke-linecap="round" stroke-linejoin="round"/></g><g fill="none" stroke="#ffffff" stroke-width="1.25" stroke-miterlimit="10"><path d="M533.592 5.335h-4.681s-.696.026-.696.963v13.457s.214 2.568 2.996 2.568c0 0 2.863.268 2.863-2.568V2.179s-.16-.936 1.043-.936h20.84s.829-.054.829.963v17.255s-.187 2.869-2.996 2.869h-22.428" stroke-dasharray="108.86585175188456,5.099850938292007" stroke-dashoffset="113.965703" stroke-linecap="round" stroke-linejoin="round"/><path d="M538.06 5.282h5.377v4.521h-5.377z" stroke-dasharray="16.653911011578234,3.1420889884217695" stroke-dashoffset="19.796"/><path d="M546.968 5.282h5.592m-5.592 4.521h5.592" stroke-dasharray="4.793801255421923,0.7981987445780756" stroke-dashoffset="5.592" stroke-linecap="round" stroke-linejoin="round"/><path d="M538.06 14.137h14.5m-14.5 4.254h14.5" stroke-dasharray="13.851139537074005,0.6488604629259933" stroke-dashoffset="14.5" stroke-linecap="round" stroke-linejoin="round"/></g><g fill="none" stroke="#ffffff" stroke-width="1.25" stroke-miterlimit="10"><path d="M564.592 5.335h-4.681s-.696.026-.696.963v13.457s.214 2.568 2.996 2.568c0 0 2.863.268 2.863-2.568V2.179s-.16-.936 1.043-.936h20.84s.829-.054.829.963v17.255s-.187 2.869-2.996 2.869h-22.428" stroke-dasharray="110.57827108936857,3.387431600808002" stroke-dashoffset="113.965703" stroke-linecap="round" stroke-linejoin="round"/><path d="M569.06 5.282h5.377v4.521h-5.377z" stroke-dasharray="17.575990355392346,2.2200096446076563" stroke-dashoffset="19.796"/><path d="M577.968 5.282h5.592m-5.592 4.521h5.592" stroke-dasharray="5.086249556092911,0.5057504439070876" stroke-dashoffset="5.592" stroke-linecap="round" stroke-linejoin="round"/><path d="M569.06 14.137h14.5m-14.5 4.254h14.5" stroke-dasharray="14.069012807780897,0.43098719221910076" stroke-dashoffset="14.5" stroke-linecap="round" stroke-linejoin="round"/></g><g fill="none" stroke="#ffffff" stroke-width="1.25" stroke-miterlimit="10"><path d="M595.592 5.335h-4.681s-.696.026-.696.963v13.457s.214 2.568 2.996 2.568c0 0 2.863.268 2.863-2.568V2.179s-.16-.936 1.043-.936h20.84s.829-.054.829.963v17.255s-.187 2.869-2.996 2.869h-22.428" stroke-dasharray="111.88667306516255,2.079029625014019" stroke-dashoffset="113.965703" stroke-linecap="round" stroke-linejoin="round"/><path d="M600.06 5.282h5.377v4.521h-5.377z" stroke-dasharray="18.355043266201147,1.4409567337988562" stroke-dashoffset="19.796"/><path d="M608.968 5.282h5.592m-5.592 4.521h5.592" stroke-dasharray="5.293570998698521,0.29842900130147726" stroke-dashoffset="5.592" stroke-linecap="round" stroke-linejoin="round"/><path d="M600.06 14.137h14.5m-14.5 4.254h14.5" stroke-dasharray="14.23548244032104,0.2645175596789589" stroke-dashoffset="14.5" stroke-linecap="round" stroke-linejoin="round"/></g><g fill="none" stroke="#ffffff" stroke-width="1.25" stroke-miterlimit="10"><path d="M626.592 5.335h-4.681s-.696.026-.696.963v13.457s.214 2.568 2.996 2.568c0 0 2.863.268 2.863-2.568V2.179s-.16-.936 1.043-.936h20.84s.829-.054.829.963v17.255s-.187 2.869-2.996 2.869h-22.428" stroke-dasharray="112.8416201452154,1.124082544961167" stroke-dashoffset="113.965703" stroke-linecap="round" stroke-linejoin="round"/><path d="M631.06 5.282h5.377v4.521h-5.377z" stroke-dasharray="18.976557462300974,0.8194425376990281" stroke-dashoffset="19.796"/><path d="M639.968 5.282h5.592m-5.592 4.521h5.592" stroke-dasharray="5.435934221731133,0.1560657782688665" stroke-dashoffset="5.592" stroke-linecap="round" stroke-linejoin="round"/><path d="M631.06 14.137h14.5m-14.5 4.254h14.5" stroke-dasharray="14.356981560967974,0.14301843903202513" stroke-dashoffset="14.5" stroke-linecap="round" stroke-linejoin="round"/></g><g fill="none" stroke="#ffffff" stroke-width="1.25" stroke-miterlimit="10"><path d="M657.592 5.335h-4.681s-.696.026-.696.963v13.457s.214 2.568 2.996 2.568c0 0 2.863.268 2.863-2.568V2.179s-.16-.936 1.043-.936h20.84s.829-.054.829.963v17.255s-.187 2.869-2.996 2.869h-22.428" stroke-dasharray="113.48450198327559,0.48120070690097916" stroke-dashoffset="113.965703" stroke-linecap="round" stroke-linejoin="round"/><path d="M662.06 5.282h5.377v4.521h-5.377z" stroke-dasharray="19.428955310168522,0.36704468983148203" stroke-dashoffset="19.796"/><path d="M670.968 5.282h5.592m-5.592 4.521h5.592" stroke-dasharray="5.52707622882663,0.06492377117336882" stroke-dashoffset="5.592" stroke-linecap="round" stroke-linejoin="round"/><path d="M662.06 14.137h14.5m-14.5 4.254h14.5" stroke-dasharray="14.438776227537218,0.06122377246277993" stroke-dashoffset="14.5" stroke-linecap="round" stroke-linejoin="round"/></g><g fill="none" stroke="#ffffff" stroke-width="1.25" stroke-miterlimit="10"><path d="M688.592 5.335h-4.681s-.696.026-.696.963v13.457s.214 2.568 2.996 2.568c0 0 2.863.268 2.863-2.568V2.179s-.16-.936 1.043-.936h20.84s.829-.054.829.963v17.255s-.187 2.869-2.996 2.869h-22.428" stroke-dasharray="113.84961670159188,0.11608598858468144" stroke-dashoffset="113.965703" stroke-linecap="round" stroke-linejoin="round"/><path d="M693.06 5.282h5.377v4.521h-5.377z" stroke-dasharray="19.703809493867602,0.09219050613239929" stroke-dashoffset="19.796"/><path d="M701.968 5.282h5.592m-5.592 4.521h5.592" stroke-dasharray="5.576722830772698,0.015277169227300543" stroke-dashoffset="5.592" stroke-linecap="round" stroke-linejoin="round"/><path d="M693.06 14.137h14.5m-14.5 4.254h14.5" stroke-dasharray="14.485230233353152,0.014769766646847258" stroke-dashoffset="14.5" stroke-linecap="round" stroke-linejoin="round"/></g><g fill="none" stroke="#ffffff" stroke-width="1.25" stroke-miterlimit="10"><path d="M719.592 5.335h-4.681s-.696.026-.696.963v13.457s.214 2.568 2.996 2.568c0 0 2.863.268 2.863-2.568V2.179s-.16-.936 1.043-.936h20.84s.829-.054.829.963v17.255s-.187 2.869-2.996 2.869h-22.428" stroke-linecap="round" stroke-linejoin="round"/><path d="M724.06 5.282h5.377v4.521h-5.377z"/><path d="M732.968 5.282h5.592m-5.592 4.521h5.592M724.06 14.137h14.5m-14.5 4.254h14.5" stroke-linecap="round" stroke-linejoin="round"/></g></svg>