<?xml version="1.0" encoding="utf-8"?>
<!-- Generator: Adobe Illustrator 15.1.0, SVG Export Plug-In . SVG Version: 6.00 Build 0)  -->
<!DOCTYPE svg PUBLIC "-//W3C//DTD SVG 1.1//EN" "http://www.w3.org/Graphics/SVG/1.1/DTD/svg11.dtd">
<svg version="1.1" id="Calque_1" xmlns="http://www.w3.org/2000/svg" xmlns:xlink="http://www.w3.org/1999/xlink" x="0px" y="0px"
	 width="98.406px" height="7.324px" viewBox="0 0 98.406 7.324" enable-background="new 0 0 98.406 7.324" xml:space="preserve">
<g>
	<g>
		<path d="M2.977,2.579H1.593v-0.43h3.239v0.43H3.447v3.693H2.977V2.579z"/>
		<path d="M5.705,2.149h2.98v0.424H6.171v1.408H8.42v0.424H6.171v1.443h2.544v0.424h-3.01V2.149z M7.431,0.931l0.472,0.218
			L7.236,1.784H6.871L7.431,0.931z"/>
		<path d="M9.652,2.149h0.466v3.693h2.32v0.43H9.652V2.149z"/>
		<path d="M13.3,2.149h2.98v0.424h-2.515v1.408h2.25v0.424h-2.25v1.443h2.544v0.424H13.3V2.149z M15.025,0.931l0.472,0.218
			l-0.666,0.636h-0.365L15.025,0.931z"/>
		<path d="M17.064,4.223V4.211c0-1.166,0.872-2.132,2.085-2.132c0.748,0,1.196,0.265,1.608,0.653l-0.318,0.342
			c-0.348-0.33-0.736-0.565-1.296-0.565c-0.913,0-1.596,0.742-1.596,1.69v0.012c0,0.954,0.688,1.702,1.596,1.702
			c0.565,0,0.937-0.218,1.331-0.595l0.307,0.301c-0.43,0.436-0.901,0.724-1.649,0.724C17.942,6.343,17.064,5.406,17.064,4.223z"/>
		<path d="M21.596,2.149h0.466v1.832h2.379V2.149h0.466v4.123H24.44V4.417h-2.379v1.855h-0.466V2.149z"/>
		<path d="M27.599,2.12h0.437l1.878,4.152h-0.5l-0.483-1.09h-2.244l-0.488,1.09H25.72L27.599,2.12z M28.747,4.765l-0.937-2.103
			l-0.942,2.103H28.747z"/>
		<path d="M30.728,2.149H32.5c0.507,0,0.913,0.153,1.173,0.412c0.2,0.2,0.317,0.489,0.317,0.813v0.012
			c0,0.683-0.471,1.083-1.119,1.201l1.267,1.685h-0.571L32.371,4.67h-0.012h-1.166v1.603h-0.466V2.149z M32.459,4.252
			c0.619,0,1.061-0.317,1.061-0.848V3.393c0-0.507-0.389-0.813-1.055-0.813h-1.271v1.673H32.459z"/>
		<path d="M34.805,4.223V4.211c0-1.131,0.831-2.132,2.067-2.132c0.695,0,1.125,0.2,1.537,0.548l-0.3,0.354
			c-0.318-0.277-0.672-0.472-1.255-0.472c-0.913,0-1.566,0.771-1.566,1.69v0.012c0,0.983,0.63,1.714,1.631,1.714
			c0.472,0,0.907-0.183,1.19-0.412V4.488h-1.255V4.069h1.702v1.644c-0.383,0.342-0.96,0.63-1.655,0.63
			C35.605,6.343,34.805,5.4,34.805,4.223z"/>
		<path d="M39.606,2.149h2.98v0.424h-2.515v1.408h2.25v0.424h-2.25v1.443h2.544v0.424h-3.01V2.149z"/>
		<path d="M43.366,5.96l2.668-3.393h-2.579V2.149h3.216v0.312l-2.675,3.393h2.675v0.418h-3.305V5.96z"/>
		<path d="M49.217,4.223V4.211c0-1.131,0.831-2.132,2.067-2.132c0.695,0,1.125,0.2,1.537,0.548l-0.3,0.354
			c-0.318-0.277-0.672-0.472-1.255-0.472c-0.913,0-1.566,0.771-1.566,1.69v0.012c0,0.983,0.63,1.714,1.631,1.714
			c0.472,0,0.907-0.183,1.19-0.412V4.488h-1.255V4.069h1.702v1.644c-0.383,0.342-0.96,0.63-1.655,0.63
			C50.018,6.343,49.217,5.4,49.217,4.223z"/>
		<path d="M54.019,2.149h1.772c0.507,0,0.913,0.153,1.173,0.412c0.2,0.2,0.317,0.489,0.317,0.813v0.012
			c0,0.683-0.471,1.083-1.119,1.201l1.267,1.685h-0.571L55.662,4.67H55.65h-1.166v1.603h-0.466V2.149z M55.75,4.252
			c0.619,0,1.061-0.317,1.061-0.848V3.393c0-0.507-0.389-0.813-1.055-0.813h-1.271v1.673H55.75z"/>
		<path d="M59.804,2.12h0.437l1.878,4.152h-0.5l-0.483-1.09h-2.244l-0.488,1.09h-0.478L59.804,2.12z M60.952,4.765l-0.937-2.103
			l-0.942,2.103H60.952z"/>
		<path d="M63.499,2.579h-1.384v-0.43h3.239v0.43H63.97v3.693h-0.471V2.579z"/>
		<path d="M66.162,4.547V2.149h0.465v2.368c0,0.889,0.472,1.39,1.261,1.39c0.76,0,1.243-0.459,1.243-1.36V2.149h0.465v2.362
			c0,1.201-0.689,1.825-1.72,1.825C66.856,6.337,66.162,5.713,66.162,4.547z"/>
		<path d="M70.739,2.149h0.466v4.123h-0.466V2.149z"/>
		<path d="M73.503,2.579h-1.384v-0.43h3.239v0.43h-1.385v3.693h-0.471V2.579z"/>
		<path d="M76.231,2.149h2.98v0.424h-2.515v1.408h2.25v0.424h-2.25v1.443h2.544v0.424h-3.01V2.149z"/>
		<path d="M80.179,2.149h0.472l1.502,2.25l1.502-2.25h0.471v4.123H83.66v-3.34l-1.502,2.209h-0.024l-1.501-2.203v3.334h-0.454V2.149
			z"/>
		<path d="M85.293,2.149h2.98v0.424h-2.515v1.408h2.249v0.424h-2.249v1.443h2.544v0.424h-3.01V2.149z"/>
		<path d="M89.24,2.149h0.436l2.598,3.305V2.149h0.454v4.123h-0.371l-2.663-3.381v3.381H89.24V2.149z"/>
		<path d="M94.985,2.579h-1.384v-0.43h3.239v0.43h-1.385v3.693h-0.471V2.579z"/>
	</g>
</g>
</svg>
