<?xml version="1.0" encoding="utf-8"?>
<!-- Generator: Adobe Illustrator 15.1.0, SVG Export Plug-In . SVG Version: 6.00 Build 0)  -->
<!DOCTYPE svg PUBLIC "-//W3C//DTD SVG 1.1//EN" "http://www.w3.org/Graphics/SVG/1.1/DTD/svg11.dtd">
<svg version="1.1" id="Calque_1" xmlns="http://www.w3.org/2000/svg" xmlns:xlink="http://www.w3.org/1999/xlink" x="0px" y="0px"
	 width="228.468px" height="12.431px" viewBox="0 0 228.468 12.431" enable-background="new 0 0 228.468 12.431"
	 xml:space="preserve">
<polygon points="9.445,1.297 6.787,8.458 4.128,1.297 1.659,1.297 5.77,11.538 7.746,11.538 11.855,1.297 "/>
<g>
	<path d="M20.642,6.41V6.381c0-1.743-1.28-3.196-3.08-3.196c-1.801,0-3.051,1.425-3.051,3.167v0.029c0,1.743,1.278,3.196,3.08,3.196
		C19.392,9.577,20.642,8.153,20.642,6.41 M12.171,6.41V6.381c0-2.891,2.281-5.259,5.419-5.259s5.389,2.339,5.389,5.229v0.029
		c0,2.892-2.281,5.259-5.418,5.259C14.423,11.64,12.171,9.301,12.171,6.41"/>
	<path d="M23.92,9.983L25.241,8.4c0.915,0.755,1.874,1.234,3.036,1.234c0.915,0,1.467-0.362,1.467-0.958V8.647
		c0-0.567-0.348-0.857-2.048-1.293c-2.048-0.523-3.37-1.09-3.37-3.109V4.217c0-1.845,1.482-3.065,3.559-3.065
		c1.482,0,2.746,0.465,3.777,1.293L30.5,4.129c-0.9-0.624-1.787-1.003-2.644-1.003s-1.307,0.394-1.307,0.888v0.028
		c0,0.668,0.435,0.887,2.193,1.337c2.063,0.537,3.225,1.278,3.225,3.051v0.028c0,2.02-1.539,3.152-3.733,3.152
		C26.694,11.61,25.141,11.073,23.92,9.983"/>
</g>
<polygon points="37.643,1.297 39.706,1.297 44.47,7.558 44.47,1.297 46.678,1.297 46.678,11.465 44.775,11.465 39.85,5.001 
	39.85,11.465 37.643,11.465 "/>
<g>
	<path d="M57.003,6.41V6.381c0-1.743-1.28-3.196-3.08-3.196c-1.801,0-3.051,1.425-3.051,3.167v0.029c0,1.743,1.278,3.196,3.08,3.196
		C55.753,9.577,57.003,8.153,57.003,6.41 M48.533,6.41V6.381c0-2.891,2.281-5.259,5.419-5.259s5.389,2.339,5.389,5.229v0.029
		c0,2.892-2.281,5.259-5.418,5.259C50.785,11.64,48.533,9.301,48.533,6.41"/>
	<path d="M61.021,7.107v-5.81h2.237V7.05c0,1.655,0.828,2.513,2.194,2.513c1.365,0,2.193-0.828,2.193-2.44V1.298h2.237v5.736
		c0,3.08-1.729,4.591-4.46,4.591C62.692,11.625,61.021,10.1,61.021,7.107"/>
</g>
<polygon points="71.157,1.297 73.626,1.297 76.285,8.459 78.943,1.297 81.354,1.297 77.244,11.538 75.268,11.538 "/>
<polygon points="82.788,1.297 90.458,1.297 90.458,3.287 85.011,3.287 85.011,5.35 89.805,5.35 89.805,7.34 85.011,7.34 
	85.011,9.475 90.531,9.475 90.531,11.465 82.788,11.465 "/>
<polygon points="92.387,1.297 94.623,1.297 94.623,9.432 99.694,9.432 99.694,11.465 92.387,11.465 "/>
<polygon points="101.245,1.297 103.48,1.297 103.48,9.432 108.552,9.432 108.552,11.465 101.245,11.465 "/>
<polygon points="110.102,1.297 117.773,1.297 117.773,3.287 112.324,3.287 112.324,5.35 117.119,5.35 117.119,7.34 112.324,7.34 
	112.324,9.475 117.845,9.475 117.845,11.465 110.102,11.465 "/>
<g>
	<path d="M119.003,9.983l1.322-1.583c0.914,0.755,1.873,1.234,3.035,1.234c0.916,0,1.467-0.362,1.467-0.958V8.647
		c0-0.567-0.348-0.857-2.047-1.293c-2.047-0.523-3.371-1.09-3.371-3.109V4.217c0-1.845,1.482-3.065,3.561-3.065
		c1.48,0,2.746,0.465,3.777,1.293l-1.162,1.685c-0.9-0.624-1.787-1.003-2.645-1.003s-1.307,0.394-1.307,0.888v0.028
		c0,0.668,0.436,0.887,2.191,1.337c2.064,0.537,3.227,1.278,3.227,3.051v0.028c0,2.02-1.541,3.152-3.734,3.152
		C121.779,11.61,120.224,11.073,119.003,9.983"/>
</g>
<polygon points="135.58,1.297 143.25,1.297 143.25,3.287 137.802,3.287 137.802,5.35 142.595,5.35 142.595,7.34 137.802,7.34 
	137.802,9.475 143.322,9.475 143.322,11.465 135.58,11.465 "/>
<polygon points="145.177,1.297 147.24,1.297 152.005,7.558 152.005,1.297 154.214,1.297 154.214,11.465 152.31,11.465 
	147.386,5.001 147.386,11.465 145.177,11.465 "/>
<g>
	<path d="M159.8,6.41V6.381c0-2.891,2.18-5.259,5.303-5.259c1.918,0,3.064,0.64,4.01,1.569l-1.424,1.642
		c-0.785-0.712-1.584-1.147-2.6-1.147c-1.715,0-2.949,1.424-2.949,3.167v0.028c0,1.743,1.205,3.196,2.949,3.196
		c1.162,0,1.873-0.465,2.672-1.191l1.424,1.438c-1.045,1.118-2.207,1.814-4.17,1.814C162.023,11.639,159.8,9.33,159.8,6.41"/>
	<path d="M178.55,6.41V6.381c0-1.743-1.279-3.195-3.08-3.195s-3.051,1.424-3.051,3.167v0.028c0,1.743,1.279,3.196,3.08,3.196
		S178.55,8.153,178.55,6.41 M170.082,6.41V6.381c0-2.891,2.281-5.259,5.418-5.259c3.139,0,5.389,2.339,5.389,5.23v0.028
		c0,2.892-2.279,5.258-5.418,5.258C172.333,11.639,170.082,9.301,170.082,6.41"/>
</g>
<polygon points="182.337,1.297 184.402,1.297 189.166,7.558 189.166,1.297 191.375,1.297 191.375,11.465 189.47,11.465 
	184.546,5.001 184.546,11.465 182.337,11.465 "/>
<polygon points="196.046,3.359 192.953,3.359 192.953,1.297 201.378,1.297 201.378,3.359 198.285,3.359 198.285,11.465 
	196.046,11.465 "/>
<rect x="203.06" y="1.297" width="2.236" height="10.168"/>
<polygon points="207.691,1.297 209.753,1.297 214.519,7.558 214.519,1.297 216.728,1.297 216.728,11.465 214.824,11.465 
	209.9,5.001 209.9,11.465 207.691,11.465 "/>
<g>
	<path d="M218.873,7.107V1.297h2.238V7.05c0,1.655,0.826,2.513,2.193,2.513c1.365,0,2.193-0.828,2.193-2.44V1.297h2.236v5.737
		c0,3.08-1.729,4.59-4.461,4.59C220.542,11.624,218.873,10.101,218.873,7.107"/>
</g>
</svg>
