<?xml version="1.0" encoding="utf-8"?>
<!-- Generator: Adobe Illustrator 15.1.0, SVG Export Plug-In . SVG Version: 6.00 Build 0)  -->
<!DOCTYPE svg PUBLIC "-//W3C//DTD SVG 1.1//EN" "http://www.w3.org/Graphics/SVG/1.1/DTD/svg11.dtd">
<svg version="1.1" id="Calque_1" xmlns="http://www.w3.org/2000/svg" xmlns:xlink="http://www.w3.org/1999/xlink" x="0px" y="0px"
	 width="198.545px" height="16.271px" viewBox="0 0 198.545 16.271" enable-background="new 0 0 198.545 16.271"
	 xml:space="preserve">
<polygon fill="#FFFFFF" points="9.159,4.646 6.501,11.807 3.843,4.646 1.373,4.646 5.484,14.887 7.46,14.887 11.571,4.646 "/>
<g>
	<path fill="#FFFFFF" d="M20.356,9.759V9.729c0-1.743-1.279-3.196-3.08-3.196c-1.801,0-3.051,1.425-3.051,3.167v0.029
		c0,1.743,1.279,3.196,3.08,3.196C19.106,12.926,20.356,11.502,20.356,9.759 M11.887,9.759V9.729c0-2.891,2.281-5.259,5.418-5.259
		c3.138,0,5.39,2.339,5.39,5.229v0.029c0,2.892-2.281,5.259-5.419,5.259C14.138,14.988,11.887,12.649,11.887,9.759"/>
</g>
<polygon fill="#FFFFFF" points="26.336,6.708 23.243,6.708 23.243,4.646 31.667,4.646 31.667,6.708 28.573,6.708 28.573,14.814 
	26.336,14.814 "/>
<g>
	<path fill="#FFFFFF" d="M37.75,9.585c1.09,0,1.714-0.581,1.714-1.438V8.117c0-0.959-0.668-1.452-1.757-1.452h-2.223v2.92H37.75z
		 M33.248,4.646h4.648c1.293,0,2.295,0.363,2.964,1.031c0.566,0.566,0.871,1.366,0.871,2.324V8.03c0,1.642-0.886,2.673-2.178,3.152
		l2.484,3.631h-2.615l-2.179-3.254h-0.029h-1.729v3.254h-2.237V4.646z"/>
</g>
<polygon fill="#FFFFFF" points="43.615,4.646 51.285,4.646 51.285,6.636 45.838,6.636 45.838,8.698 50.631,8.698 50.631,10.688 
	45.838,10.688 45.838,12.823 51.358,12.823 51.358,14.813 43.615,14.813 "/>
<path fill="#FFFFFF" d="M61.332,1.275l1.903,0.828l-1.859,1.743h-1.685L61.332,1.275z M57.076,4.646h7.67v1.99h-5.447v2.062h4.793
	v1.99h-4.793v2.135h5.52v1.99h-7.743V4.646z"/>
<g>
	<path fill="#FFFFFF" d="M70.641,12.795c1.83,0,3.065-1.235,3.065-3.036V9.729c0-1.801-1.235-3.064-3.065-3.064h-1.729v6.13H70.641z
		 M66.675,4.646h3.966c3.196,0,5.404,2.193,5.404,5.055v0.029c0,2.862-2.208,5.084-5.404,5.084h-3.966V4.646z"/>
</g>
<rect x="77.986" y="4.646" fill="#FFFFFF" width="2.237" height="10.168"/>
<polygon fill="#FFFFFF" points="85.001,6.708 81.907,6.708 81.907,4.646 90.333,4.646 90.333,6.708 87.238,6.708 87.238,14.814 
	85.001,14.814 "/>
<rect x="92.014" y="4.646" fill="#FFFFFF" width="2.237" height="10.168"/>
<g>
	<path fill="#FFFFFF" d="M104.68,9.759V9.729c0-1.743-1.279-3.196-3.08-3.196s-3.05,1.425-3.05,3.167v0.029
		c0,1.743,1.279,3.196,3.08,3.196C103.431,12.926,104.68,11.502,104.68,9.759 M96.21,9.759V9.729c0-2.891,2.28-5.259,5.418-5.259
		c3.138,0,5.39,2.339,5.39,5.229v0.029c0,2.892-2.281,5.259-5.419,5.259C98.461,14.988,96.21,12.649,96.21,9.759"/>
</g>
<polygon fill="#FFFFFF" points="108.873,4.646 110.936,4.646 115.699,10.906 115.699,4.646 117.908,4.646 117.908,14.813 
	116.004,14.813 111.08,8.35 111.08,14.813 108.873,14.813 "/>
<g>
	<path fill="#FFFFFF" d="M129.19,12.81c1.83,0,3.065-1.234,3.065-3.036V9.744c0-1.801-1.235-3.065-3.065-3.065h-1.729v6.131H129.19z
		 M125.225,4.66h3.966c3.196,0,5.403,2.193,5.403,5.055v0.029c0,2.862-2.207,5.084-5.403,5.084h-3.966V4.66z"/>
	<path fill="#FFFFFF" d="M136.289,10.471V4.66h2.237v5.753c0,1.655,0.827,2.513,2.192,2.513c1.367,0,2.194-0.828,2.194-2.44V4.66
		h2.237v5.737c0,3.08-1.729,4.59-4.46,4.59S136.289,13.464,136.289,10.471"/>
</g>
<polygon fill="#FFFFFF" points="151.158,4.66 153.57,4.66 156.242,8.96 158.916,4.66 161.326,4.66 161.326,14.828 159.105,14.828 
	159.105,8.19 156.242,12.534 156.186,12.534 153.352,8.234 153.352,14.828 151.158,14.828 "/>
<path fill="#FFFFFF" d="M169.471,10.572l-1.351-3.297l-1.351,3.297H169.471z M167.118,4.588h2.063l4.357,10.24H171.2l-0.93-2.28
	h-4.3l-0.93,2.28h-2.281L167.118,4.588z"/>
<polygon fill="#FFFFFF" points="176.033,6.724 172.939,6.724 172.939,4.66 181.365,4.66 181.365,6.724 178.271,6.724 
	178.271,14.828 176.033,14.828 "/>
<rect x="183.047" y="4.66" fill="#FFFFFF" width="2.237" height="10.168"/>
<polygon fill="#FFFFFF" points="187.693,4.66 189.756,4.66 194.52,10.921 194.52,4.66 196.729,4.66 196.729,14.828 194.825,14.828 
	189.9,8.364 189.9,14.828 187.693,14.828 "/>
</svg>
